<svg xmlns="http://www.w3.org/2000/svg" viewBox="0 0 204.92 175.27"><defs><style>.cls-1{fill:#3c3884;}.cls-2{fill:#2b246d;}.cls-3{fill:#464682;}.cls-4{fill:#f5ce4e;}</style></defs><title>Asset 12</title><g id="Layer_2" data-name="Layer 2"><g id="Layer_1-2" data-name="Layer 1"><rect class="cls-1" x="99.22" y="13.58" width="7.55" height="146.59"/><rect class="cls-1" x="37.53" y="26.85" width="130.49" height="7.2"/><rect class="cls-2" x="51.48" y="171.91" width="102.3" height="3.36"/><path class="cls-3" d="M76.73,159.81h51.84a4.79,4.79,0,0,1,4.79,4.79v.81a0,0,0,0,1,0,0H71.94a0,0,0,0,1,0,0v-.81A4.79,4.79,0,0,1,76.73,159.81Z"/><path class="cls-1" d="M60.69,165.41h83.91a6.48,6.48,0,0,1,6.48,6.48v0a0,0,0,0,1,0,0H54.21a0,0,0,0,1,0,0v0A6.48,6.48,0,0,1,60.69,165.41Z"/><path class="cls-3" d="M204,114.17H130.08l37-87.23Zm-69.44-3h65L167,34.54Z"/><path class="cls-4" d="M129.86,111.4h75.06a0,0,0,0,1,0,0v0a12.71,12.71,0,0,1-12.71,12.71H142.58a12.71,12.71,0,0,1-12.71-12.71v0A0,0,0,0,1,129.86,111.4Z"/><path class="cls-3" d="M74.57,114.17H.65l37-87.23Zm-69.44-3h65L37.61,34.54Z"/><path class="cls-4" d="M0,111.4H75.06a0,0,0,0,1,0,0v0a12.71,12.71,0,0,1-12.71,12.71H12.71A12.71,12.71,0,0,1,0,111.4v0a0,0,0,0,1,0,0Z"/><circle class="cls-2" cx="102.64" cy="9.49" r="9.49"/><circle class="cls-2" cx="167.04" cy="30.45" r="6.38"/><circle class="cls-2" cx="37.53" cy="30.45" r="6.38"/><rect class="cls-3" x="94.5" y="18.99" width="16.14" height="26.33" rx="2.32"/></g></g></svg>