<svg id="Layer_1" data-name="Layer 1" xmlns="http://www.w3.org/2000/svg" xmlns:xlink="http://www.w3.org/1999/xlink" viewBox="0 0 2061 1089"><defs><style>.cls-1,.cls-27,.cls-28,.cls-30{fill:none;}.cls-2{clip-path:url(#clip-path);}.cls-3{fill:#d0aea7;}.cls-4{fill:#d9c8cd;}.cls-5{fill:#2e2c44;}.cls-6{fill:#4a4977;}.cls-7{fill:#7c92df;}.cls-8{fill:#a8ade9;}.cls-9{fill:#a3d0f2;}.cls-10{fill:#899ae8;}.cls-11{fill:#bec5f4;}.cls-12{fill:#efe7d5;}.cls-13{fill:#8c8b90;}.cls-14{fill:#676772;}.cls-15{fill:#7f6ba0;}.cls-16{fill:#a184c3;}.cls-17{fill:#635989;}.cls-18{fill:#565972;}.cls-19{fill:#7b9cff;}.cls-20{fill:#5d2e2d;}.cls-21{fill:#be7c78;}.cls-22{fill:#010101;}.cls-23{fill:#a07174;}.cls-24{fill:#432a63;}.cls-25{fill:#f5f0e8;}.cls-26,.cls-35{fill:#fff;}.cls-26,.cls-27{stroke:#bbbdbf;}.cls-26,.cls-27,.cls-28,.cls-30{stroke-miterlimit:10;}.cls-26,.cls-27,.cls-30{stroke-width:2px;}.cls-28{stroke:#fff;opacity:0.8;}.cls-29{fill:#632928;}.cls-30{stroke:#000;opacity:0.3;}.cls-31{fill:#b5bcd9;}.cls-32{fill:#e4ae8d;}.cls-33{fill:#676bae;}.cls-34{opacity:0.4;}.cls-36{fill:#ffd4c0;}.cls-37{fill:#529e97;}.cls-38{fill:#6cbab4;}</style><clipPath id="clip-path"><path class="cls-1" d="M892.83,13.61c-448.5,52.88-662.13,218.19-773,329C14.27,448.23-3.1,540.91.41,611.24,4.9,701.41,61.5,747.45,169,800c47.34,23.14,61,56.68,84.46,85,25.68,31.09,63.24,62.05,115,98.81,76,54,170.22,74.72,201.4,78.68,283.49,36,532.84,37.54,715.62,19.51,300.17-29.6,422.94-88.51,463-103,102.68-37.13,306-122,311.89-219.89,5.83-96.88-143.1-131.68-143.1-212.78,0-25.87,2.26-35.35,21-95.62,26.06-83.67-16.15-176.2-69.39-231.95C1669.42,10,1122-13.42,892.83,13.61Z"/></clipPath></defs><title>bully - school scene</title><g class="cls-2"><path class="cls-3" d="M2144.49,89.14c-6.76-4.48-40-1.51-56.67-3.3-8.73-.94-42.69-34.86-41.08-40.94,2.09-7.89,4-5.17-1.35-18.8-1-2.49-8.88-5.76-8.88-5.76s-1.37-5.67-4.36-8.24c-8.46-7.25-29,4.85-32.66,20.45-1.76,7.56,4.91,13.76,10,19.21,7,7.45,7.77,5.23,16,11.93,10.08,8.23,8.69,11.79,22.52,29.15,12.12,15.22,18.18,22.83,27.52,25.78,8.55,2.7,8.7,2,26.66,3.7,17,1.61,45.83.45,49.51-2.81C2157.87,114.06,2155.73,96.59,2144.49,89.14Z"/><rect class="cls-4" x="801.15" y="-254.64" width="1273.81" height="912.43"/><rect class="cls-5" x="980.29" y="60.4" width="846.1" height="450.11"/><rect class="cls-6" x="981.56" y="492.19" width="844.82" height="30.52"/><polygon class="cls-7" points="1134.38 1815.59 -269.25 1815.59 783.51 657.15 2187.14 657.15 1134.38 1815.59"/><polygon class="cls-8" points="801.15 657.93 -269.25 1825.04 -269.25 664.85 801.15 -502.27 801.15 657.93"/><polygon class="cls-9" points="-269.92 636.35 -269.92 1824.5 518.12 965.53 518.12 -222.62 -269.92 636.35"/><polygon class="cls-10" points="124.29 1348.85 124.29 1399.85 564.29 915.67 517.95 915.67 124.29 1348.85"/><polygon class="cls-11" points="517.95 -305.97 517.95 -305.97 517.95 915.67 564.29 915.67 564.29 -305.97 564.29 -356.97 517.95 -305.97"/><polygon class="cls-12" points="-308.4 661.9 -322.11 1843.29 518.03 915.61 518.03 664.35 -308.4 661.9"/><rect class="cls-13" x="1789.47" y="684.02" width="7.65" height="230.54" transform="translate(3586.59 1598.58) rotate(-180)"/><rect class="cls-14" x="1797.12" y="684.02" width="5.59" height="230.54" transform="translate(3599.84 1598.58) rotate(-180)"/><rect class="cls-13" x="1865.99" y="617.1" width="7.65" height="230.54" transform="translate(3739.62 1464.74) rotate(-180)"/><rect class="cls-14" x="1873.64" y="617.1" width="5.59" height="230.54" transform="translate(3752.87 1464.74) rotate(-180)"/><rect class="cls-13" x="1489.02" y="684.02" width="7.65" height="230.54" transform="translate(2985.7 1598.58) rotate(-180)"/><rect class="cls-14" x="1496.67" y="684.02" width="5.59" height="230.54" transform="translate(2998.94 1598.58) rotate(-180)"/><rect class="cls-13" x="1565.54" y="617.1" width="7.65" height="230.54" transform="translate(3138.73 1464.74) rotate(-180)"/><rect class="cls-14" x="1573.19" y="617.1" width="5.59" height="230.54" transform="translate(3151.97 1464.74) rotate(-180)"/><polygon class="cls-15" points="1896.9 603.61 1817.23 698.48 1469 698.48 1556.22 603.61 1896.9 603.61"/><rect class="cls-16" x="1469" y="698.48" width="348.23" height="13.48" transform="translate(3286.23 1410.44) rotate(-180)"/><polygon class="cls-17" points="1817.23 711.96 1896.9 617.62 1896.9 603.61 1817.23 697.94 1817.23 711.96"/><rect class="cls-13" x="1259.62" y="684.02" width="7.65" height="230.54" transform="translate(2526.9 1598.58) rotate(-180)"/><rect class="cls-14" x="1267.28" y="684.02" width="5.59" height="230.54" transform="translate(2540.14 1598.58) rotate(-180)"/><rect class="cls-13" x="1336.14" y="617.1" width="7.65" height="230.54" transform="translate(2679.93 1464.74) rotate(-180)"/><rect class="cls-14" x="1343.79" y="617.1" width="5.59" height="230.54" transform="translate(2693.17 1464.74) rotate(-180)"/><rect class="cls-13" x="959.17" y="684.02" width="7.65" height="230.54" transform="translate(1926 1598.58) rotate(-180)"/><rect class="cls-14" x="966.83" y="684.02" width="5.59" height="230.54" transform="translate(1939.24 1598.58) rotate(-180)"/><rect class="cls-13" x="1035.69" y="617.1" width="7.65" height="230.54" transform="translate(2079.03 1464.74) rotate(-180)"/><rect class="cls-14" x="1043.34" y="617.1" width="5.59" height="230.54" transform="translate(2092.28 1464.74) rotate(-180)"/><polygon class="cls-15" points="1367.06 603.61 1287.38 698.48 939.15 698.48 1026.37 603.61 1367.06 603.61"/><rect class="cls-16" x="939.15" y="698.48" width="348.23" height="13.48" transform="translate(2226.53 1410.44) rotate(-180)"/><polygon class="cls-17" points="1287.38 711.96 1367.06 617.62 1367.06 603.61 1287.38 697.94 1287.38 711.96"/><path class="cls-3" d="M1211.27,635.64s1.65,34.89,5.91,48.38l31.66-6.36c3-10.69-2.54-47.5-3.09-49.24Z"/><path class="cls-18" d="M1279.54,819.22c-1.41-11.52-4.32-20.28-8.91-27.15-3.68,2.8-6.31,7.42-10.75,8.79-25.45,7.82-24.83-7.42-47.23,18.28-.05.05-24,55.6-24,55.65A170.53,170.53,0,0,0,1177.23,905c-20.49,73.68-32,118.69-42.48,199.25-4.47,34.23-3.42,47.1-4.93,67.23-.58,7.78,6.53,13.22,14.31,1.2,25.75-39.79,47.9-73.57,60.43-97.66,22.64-43.5,33.7-65.1,57.93-127.79C1286.17,885.93,1283.09,848.33,1279.54,819.22Z"/><path class="cls-18" d="M1220.85,809.2c.35-12.72-1.35-22.62-5.13-30.68-4.36,2.57-7.91,7.25-12.84,8.16-28.32,5.23-25.22-11.27-53.16,13.79,0,0-26.26,49.11-26.31,49.15-4.9,7.28-25.12,51.17-34.75,74.33-36.22,87-38.4,101.22-54.69,173.36-8.44,37.36-12.77,44.57-12,64.92.31,8.52,4.83,15.23,15,3.15,33.75-40,46.07-63,63.25-87.57,31-44.41,46.25-66.48,82-131.54C1217.24,882.63,1220,841.33,1220.85,809.2Z"/><path class="cls-3" d="M1343.42,602.69c1.19-8,25.67-30.75,35.47-44.32,5.14-7.11,2.67-55.05-2.93-57.92-7.25-3.73-6.48-.52-13-13.59-1.2-2.39,1.66-10.45,1.66-10.45s-3.3-4.81-3.2-8.75c.27-11.14,23-18.33,37-10.58,6.8,3.75,6.94,12.86,7.57,20.3.87,10.17-1.31,9.28-1.83,19.86-.63,13,2.95,14.34,6.59,36.24,3.19,19.19,4.79,28.79.73,37.7-3.71,8.16-4.34,7.8-15.09,22.28-10.18,13.71-30.35,34.36-35.23,34.92C1353,629.31,1341.43,616,1343.42,602.69Z"/><path class="cls-3" d="M1126.85,665.24c-6.77-4.48-40-1.51-56.68-3.3-8.72-.94-42.68-34.86-41.07-40.94,2.08-7.89,4-5.17-1.36-18.8-1-2.49-8.88-5.76-8.88-5.76s-1.36-5.67-4.35-8.24c-8.46-7.25-29,4.85-32.66,20.45-1.76,7.56,4.91,13.76,10,19.21,7,7.45,7.77,5.23,16,11.93,10.08,8.23,8.68,11.79,22.51,29.15,12.13,15.22,18.19,22.83,27.53,25.78,8.54,2.7,8.69,2,26.65,3.7,17,1.61,45.84.45,49.52-2.81C1140.23,690.16,1138.09,672.69,1126.85,665.24Z"/><path class="cls-19" d="M1082.44,657.49c9.59-1.25,111.72-1.64,111.72-1.64h17.52c12.79,0,23.69-.88,36-7.19,14.75-7.53,21.33-13,21.33-13a378,378,0,0,1,37.71-31.16c18.84-13.42,27.61-21.47,27.61-21.47l44.17,54.6s-9.22,9.79-31.74,25.93c-14.11,10.12-33.3,26.84-33.3,26.84s1,30.77,1.85,59.51c.29,10,1,57.71-5.1,85.57,0,0-80.45-1-117.62-12.55-11.18-3.48-56.89-27.63-56.89-27.63,7-16.5,14-21.58,16.58-50.84,1.57-18.12-.36-35.46-.36-37.35,0,0-8.16,1.26-28.88,4.53-18.81,3-36.45,1.46-39.66,1.46Z"/><path class="cls-20" d="M1159.07,613.55c-4.76-14.67-.31-25.28-.31-25.28,4.39-10.46,12.13-10.17,17.09-21.35,2.75-6.23,5.83-10.92,3.43-25.25-3.18-19-2.31-23.63-1.45-29.33,2.49-16.36,16.46-25.27,26.94-30.38,4.33-2.11,38.51-16.55,72.16-4.27,9.21,3.36,19.1,7,25.63,16.61,3.4,5,7.69,10.58,9.5,36.07,1.45,20.54,4.79,24.87,6.16,27.62,1.07,2.13,3.59,5.86,20.89,21.74,14.24,13.07,15.79,15,18,20.41,4.95,11.82,1.24,24.46-.47,28.47Z"/><path class="cls-3" d="M1206.46,514.32c-4,9.68-7,22.09-12.46,55.23-5.3,32.24-1.07,44.89,4.66,54.87,2.67,4.65,7.31,12.47,16.5,16.14,11.5,4.59,26.2,1.08,35.14-7.17,12.76-11.77,18.69-23.91,19.73-34.08,0,0,10.74.75,17.93-6.45,5-5,9.79-12.55,8.61-21.16-.88-6.41-5-14.71-11.12-15.78-5.49-1-11.83,2.87-11.83,2.87s1.11-8,1.43-16.14Z"/><path class="cls-21" d="M1506.72,758.08s8.14,39.37,15.39,53.93l34.85-12.9c1.44-12.68-11.4-53.53-12.34-55.41Z"/><path class="cls-21" d="M1459.07,886.88c-20.43,2.83-14.64,72.28-24.17,78.53-8.86,5.81-64.26-17.32-65.5-24.82-1.59-9.72,1.81-7.65-10.78-20-2.3-2.27-12.63-2-12.63-2s-4.31-5.58-8.87-6.93c-12.91-3.81-29.6,19.69-25.89,38.67,1.8,9.21,12.21,12.74,20.54,16.23,11.37,4.76,11.15,1.92,23.51,5.24,15.17,4.09,15.39,8.7,39.21,21,20.89,10.78,31.25,14.81,43.08,14.81,10.75,0,23.38-2,31.2-10.87,13.35-15.12,21.55-84.74,20.73-90.15C1488,896.77,1475.2,884.64,1459.07,886.88Z"/><path class="cls-21" d="M1462.66,641.28c-1.19,12-.52,26.67,4.3,65,4.68,37.3,13.48,49.88,23.07,59,4.46,4.25,12.14,11.37,23.47,12.42,14.2,1.3,29.26-7.37,36.44-19.4,10.23-17.15,12.81-32.48,10.63-44,0,0,12.09-2.69,17.68-13,3.87-7.13,6.69-17,2.58-26.16-3-6.78-10.35-14.58-17.42-13.78-6.38.73-12.12,7-12.12,7s-1.38-9.17-3.69-18.28Z"/><path class="cls-22" d="M783.59,594.86h252.14a54.48,54.48,0,0,0,1.16-8.39c.14-3.35.73-17.79-8.38-28-7.06-7.87-8.39-5.59-14-11.18-8.51-8.51-2.62-16.72-8.38-28-4.9-9.55-8.37-9.25-19.57-19.57-11.43-10.53-10.72-19.23-19.57-33.54-13.16-21.3-34.51-28.53-41.92-30.75-8.24-2.46-36.77-7.09-61.5,2.8-28,11.18-39.13,27.95-44.72,55.9-.58,2.92-.43,5.56-5.59,11.18-6.94,7.57-11.82,8.6-14,14-5.59,14,2.8,19.56,0,30.75-2.07,8.27-6,7.52-11.18,16.77,0,0-9.42,9.16-5.59,25.15A13.41,13.41,0,0,0,783.59,594.86Z"/><path class="cls-23" d="M886.13,507.35c-4.56-3.68-4.55-11-13.74-13.35-11.12-2.84-16.62,5.8-19.45,10.69-5.79,10,1.49,25,10.68,31.28,5.49,3.76,13.1,3.33,15.79,4.94,1.06.63,1.5,3.43,1.69,4.7,1.42,9.63,6.14,18.37,10.82,25.41A68.76,68.76,0,0,0,912,590.87a53,53,0,0,0,18.57,7.89c5.46,1.1,11.41,2.3,18.14-.21,8.29-3.08,12.58-10,14.52-13.23,1.7-2.84,6.14-11.08,3.84-44.18-1.4-20.07-3.92-29.88-5.34-34.8-2.94-10.22-8.55-25.11-12.59-24.54-2.19.31-1.32,4.82-4.7,7.47-7.61,6-22.08-9.16-31.8-4.06-8.62,4.53-8.61,15.06-15,22.76C895.07,511,890.32,510.74,886.13,507.35Z"/><path class="cls-23" d="M905.34,579.43s-8.92,33.77-8.92,47.91l32.11,3.46c6-9.3,11.87-46,11.87-47.88Z"/><path class="cls-23" d="M699.52,750.25c-17.5,13.62-31.64,26.54-31.64,26.54s7.12,11.31,19.48,37.7c6.31,13.47,9.54,17.64,11.83,21,9.16,13.44,16.34,3.3,26,8.65,2.73,1.52,5.5,6.22,4.24,10,0,0,9.66,3.82,10.44,18.1.39,6.93-7.17,11.76-12.32,13.6-6.66,2.37-21.91,4.77-29.56-1.64-4.66-3.92-6.64-8.78-12.16-16.89S677,855.58,666.74,843c-9.25-11.35-7.8-10.25-30.31-36.19-16.48-19-17-20.6-17.51-28.12-.37-5.84.28-13.91,16.37-32.09"/><path class="cls-24" d="M825.41,833.4c-8.18-8.23-15.85-13.36-23.69-16-1.18,4.47-2.24,9-3.1,13.54-6.29,33.55-8.92,67.88-10.83,101.92a1.11,1.11,0,0,0,0,.19,170.49,170.49,0,0,0,9.55,30.84c29.06,70.73,43.29,111.2,91.5,176.59,20.63,28,24.56,32.81,38.51,45.14,5.84,5.16,15.1,6.15,12-7.83-9.74-44.41-14-59.36-22.66-89.77-13.44-47.16-21.7-76.16-41.07-140.52C856.69,884.61,846.09,854.2,825.41,833.4Z"/><path class="cls-24" d="M784,834c10.42-6.55,19.58-10,28.3-10.84.16,4.9.17,9.81,0,14.74-1.5,36.18-7,72.29-13.14,107.94,0,.06,0,.13,0,.2a181.21,181.21,0,0,1-17.24,29.59c-46.93,66.18-67.05,97.86-123.36,163.12-22.35,25.91-21.48,25.91-37.1,41.52-5.84,5.84-11.68,4.18-10.56-11,3.23-43.58,3.79-45.55,16.64-88.12,13.82-45.77,30.69-88.41,60.14-141.18C721.6,879.12,757.65,850.57,784,834Z"/><path class="cls-23" d="M1015.16,716.34c10.87,3,16.89,12.29,33.43,24.81,17.68,13.38,33.82,23.71,33.82,23.71s9.08-9.81,31.38-28.56c11.39-9.58,14.58-13.78,17.23-16.86,10.62-12.32-1-16.63,1.65-27.34.75-3,4.59-6.92,8.58-6.69,0,0,1.2-10.31,14.79-14.76,6.6-2.16,13.21,3.89,16.32,8.39,4,5.82,10.27,19.94,6.05,29-2.58,5.52-6.76,8.68-13.17,16.12s-9.09,11.51-18.63,24.72c-8.57,11.87-7.88,10.19-27.12,38.64-14.08,20.82-15.5,21.77-22.64,24.17-5.55,1.87-13.51,3.33-35.23-7.52-23.28-11.61-29.09-16.19-56.2-32-23.28-13.56-29.91-22.48-29.91-22.48C973.83,735.77,1009.5,719.22,1015.16,716.34Z"/><path class="cls-25" d="M849.49,604.81c-7.69,11-15.24,25.44-32.11,32.16-18.57,7.39-45,10-57.31,9.53,0,0-29.29,25.34-58.94,45.55-45.67,31.13-79.73,44.74-79.73,44.74l58.39,34.4c1.41,12.32-17.25,54.68-17.25,54.68s51,2.63,104.24,18.4c67.6,20,121.12,82.82,121.12,82.82S934,829.21,921.6,779.5c-1.37-5.48,23.25,41.57,23.25,41.57L1037,716.93s-81.81-95.55-97.39-101.36C902.61,601.81,868.22,604.92,849.49,604.81Z"/><path class="cls-26" d="M1037.66,817.51c.81-.38-.85-3.31,0-6.14a8.52,8.52,0,0,1,8.55-5.43c3.12.37,5.29,3,6.77,4.8.48.59.72,1.87,1.34,1.87s.77-1.14,1.87-1.87a4.16,4.16,0,0,1,2.58-.53c3.61.12,7.39,3.38,7.39,3.38a36.67,36.67,0,0,1,10.15,14.69c1.61,5,3.22,9.92.8,13.54-3.29,4.93-12.13,4.5-12,5.7.06.67,2.86.35,5.79,1.87,3.8,2,5.45,5.83,6,7,3.63,8.51-1.76,19.88-9.17,24.75-2,1.34-4,2.63-6.59,2.5-4.79-.24-7.72-5.06-10.68-3.74-.7.31-.56.58-1.78,1.69a18.25,18.25,0,0,1-6.59,3.47c-6.89,2-14.72-2.34-15.76-2.94-1.91-1.08-8.53-4.87-10.78-12.11-2.18-7,.6-14.71-.17-14.87-.35-.07-.59,1.52-2,2.41-2.1,1.36-5.18,0-5.61-.18-5.61-2.44-9.27-13.41-5.52-19.23,2.76-4.29,9.17-5.23,8.81-7.75-.13-.88-.95-1-1.6-2.31-1.22-2.53.07-5.51.53-6.59,1.48-3.41,4.25-5.12,9.8-8.55,3.81-2.36,6-3.15,8.37-3.38,1.89-.19,3.62-.37,4.81.71,1.52,1.39.73,3.57,2.85,6C1036.06,816.56,1037.12,817.77,1037.66,817.51Z"/><path class="cls-27" d="M1017.43,831.57a13.66,13.66,0,0,1,2.22-5.93c2.92-4.26,8.52-6.91,10.37-5.43,1.66,1.33-.73,5.14,1.48,7.16a4.61,4.61,0,0,0,4.45.74c1.13-.42,1-1,2.22-1.73,2.63-1.54,6-.17,6.41,0a8.51,8.51,0,0,1,3.46,2.72"/><path class="cls-27" d="M1038.29,838.7a9.65,9.65,0,0,0,3.83,5.34c4.28,2.78,9.38.49,10.68-.17,2.28-1.16,1.6-2.11,5.17-4.9,2.55-2,4.3-3.33,6.59-3.3,2.64.05,3.61,1.9,5,1.25,1.59-.75,1.6-3.85,1.6-6.32a14.74,14.74,0,0,0-1.6-7.66,13.82,13.82,0,0,0-4.27-4.72"/><path class="cls-27" d="M1046.93,847.25a9.33,9.33,0,0,1,2,6.41c-.32,3.09-2.5,5.22-4.45,7.12-1.74,1.7-3.38,1.72-3.38,2.68,0,1.24,2.48,2.3,4,2.67a8.63,8.63,0,0,0,3.48.09"/><path class="cls-27" d="M1054.94,852.06a24.43,24.43,0,0,1,7.48,2c2.64,1.16,5.11,2.25,6.68,4.89a10.05,10.05,0,0,1,1.33,5.26"/><path class="cls-27" d="M1014.87,845.56a8.66,8.66,0,0,1,5.08,1.78c.48.38,2,1.71,3.11,5.52,1.17,4.07.17,5.19.8,10.15a21.13,21.13,0,0,0,2.5,8.64,13.71,13.71,0,0,0,6.5,6.23c2.53,1.07,4.7.88,7.74.62s6-.5,8.73-2.67a11.71,11.71,0,0,0,3.38-4.45"/><path class="cls-28" d="M1122.81,824.3a394.55,394.55,0,0,1,130.77,55"/><path class="cls-28" d="M1109.85,851.09A402.88,402.88,0,0,1,1267.67,900"/><path class="cls-28" d="M1545,442.85c-30.49-19.65-61.31-33.56-107.11-50-19.89-7.14-54.23-16.22-92.86-19.67-27.13-2.43-66.36-3.12-89.16,0"/><path class="cls-28" d="M1237.44,399.94a748.27,748.27,0,0,1,99.55,1,662.6,662.6,0,0,1,88.32,12.12,616.49,616.49,0,0,1,110.53,34.19"/><path class="cls-29" d="M1446.74,611.79s-2.88,28.25,11.54,43.9c12.87,14,23.27,19.87,38.93,21.42,0,0,.16,10.31,4.75,16.68,6.06,8.41,25.72,11.5,25.72,11.5.29-4.42.09-10.52,5.17-15.17,3.39-3.11,10.14-4.85,14.18-2.8,7.31,3.72,8.87,13.87,6,20.12-3.28,7.27-13.07,11-13.07,11,.08,1.06,16.72,15.62,24.51,19.24,13.09,6.09,16.49,6.18,16.49,6.18a94.16,94.16,0,0,1-1.57-20.59c.46-11.51,4.69-18,9.8-27.32,7.45-13.57,9.36-28.84,9.25-38.5-.15-12.89-4.45-25.82-14.73-38.07-11.81-14.08-32.19-26.28-47.67-25.28-15.77,1-16.59,2.73-27.17,6.79-16.74,6.43-28.46,2.79-30.89,1.52a34.06,34.06,0,0,1-14.38-14.93s-5.13,11.36-4.62,18.2c.92,12.13,5.39,18,5.39,18a11.46,11.46,0,0,1-6.64-1.88A34.73,34.73,0,0,1,1446.74,611.79Z"/><path class="cls-30" d="M1188.76,681.38c8.81.62,16,5.76,17.93,10.33"/><path class="cls-30" d="M1189.44,687.8c7.7,4.3,10.39,8.93,11.22,13"/><path class="cls-31" d="M1431,954.73c2.81-23.52,6.39-48,10.91-73.4q3.94-22.16,8.42-43.08s38.25-9.46,46.34-17.55c3.25-3.25-2.16-17.23-.05-21.22,1.62-3.07,16.65-14.38,28.72-19.34,3.44-1.41,36.74-8.47,44.29-2.68,0,0,1.92,12.58,4.52,19.49,0,0,22.67.95,41.46,3.7,32.4,4.76,49.11,29.55,57.93,50.67,12.69,30.41,10.47,26.71,20,65.95,8.21,33.75,15.46,79.27,19.08,107.3,0,0-43.33,14.37-124.34,21.32-53.72,4.61-88.88,9.23-88.88,9.23-2.06-21.88-9-102-9-102-4.47,1.34-13.67,2.72-27.54,3.67A130.25,130.25,0,0,1,1431,954.73Z"/><path class="cls-32" d="M1833.55,534c-20.41-3-77.94,47.86-126.46,42.49-20.79-2.3-65.92-40.37-65-47.92,1.18-9.78,3.87-6.84-4.76-22.25-1.58-2.82-11.58-5.41-11.58-5.41s-2.59-6.56-6.59-9.12c-11.33-7.27-33.91,10.65-35.65,29.91-.84,9.34,8.18,15.64,15.2,21.31,9.6,7.74,10.17,4.95,21.11,11.59,13.44,8.16,12.36,12.65,31.81,31.11,17,16.18,32.22,25.15,43.83,27.39,15.75,3,30.51.33,42.12-1.86,22.07-4.15,114.32-36.89,115-42.31C1853.92,559.05,1849.66,536.32,1833.55,534Z"/><path class="cls-33" d="M1933.78,473.51c-10.36,5.69-135.5,41.86-135.5,41.86l36.07,95.21,124.06-46.09Z"/><g class="cls-34"><path class="cls-35" d="M1625.81,248c-2.41-.53-4.87-1-7.28-1.53-1.06-.23-1.52,1.06-1.06,1.76a72,72,0,0,0-1.7,16.61,1.1,1.1,0,0,0,.59,1.88l7.63,1.23a1.1,1.1,0,0,0,.35-2.17l-6.4-1.05v-.06a62.14,62.14,0,0,1,.3-7.34c1.76.53,3.52,1,5.34,1.53,1.35.41,1.76-1.82.35-2.17l-5.46-1.59a57.5,57.5,0,0,1,1.06-6.16l5.87,1.23C1626.86,250.49,1627.22,248.26,1625.81,248Z"/><path class="cls-35" d="M1642.83,252.31c-1.47.35-2.88.65-4.35,1-.52.12-.47,1,.06.88,1.47-.35,2.88-.64,4.34-1C1643.47,253.08,1643.35,252.2,1642.83,252.31Z"/><path class="cls-35" d="M1642.59,259.12a18.22,18.22,0,0,0-5.34,1c-.53.17-.23,1,.29.82a16.73,16.73,0,0,1,5.11-.94C1643.24,260,1643.18,259.12,1642.59,259.12Z"/><path class="cls-35" d="M1657.26,254.66a2.45,2.45,0,0,0-3.28.7c-.36-1.17-.94-2.17-2.12-2s-1.82,1.35-2.34,2.64c-.36-2-.65-4-.94-6a.68.68,0,0,0-1.35.12c.35,2.88.88,5.75,1.41,8.63a.65.65,0,0,0,1.29.06c.29-1,.76-3.11,1.7-3.82,1.23-.88,1.35,2.47,1.41,3.29s1.29.82,1.29.06c.23-5.23,3.87-1.7,4.16.23a.68.68,0,0,0-.47,1.06,1.41,1.41,0,0,0,.24.82.62.62,0,0,0,.82,0C1660.9,258.94,1659,255.54,1657.26,254.66Z"/><path class="cls-35" d="M1667.88,255.54c-2.17,1.17-4.51,1-5.34-1.64-.41-1.35-.35-4.17,1.71-3.82.82.12,1-1.17.23-1.29-3-.47-3.81,2.94-3.23,5.22.88,3.53,4.17,4.41,7.16,2.76C1669.12,256.36,1668.65,255.13,1667.88,255.54Z"/><path class="cls-35" d="M1677.74,247c-1.41.65-2.93,1.06-4.28,1.76-.76.41-.29,1.65.47,1.24,1.35-.71,2.87-1.12,4.28-1.77C1679,247.91,1678.51,246.62,1677.74,247Z"/><path class="cls-35" d="M1679.21,251.26a10.71,10.71,0,0,0-4.52.94c-.76.35-.29,1.58.47,1.23a10.31,10.31,0,0,1,4.17-.82C1680.21,252.61,1680.09,251.26,1679.21,251.26Z"/><path class="cls-35" d="M1691.47,239.81c-.52.06-1,.18-1.52.24a.68.68,0,0,0-.59.12c-.47.05-.88.17-1.35.23a.69.69,0,0,0-1,.18c-1.29.23-2.58.41-3.87.52a.68.68,0,0,0,.12,1.35c1.23-.11,2.46-.35,3.7-.52.29,3.63.23,7.33.64,11a.68.68,0,0,0,1.35-.12c-.47-3.7-.41-7.39-.64-11.09l.93-.18q.88,5.12,1.41,10.21c.06.83,1.41.71,1.35-.11-.35-3.47-.82-6.87-1.41-10.27l1.06-.18C1692.41,241.05,1692.3,239.7,1691.47,239.81Z"/><path class="cls-35" d="M1701.74,241.22c-1.93-.29-3.4,1.29-4.34,3.29a10.62,10.62,0,0,1,.35-1.82c.24-.82-1-1.06-1.29-.24-.7,2.23-.35,4.52-.47,6.81a11.22,11.22,0,0,0-.11,1.29c0,.77,1.23.77,1.29.06.06-.41.06-.82.11-1.23.36-2.52,1.82-7.16,4.17-6.87s1.41,7.4.82,9a.67.67,0,0,0,1.23.53,16.08,16.08,0,0,0,.65-6.51C1704.09,243.86,1703.86,241.57,1701.74,241.22Z"/><path class="cls-35" d="M1709.9,239.81a11.67,11.67,0,0,0-3.17-.23,3.82,3.82,0,0,0,.59-2.52c-.35-1.77-2.17-1-3-.24-.65.59.12,1.64.76,1.06.12-.12.82-.77,1-.71-.06,0,0,.35,0,.47a3.47,3.47,0,0,1-1.35,2.23c-.47.35-.24,1.35.47,1.18a9.85,9.85,0,0,1,4.58-.06C1710.49,241.28,1710.72,240,1709.9,239.81Z"/><path class="cls-35" d="M1728.74,149c-8.28,2.41-16.9,3.11-25.47,4-6.75.7-13.38,1.82-20.13,2.41-1.88.17-4.22.17-5.81,1.29-2,1.41-2.29,4.05-2.17,6.28.29,7.1,2.23,14.08,2.52,21.18-3.81-8-5.81-16.72-9.56-24.76-.47-1.06-2-.12-1.53.88,4.23,9.15,6.28,19.13,11.15,28a.89.89,0,0,0,1.65-.47c.35-7.51-1.71-14.73-2.35-22.18-.29-3.35-.88-7.34,3.23-8.16a68.58,68.58,0,0,1,7.68-.65c6.69-.58,13.32-1.87,20-2.58,7.16-.76,14.26-1.58,21.19-3.58A.85.85,0,1,0,1728.74,149Z"/><path class="cls-35" d="M1685.84,166.93c-.12-1.12-1.88-1.12-1.76,0a40.63,40.63,0,0,0,3,11.38c.41,1.06,2.12.59,1.71-.47A39.39,39.39,0,0,1,1685.84,166.93Z"/><path class="cls-35" d="M1694.35,171a.71.71,0,0,0,.23-.83c-.46-2.23-.35-4.57-1.81-6.45a1,1,0,0,0-1-.41c-5.81,1.88-2.76,4.75.29,7.69-.88,3.11.06,6.74,3.76,7.21a.86.86,0,0,0,1-.41c1.24-2.58-.46-4.87-2.28-6.69C1694.47,171.15,1694.41,171.09,1694.35,171Zm-3.23-3.11c-1.23-1.41-.94-2.06.53-2.65a11.72,11.72,0,0,1,1.06,4.23C1692.18,169,1691.59,168.45,1691.12,167.93Zm4.35,8.45c-1.65-.59-2.12-2.18-1.94-3.82C1694.7,173.85,1695.64,175.14,1695.47,176.38Z"/><path class="cls-35" d="M1707.5,169a.83.83,0,0,0-1.06-.59c-.59.18-1.17.47-1.17,1.12s.64,1,1.17,1.11a.86.86,0,0,0,1.06-.58.88.88,0,0,0-.06-.53A.63.63,0,0,0,1707.5,169Z"/><path class="cls-35" d="M1727,158.24c-1.88,2.7-3.76,5.4-5.4,8.22a.86.86,0,0,0-.41-.88c-2.29-1.35-4-3.52-6.69-4.23a.88.88,0,0,0-.47,1.7c2.52.65,4.11,2.76,6.22,4a.8.8,0,0,0,.94-.06,51.51,51.51,0,0,0-4.29,9c-.35,1.06,1.35,1.53,1.71.47,2.23-6.39,6-11.91,9.85-17.37C1729.21,158.18,1727.68,157.3,1727,158.24Z"/><path class="cls-35" d="M1742.06,163.23a65,65,0,0,0-9.57-.76.88.88,0,0,0,0,1.76,61.14,61.14,0,0,1,7.28.41c-2.76,2.29-5.57,4.58-8.57,6.63a.89.89,0,0,0,.47,1.64,36.94,36.94,0,0,1,9.45,1.82.88.88,0,0,0,.47-1.7,46.49,46.49,0,0,0-7.39-1.7c2.87-2.11,5.57-4.4,8.33-6.69A.88.88,0,0,0,1742.06,163.23Z"/><path class="cls-35" d="M1593.12,268c1.7,14.2,6.87,27.87,7,42.25a.88.88,0,0,0,1.76,0c-.17-14.43-5.34-28.05-7-42.25-.12-1.11-1.88-1.11-1.76,0Z"/><path class="cls-35" d="M1598.7,311.76c17-1.06,32.8-8.8,49.88-9.39,1.11-.06,1.11-1.82,0-1.76-17.08.59-32.87,8.33-49.88,9.39-1.12.06-1.12,1.82,0,1.76Z"/><path class="cls-35" d="M1601.28,303.49c4.4-.77,6.57,3.46,7.74,7,.36,1.05,2.06.58,1.71-.47-1.53-4.58-4.41-9.22-9.86-8.22-1.18.18-.71,1.88.41,1.65Z"/><path class="cls-35" d="M1603.27,311.64c12.68-9.15,23-21.07,34.22-31.8.82-.77-.42-2.06-1.24-1.24-11.15,10.68-21.3,22.48-33.86,31.57-.94.59-.06,2.12.88,1.47Z"/><path class="cls-35" d="M1631.44,280.54a9.46,9.46,0,0,1,6.87-1.58c-.18-.36-.41-.71-.59-1.06-.76,3.46-2.93,6.34-3.46,9.86-.18,1.11,1.52,1.58,1.7.47.53-3.52,2.7-6.46,3.46-9.86a.85.85,0,0,0-.58-1.06,11.22,11.22,0,0,0-8.28,1.76.86.86,0,1,0,.88,1.47Z"/><path class="cls-35" d="M1590.77,304.42c-.11-1.11-1.87-1.11-1.76,0a11.88,11.88,0,0,1,0,2.53c-5.57,0-10.74,2.46-16.25,2.87,4.57-3.4,9.33-6.45,13.55-10.33a.86.86,0,0,0-.41-1.46c-5.34-1.65-11.26-1.88-16.31-4.35,5.05-1.4,9.56-4.46,14.79-5.34a19.17,19.17,0,0,0,1.23,3.58.91.91,0,0,0,1.23.3.87.87,0,0,0,.3-1.23,14,14,0,0,1-1.06-3.29c0-.06-.06-.12-.06-.18.12-.53-.12-1.11-.82-1-6.52.76-11.86,4.93-18.25,6-.82.12-.77,1.23-.24,1.59,5.11,3.34,11.33,3.69,17.14,5.22-4.52,3.93-9.63,7.1-14.38,10.8-.64.53-.06,1.46.65,1.52,6.8.41,13-3.22,19.71-2.93a.89.89,0,0,0,.88-.88A12.44,12.44,0,0,0,1590.77,304.42Z"/><path class="cls-35" d="M1592.36,261.17a24,24,0,0,1,5.69,4c.88.71,2.11-.52,1.23-1.23a25.32,25.32,0,0,0-6-4.22c-1-.53-1.88,1-.88,1.46Z"/><path class="cls-35" d="M1599.81,257.42a15,15,0,0,0-3.17,12.62.88.88,0,0,0,1.7-.47,13.18,13.18,0,0,1,2.7-10.86c.82-.88-.47-2.11-1.23-1.29Z"/><path class="cls-35" d="M1653.27,297.68c2.64.23,5.46,1.64,7.75,2.81,1,.53,1.88-1,.88-1.52-2.64-1.29-5.69-2.82-8.69-3.06-1-.11-1,1.65.06,1.77Z"/><path class="cls-35" d="M1660.43,293.68a10.06,10.06,0,0,0-4.52,7c-.17,1.11,1.53,1.58,1.7.47a8.2,8.2,0,0,1,3.7-5.93.88.88,0,0,0-.88-1.53Z"/><path class="cls-35" d="M1694.58,300.08c-.23-1.11-1.93-.64-1.7.47.53,2.64-.41,3.58-3,3.29-2.23-.24-4.4-.88-6.69-1.12-4.64-.53-7.51,1.53-7.39,6.4,0,1.11,1.82,1.11,1.76,0-.24-7,6.69-4.29,11.09-3.64S1695.52,304.66,1694.58,300.08Z"/><path class="cls-35" d="M1701.1,302.66a8.9,8.9,0,0,1,.88-3,7.89,7.89,0,0,1,3.11,1.41c.94.7,1.76-.88.88-1.53a9.21,9.21,0,0,0-3-1.46,22.56,22.56,0,0,1,1.47-1.88c.76-.82-.47-2.06-1.24-1.23a19.45,19.45,0,0,0-2.05,2.75,4.52,4.52,0,0,0-.82-.05c-1.12-.06-1.12,1.64-.06,1.76a11.55,11.55,0,0,0-.82,3.22C1699.22,303.78,1701,303.78,1701.1,302.66Z"/><path class="cls-35" d="M1716.47,289.87a15,15,0,0,0-1.46,3.05,21.51,21.51,0,0,1-3.76-2.17c-.88-.7-1.76.82-.88,1.53a24.85,24.85,0,0,0,4.17,2.4,24.12,24.12,0,0,0-.53,6.81c.06,1.11,1.82,1.11,1.76,0a22.11,22.11,0,0,1,.41-6.22c.7-.12,1.12-1.12.41-1.53a12.21,12.21,0,0,1,1.41-2.93A.9.9,0,0,0,1716.47,289.87Z"/><path class="cls-35" d="M1712.31,332.36c-5.52,2.23-11,4.4-16.43,6.86a19.67,19.67,0,0,1-1.35-5,.87.87,0,0,0-1.06-.59,69.74,69.74,0,0,0-7.51,2.29c-1.06.41-.59,2.11.47,1.7a65,65,0,0,1,6.63-2.05,17.45,17.45,0,0,0,1.35,4.46,110.94,110.94,0,0,0-11,6c-.93.59,0,2.11.89,1.53a97.23,97.23,0,0,1,11.2-6.05c.06.06.18.12.24.18.7.47,1.35-.24,1.29-.94,5.22-2.41,10.5-4.52,15.84-6.63C1713.83,333.59,1713.36,331.89,1712.31,332.36Z"/><path class="cls-35" d="M1545.12,240.75c-.18-.76-1.35-.47-1.18.35.36,1.88-.29,2.53-2.11,2.35-1.58-.17-3.11-.64-4.69-.82-3.29-.35-5.34,1.06-5.23,4.52,0,.82,1.29.82,1.24,0-.18-4.93,4.75-3.05,7.86-2.58C1543.94,245,1545.76,243.92,1545.12,240.75Z"/><path class="cls-35" d="M1549.69,242.57a6.35,6.35,0,0,1,.59-2.11,5.12,5.12,0,0,1,2.17,1c.65.47,1.29-.59.65-1.06a6.21,6.21,0,0,0-2.17-1,7.07,7.07,0,0,1,1-1.29c.53-.59-.35-1.47-.88-.88a9.49,9.49,0,0,0-1.46,1.94c-.18,0-.41-.06-.59-.06-.76-.06-.82,1.17-.06,1.23a7.5,7.5,0,0,0-.59,2.29C1548.4,243.33,1549.64,243.33,1549.69,242.57Z"/><path class="cls-35" d="M1560.55,233.53a13,13,0,0,0-1.06,2.18,24.77,24.77,0,0,1-2.69-1.53c-.65-.47-1.24.59-.65,1.06a19,19,0,0,0,2.93,1.7,16.63,16.63,0,0,0-.35,4.81c.06.82,1.29.82,1.23,0a18.63,18.63,0,0,1,.3-4.4.64.64,0,0,0,.29-1.12,12.19,12.19,0,0,1,1-2.11C1562.08,233.48,1561,232.89,1560.55,233.53Z"/><path class="cls-35" d="M1557.62,263.52c-3.88,1.59-7.81,3.11-11.62,4.87a12.69,12.69,0,0,1-.94-3.58.57.57,0,0,0-.76-.41c-1.82.47-3.58,1-5.34,1.59-.77.29-.42,1.46.35,1.17a42.48,42.48,0,0,1,4.69-1.47,12,12,0,0,0,.94,3.11,74.25,74.25,0,0,0-7.74,4.23.61.61,0,1,0,.64,1.05,73.23,73.23,0,0,1,7.92-4.28c.06.06.12.12.18.12.47.35.94-.18.88-.65,3.7-1.7,7.45-3.17,11.21-4.69C1558.67,264.4,1558.38,263.23,1557.62,263.52Z"/><path class="cls-35" d="M1622.11,229.43c-1.94-1.12-2.46-4.46-4-6.17a.89.89,0,0,0-1.41.18c-.29.65-.64,1.29-1,1.94a10.49,10.49,0,0,0-1.7-3.7.9.9,0,0,0-1.23-.29,5.91,5.91,0,0,0-2.41,3.4,32,32,0,0,1-.23-4c-.06-1.12-1.82-1.12-1.76,0a32.79,32.79,0,0,0,1.82,10.91c.35.89,1.76.83,1.7-.23-.06-2.58-.76-6,1.17-8a10.25,10.25,0,0,1,1.29,4.81.87.87,0,0,0,1.71.24,20.1,20.1,0,0,1,1.46-2.94c1.12,1.88,1.59,4.29,3.58,5.4C1622.23,231.48,1623.11,230,1622.11,229.43Z"/><path class="cls-35" d="M1633.38,229c-1.94,2-3.64-.36-4.23-2.29-.7-2.29-.41-5.28,2.47-5.58,1.11-.11,1.11-1.87,0-1.76-4.17.41-5.28,4.52-4.11,8.1,1.06,3.17,4.22,5.81,7,2.82C1635.37,229.37,1634.14,228.14,1633.38,229Z"/><path class="cls-35" d="M1639.83,216.05c-.88.94-2,1.7-2.81.23a5.19,5.19,0,0,1-.47-3.4c.06-.41-.12-1-.59-1.06a7.09,7.09,0,0,0-4.11.59c-1,.47-.12,2,.88,1.52a5.31,5.31,0,0,1,2.06-.47,5.85,5.85,0,0,0,1.58,4.76c1.64,1.41,3.52.47,4.81-.88C1641.83,216.46,1640.6,215.22,1639.83,216.05Z"/><path class="cls-35" d="M1652.92,220a10.42,10.42,0,0,1-6,1.64.88.88,0,0,0,0,1.76,12.56,12.56,0,0,0,6.93-1.88C1654.74,221,1653.86,219.45,1652.92,220Z"/><path class="cls-35" d="M1652.51,225.2a14.93,14.93,0,0,1-5,1.12c-1.11.05-1.11,1.82,0,1.76a16,16,0,0,0,5.52-1.24C1654,226.49,1653.56,224.79,1652.51,225.2Z"/><path class="cls-35" d="M1666.83,224.85c-1.12,1.17-2.7,2.23-4.35,1.41a5.67,5.67,0,0,1-2.58-3.52c-1-3.11-.11-6.64,3.76-5.81,1.11.23,1.58-1.47.47-1.71-2.17-.46-4.52-.11-5.69,1.94a7.73,7.73,0,0,0-.24,6.05,7.58,7.58,0,0,0,3.7,4.75c2.29,1.06,4.52-.18,6.16-1.82C1668.88,225.32,1667.59,224,1666.83,224.85Z"/><path class="cls-35" d="M1682.38,221.15c-.82-2.76-1.59-5.51-2.23-8.33.94-.29.47-1.82-.59-1.64-3.34.47-6.75,1.17-9.62,3-.94.64-.06,2.17.88,1.52a14.09,14.09,0,0,1,2.76-1.35c-.94,3.7,2,7.46,1.76,11.21-.06,1.12,1.7,1.12,1.76,0a15.35,15.35,0,0,0-.88-5.34c-.53-1.7-1.47-3.75-.94-5.57a.68.68,0,0,0-.18-.77c1.06-.29,2.17-.52,3.23-.7.65,2.87,1.47,5.69,2.29,8.51C1681,222.68,1682.67,222.21,1682.38,221.15Z"/><path class="cls-35" d="M1539.6,302.31c.76-.23,1-1.52.06-1.7-12-2.17-21.6-12.56-30.81-19.78-11.27-8.86-22.36-18.25-34.15-26.46-.94-.65-1.82.88-.88,1.52.06.06.11.12.17.12a64.73,64.73,0,0,1,1.88,10c-1,0-1,1.64.12,1.76h.12c.93,9.5.29,19.19-.12,28.75-.94.06-1.23,1.47-.24,1.7.06,0,.12.06.18.06-.12,2.82-.18,5.69-.24,8.51a.89.89,0,0,0,1.77,0v-.29c1.64,0,3.22,0,4.87-.06.11.41.29.76.41,1.17.41,1.06,2.11.59,1.7-.47-.12-.23-.18-.47-.29-.7,9-.18,18-.53,27-1.17,4-.3,8-.77,12-1a3.51,3.51,0,0,0,.06.76c.12,1.12,1.88,1.12,1.76,0,0-.29-.06-.53-.06-.82.88-.06,1.7-.06,2.58-.06,3.76,0,7.87.82,11.5-.59A1,1,0,0,0,1539.6,302.31Zm-57.45-40.26c-1,1.94-2.41,3.47-4.46,3.88a78.22,78.22,0,0,0-1.47-8.34C1478.28,259.06,1480.21,260.53,1482.15,262.05Zm-4.64,42.67c0-1.94.06-3.82.18-5.75,2.11,1.17,3.17,3.4,4,5.69C1480.33,304.72,1478.92,304.72,1477.51,304.72Zm32.57-1.12c-8.8.53-17.66.94-26.46,1.06-1.24-3.17-2.64-6.28-5.81-7.63.41-9.8,1-19.66.11-29.34a8.18,8.18,0,0,0,5.7-4.52c3.11,2.46,6.16,4.93,9.27,7.45,5.46,4.46,11.21,8.57,16.67,13s11,9.57,17.13,13.5a8.92,8.92,0,0,0-3.29,5.45C1518.94,302.78,1514.48,303.31,1510.08,303.6Zm16.73-1.23c-.53,0-1.12.06-1.64.06a6.91,6.91,0,0,1,2.93-4.29.05.05,0,0,0,.06-.05,33.3,33.3,0,0,0,9.68,4C1534.38,303.13,1530.39,302.31,1526.81,302.37Z"/><path class="cls-35" d="M1469.88,251.9c.24.76.42,1.53.59,2.29a.88.88,0,0,0,1.7-.47c-.17-.59-.29-1.23-.47-1.82h.24a.88.88,0,0,0,0-1.76h-.71a80.47,80.47,0,0,0-2.69-8,.9.9,0,0,0-1.71,0,34.75,34.75,0,0,0-2.17,10.33.72.72,0,0,0-.06.35,1.27,1.27,0,0,1-.06.47c0,1.12,1.71,1.12,1.77,0,0-.47,0-1,.11-1.47h.18C1467.71,251.9,1468.83,251.9,1469.88,251.9Zm-2.17-6.92c.59,1.7,1.18,3.4,1.71,5.16h-2.7A30.14,30.14,0,0,1,1467.71,245Z"/><path class="cls-35" d="M1474.4,312.11a2.57,2.57,0,0,0,.18-3.34c-1.23-1.53-3.52-1.47-5.22-1.06a.86.86,0,0,0-.41,1.41.68.68,0,0,0-.24.59,11.22,11.22,0,0,0,2.52,7,.59.59,0,0,0-.17.64c.41,3.17,3.64,1.76,4.93.06a3.62,3.62,0,0,0,.76-3.4A3.29,3.29,0,0,0,1474.4,312.11Zm.36,4c-.18.3-1.82,2-1.94,1.23a1.14,1.14,0,0,0-.29-.58.89.89,0,0,0,0-1.23,10,10,0,0,1-2.11-5.81.87.87,0,0,0-.12-.42,3.56,3.56,0,0,1,2.47.24c1.17.82,0,1.88-.76,2.52s-.06,1.41.64,1.53C1474.29,313.75,1475.87,314.4,1474.76,316.1Z"/><path class="cls-35" d="M1543.3,311.23c-1.59.35-3.82.29-4-1.76a3.63,3.63,0,0,1,2.76-3.58c1-.35.64-2.05-.47-1.7a5.41,5.41,0,0,0-4,5.75c.53,3.05,3.64,3.58,6.22,3A.88.88,0,0,0,1543.3,311.23Z"/><path class="cls-35" d="M1476.28,335.88c0-1.7.06-3.35.06-5.05a.88.88,0,0,0-1.7-.29h-8a.88.88,0,0,0,0,1.76h.29v7.33a.88.88,0,0,0,1.76,0V332.3h5.81c-.18,2.93-.53,6.45.76,9,.53,1,2.06.11,1.53-.88C1476.11,339.05,1476.28,337.29,1476.28,335.88Z"/><path class="cls-35" d="M1488.37,337.58a14.4,14.4,0,0,0-6.1,1.53c1-2.76,2.17-5.29,1.58-8.4a.84.84,0,0,0-.59-.58c-2.58-.59-4.22.41-5.1,2.87-.41,1.06,1.29,1.53,1.7.47.47-1.29,1.17-1.88,2.41-1.76.35,3.17-1.47,5.81-2.23,8.8a.9.9,0,0,0,1.29,1c2.29-1.11,4.52-2.17,7.1-2.17C1489.49,339.34,1489.49,337.58,1488.37,337.58Z"/><path class="cls-35" d="M1494.41,335.7a8.46,8.46,0,0,1,2-2.34c.88-.65,0-2.18-.88-1.53a9.79,9.79,0,0,0-2.52,2.87,7.43,7.43,0,0,0-4.11-1.23.88.88,0,0,0,0,1.76,5.8,5.8,0,0,1,3.28,1c-.58,1.17-1.11,2.41-1.7,3.58-.53,1,1,1.88,1.53.88s1-2.23,1.52-3.4c.83.76,1.59,1.58,2.35,2.4s2.06-.41,1.23-1.23A19.57,19.57,0,0,0,1494.41,335.7Z"/><path class="cls-35" d="M1510.67,331.71a21.26,21.26,0,0,0-6.1.65c-1.12.23-.65,1.93.47,1.7a22.55,22.55,0,0,1,5.63-.53A.91.91,0,0,0,1510.67,331.71Z"/><path class="cls-35" d="M1509.85,334.12a10,10,0,0,1-5,.53c-1.11-.12-1.11,1.64,0,1.76a11,11,0,0,0,5.52-.65C1511.37,335.35,1510.9,333.65,1509.85,334.12Z"/><path class="cls-35" d="M1521.29,323.85a3.19,3.19,0,0,1,2.94-1.23c1.64.41.29,2-.36,2.75-.47.53-.17,1.59.65,1.53,2-.12,4.58,1.06,3.7,3.46a2.12,2.12,0,0,1-2.06,1.35,3.44,3.44,0,0,1-.82-.12,2.24,2.24,0,0,0-.47-.11c.06-.06.12-.12.12-.18.47-1-1.06-1.94-1.53-.88.12-.29-.35.06-.52.29a1.35,1.35,0,0,0-.24,1.06c.18,1.12,1.53,1.41,2.47,1.59a4,4,0,0,0,4.34-1.77,4.27,4.27,0,0,0-.06-4.34,4.72,4.72,0,0,0-3.29-2.11c.77-1.29,1.06-2.88-.47-3.87-1.82-1.18-4.28-.18-5.63,1.29C1519.3,323.44,1520.53,324.67,1521.29,323.85Z"/><path class="cls-35" d="M1531.09,326.9a8,8,0,0,1,2-.53,14.34,14.34,0,0,0,1.29,4.11,3.51,3.51,0,0,0,2.29,2.17c1.35.24,2.29-1,2.93-2a.88.88,0,0,0-1.52-.88c-.36.58-.77,1.4-1.47.93s-1-1.81-1.23-2.58a13.88,13.88,0,0,1-.41-1.82c.35,0,.64.06,1,.06,1.12.12,1.12-1.64,0-1.76-.41-.06-.82-.06-1.17-.12a7.28,7.28,0,0,1,.29-2.28c.35-1.06-1.35-1.53-1.7-.47a7.61,7.61,0,0,0-.35,2.87,11,11,0,0,0-2.76.71C1529.16,325.84,1530,327.37,1531.09,326.9Z"/><path class="cls-35" d="M1545.29,327.84a22.77,22.77,0,0,0-2.52,3.75c-.53,1,1,1.88,1.53.88a22.92,22.92,0,0,1,2.28-3.4,8.86,8.86,0,0,0,3.17,2.06c1.12.35,1.53-1.35.47-1.71a6.94,6.94,0,0,1-2.52-1.7c.59-.7,1.17-1.41,1.76-2.05.7-.88-.53-2.12-1.23-1.23l-1.76,2.11c-.94-.88-1.88-1.82-2.88-2.7-.82-.76-2.11.47-1.23,1.23S1544.3,326.9,1545.29,327.84Z"/><path class="cls-35" d="M1575,335.29c-7.69,2.94-17,1.18-24.94.71-10.57-.59-21.19-.18-31.75-.18a.88.88,0,0,0,0,1.76c10.8,0,21.77-.47,32.57.18,7.92.47,17,2.11,24.59-.83C1576.51,336.58,1576,334.88,1575,335.29Z"/><path class="cls-35" d="M1523.87,342.57a36.69,36.69,0,0,1-.52,8c-.24,1.11,1.46,1.58,1.7.47a37.41,37.41,0,0,0,.64-8.45C1525.58,341.45,1523.82,341.45,1523.87,342.57Z"/><path class="cls-35" d="M1533.09,344a15.79,15.79,0,0,1,2.23-2.59c.82-.76-.41-2-1.24-1.23a20.3,20.3,0,0,0-2,2.29c-.23-.29-.47-.65-.7-.94-.71-.88-2.23,0-1.53.88.41.53.76,1.06,1.17,1.64a31.78,31.78,0,0,0-2.4,5.34c-.35,1.06,1.35,1.53,1.7.47a24.1,24.1,0,0,1,1.82-4.16,20.91,20.91,0,0,0,3.17,3.93c.82.76,2-.47,1.23-1.23A27.34,27.34,0,0,1,1533.09,344Z"/><path class="cls-35" d="M1550,346.38h-9.39a.88.88,0,0,0,0,1.76H1550A.88.88,0,0,0,1550,346.38Z"/><path class="cls-35" d="M1559.14,342.33a6.91,6.91,0,0,0-3.46,2.35,28.26,28.26,0,0,1-2-3.17c-.53-1-2.06-.12-1.53.88a32.67,32.67,0,0,0,2.46,3.82c-1.23,2.05-2,4.57-3,6.45-.53,1,1,1.88,1.53.88.88-1.58,1.58-3.87,2.64-5.81.64.88,2.11,0,1.47-.94-.18-.23-.3-.47-.47-.7a5.34,5.34,0,0,1,2.87-2.11A.86.86,0,1,0,1559.14,342.33Z"/></g><path class="cls-36" d="M374.91,650.84c-.38-5.11-28.53-2.53-74.85,9.46q-5.74,1.49-11.41,3.37l59.14.18C363.94,657.47,375.11,653.49,374.91,650.84Z"/><polygon class="cls-36" points="347.79 663.85 288.65 663.67 288.65 663.67 347.79 663.85 347.79 663.85"/><path class="cls-36" d="M456.23,826.54c-56.25-47-157.65-25.4-196.31-57.38-11.45-9.46-12.77-33.7,1.72-52.25,24.39-31.24,55.62-41,86.15-53.06l-59.14-.18c-42,13.85-64.31,27.56-79.76,46.45-17.55,21.45-37.06,59.65-2.07,90.68,41.68,37,130.75,14.39,151.54,74.41,27,78.08-228.74,214.77-157.08,277.26,15.19,13.25,72.67,4.27,125-25.19h0l164.1-181.19C502.49,899.48,486.12,851.5,456.23,826.54Z"/><path class="cls-37" d="M507.37,401.48S489.18,390.39,469.94,388c-5.25-.66-27.16-.81-39.51,13.12-9.31,10.51-12.69,26-12.69,26a86.66,86.66,0,0,0-32.21-8.86c-18.95-1.49-36.95,7.82-36.95,7.82s-19.87-22.91-42.69-28.56c-26.27-6.51-57.16,2.33-72.62,25-19.83,29.13-23.65,63.62-23.65,63.62s-16.52-5.19-34.26-.22c-20.64,5.78-28.82,36.66-29.29,45.43,0,0-2.36,24.09,5.63,42,17.46,39.14,190.58,51.75,366.09,46.26v-225A43.81,43.81,0,0,0,507.37,401.48Z"/><path class="cls-38" d="M500.59,459.19c-13.15,7.23-14.64,23-14.64,23S461.64,457,432.12,445.34c-21.76-8.58-58.73-9.8-84.83,8.11-31,21.26-42.83,51.19-42.83,51.19-5.5-3-8.69-4.79-14.78-2.93-9.14,2.8-12.35,12.44-12.35,12.44s-12.3-12.88-31.07-15.42c-19.28-2.6-42.71,4.92-54.53,28.65-6.11,12.25-3.23,31-3.23,31s-31.75,3.76-44.3,17.52c-10.5,11.5-14,30.16-6.68,45.15,8.17,16.69,31.87,32,50,39a100.85,100.85,0,0,0,16.28,4.35H518V456.86A25.67,25.67,0,0,0,500.59,459.19Z"/></g><path class="cls-1" d="M956.87,16.07c-448.5,52.88-662.13,218.18-773,329C78.31,450.69,60.94,543.36,64.45,613.7,68.94,703.87,125.54,749.91,233,802.47c47.34,23.15,61,56.68,84.46,85,25.68,31.08,63.24,62,115,98.81,76,54,170.23,74.72,201.4,78.67,283.49,36,532.84,37.55,715.62,19.52,300.17-29.6,422.94-88.51,463-103,102.68-37.14,306-122,311.89-219.89,5.83-96.89-143.1-131.69-143.1-212.78,0-25.88,2.26-35.35,21-95.62,26.06-83.67-16.15-176.2-69.39-231.95C1733.46,12.4,1186.08-11,956.87,16.07Z"/></svg>