<svg xmlns="http://www.w3.org/2000/svg" viewBox="0 0 467.36 217.3"><defs><style>.cls-1{fill:#c8eafc;}.cls-2{fill:#092333;}.cls-3{fill:#493b4e;}.cls-4{fill:#392a3a;}.cls-18,.cls-5{fill:#023955;}.cls-6{fill:#fefefe;}.cls-7{fill:#08293d;}.cls-8{fill:#aae1f2;}.cls-9{fill:#f9feff;}.cls-10{fill:#a8001b;}.cls-11{fill:#553d5b;}.cls-12{fill:#332839;}.cls-13{fill:#a50519;}.cls-14{fill:#f30029;}.cls-15{fill:#f8bd00;}.cls-16{fill:#6f4f7e;}.cls-17{fill:#ddc4e2;}.cls-18{font-size:19.02px;font-family:HelveticaNeue-BoldItalic, Helvetica Neue;font-weight:700;font-style:italic;}.cls-19{fill:#062338;}.cls-20{fill:#a40519;}.cls-21{fill:#f60026;}.cls-22{fill:#a4dfef;}.cls-23{fill:#fffefa;}</style></defs><title>Asset 4</title><g id="Layer_2" data-name="Layer 2"><g id="Layer_1-2" data-name="Layer 1"><polygon class="cls-1" points="137.84 25.34 67.22 122.44 151.2 118.72 192.06 22.11 137.84 25.34"/><path class="cls-2" d="M5,137.33c2.28.29,79-5.51,79-5.51l34.92-11.7-51.58,2.12Z"/><path class="cls-3" d="M291,195.71a32.79,32.79,0,0,0,17.9-18.21l-1.22.11C303.78,186.3,297.55,192.78,291,195.71Z"/><path class="cls-3" d="M277.78,196.39c-5.75-2.31-9.42-8.08-10.6-15.32l-8.16.69a24.76,24.76,0,0,0,13.64,14.1,23.6,23.6,0,0,0,11.16,1.58A14.87,14.87,0,0,1,277.78,196.39Z"/><path class="cls-4" d="M291,195.71a26.86,26.86,0,0,1-7.15,1.73A19.15,19.15,0,0,0,291,195.71Z"/><path class="cls-4" d="M307.65,177.61l-40.47,3.46c1.18,7.24,4.85,13,10.6,15.32a14.87,14.87,0,0,0,6,1.05,26.86,26.86,0,0,0,7.15-1.73C297.55,192.78,303.78,186.3,307.65,177.61Z"/><path class="cls-3" d="M64.79,215.46a32.8,32.8,0,0,0,17.9-18.2l-1.22.1C77.61,206.05,71.37,212.53,64.79,215.46Z"/><path class="cls-3" d="M51.6,216.14c-5.75-2.31-9.61-10.74-10.78-18l-7.26-.46a20.06,20.06,0,0,0,12.92,17.92,23.6,23.6,0,0,0,11.16,1.58A14.87,14.87,0,0,1,51.6,216.14Z"/><path class="cls-4" d="M64.79,215.46a26.48,26.48,0,0,1-7.15,1.73A19,19,0,0,0,64.79,215.46Z"/><path class="cls-4" d="M81.47,197.36l-40.69.27c0-.15-.15,14,10.82,18.51a14.54,14.54,0,0,0,6,1.05,26.48,26.48,0,0,0,7.15-1.73C71.37,212.53,77.61,206.05,81.47,197.36Z"/><path class="cls-5" d="M339.63,174.88l24-2v0Z"/><path class="cls-5" d="M130.05,168.26c4.39-10.92,13.5-18.28,23.22-20l-2.07-29.55h0L84,131.82l-.37,64.66,45.95-3.88A33.15,33.15,0,0,1,130.05,168.26Z"/><path class="cls-5" d="M401.75,134.13a23.85,23.85,0,0,1,2.6,1.24,14.22,14.22,0,0,1,2,.63c6.9,2.79,10.82,10.54,11,19.87a33.74,33.74,0,0,1-.87,12.53l10.63-.9-.72-10.24,34.16-2.39.23-9.17L442,147l-1.51-21.68,20.83-1.46.18-7.37-88.15-15.6L376,138.58C383.51,132.68,393.14,130.66,401.75,134.13Z"/><polygon class="cls-5" points="63.97 198.14 63.97 198.14 63.97 198.14 63.97 198.14"/><path class="cls-6" d="M308.87,177.5l30.76-2.62-30.74,2.59Z"/><path class="cls-6" d="M179.58,188.38c0,.06-.05.12-.07.17L259,181.76a.59.59,0,0,1,0-.08Z"/><polygon class="cls-6" points="193.68 21.82 325.92 12.57 192.54 21.9 192.54 21.9 193.68 21.82 193.68 21.82"/><path class="cls-6" d="M307.67,177.58l0,0,1.22-.11,0,0Z"/><path class="cls-6" d="M267.17,181l-8.19.69a.59.59,0,0,0,0,.08l8.16-.69Z"/><path class="cls-6" d="M267.18,181.07l40.47-3.46,0,0L267.17,181Z"/><path class="cls-6" d="M151.2,118.72l2.07,29.55a23.83,23.83,0,0,1,13.12,1.31,24.86,24.86,0,0,1,2.6,1.24,15.74,15.74,0,0,1,2,.64c6.91,2.78,10.82,10.53,11,19.87a34.34,34.34,0,0,1-2.33,16.91l-.06.14,79.4-6.7a33.18,33.18,0,0,1,.43-24.47c6.38-15.83,22.65-24.19,36.35-18.67a21.26,21.26,0,0,1,2.59,1.24,14.22,14.22,0,0,1,2,.63c6.91,2.78,10.83,10.54,11,19.87A34.22,34.22,0,0,1,309,177.19l-.12.28,30.74-2.59,24-2a33.85,33.85,0,0,1,1.78-20A34.28,34.28,0,0,1,376,138.58l-2.64-37.68L325.92,12.57,193.68,21.82Zm116.64-67.1h0L268.56,23l51.49-3.6,12.38,27.73.45,0,24.3,55.48-90.78,6.35Zm6.39,62.19c4.87-.34,8.94,1.2,9.09,3.45s-3.65,4.34-8.52,4.68-8.93-1.21-9.09-3.45S269.37,114.15,274.23,113.81Zm-102.4,15.33c-4.87.34-8.94-1.21-9.09-3.45s3.66-4.34,8.52-4.68,8.93,1.2,9.09,3.45S176.69,128.8,171.83,129.14Zm86.44-19.66-96.2,6.72,25.83-59,12.92-29.49,58.26-4.08Z"/><path class="cls-6" d="M269.84,160.66c5.85-14.51,18.24-23.39,28.51-20.88a21.26,21.26,0,0,0-2.59-1.24c-13.7-5.52-30,2.84-36.35,18.67a33.18,33.18,0,0,0-.43,24.47l8.19-.69A38.93,38.93,0,0,1,269.84,160.66Z"/><path class="cls-6" d="M308.27,176.14c-.19.49-.39,1-.6,1.44l1.22-.11.12-.28a34.22,34.22,0,0,0,2.32-16.91A40.49,40.49,0,0,1,308.27,176.14Z"/><path class="cls-6" d="M311.33,160.28c-.17-9.33-4.09-17.09-11-19.87a14.22,14.22,0,0,0-2-.63C305.66,143.82,310.27,151.51,311.33,160.28Z"/><path class="cls-6" d="M269.84,160.66A38.93,38.93,0,0,0,267.17,181l40.5-3.41c.21-.48.41-1,.6-1.44a40.49,40.49,0,0,0,3.06-15.86c-1.06-8.77-5.67-16.46-13-20.5C288.08,137.27,275.69,146.15,269.84,160.66Z"/><polygon class="cls-1" points="192.54 21.9 137.82 25.73 192.54 21.9 192.54 21.9"/><polygon class="cls-1" points="140.04 30.61 184.02 27.53 147.06 111.81 84.08 116.21 84.05 121.58 151.2 118.72 151.2 118.72 151.04 116.44 192.54 21.9 137.82 25.73 84.17 99.72 84.09 112.93 140.04 30.61"/><polygon class="cls-1" points="193.68 21.82 193.68 21.82 192.54 21.9 192.54 21.9 193.68 21.82"/><polygon class="cls-1" points="192.54 21.9 151.04 116.44 151.2 118.72 193.68 21.82 192.54 21.9"/><polygon class="cls-2" points="83.99 131.82 151.2 118.72 84.05 121.58 83.99 131.82"/><polygon class="cls-7" points="63.97 198.14 63.97 198.14 63.97 198.14 63.97 198.14"/><polygon class="cls-8" points="27.88 200.66 20.11 201.21 20.11 201.21 27.88 200.66 27.88 200.66"/><polygon class="cls-9" points="64.55 186.64 64.31 186.66 64.31 186.66 64.55 186.64 64.55 186.64"/><polygon class="cls-9" points="64.55 186.64 64.83 186.62 64.83 186.62 64.55 186.64 64.55 186.64"/><polygon class="cls-9" points="427.08 167.5 427.16 168.66 467.36 165.85 466.56 154.45 460.52 154.87 460.27 164.7 427.08 167.5"/><polygon class="cls-9" points="427.08 167.5 460.27 164.7 460.52 154.87 426.36 157.26 427.08 167.5"/><polygon class="cls-10" points="67.92 146.31 67.92 146.31 67.84 146.32 67.84 146.32 67.92 146.31"/><polygon class="cls-11" points="184.02 27.53 140.04 30.61 81.86 116.39 81.86 116.39 184.02 27.53"/><polygon class="cls-12" points="184.02 27.53 84.09 114.35 81.86 116.39 147.06 111.81 184.02 27.53"/><path class="cls-13" d="M261.71,0,215,3.29a8.64,8.64,0,0,0,1.2,17.23l46.77-3.27A8.64,8.64,0,0,0,261.71,0ZM263,16l-12.63.88a7.23,7.23,0,0,1-7.72-6.72l0-.32a7.24,7.24,0,0,1,6.72-7.73L262,1.24A7.23,7.23,0,0,1,269.68,8l0,.32A7.24,7.24,0,0,1,263,16Z"/><rect class="cls-14" x="242.59" y="1.66" width="27.14" height="14.8" rx="7.24" transform="translate(-0.01 17.89) rotate(-4)"/><polygon class="cls-11" points="187.9 57.21 258.36 52.29 258.27 109.48 259.08 23.64 200.82 27.72 187.9 57.21"/><polygon class="cls-12" points="187.9 57.21 162.07 116.2 258.27 109.48 258.36 52.29 187.9 57.21"/><polygon class="cls-11" points="320.05 19.38 268.56 22.98 267.84 51.62 332.43 47.11 320.05 19.38"/><polygon class="cls-12" points="332.88 47.08 332.43 47.11 357.18 102.56 332.88 47.08"/><polygon class="cls-12" points="267.84 51.62 266.4 108.91 267.84 51.62 267.84 51.62"/><polygon class="cls-12" points="332.43 47.11 267.84 51.62 266.4 108.91 357.18 102.56 332.43 47.11"/><path class="cls-5" d="M171.26,121c-4.86.34-8.68,2.43-8.52,4.68s4.22,3.79,9.09,3.45,8.68-2.44,8.52-4.68S176.12,120.67,171.26,121Z"/><path class="cls-5" d="M274.8,121.94c4.87-.34,8.68-2.44,8.52-4.68s-4.22-3.79-9.09-3.45-8.68,2.43-8.52,4.68S269.94,122.28,274.8,121.94Z"/><polygon class="cls-15" points="463.66 145.49 462.14 123.81 461.3 123.87 460.75 145.69 463.66 145.49"/><polygon class="cls-15" points="441.98 147.01 460.75 145.69 461.3 123.87 440.47 125.33 441.98 147.01"/><path class="cls-4" d="M148.42,207.44c-5.81-2.34-9.5-8.19-10.63-15.53l-8.22.69a24.8,24.8,0,0,0,13.73,14.31,23.56,23.56,0,0,0,11.15,1.58A14.82,14.82,0,0,1,148.42,207.44Z"/><path class="cls-4" d="M161.6,206.76a32.84,32.84,0,0,0,17.91-18.21l-1.22.11C174.42,197.35,168.19,203.83,161.6,206.76Z"/><path class="cls-4" d="M140.47,171.71a38.3,38.3,0,0,1,13.23-17.26l-.43-6.18c-9.72,1.71-18.83,9.07-23.22,20a33.15,33.15,0,0,0-.48,24.34l8.22-.69A38.94,38.94,0,0,1,140.47,171.71Z"/><path class="cls-4" d="M178.36,188.49s-.05.11-.07.17l1.22-.11c0-.05.05-.11.07-.17Z"/><path class="cls-4" d="M169,150.82a24.86,24.86,0,0,0-2.6-1.24,23.83,23.83,0,0,0-13.12-1.31l.43,6.18C158.65,151,164.06,149.62,169,150.82Z"/><path class="cls-4" d="M178.91,187.19c-.18.44-.36.87-.55,1.3l1.22-.11.06-.14A34.34,34.34,0,0,0,182,171.33,40.85,40.85,0,0,1,178.91,187.19Z"/><path class="cls-3" d="M161.6,206.76a26.77,26.77,0,0,1-7.15,1.73A19.3,19.3,0,0,0,161.6,206.76Z"/><path class="cls-3" d="M182,171.33c-.18-9.34-4.09-17.09-11-19.87a15.74,15.74,0,0,0-2-.64C176.3,154.87,180.91,162.56,182,171.33Z"/><path class="cls-3" d="M178.29,188.66l-8.38.71c-4.64,7.2-11.85,10.95-17.68,8.6a11.18,11.18,0,0,1-6.11-6.76l-8.33.7c1.13,7.34,4.82,13.19,10.63,15.53a14.82,14.82,0,0,0,6,1.05,26.77,26.77,0,0,0,7.15-1.73C168.19,203.83,174.42,197.35,178.29,188.66Z"/><path class="cls-3" d="M147,174.33A26,26,0,0,1,154.36,164l-.66-9.5a38.3,38.3,0,0,0-13.23,17.26,38.94,38.94,0,0,0-2.68,20.2l8.33-.7C144.38,186.58,144.53,180.4,147,174.33Z"/><path class="cls-3" d="M169.91,189.37l8.38-.71c0-.06.05-.12.07-.17l-8.33.7Z"/><path class="cls-3" d="M153.7,154.45l.66,9.5c4-3.34,8.75-4.65,12.79-3,7,2.83,9.38,13.41,5.26,23.64a28.69,28.69,0,0,1-2.38,4.62l8.33-.7c.19-.43.37-.86.55-1.3A40.85,40.85,0,0,0,182,171.33c-1.06-8.77-5.67-16.46-13-20.51C164.06,149.62,158.65,151,153.7,154.45Z"/><path class="cls-16" d="M156.21,190.36l-10.09.85a11.18,11.18,0,0,0,6.11,6.76c5.83,2.35,13-1.4,17.68-8.6l-13.69,1.17Z"/><path class="cls-16" d="M156.07,188.29c-3.32-1.39-4.43-6.42-2.47-11.29a13.94,13.94,0,0,1,1.48-2.73L154.36,164A26,26,0,0,0,147,174.33c-2.45,6.07-2.6,12.25-.86,16.88l10.09-.85Z"/><path class="cls-16" d="M156.21,190.36v.18l13.69-1.17.12-.18Z"/><path class="cls-16" d="M163.26,170.58c3.37,1.36,4.49,6.43,2.52,11.32s-6.3,7.77-9.66,6.42l-.05,0,.14,2.07L170,189.19a28.69,28.69,0,0,0,2.38-4.62c4.12-10.23,1.77-20.81-5.26-23.64-4-1.63-8.74-.32-12.79,3l.72,10.32C157.31,171.11,160.59,169.5,163.26,170.58Z"/><path class="cls-17" d="M153.6,177c-2,4.87-.85,9.9,2.47,11.29l-1-14A13.94,13.94,0,0,0,153.6,177Z"/><path class="cls-17" d="M165.78,181.9c2-4.89.85-10-2.52-11.32-2.67-1.08-5.95.53-8.18,3.69l1,14,.05,0C159.48,189.67,163.81,186.8,165.78,181.9Z"/><path class="cls-4" d="M414.27,171.74c-3.8,9.42-10.36,16.47-17.31,19.56a32.86,32.86,0,0,0,18-18.52,35.07,35.07,0,0,0,1.45-4.38l-1,.08C415.09,169.57,414.7,170.65,414.27,171.74Z"/><path class="cls-4" d="M383.77,192c-6.91-2.79-10.83-10.56-11-19.91l-9.15.77c1.9,8.41,7.19,15.44,15,18.6A23.6,23.6,0,0,0,389.81,193,14.86,14.86,0,0,1,383.77,192Z"/><path class="cls-4" d="M404.35,135.37a23.85,23.85,0,0,0-2.6-1.24c-8.61-3.47-18.24-1.45-25.78,4.45l1,15C383.23,140.67,394.72,133,404.35,135.37Z"/><path class="cls-4" d="M417.32,155.87a39.55,39.55,0,0,1-1.89,12.61l1-.08A33.74,33.74,0,0,0,417.32,155.87Z"/><path class="cls-4" d="M372.77,172.05l-9.15.78v0l9.15-.77Z"/><path class="cls-4" d="M375.83,156.25c.37-.91.77-1.8,1.19-2.67l-1-15A34.28,34.28,0,0,0,365.4,152.8a33.85,33.85,0,0,0-1.78,20l9.15-.78A40.94,40.94,0,0,1,375.83,156.25Z"/><path class="cls-3" d="M397,191.3a26,26,0,0,1-7.15,1.73A18.92,18.92,0,0,0,397,191.3Z"/><path class="cls-3" d="M417.32,155.87c-.17-9.33-4.09-17.08-11-19.87a14.22,14.22,0,0,0-2-.63C411.65,139.42,416.27,147.1,417.32,155.87Z"/><path class="cls-3" d="M414.27,171.74c.43-1.09.82-2.17,1.16-3.26l-7.67.65c-4.13,10.22-13.15,16.21-20.17,13.38-4-1.63-6.54-5.84-7.13-11.08l-7.69.65c.17,9.35,4.09,17.12,11,19.91a14.86,14.86,0,0,0,6,1A26,26,0,0,0,397,191.3C403.91,188.21,410.47,181.16,414.27,171.74Z"/><path class="cls-3" d="M377,153.58l1.25,18-5.5.47v0l7.69-.65a26.13,26.13,0,0,1,1.87-12.56c4.12-10.23,13.16-16.22,20.18-13.4s9.37,13.42,5.25,23.65h0l7.67-.65a39.55,39.55,0,0,0,1.89-12.61c-1.05-8.77-5.67-16.45-13-20.5C394.72,133,383.23,140.67,377,153.58Z"/><path class="cls-3" d="M377,153.58c-.42.87-.82,1.76-1.19,2.67a40.94,40.94,0,0,0-3.06,15.8l5.5-.47Z"/><path class="cls-16" d="M391.48,172.86a5,5,0,0,1-2.42-2.15l-8.6.72c.59,5.24,3.08,9.45,7.13,11.08,7,2.83,16-3.16,20.17-13.38l-8.62.73C396.94,172.56,394,173.86,391.48,172.86Z"/><path class="cls-16" d="M402.51,145.47c-7-2.82-16.06,3.17-20.18,13.4a26.13,26.13,0,0,0-1.87,12.56l8.6-.72c-1.34-2.27-1.47-5.76-.1-9.17,2-4.9,6.3-7.77,9.66-6.41s4.49,6.42,2.52,11.32a13.26,13.26,0,0,1-2,3.41l8.62-.73h0C411.88,158.89,409.53,148.3,402.51,145.47Z"/><path class="cls-17" d="M391.48,172.86c2.47,1,5.46-.3,7.66-3l-10.08.85A5,5,0,0,0,391.48,172.86Z"/><path class="cls-17" d="M401.14,166.45c2-4.9.84-10-2.52-11.32s-7.69,1.51-9.66,6.41c-1.37,3.41-1.24,6.9.1,9.17l10.08-.85A13.26,13.26,0,0,0,401.14,166.45Z"/><text class="cls-18" transform="matrix(1, -0.07, 0.07, 1, 273.06, 142.33)">POLICE</text><polygon class="cls-19" points="5.38 137.56 6.29 200.57 83.65 196.35 83.99 131.82 5.38 137.56"/><polygon class="cls-20" points="1.22 147.84 0 164.73 17.43 165.02 17.97 146.97 1.22 147.84"/><polygon class="cls-20" points="67.73 143.41 66.51 160.31 83.95 160.98 83.75 142.45 67.73 143.41"/><polygon class="cls-21" points="83.82 142.44 96.63 141.62 98.37 159.76 83.95 160.98 83.82 142.44"/><polygon class="cls-22" points="3.59 190.36 3.95 201.01 84.16 196.93 83.28 184.4 3.59 190.36"/><polygon class="cls-23" points="83.09 184.58 84.1 196.96 97.12 195.74 96.55 183.48 83.09 184.58"/></g></g></svg>