<svg xmlns="http://www.w3.org/2000/svg" viewBox="0 0 94.61 296.56"><defs><style>.cls-1{fill:#9999d1;}.cls-2{fill:#fff;}.cls-3,.cls-4{fill:none;stroke:#c1ced3;stroke-miterlimit:10;}.cls-3{stroke-width:4px;}.cls-4{stroke-width:5px;}.cls-5{fill:#ffd58a;}.cls-6{fill:#feb300;}.cls-7{fill:#f2ae00;}.cls-8{fill:#fec350;}.cls-9{fill:#db8200;}</style></defs><title>Asset 11</title><g id="Layer_2" data-name="Layer 2"><g id="Layer_1-2" data-name="Layer 1"><polygon class="cls-1" points="0 101.95 0 296.56 94.61 194.61 94.61 0 0 101.95"/><polygon class="cls-2" points="4.37 105.23 4.37 283.87 90.24 191.33 90.24 12.7 4.37 105.23"/><line class="cls-3" x1="19.48" y1="128.03" x2="75.13" y2="67.03"/><line class="cls-4" x1="34.43" y1="97.97" x2="60.17" y2="69.75"/><line class="cls-3" x1="19.48" y1="140.23" x2="75.13" y2="79.23"/><line class="cls-3" x1="19.48" y1="152.43" x2="75.13" y2="91.43"/><polygon class="cls-5" points="49.33 174.45 55.71 168.94 47.55 182.34 49.33 174.45"/><polygon class="cls-6" points="47.55 182.34 53.29 193.87 47.82 189.95 47.55 182.34"/><polygon class="cls-5" points="47.55 182.34 50.85 181.89 53.29 193.87 47.55 182.34"/><polygon class="cls-5" points="47.55 182.34 47.82 189.95 42.94 202.87 47.55 182.34"/><polygon class="cls-6" points="47.55 182.34 42.94 202.87 44.42 187.49 47.55 182.34"/><polygon class="cls-5" points="46.86 162.52 47.55 182.34 45.35 177.91 46.86 162.52"/><polygon class="cls-6" points="45.35 177.91 47.55 182.34 38.97 183.49 45.35 177.91"/><path class="cls-7" d="M58.05,174c.41,4.54.91,12.1-.63,18.7-1.31,5.63-3.47,9.76-6.63,15.18a20.5,20.5,0,0,0-2.18,4.31s-.31-.5-2.38-.35c-3.34.24-5.65,0-7.26-3.1-1.9-3.61-1.94-11.57-1.86-16.54.14-8.83.93-14.78.41-19.8a11.79,11.79,0,0,0-1.17-4.27c.21-1.15.54-2.46.63-2.74a8.7,8.7,0,0,0,2.64-1.67,14.66,14.66,0,0,0,2.66-3.13,73.88,73.88,0,0,0,4.25-7.65A10.06,10.06,0,0,0,51,153a6.49,6.49,0,0,0,2.72-1.55,18.06,18.06,0,0,0,2.6-2.88,6.89,6.89,0,0,1,.77,1.53,33.34,33.34,0,0,0-.81,6C56.18,161.63,57.32,165.9,58.05,174Zm-9.8,28.27c4.89-4.25,8.54-16.61,8.16-27.62s-4.66-16.48-9.55-12.23S38.32,179,38.7,190s4.66,16.49,9.55,12.23"/><path class="cls-8" d="M59.18,165.51a100.18,100.18,0,0,1,1.28,17.22,50.39,50.39,0,0,1-3,16.87c-1.27,3.38-2.71,6.12-5.88,11.83a17.74,17.74,0,0,0-2,4.17,6.76,6.76,0,0,1-.65,1.39l-.14.17a.34.34,0,0,1-.15.07.73.73,0,0,1-.7-.21c-.38-.27-.25-.57-2.15-.58-3.37,0-4.91-.18-6.33-1.22-3-2.19-3.7-7.68-4-10.73a124.29,124.29,0,0,1,0-18.36c.24-3.29.65-9.09.05-12.2a6.91,6.91,0,0,0-.86-2.45,2.08,2.08,0,0,1-.53-1.32,18.11,18.11,0,0,1,.71-4c.65-2.55.72-3.95,1.24-4.88a1.15,1.15,0,0,1,.28-.37,1.62,1.62,0,0,1,.49-.25,15.19,15.19,0,0,0,2.83-2,17.19,17.19,0,0,0,2-2.07A24.8,24.8,0,0,0,45,151a20.74,20.74,0,0,1,1.23-2.89.71.71,0,0,1,.15-.15.33.33,0,0,1,.14-.1c.5-.17,1,.5,1.36.64a3.91,3.91,0,0,0,3.45-.23,10.94,10.94,0,0,0,2-1.48,23.75,23.75,0,0,0,2.8-2.89,4,4,0,0,1,.48-.6.42.42,0,0,1,.29-.13c.55,0,.72,1.19,1.49,2.51a5.66,5.66,0,0,1,.95,2.55,7.88,7.88,0,0,1-.42,2.15,20.87,20.87,0,0,0-.63,3.74A47.58,47.58,0,0,0,59.18,165.51Zm-1.76,27.17c1.54-6.6,1-14.16.63-18.7-.73-8.08-1.87-12.35-1.73-17.95a33.34,33.34,0,0,1,.81-6,6.89,6.89,0,0,0-.77-1.53,18.06,18.06,0,0,1-2.6,2.88A6.49,6.49,0,0,1,51,153a10.06,10.06,0,0,1-4.51,0,73.88,73.88,0,0,1-4.25,7.65,14.66,14.66,0,0,1-2.66,3.13A8.7,8.7,0,0,1,37,165.37c-.09.28-.42,1.59-.63,2.74a11.79,11.79,0,0,1,1.17,4.27c.52,5-.27,11-.41,19.8-.08,5,0,12.93,1.86,16.54,1.61,3.09,3.92,3.34,7.26,3.1,2.07-.15,2.34.35,2.35.37a25,25,0,0,1,2.21-4.33c3.16-5.42,5.32-9.55,6.63-15.18"/><path class="cls-9" d="M56.41,174.63c-.39-11-4.66-16.48-9.55-12.23S38.32,179,38.7,190c0,.16,0,.31,0,.46v.14c0,.11,0,.22,0,.33v.13l0,.44v.07l0,.37v.13l0,.35v.08c0,.15,0,.29,0,.43V193c0,.12,0,.23,0,.34l0,.12c0,.11,0,.22,0,.33v.08l.06.4v.09c0,.11,0,.21,0,.31l0,.11.06.34v0c0,.13,0,.25.07.38l0,.1c0,.09,0,.18,0,.28l0,.1c0,.12.05.24.07.35v0c0,.11.05.21.08.31l0,.1c0,.09.05.18.07.27l0,.08.09.33,0,.06c0,.09,0,.18.08.27l0,.09a1.83,1.83,0,0,0,.08.25l0,.07.1.3,0,.08c0,.08.05.15.08.22l0,.09c0,.09.07.17.1.25v0l.12.28,0,.07.09.21,0,.07.12.26h0l.12.24,0,.07.09.18,0,.07.13.23,0,0,.11.19,0,.06.12.17,0,0,.15.21,0,0,.11.15.05.06.12.15,0,0,.15.17,0,0,.12.12,0,0,.15.15h0a1.07,1.07,0,0,0,.16.14l0,0,.13.1,0,0L43,203h0l.15.1,0,0,.14.08,0,0,.17.09h0l.14.06.05,0,.15.06h0l.18,0,0,0,.14,0h0l.17,0h0a4.66,4.66,0,0,0,3.7-1.41C53.14,198,56.79,185.64,56.41,174.63Zm-3.12,19.24L47.82,190l-4.88,12.92,1.48-15.38-5.45-4,6.38-5.58,1.51-15.39,2.47,11.93,6.38-5.52-4.86,13,2.44,12"/><path class="cls-6" d="M47.55,182.34Zm0,0,3.28-.44h0l4.86-13Z"/><polygon class="cls-6" points="46.86 162.52 49.33 174.45 47.55 182.34 46.86 162.52"/><polygon class="cls-5" points="38.97 183.49 47.55 182.34 44.42 187.49 38.97 183.49"/></g></g></svg>