<svg id="Layer_1" data-name="Layer 1" xmlns="http://www.w3.org/2000/svg" viewBox="0 0 720 720"><defs><style>.cls-1{fill:#604498;}.cls-2{fill:#f8d2c1;}.cls-3{fill:#3c5caa;}.cls-4{fill:#f7f8f8;}.cls-5{fill:#403f85;}.cls-6{fill:#f37b6f;}</style></defs><title>infographic</title><circle class="cls-1" cx="360" cy="360" r="334"/><path class="cls-2" d="M527.43,406.59a34.55,34.55,0,0,0-23,7l-85.8,64.11h55.78L484.74,470H451.12Z"/><path class="cls-3" d="M527.43,406.59,442.61,470h42.13l68.49-51.17C549,413.16,539,407.22,527.43,406.59Z"/><path class="cls-2" d="M557.21,401.61a34.56,34.56,0,0,0-23.51,6.94L443.42,476h55.79l11.46-8.57H469.11Z"/><path class="cls-3" d="M557.21,401.61l-88.1,65.81h41.56l71.81-53.64C578.35,408.24,568.51,402.39,557.21,401.61Z"/><path class="cls-2" d="M563,403.54l-82.08,61.32H342.78a13.39,13.39,0,0,1-13.35-13.36v-1.32a13.39,13.39,0,0,1,13.35-13.35h67.83c23.7,0,35.95-21.83,35.95-33.39H283.75c-17.3,0-25.72,10.69-28.46,19.74L68.5,425.23v79.49H466.32a20.88,20.88,0,0,0,14.11-5.47l0,0L607,405.93C600.09,396.67,582,389.35,563,403.54Z"/><polygon class="cls-4" points="234.89 402.86 235.21 522.22 198.99 521.74 199.5 402.8 234.89 402.86"/><polygon class="cls-5" points="216.04 526.31 4.51 533.52 4.51 397.57 215.81 398.39 216.04 526.31"/><path class="cls-6" d="M441,193a48.21,48.21,0,0,0-68.18,0l-11,11-11.05-11a48.2,48.2,0,1,0-68.17,68.17l11.05,11,68.17,68.18L430,272.16l11-11A48.21,48.21,0,0,0,441,193Z"/></svg>