<svg id="Layer_1" data-name="Layer 1" xmlns="http://www.w3.org/2000/svg" viewBox="0 0 720 720"><defs><style>.cls-1{fill:#604498;}.cls-2{fill:#f37b6f;}.cls-3{fill:none;stroke:#2c2c6c;stroke-miterlimit:10;stroke-width:12px;}.cls-4{fill:#00b5ed;}.cls-5{fill:#fff;}.cls-6{fill:#2c2c6c;}.cls-7{fill:#8a8cc5;}.cls-8{fill:#656bb1;}</style></defs><title>infographic</title><circle class="cls-1" cx="360" cy="360" r="334"/><circle class="cls-2" cx="488.2" cy="371.88" r="39.41"/><line class="cls-3" x1="442.47" y1="321.41" x2="465.35" y2="344.3"/><ellipse class="cls-4" cx="478.72" cy="329.29" rx="17.31" ry="10.98" transform="translate(-92.63 434.95) rotate(-45)"/><path class="cls-5" d="M532.44,526.73a22.89,22.89,0,0,1,22.89-22.9H256.56a22.9,22.9,0,1,0,0,45.79H555.34A22.89,22.89,0,0,1,532.44,526.73Z"/><path class="cls-2" d="M256.56,503.83H555.34V488.5H254a38.22,38.22,0,0,0-38.23,38.23h0A38.22,38.22,0,0,0,254,565H555.34V549.62H256.56a22.89,22.89,0,0,1-22.9-22.89h0A22.9,22.9,0,0,1,256.56,503.83Z"/><path class="cls-5" d="M187.56,451.25a22.89,22.89,0,0,0-22.89-22.9H463.44a22.9,22.9,0,1,1,0,45.8H164.66A22.9,22.9,0,0,0,187.56,451.25Z"/><path class="cls-4" d="M463.44,428.35H164.66V413H466a38.23,38.23,0,0,1,38.23,38.23h0A38.23,38.23,0,0,1,466,489.48H164.66V474.15H463.44a22.9,22.9,0,0,0,22.9-22.9h0A22.9,22.9,0,0,0,463.44,428.35Z"/><path class="cls-3" d="M415.48,123.64A118.6,118.6,0,1,1,269.14,310.27"/><line class="cls-3" x1="431.6" y1="103.1" x2="256.04" y2="326.93"/><path class="cls-6" d="M391.16,400.78a41.08,41.08,0,0,1-41.08-41.08V335.11H337.56V359.7a41.08,41.08,0,0,1-41.07,41.08H266.26V413H421.39V400.78Z"/><path class="cls-7" d="M354.4,309.25a70.24,70.24,0,1,1,79.25-115.93A92.56,92.56,0,0,0,416.37,159,94.25,94.25,0,0,0,316.28,305.72a92.65,92.65,0,0,0,38.12,3.53Z"/><path class="cls-7" d="M278.74,283.23a118.45,118.45,0,0,1,103.2-150.94,92.86,92.86,0,0,0-60-5.57A142.22,142.22,0,0,0,251.8,229.44,92.59,92.59,0,0,0,278.74,283.23Z"/><path class="cls-8" d="M322,126.72A92.69,92.69,0,0,0,251.8,229.44,142.22,142.22,0,0,1,322,126.72Z"/><path class="cls-8" d="M274.06,250.2a118.49,118.49,0,0,0,4.68,33,92.83,92.83,0,0,0,37.54,22.49A94.26,94.26,0,0,1,416.37,159a93.11,93.11,0,0,0-34.43-26.74A118.39,118.39,0,0,0,274.06,250.2Z"/><path class="cls-8" d="M322.18,250.2a70.16,70.16,0,0,0,32.22,59.05,92.93,92.93,0,0,0,79.25-115.93A70.23,70.23,0,0,0,322.18,250.2Z"/></svg>