<svg id="Layer_1" data-name="Layer 1" xmlns="http://www.w3.org/2000/svg" viewBox="0 0 720 720"><defs><style>.cls-1{fill:#604498;}.cls-2{fill:#fff;}.cls-3{fill:#403f85;}.cls-4{fill:#474783;}.cls-5{fill:#2d2a6d;}.cls-6{fill:#f69fac;}.cls-7{fill:#f37b6f;}.cls-8{fill:#f6ce4f;}.cls-9{fill:#1ab3e8;}</style></defs><title>infographic</title><circle class="cls-1" cx="360" cy="360" r="334"/><rect class="cls-2" x="351.95" y="155.44" width="19.85" height="385.35"/><rect class="cls-3" x="192.37" y="214.47" width="337.86" height="18.93"/><path class="cls-4" d="M279.38,540.8H442.55a15.08,15.08,0,0,1,15.08,15.08v2.54a0,0,0,0,1,0,0H264.3a0,0,0,0,1,0,0v-2.54A15.08,15.08,0,0,1,279.38,540.8Z"/><path class="cls-5" d="M228.9,558.42H493a20.41,20.41,0,0,1,20.41,20.41v.06a0,0,0,0,1,0,0h-305a0,0,0,0,1,0,0v-.06a20.41,20.41,0,0,1,20.41-20.41Z"/><circle class="cls-6" cx="360.93" cy="144.69" r="24.95"/><rect class="cls-7" x="339.55" y="193.79" width="42.43" height="69.23" rx="6.09"/><path class="cls-8" d="M458.11,421.69a79.73,79.73,0,0,0,144.23,0Z"/><path class="cls-8" d="M117.66,421.69a79.73,79.73,0,0,0,144.23,0Z"/><circle class="cls-5" cx="530.22" cy="223.93" r="16.77"/><circle class="cls-5" cx="189.78" cy="223.93" r="16.77"/><polygon class="cls-9" points="132.73 421.69 189.78 278.53 246.82 421.69 261.89 421.69 189.78 240.7 117.66 421.69 132.73 421.69"/><polygon class="cls-9" points="473.18 421.69 530.22 278.53 587.27 421.69 602.34 421.69 530.22 240.7 458.11 421.69 473.18 421.69"/></svg>