<svg id="Layer_1" data-name="Layer 1" xmlns="http://www.w3.org/2000/svg" viewBox="0 0 720 720"><defs><style>.cls-1{fill:#604498;}.cls-2{fill:#f5f0e8;}.cls-3{fill:#3c5caa;}.cls-4{fill:#fff;}.cls-5{fill:#00b5ed;}.cls-6{fill:#f37b6f;}.cls-7{fill:#221e1e;stroke:#212253;stroke-miterlimit:10;stroke-width:8px;}</style></defs><title>infographic</title><circle class="cls-1" cx="360" cy="360" r="334"/><circle class="cls-2" cx="393.24" cy="534.12" r="59.44"/><rect class="cls-3" x="388.46" y="487.02" width="9.56" height="94.2" transform="translate(492.86 -121.62) rotate(45)"/><rect class="cls-4" x="493.31" y="312.24" width="72.24" height="193.54" rx="36.12" transform="translate(-134.14 494.16) rotate(-45)"/><path class="cls-5" d="M503.89,434.55l45.53,45.53c12.65,12.64,34.33,11.46,48.44-2.65h0c14.11-14.11,15.29-35.79,2.65-48.44L555,383.46Z"/><path class="cls-4" d="M336.68,413H177.34l66.25-233.47a53,53,0,0,1,51-38.55H454L387.7,374.45A53,53,0,0,1,336.68,413Z"/><path class="cls-6" d="M285.91,374.53H95.18A38.47,38.47,0,0,0,133.66,413H324.38A38.47,38.47,0,0,1,285.91,374.53Z"/><path class="cls-6" d="M345.39,179.46H536.11A38.48,38.48,0,0,0,497.63,141H306.91A38.48,38.48,0,0,1,345.39,179.46Z"/><line class="cls-7" x1="275.6" y1="238.78" x2="388.73" y2="238.78"/><line class="cls-7" x1="259.08" y1="276.99" x2="372.21" y2="276.99"/><line class="cls-7" x1="242.56" y1="315.21" x2="355.7" y2="315.21"/></svg>