<svg xmlns="http://www.w3.org/2000/svg" viewBox="0 0 171.55 139.71"><defs><style>.cls-1{fill:#99664a;}.cls-2{fill:#dd8f64;}</style></defs><title>Asset 9</title><g id="Layer_2" data-name="Layer 2"><g id="Layer_1-2" data-name="Layer 1"><path class="cls-1" d="M79,112h86.15a6.45,6.45,0,0,1,6.44,6.44v7.71a6.45,6.45,0,0,1-6.44,6.44H79a6.45,6.45,0,0,1-6.44-6.44v-7.71A6.45,6.45,0,0,1,79,112Z"/><path class="cls-2" d="M91.68,97.47h60.71a6.45,6.45,0,0,1,6.44,6.44v7.71c0,.17,0,.35,0,.52H85.26c0-.17,0-.35,0-.52v-7.71a6.45,6.45,0,0,1,6.44-6.44Z"/><path class="cls-1" d="M90.47,58.73l-75,77.47-.16.17h0a11.83,11.83,0,0,1-5.06,3.1,4.27,4.27,0,0,1-4.06-.56h0a1.05,1.05,0,0,0-.1-.09L.89,133.59l-.09-.1a4.3,4.3,0,0,1-.56-4.06,11.93,11.93,0,0,1,3.1-5.06l.17-.16L81,49.24Z"/><path class="cls-2" d="M88.22,20.2c.9.89,2.67.62,4.25-.54l12.91,12.9,14.68,14.68c-1.17,1.59-1.44,3.36-.55,4.25,2.66,2.66,5.83-4.48,10.16-4.48h0a10,10,0,0,1,7.11,2.93h0a10.09,10.09,0,0,1,0,14.22L113.56,87.38a10,10,0,0,1-7.11,2.94h0a10,10,0,0,1-7.11-2.93h0a10,10,0,0,1-2.94-7.11c0-5.32,7.71-6.93,4.49-10.15-.9-.89-2.67-.63-4.26.54L69.05,43.08c1.17-1.59,1.44-3.36.54-4.25-3.22-3.23-4.82,4.48-10.15,4.48a10,10,0,0,1-7.11-2.93h0a10,10,0,0,1-2.93-7.11h0a10,10,0,0,1,2.94-7.11L75.55,2.93a10.09,10.09,0,0,1,14.22,0h0a10,10,0,0,1,2.93,7.11h0C92.71,13.74,85.56,17.54,88.22,20.2Z"/><path class="cls-1" d="M88.22,20.2c.89.89,2.65.63,4.24-.53L69.06,43.06c1.16-1.58,1.42-3.34.53-4.23-2.65-2.65-4.2,2.08-7.63,3.85L91.09,13.55C89.16,16,86.41,18.38,88.22,20.2Z"/><path class="cls-1" d="M120,47.26c-1.15,1.58-1.42,3.34-.53,4.23,2,2,4.38-1.69,7.32-3.54L97,77.75c1.77-3.43,6.5-5,3.86-7.63-.9-.89-2.66-.63-4.24.53Z"/></g></g></svg>