<svg xmlns="http://www.w3.org/2000/svg" viewBox="0 0 238.01 218.19"><defs><style>.cls-1{fill:#fff;opacity:0.5;}.cls-2{fill:none;stroke:#960;stroke-miterlimit:10;}.cls-3{fill:#445e67;}.cls-4{fill:#2e474d;}</style></defs><title>Asset 10</title><g id="Layer_2" data-name="Layer 2"><g id="Layer_1-2" data-name="Layer 1"><circle class="cls-1" cx="118.21" cy="194.14" r="24.05"/><path class="cls-2" d="M109,187.69a6.88,6.88,0,0,0-3.39,5,7.44,7.44,0,0,0,1.34,5.4c.19.27,2.26,2.72,4.22,2.38,2.3-.4,3.44-2.09,3.76-6.23.28-3.53-.09-5.24-.93-6.31C112.94,186.57,110.49,187,109,187.69Z"/><path class="cls-2" d="M127.15,187.69a6.88,6.88,0,0,1,3.39,5,7.47,7.47,0,0,1-1.33,5.4c-.2.27-2.26,2.72-4.23,2.38-2.3-.4-3.44-2.09-3.76-6.23-.28-3.53.09-5.24.93-6.31C123.24,186.57,125.69,187,127.15,187.69Z"/><path class="cls-3" d="M238,189.05c-14.93-33.34-62.55-57.71-119-57.71S14.93,155.71,0,189.05Z"/><path class="cls-3" d="M116.93,107h4.58a11.43,11.43,0,0,1,11.43,11.43v4.28a0,0,0,0,1,0,0H105.49a0,0,0,0,1,0,0V118.4A11.43,11.43,0,0,1,116.93,107Z"/><rect class="cls-4" x="99.61" y="128.65" width="38.79" height="4.46" rx="2.23"/><rect class="cls-4" x="99.61" y="119.66" width="38.79" height="4.46" rx="2.23"/><rect class="cls-3" x="99.61" y="124.14" width="38.79" height="4.46" rx="2.23"/><rect class="cls-4" x="116.12" width="5.76" height="115"/></g></g></svg>