<svg xmlns="http://www.w3.org/2000/svg" xmlns:xlink="http://www.w3.org/1999/xlink" viewBox="0 0 2062 1080"><defs><style>.cls-1,.cls-23{fill:none;}.cls-2{isolation:isolate;}.cls-3{clip-path:url(#clip-path);}.cls-4{fill:#7e6bb0;}.cls-5{fill:#6a5ba7;}.cls-6{fill:#625aa7;}.cls-7{fill:#f6ce4f;}.cls-8{fill:#a79bcc;}.cls-9{fill:#cabfde;}.cls-10{fill:#2f2c44;}.cls-11{fill:#4b4a78;}.cls-12{fill:#a393c7;}.cls-13{fill:#676767;}.cls-14{fill:#976475;}.cls-15{fill:#634e54;}.cls-16{fill:#d9d3e9;}.cls-17{fill:#eaafa0;}.cls-18{fill:#42505e;}.cls-19{fill:#303f4c;}.cls-20{fill:#95c0a8;}.cls-21{fill:#e1c555;}.cls-22{fill:#fff;}.cls-22,.cls-23{stroke:#bbbdbf;stroke-miterlimit:10;stroke-width:2px;}.cls-24{fill:#f9d19c;fill-rule:evenodd;}.cls-25{fill:#f3b7a6;}.cls-26{fill:#ffecdd;}.cls-27{fill:#d8babc;}.cls-28{fill:#7d7a97;}.cls-29{fill:#484a6a;}.cls-30{fill:#5954a4;}.cls-31{fill:#5d59a7;}.cls-31,.cls-36{opacity:0.5;mix-blend-mode:multiply;}.cls-32{fill:#bcafd6;}.cls-33{fill:#8f85bf;}.cls-34{fill:#6160ab;}.cls-35,.cls-36{fill:#736ab0;}.cls-37{fill:#7c3a1a;}.cls-38{fill:#9e5124;}.cls-39{fill:#7572b5;}.cls-40{fill:#dad3e9;}.cls-41{fill:#8986c1;}.cls-42{fill:#c3c1e1;}.cls-43{fill:#a397c9;}.cls-44{fill:#b27f80;}.cls-45{fill:#b58c8b;}.cls-46{fill:#8a5656;}.cls-47{fill:#937373;}.cls-48{fill:#aa6c6b;}.cls-49{fill:#7d5353;}.cls-50{fill:#75973d;}.cls-51{fill:#5f883c;}.cls-52{fill:#838e57;}.cls-53{fill:#698338;}.cls-54{fill:#6a7d35;}.cls-55{fill:#658a3b;}.cls-56{fill:#fcd683;}.cls-57{fill:#f8b564;}.cls-58{fill:#eb9458;}.cls-59{fill:#ef8e4d;}</style><clipPath id="clip-path"><path class="cls-1" d="M517.47,93.9c41.25-15.93,648.79-215,1248.88,19.9,129.07,50.54,276.45,180.61,288.71,330.39,20.07,245.2-140.17,411.06-334,513.4-173.8,91.78-1002.44,170.25-1399.42,1.15C207.51,910.1,5.24,801.72,5.24,565.17,5.24,319.66,393.2,141.89,517.47,93.9Z"/></clipPath></defs><title>Untitled-1</title><g class="cls-2"><g id="Layer_1" data-name="Layer 1"><g class="cls-3"><rect class="cls-4" x="5.24" y="1.09" width="2051.52" height="104.05"/><rect class="cls-5" x="-6.89" y="409.62" width="2068.73" height="670.01"/><rect class="cls-6" x="177.36" y="61.36" width="1715.97" height="709.16"/><path class="cls-7" d="M743.31,826.06c-1.93,1.93-46.91,27.31-46.91,27.31l-60.57-41.06L685,788.37Z"/><polygon class="cls-8" points="292.66 773.26 0.84 994.53 0.84 2 292.66 1.09 292.66 773.26"/><polygon class="cls-8" points="1770.02 773.26 2061.84 994.53 2061.84 1.09 1770.02 1.24 1770.02 773.26"/><polygon class="cls-9" points="218.01 576.87 83.58 678.79 83.58 18.27 218.01 120.29 218.01 576.87"/><rect class="cls-10" x="699.01" y="278.51" width="664.65" height="353.58"/><rect class="cls-11" x="699.01" y="617.7" width="664.65" height="23.97"/><polygon class="cls-12" points="218.01 576.87 83.58 678.79 83.58 503.2 218.01 576.51 218.01 576.87"/><polygon class="cls-13" points="429.18 307.65 433.89 314.37 432.69 306.24 429.18 307.65"/><path class="cls-14" d="M433.84,306.19a3.43,3.43,0,1,1-3-3.78A3.44,3.44,0,0,1,433.84,306.19Z"/><path class="cls-15" d="M431.62,302.6a2.87,2.87,0,1,1-4.41,2.1s0-.05,0-.07a3.19,3.19,0,0,0-.19.81,3.43,3.43,0,1,0,4.59-2.84Z"/><polygon class="cls-16" points="218.01 120.29 83.58 197.8 83.58 18.27 218.01 120.29 218.01 120.29"/><polygon class="cls-17" points="195.97 564.5 83.58 649.71 83.58 48.63 195.97 133.93 195.97 564.5"/><polygon class="cls-13" points="515.18 434.26 522.65 441.3 519.13 431.64 515.18 434.26"/><path class="cls-14" d="M520.52,431.3a4.29,4.29,0,1,1-4.66-3.88A4.29,4.29,0,0,1,520.52,431.3Z"/><path class="cls-15" d="M516.9,427.45a3.6,3.6,0,1,1-4.89,3.69v-.08a5,5,0,0,0,0,1,4.29,4.29,0,1,0,4.92-4.64Z"/><rect class="cls-18" x="1672.66" y="812.42" width="9.6" height="8.78" transform="translate(-163.14 1122.2) rotate(-35.38)"/><polygon class="cls-18" points="1674.04 801.23 1673.05 794.86 1744.35 785.87 1745.15 792.18 1674.04 801.23"/><path class="cls-19" d="M1740.15,782.81a32.77,32.77,0,1,1-63.61,6.31l-5.16.4a37.86,37.86,0,1,0,73.92-7.3Z"/><path class="cls-19" d="M1679.84,842.28c4.34-3.09,2.44-14-4.69-24S1658.38,802.87,1654,806Z"/><path class="cls-20" d="M1722.76,816.52A26.56,26.56,0,0,1,1720,818h0l-.85.37h0a27.1,27.1,0,0,1-24.94-2.43c-.63-.41-1.2-.82-1.74-1.24a27.14,27.14,0,0,1-9.68-14.54,26.76,26.76,0,0,1-.87-5.88v-.49c0-.2,0-.4,0-.6a26.52,26.52,0,0,1,1.11-7.6,25.25,25.25,0,0,1,1.23-3.34c.12-.27.24-.53.37-.8l.15-.3a27.5,27.5,0,0,1,4.58-6.53c.5-.52,1-1,1.55-1.5.13-.12.26-.24.4-.35l.64-.54.61-.48.14-.11q1.14-.86,2.34-1.59a26.71,26.71,0,0,1,7.19-3l.39-.1a27.48,27.48,0,0,1,5.22-.74h.13c.32,0,.63,0,.94,0s.91,0,1.36,0a26.9,26.9,0,0,1,13.5,4.37c.62.4,1.2.82,1.74,1.24A27.08,27.08,0,0,1,1736.05,792v.2c0,.37,0,.74,0,1.11a26.67,26.67,0,0,1-1,7.19,27.08,27.08,0,0,1-8,12.82c-.5.45-1,.89-1.65,1.36A26.1,26.1,0,0,1,1722.76,816.52Z"/><path class="cls-21" d="M1720,818l-.85.37.25-.37Z"/><polygon class="cls-21" points="1706.19 813.65 1705.58 812.49 1704.76 813.07 1704.58 813.76 1703.94 813.79 1703.14 813.71 1702.23 814.35 1702.09 815.33 1703.31 815.26 1705.57 815.22 1708.31 814.02 1707.86 813.39 1706.19 813.65"/><polygon class="cls-21" points="1716.85 786.01 1716.54 786.29 1716.09 785.87 1715.33 786.3 1715.76 786.9 1716.4 787.64 1717.17 787.7 1717.04 787.14 1717.14 786.72 1717.47 785.94 1718.16 785.19 1717.55 784.62 1717.13 784.64 1716.8 784.87 1716.81 785.35 1716.85 786.01"/><polygon class="cls-21" points="1716.17 785.63 1716.63 785.35 1716.53 784.84 1716.01 784.38 1715.06 784.44 1714.64 784.74 1714.98 785.22 1716.17 785.63"/><path class="cls-21" d="M1725.43,814.71c.62-.47,1.15-.91,1.65-1.36a27.08,27.08,0,0,0,8-12.82l-1.92-1.13-1.14.83-.69-.54,1-1,.22-.54-.36-.89-.81.31-.41.63-1.75-2.85-1.53-.88.08-.11.35-.49-.31-.26-.8.21-1-.31-1.13-1.69.31-.34,1.31,1.68.56.14-.52-2.78-1.68-2.22-.21-.28-1.75-.91-1.34.15-1-.69-.71-.1-.44.46.28.53-.53.82.94.6,0,0-.86.82-.18-.26-.2-.4-.19-.36-.67-.68h-1.57l-.92-.95-1,.5.22.52-.68.29-.54-1.21-.9-.81-.68.17-1,1,.14.76.68.94.51.61.65-.17,1,0,1,0,.34.75,1,.23-.38.45.06,2.37h-.4l-.48-.74-.19.55.21.51.59.37.62-.46.28.16.07-.34-.17-1.49.59-.84.63.89-.07.49-.12,1.23-.77.59-.28,1.37v0l.12,0,1.24-.48.52.26.17.08-.88.77-.2.95,1.18,1.6,0,.73-.84.6-1-.2-1.16-1.64,0-1.52-.8-.93,0,0-.63.46-.24-.34v-.53l-.82-2.15,1.17-.83-1.82-2.18-.84-.42,0,0-.65-.91-.28-.48-1.4-.67-1.16.83-3.24-1.11-.57.68.33.46-.75.36-.35-.24-1.75,1.21-.28,1.17-.56,2.37.6.86.18,0,1.08,1.53.73.15.61.87-.06.39-.07.42.78,1.39-1.84,1.06-1.52,3.23-2,.28-.65.53-.17,1-1.64,1.17-.5,1.52-1.36,1,1.65,2.32,3,.47,1.36-.15.65.6.82-.59.87.08,2,0,1.88-1.64.44-1,3.19.62,4.51,0-.1-.54-2-1.86-.12-.76,2.7-5.38.3,0-1.14,4.25-.82.66-.16.91.83,1,3.22,1.09,1,.37.55-.41-.44-.82s-.62-3.5-.57-3.54l1.07-.73.41.57-.66.61.16,1.71.92,1.44,1.65,3.36,0,1-.69.49-1,.58-1.45,3.36.25.58,1.07,0,2.25-1.19h0A26.1,26.1,0,0,0,1725.43,814.71Zm-1-24.28-1.34-.58-.41.29.14.76-.52.43-1.79,0-1-1.42.23-.29,1.07.56,1.67-1.18,2.1.76.24.33Zm-4.88,8.16-.89-1.36-.34-.36.9-.64.55.06.32.25.59.65.35,0,.06.39-.8.62.24,1-.33.33Zm3,5.56-.38-.08-.34-.56.09-.22-.55-.89.32-.13.71.17.32-.23v-1.29l.77-.6.51-.11.55.65.17.76-.39.32-.55-.87-.4.22,0,1.55-.51.37v.68Z"/><path class="cls-21" d="M1705.83,775.72l-.42-.59-.3.22.1.14-.13.12.28.35.3.12.33-.14.23.27.31-.05-.13-.31-.17-.22Z"/><polygon class="cls-21" points="1704.29 774.69 1704.63 775.09 1704.96 774.92 1704.98 774.52 1704.61 774.5 1704.29 774.69"/><path class="cls-21" d="M1692.76,771.62l-.07,0-.14.11-.61.48.4,0Zm17.5-5.47c-.45,0-.9,0-1.36,0l.15.21,1.27.23Zm1.17,7.77.84-.21.62.87.8-.11-.29-.72.74-.52-.52-2.53-1.1-1.22-.92-.47-.92.73-.43-.87.44-.5,1.21.26-.9-1.4-.39-.31-.58.16.27.57-.58.26-.67-.84-.44.11-.78-1a27.48,27.48,0,0,0-5.22.74l-.35.13,0,0a26.71,26.71,0,0,0-7.19,3l1.09,1.53-.74.51.21,1.16,1.21-1,1.07.18,1.73.67.65-.33,2.2.33,1.7.81v-.18l1.5.3.15.4-.08.29.62.06.1.06-.21-.42-.15-.47.37-.26.31.09.32.45.05.27-.23.42.19.2,0,0,0,.07.54.56.37-.13.16.43-.33.23-.46-.17-.33.31.46,1.39h0l.2.24.51-.33-.24-1.19.21-.22.79.57.74-.48-.09-1.12,1.17-.91-1.28-.69-.28-.4,1-.55-.69-1.7-.89-.29-1.39,1-1.11-.84-1.22.21-.41-.42,1.16-.82-.58-1.12,0-.75.6-.74,2.37,1.06.91.71-.54.51.38.48.33-.17.44.47.11-.07-.06-.29.28-.28.51.6.68.11h0l.21,0,1.13,1.23-.09,1-1.94-1Zm-11.57-4.31-.07-.5.57-.28.85.11.48.67Zm1.28,1.81-.5-.08-.46-.65.52-.22.24.29.21,0,.39.43Zm.92-.42-.41-.16-.35-.34.68-.48.49.69Zm.89.25,0,.45-.38-.11,0-.39Zm-.81-.06,0,.06.32.94-.39.28-.47-.65.13-.36Zm.74-1.29-.09.7-.4-.35Zm-.11-.52-.24.17.13.18-.43.3-.87-1.23-.2-.55.38-.09.66.42Zm-8.13,21.39.49-1.14-1.27-1.82-.46-1.82,1-.8.5-1.07-.9-1.3.64-1.59-.15-.89-.37.22-.94-1.16.3-.88-.63-1.44-1.94-.19-.89-1.83,1.76-1.43-.44-.91c-.14.11-.27.23-.4.35-.54.48-1.05,1-1.55,1.5l-.12.54,1,1.65-1.17,1.06-1.51-.54-.81.52a27.56,27.56,0,0,0-2,3.3l-.06.21-.09.09-.48.5.11.3a3.59,3.59,0,0,0,.18.44c0,.07,0,1.9,0,1.9l-1.4,1a26.52,26.52,0,0,0-1.11,7.6l.23.12,1-.12,2.55.12,1.07-1.2,1-.09.64,1,.16.24,1.19.34,1.73-1,.92-.52,1.73.09.83-.36Z"/><path class="cls-22" d="M1299.08,993.93c.54.26,1.37-1.84,3.2-2.59a5.7,5.7,0,0,1,6.43,2.17c1.12,1.78.66,4,.35,5.55-.1.5-.67,1.16-.41,1.48s.92-.08,1.76.19a2.73,2.73,0,0,1,1.36,1.12c1.46,1.93,1.35,5.27,1.35,5.27a24.49,24.49,0,0,1-3.37,11.48c-1.91,2.92-3.81,5.85-6.72,6.12-4,.36-7.46-4.43-8-3.87-.32.32,1,1.64,1.46,3.81a9.24,9.24,0,0,1-1.15,6.07c-2.9,5.47-11.1,7.45-16.76,5.64-1.54-.49-3-1-4.07-2.38-1.89-2.59-.62-6.15-2.55-7.14-.45-.23-.54,0-1.63-.22a12.21,12.21,0,0,1-4.59-2c-3.94-2.74-5-8.65-5.1-9.44-.24-1.45-1.06-6.5,1.77-10.72s7.91-5.88,7.67-6.35c-.11-.21-1,.33-2.08,0-1.59-.52-2.18-2.69-2.27-3-1.09-3.95,3.08-10.47,7.7-11,3.39-.37,6.59,2.58,7.75,1.33.4-.44.1-.9.53-1.81.8-1.7,2.89-2.29,3.65-2.5,2.4-.67,4.46.06,8.58,1.5,2.83,1,4.18,1.82,5.29,2.94.89.9,1.72,1.73,1.65,2.8-.08,1.38-1.55,1.89-1.9,4C1298.9,992.69,1298.72,993.75,1299.08,993.93Z"/><path class="cls-23" d="M1283.24,989.31a9.17,9.17,0,0,1,4-1.34c3.45-.28,7.19,1.53,7.2,3.11,0,1.43-3,1.78-3.11,3.79a3.1,3.1,0,0,0,1.49,2.63c.7.41,1,.11,1.83.43,1.92.72,2.62,3.05,2.71,3.34a5.8,5.8,0,0,1,0,2.94"/><path class="cls-23" d="M1288.31,1003.18a6.42,6.42,0,0,0-1.17,4.24c.35,3.41,3.69,5.09,4.59,5.49,1.56.7,1.77,0,4.72.63,2.12.49,3.55.84,4.5,2.05,1.08,1.39.53,2.68,1.45,3.12s2.67-.79,4-1.83a9.88,9.88,0,0,0,3.32-4.06,9.16,9.16,0,0,0,.66-4.21"/><path class="cls-23" d="M1287.49,1011.28a6.29,6.29,0,0,1-2.48,3.77c-1.74,1.13-3.77.89-5.58.68-1.62-.2-2.32-1-2.82-.64s-.15,2.26.3,3.21a5.67,5.67,0,0,0,1.41,1.85"/><path class="cls-23" d="M1288.36,1017.48a16.49,16.49,0,0,1,2.13,4.72c.5,1.87,1,3.61.26,5.54a6.71,6.71,0,0,1-2.17,2.91"/><path class="cls-23" d="M1274.87,993.87a5.8,5.8,0,0,1,1.21,3.39,6.87,6.87,0,0,1-1.56,4c-1.63,2.33-2.63,2.27-5,4.69a14.28,14.28,0,0,0-3.45,4.94,9.18,9.18,0,0,0-.51,6c.51,1.77,1.52,2.82,2.94,4.3s2.79,2.91,5.06,3.42a7.88,7.88,0,0,0,3.75-.11"/><path class="cls-24" d="M1482.1,564.37h0a2.82,2.82,0,0,0,3.1-1.17l7.62-13.7-14.3-3.11,1.25,15.63A2.82,2.82,0,0,0,1482.1,564.37Z"/><path class="cls-24" d="M1632.84,597.14h0a2.82,2.82,0,0,0,3.1-1.18l7.62-13.7-14.29-3.1,1.24,15.62A2.83,2.83,0,0,0,1632.84,597.14Z"/><polygon class="cls-24" points="1660.8 581.87 1464.68 539.24 1444.36 538.81 1677.79 589.54 1660.8 581.87"/><rect class="cls-25" x="1556.32" y="448.72" width="7.78" height="238.87" transform="translate(673.62 1972.09) rotate(-77.74)"/><rect class="cls-26" x="345.98" y="291.41" width="299.97" height="205.7"/><rect class="cls-27" x="354.91" y="300.37" width="281.88" height="187.48"/></g><g class="cls-3"><rect class="cls-28" x="772.27" y="740.03" width="11.76" height="137.3"/><path class="cls-29" d="M784,740v137.3h-5.11V757.48c0-6.91-3.81-9.23-6.65-10V740Z"/><polygon class="cls-30" points="791.13 719.67 791.13 743.1 734.35 801.41 734.35 777.99 791.13 719.67"/><polygon class="cls-31" points="791.13 722.77 791.13 731.93 734.35 787.15 734.35 777.99 791.13 722.77"/><rect class="cls-28" x="447.43" y="773.72" width="11.77" height="164.17"/><path class="cls-29" d="M459.09,773.72H447.31v6.46c2.46.38,4.32,2.48,4.32,8V937.88h7.46Z"/><rect class="cls-28" x="505.26" y="777.99" width="11.74" height="99.34"/><path class="cls-29" d="M517,778v99.34h-5.09v-81.9c0-6.89-3.81-9.21-6.65-10V778Z"/><rect class="cls-28" x="716.22" y="773.72" width="11.78" height="164.17"/><path class="cls-29" d="M727.86,773.72H716.09v6.46c2.46.38,4.32,2.48,4.32,8V937.88h7.45Z"/><polygon class="cls-32" points="421.45 767.14 501.56 714.42 801.64 714.42 749.33 767.14 421.45 767.14"/><rect class="cls-33" x="421.45" y="767.14" width="327.89" height="10.85"/><polygon class="cls-34" points="801.64 725.28 801.64 714.42 749.33 767.14 749.33 777.99 801.64 725.28"/><rect class="cls-35" x="437.56" y="777.99" width="296.79" height="23.42"/><rect class="cls-36" x="437.56" y="778" width="296.79" height="9.15"/><rect class="cls-28" x="1143.95" y="758.48" width="11.65" height="162.53"/><path class="cls-29" d="M1155.47,758.48h-11.63v6.41c2.42.39,4.26,2.47,4.26,7.89V921h7.37Z"/><rect class="cls-28" x="1116.77" y="762.72" width="11.63" height="98.35"/><path class="cls-29" d="M1128.4,762.72v98.35h-5.06V780c0-6.83-3.75-9.12-6.57-9.89v-7.39Z"/><rect class="cls-28" x="837.27" y="758.48" width="11.66" height="162.53"/><path class="cls-29" d="M848.8,758.48H837.15v6.41c2.43.39,4.28,2.47,4.28,7.89V921h7.37Z"/><rect class="cls-28" x="864.42" y="762.72" width="11.63" height="98.35"/><path class="cls-29" d="M876.05,762.72v98.35H871V780c0-6.83-3.76-9.12-6.57-9.89v-7.39Z"/><polygon class="cls-32" points="1181.21 751.98 1136.59 699.79 856 699.79 811.4 751.98 1181.21 751.98"/><rect class="cls-33" x="811.4" y="751.98" width="369.81" height="10.74"/><rect class="cls-35" x="827.35" y="762.72" width="337.91" height="23.19"/><rect class="cls-36" x="827.35" y="762.72" width="337.91" height="5.69"/><path class="cls-37" d="M970.85,877.25a2.84,2.84,0,1,1-2.84-2.83A2.84,2.84,0,0,1,970.85,877.25Z"/><path class="cls-37" d="M1098.74,877.25a2.84,2.84,0,1,1-2.83-2.83A2.83,2.83,0,0,1,1098.74,877.25Z"/><rect class="cls-28" x="517.77" y="871.15" width="8.3" height="64.6"/><path class="cls-29" d="M526.07,871.15v64.6h-3.62V881.1a5.44,5.44,0,0,0-4.68-5.7v-4.25Z"/><rect class="cls-28" x="635.83" y="839.34" width="8.3" height="96.41"/><path class="cls-29" d="M644.13,839.34v96.41h-3.62V849.32a5.42,5.42,0,0,0-4.68-5.71v-4.27Z"/><polygon class="cls-30" points="650.22 826.15 650.22 841.51 613.03 879.06 613.03 863.71 650.22 826.15"/><polygon class="cls-31" points="650.22 827.54 650.22 833.54 613.03 869.72 613.03 863.71 650.22 827.54"/><polygon class="cls-32" points="469.56 856.6 522.03 822.09 657.1 822.09 622.86 856.6 469.56 856.6"/><rect class="cls-33" x="469.56" y="856.6" width="153.3" height="7.11"/><polygon class="cls-34" points="657.1 829.19 657.1 822.09 622.86 856.6 622.86 863.71 657.1 829.19"/><rect class="cls-38" x="480.1" y="863.71" width="132.92" height="15.35"/><rect class="cls-35" x="480.1" y="863.71" width="132.92" height="15.35"/><rect class="cls-36" x="480.1" y="863.71" width="132.92" height="6.01"/><polygon class="cls-39" points="627.58 712.97 627.58 774.61 622.86 777.89 622.86 714.73 627.58 712.97"/><polygon class="cls-40" points="469.56 714.73 474.28 712.97 627.58 712.97 622.86 714.73 469.56 714.73"/><rect class="cls-28" x="482.68" y="728.48" width="9.58" height="238.63"/><path class="cls-29" d="M492.15,728.48h-9.58v9.07c2,.55,3.53,3.51,3.53,11.22V967.12h6Z"/><rect class="cls-28" x="596.58" y="728.48" width="9.58" height="238.63"/><path class="cls-29" d="M606.06,728.48h-9.57v9.07c2,.55,3.51,3.51,3.51,11.22V967.12h6.06Z"/><rect class="cls-28" x="574.25" y="837.56" width="14.93" height="174.31"/><path class="cls-29" d="M589.18,837.56v174.31h-6.49V859.71c0-8.78-4.83-11.72-8.44-12.69v-9.46Z"/><polygon class="cls-30" points="598.2 811.7 598.2 841.46 526.11 915.48 526.11 885.74 598.2 811.7"/><polygon class="cls-31" points="598.2 815.65 598.2 827.26 526.11 897.37 526.11 885.74 598.2 815.65"/><path class="cls-28" d="M176.79,1077.57V880.32H161.85v197.33Q169.32,1077.64,176.79,1077.57Z"/><path class="cls-29" d="M167.17,898.65v179c3.16,0,6.32,0,9.47,0V880.32H161.69v8.21C164.81,889,167.17,891.68,167.17,898.65Z"/><rect class="cls-28" x="235.27" y="885.74" width="14.9" height="126.12"/><path class="cls-29" d="M250.17,885.74v126.13h-6.46v-104c0-8.75-4.84-11.7-8.44-12.67v-9.48Z"/><rect class="cls-28" x="503.09" y="880.32" width="14.95" height="197.11"/><path class="cls-29" d="M508.41,898.65v178.78h9.46V880.32H502.94v8.21C506.05,889,508.41,891.68,508.41,898.65Z"/><polygon class="cls-32" points="128.86 871.97 230.56 805.04 611.54 805.04 545.14 871.97 128.86 871.97"/><rect class="cls-33" x="128.86" y="871.97" width="416.28" height="13.77"/><polygon class="cls-34" points="611.54 818.83 611.54 805.04 545.14 871.97 545.14 885.74 611.54 818.83"/><rect class="cls-35" x="149.31" y="885.74" width="376.79" height="29.74"/><rect class="cls-36" x="149.31" y="885.76" width="376.79" height="11.62"/><rect class="cls-28" x="1210.74" y="707.43" width="11.76" height="137.3"/><path class="cls-29" d="M1222.5,707.43V844.72h-5.11V724.87c0-6.91-3.81-9.23-6.65-10v-7.45Z"/><polygon class="cls-41" points="1203.63 687.06 1203.63 710.5 1260.42 768.8 1260.42 745.38 1203.63 687.06"/><polygon class="cls-31" points="1203.63 690.17 1203.63 699.32 1260.42 754.54 1260.42 745.38 1203.63 690.17"/><rect class="cls-28" x="1535.68" y="741.11" width="11.77" height="164.17"/><path class="cls-29" d="M1547.34,741.11h-11.78v6.46c2.46.39,4.32,2.49,4.32,8V905.28h7.46Z"/><rect class="cls-28" x="1477.76" y="745.38" width="11.74" height="99.34"/><path class="cls-29" d="M1489.5,745.38v99.34h-5.09V762.83c0-6.9-3.81-9.22-6.65-10v-7.46Z"/><rect class="cls-28" x="1266.9" y="741.11" width="11.78" height="164.17"/><path class="cls-29" d="M1278.54,741.11h-11.77v6.46c2.45.39,4.31,2.49,4.31,8V905.28h7.46Z"/><polygon class="cls-32" points="1573.32 734.53 1493.21 681.82 1193.13 681.82 1245.43 734.53 1573.32 734.53"/><rect class="cls-33" x="1245.43" y="734.53" width="327.89" height="10.85"/><polygon class="cls-42" points="1193.13 692.68 1193.13 681.82 1245.43 734.53 1245.43 745.38 1193.13 692.68"/><rect class="cls-35" x="1260.42" y="745.38" width="296.79" height="23.42"/><rect class="cls-36" x="1260.42" y="745.39" width="296.79" height="9.15"/><rect class="cls-28" x="1482.37" y="871.15" width="8.3" height="64.6"/><path class="cls-29" d="M1490.68,871.15v64.6h-3.62V881.1a5.44,5.44,0,0,0-4.69-5.7v-4.25Z"/><rect class="cls-28" x="1364.32" y="839.34" width="8.3" height="96.41"/><path class="cls-29" d="M1372.61,839.34v96.41H1369V849.32a5.42,5.42,0,0,0-4.67-5.71v-4.27Z"/><polygon class="cls-41" points="1358.22 826.15 1358.22 841.51 1395.42 879.06 1395.42 863.71 1358.22 826.15"/><polygon class="cls-31" points="1358.22 827.54 1358.22 833.54 1395.42 869.72 1395.42 863.71 1358.22 827.54"/><polygon class="cls-32" points="1538.88 856.6 1486.41 822.09 1351.34 822.09 1385.58 856.6 1538.88 856.6"/><rect class="cls-33" x="1385.58" y="856.6" width="153.3" height="7.11"/><polygon class="cls-42" points="1351.34 829.19 1351.34 822.09 1385.58 856.6 1385.58 863.71 1351.34 829.19"/><rect class="cls-35" x="1395.42" y="863.71" width="132.92" height="15.35"/><rect class="cls-36" x="1395.42" y="863.71" width="132.92" height="6.01"/><polygon class="cls-42" points="1380.86 712.97 1380.86 774.61 1385.58 777.89 1385.58 714.73 1380.86 712.97"/><rect class="cls-43" x="1385.58" y="714.72" width="153.3" height="63.16"/><rect class="cls-28" x="1516.29" y="728.48" width="9.58" height="238.63"/><path class="cls-29" d="M1525.76,728.48h-9.57v9.07c2,.55,3.52,3.51,3.52,11.22V967.12h6Z"/><rect class="cls-28" x="1402.37" y="728.48" width="9.58" height="238.63"/><path class="cls-29" d="M1411.85,728.48h-9.57v9.07c2,.55,3.51,3.51,3.51,11.22V967.12h6.06Z"/><polygon class="cls-40" points="1538.88 714.73 1534.16 712.97 1380.86 712.97 1385.58 714.73 1538.88 714.73"/><rect class="cls-28" x="1505.86" y="837.56" width="14.93" height="174.31"/><path class="cls-29" d="M1520.78,837.56v174.31h-6.48V859.71c0-8.78-4.84-11.72-8.44-12.69v-9.46Z"/><polygon class="cls-41" points="1496.84 811.7 1496.84 841.46 1568.93 915.48 1568.93 885.74 1496.84 811.7"/><polygon class="cls-31" points="1496.84 815.65 1496.84 827.26 1568.93 897.37 1568.93 885.74 1496.84 815.65"/><path class="cls-28" d="M1933.34,1078.06V880.32H1918.4v197.94C1923.39,1078.2,1928.37,1077.93,1933.34,1078.06Z"/><path class="cls-29" d="M1923.73,898.65v179.49c3.16-.09,6.31-.16,9.47-.08V880.32h-15v8.21C1921.37,889,1923.73,891.68,1923.73,898.65Z"/><rect class="cls-28" x="1844.87" y="885.74" width="14.9" height="126.12"/><path class="cls-29" d="M1859.77,885.74v126.13h-6.46v-104c0-8.75-4.84-11.7-8.44-12.67v-9.48Z"/><rect class="cls-28" x="1577.15" y="880.32" width="14.95" height="198.29"/><path class="cls-29" d="M1582.47,898.65v180h9.46V880.32H1577v8.21C1580.11,889,1582.47,891.68,1582.47,898.65Z"/><polygon class="cls-32" points="1966.18 871.97 1864.48 805.04 1483.49 805.04 1549.9 871.97 1966.18 871.97"/><rect class="cls-33" x="1549.9" y="871.97" width="416.28" height="13.77"/><polygon class="cls-42" points="1483.49 818.83 1483.49 805.04 1549.9 871.97 1549.9 885.74 1483.49 818.83"/><rect class="cls-35" x="1568.93" y="885.74" width="376.79" height="29.74"/><rect class="cls-36" x="1568.93" y="885.76" width="376.79" height="11.62"/><rect class="cls-28" x="1957.83" y="1022.6" width="10.54" height="54.6"/><path class="cls-29" d="M1963.78,1035.24v42h4.59v-54.6h-10.54v5.4C1960.38,1028.56,1963.78,1030.23,1963.78,1035.24Z"/><rect class="cls-28" x="1807.95" y="982.22" width="10.53" height="96.06"/><path class="cls-29" d="M1813.89,994.88v83.4h4.59V982.22H1808v5.41C1810.51,988.18,1813.89,989.86,1813.89,994.88Z"/><polygon class="cls-41" points="1800.21 965.48 1800.21 984.98 1847.43 1032.64 1847.43 1013.16 1800.21 965.48"/><polygon class="cls-31" points="1800.21 967.24 1800.21 974.86 1847.43 1020.78 1847.43 1013.16 1800.21 967.24"/><polygon class="cls-32" points="2029.57 1004.13 1962.96 960.32 1791.48 960.32 1834.95 1004.13 2029.57 1004.13"/><rect class="cls-33" x="1834.95" y="1004.13" width="194.62" height="9.03"/><polygon class="cls-42" points="1791.48 969.33 1791.48 960.32 1834.95 1004.13 1834.95 1013.16 1791.48 969.33"/><rect class="cls-35" x="1847.44" y="1013.16" width="168.76" height="19.48"/><rect class="cls-36" x="1847.44" y="1013.16" width="168.76" height="7.62"/><polygon class="cls-42" points="1828.95 821.78 1828.95 900.03 1834.95 904.2 1834.95 824.01 1828.95 821.78"/><rect class="cls-43" x="1834.95" y="824.01" width="194.62" height="80.19"/><rect class="cls-28" x="2000.89" y="841.48" width="12.16" height="237.07"/><path class="cls-29" d="M2005.24,867.23v211.32h7.68V841.48h-12.16V853C2003.3,853.69,2005.24,857.45,2005.24,867.23Z"/><path class="cls-28" d="M1868.43,1079.28V841.48h-12.17v237.86C1860.32,1079.28,1864.38,1079.11,1868.43,1079.28Z"/><path class="cls-29" d="M1860.61,867.23v212c2.56,0,5.13-.09,7.69,0V841.48h-12.15V853C1858.69,853.69,1860.61,857.45,1860.61,867.23Z"/><polygon class="cls-40" points="2029.57 824.01 2023.58 821.78 1828.95 821.78 1834.95 824.01 2029.57 824.01"/><polygon class="cls-39" points="369.78 821.78 369.78 900.03 363.78 904.2 363.78 824.01 369.78 821.78"/><rect class="cls-43" x="169.16" y="824.01" width="194.62" height="80.19"/><path class="cls-28" d="M240.9,1076.55V1022.6H230.36v54.14Z"/><path class="cls-29" d="M236.3,1035.24v41.39l4.6-.08V1022.6H230.36v5.4C232.91,1028.56,236.3,1030.23,236.3,1035.24Z"/><path class="cls-28" d="M390.78,1075.87V982.22H380.25v94.28C383.76,1076.34,387.27,1076.12,390.78,1075.87Z"/><path class="cls-29" d="M386.19,994.88v81.3c1.53-.09,3.06-.2,4.59-.31V982.22H380.25v5.41C382.8,988.18,386.19,989.86,386.19,994.88Z"/><polygon class="cls-30" points="398.52 965.48 398.52 984.98 351.3 1032.64 351.3 1013.16 398.52 965.48"/><polygon class="cls-31" points="398.52 967.24 398.52 974.86 351.3 1020.78 351.3 1013.16 398.52 967.24"/><polygon class="cls-32" points="169.16 1004.13 235.77 960.32 407.25 960.32 363.78 1004.13 169.16 1004.13"/><rect class="cls-33" x="169.16" y="1004.13" width="194.62" height="9.03"/><polygon class="cls-34" points="407.25 969.33 407.25 960.32 363.78 1004.13 363.78 1013.16 407.25 969.33"/><rect class="cls-35" x="182.54" y="1013.16" width="168.76" height="19.48"/><rect class="cls-36" x="182.54" y="1013.16" width="168.76" height="7.62"/><polygon class="cls-40" points="169.16 824.01 175.15 821.78 369.78 821.78 363.78 824.01 169.16 824.01"/><path class="cls-28" d="M198,1077.3V841.48H185.81v236Q191.89,1077.4,198,1077.3Z"/><path class="cls-29" d="M190.16,867.23v210.19l7.68-.12V841.48H185.68V853C188.22,853.69,190.16,857.45,190.16,867.23Z"/><path class="cls-28" d="M342.58,1077V841.48H330.42v235.29Q336.5,1076.89,342.58,1077Z"/><path class="cls-29" d="M334.76,867.23v209.62c2.57.05,5.13.09,7.7.12V841.48H330.31V853C332.85,853.69,334.76,857.45,334.76,867.23Z"/><polygon class="cls-44" points="368.63 794.38 307.2 794.38 287.1 714.96 387.33 714.96 368.63 794.38"/><rect class="cls-45" x="280.4" y="704.63" width="112.24" height="10.33"/><polygon class="cls-46" points="337.22 714.96 287.1 714.96 307.2 794.38 337.22 794.38 337.22 714.96"/><rect class="cls-47" x="280.4" y="704.63" width="56.82" height="10.33"/><polygon class="cls-48" points="368.63 795.58 307.2 795.58 287.1 784.85 387.33 784.85 368.63 795.58"/><polygon class="cls-49" points="337.22 784.85 287.1 784.85 307.2 795.58 337.22 795.58 337.22 784.85"/><path class="cls-50" d="M519,624.79l1.37-1.32a1.9,1.9,0,0,0-1.33-3.21,200.37,200.37,0,0,0-27.43,2.85,122.45,122.45,0,0,0-14,3.34,39.06,39.06,0,0,0-8.91,3.57c-5.08,3.08-9.5,7.36-13.83,11.39-2,1.9-4.05,3.83-6.12,5.7-.72.66-1.46,1.31-2.22,1.92a5.42,5.42,0,0,1-.49.34l-.23.16a2,2,0,0,0-1.41,2A326.91,326.91,0,0,0,386,670.66c-18.72,8.19-38.47,15.08-52.85,30.32a1.83,1.83,0,0,0-.51,1.08l2.14,2.14a1.72,1.72,0,0,0,1-.56c13.95-14.78,33.24-21.57,51.44-29.45a331.08,331.08,0,0,1,53.94-18.05,1.53,1.53,0,0,0,.83,2.15c7.82,3.38,16.19,5.63,24.76,5a41.86,41.86,0,0,0,19.48-7C499,647.91,508.26,635.3,519,624.79Z"/><path class="cls-51" d="M497.22,643.11c-3.91,0-8.36.26-12.44-.46,3.3-1.75,6.51-3.7,9.7-5.64,3.57,0,7.25,1.45,10.72,1.89,2.4.3,2.38-3.46,0-3.76-1.94-.24-3.83-.73-5.72-1.15a61.81,61.81,0,0,1,13.11-6.31c2.32-.72,1.37-4.35-1-3.64C505,626.1,499,629.69,493,633.37a10.29,10.29,0,0,0-1.53.23,1.63,1.63,0,0,0-1.37,1.55c-2.72,1.67-5.46,3.31-8.25,4.78A117.1,117.1,0,0,1,495,629.61c2-1.34.16-4.62-1.86-3.27a128.81,128.81,0,0,0-19,15.71,1.74,1.74,0,0,0-.54,1.51,126.88,126.88,0,0,1-13.54,3.9c5.17-5.42,10.44-10.92,16.87-14.67,2.1-1.22.24-4.49-1.85-3.27-8.46,4.93-15,12.67-21.81,19.56-3.78.91-7.54,1.88-11.24,3.1-2.3.75-1.36,4.39.95,3.63,3.5-1.15,7.06-2,10.63-2.9,3.62,4.28,9.09,6,13.08,9.87,1.74,1.68,4.4-1,2.65-2.66-3.41-3.29-7.95-5.08-11.44-8.2l4.27-1c.66-.15,1.31-.32,1.95-.48a2,2,0,0,0,.71.13c5.34,0,10.61,1,15.95,1.07,2.43,0,2.43-3.74,0-3.76s-4.58-.21-6.86-.43q3-1.07,5.84-2.34c5.46,2,11.79,1.75,17.5,1.76A1.88,1.88,0,0,0,497.22,643.11Z"/><path class="cls-52" d="M483.24,707.54c5.65-12.93,9.66-28,5.81-42,1.69-.28,2.28-3,.27-3.64-6.8-2.06-13.82-2.73-20.77-1-1.12.27-2.22.6-3.31,1a2,2,0,0,0-1-2.8c-6.31-2.49-13.55-1-19.75,1.08a114.47,114.47,0,0,0-22.22,10.62c-6.25,3.68-12.25,7.75-18.32,11.71l-.35.15c-3.94,1.75-7.44,4.82-10.72,7.54-.74.63-1.5,1.24-2.25,1.86,5.44-9,10.12-18.59,15.76-27.3l.11-.19c8.8-.8,17.37-3.11,24.53-8.49,6.17-4.62,10.27-11.38,12.89-18.51,5.75-15.67,5.09-33,6.62-49.44a95,95,0,0,1,2.61-16c.46-1.71-1.63-3.32-3-2-13,12.48-31.14,18-43.71,31a42.06,42.06,0,0,0-11.24,23.25,34.34,34.34,0,0,0,.14,8.77c.35,3.49.92,7,1.51,10.41.35,2.05.72,4.09,1.07,6.14.11.68.22,1.35.31,2,0,.06,0,.27,0,.39v0c0,.05,0,.06,0,0a1.15,1.15,0,0,1,.09-.34,2.15,2.15,0,0,0,.21,1.78,39.4,39.4,0,0,0,2.09,10.7,1.49,1.49,0,0,0,1,1c-7.15,11.64-12.93,24.63-21.35,35.44a80.46,80.46,0,0,0-7.41,7.48l-2.67,2.59,3.57,2.32a65.74,65.74,0,0,0,7.73-7.93c4.61-4.32,9.34-8.5,14.34-12.38.35-.28.72-.55,1.08-.82-5.83,8.66-8.73,19.59-10.37,29.53a126.65,126.65,0,0,0,1.2,48.19,66.72,66.72,0,0,0,3,9.77,1.9,1.9,0,0,0,2.93.56,72.19,72.19,0,0,0,18.64-22.16,69.27,69.27,0,0,0,7.32-25.33,116,116,0,0,0-1.09-28.22A90.68,90.68,0,0,0,415.61,690c-.86-2.76-2-5.68-4.46-7.41l-.32-.2c2.23-1.44,4.48-2.87,6.71-4.29A160.2,160.2,0,0,1,439,666.29c6.41-2.83,13.74-5.46,20.86-4.52a13.47,13.47,0,0,1,3.23.89,83.68,83.68,0,0,0-11,5.55,1.6,1.6,0,0,0-1.89.35c-4.27,4.16-7,9.26-7.08,15.29-.09,5.82,2.1,11.5,4.26,16.81a1.65,1.65,0,0,0,.6.79c.55,2.1,1.16,4.16,1.76,6.12,2.06,6.76,4.45,13.42,6.12,20.29,1.39,5.74,2.39,12,.67,17.78a1.88,1.88,0,0,0,3.36,1.6C468.68,734.61,477.07,721.65,483.24,707.54Z"/><path class="cls-53" d="M431,642.49A92.28,92.28,0,0,0,416.73,646c1.74-3.07,3.41-6.17,5-9.34,4.77-1.33,9.6-2.44,14.34-3.88,2.3-.7,1.54-4.38-.78-3.68-3.79,1.16-7.64,2.1-11.47,3.1,1.11-2.48,2.15-5,3.09-7.59.49-1.31,1-2.64,1.43-4l.11-.08c4.26-3.55,9.95-4.68,14.95-6.78,2.25-.94.54-4.29-1.68-3.36-3.75,1.58-7.73,2.67-11.35,4.49,1-2.78,2-5.56,3.17-8.28a1.63,1.63,0,0,0,2.27-.12c2.64-2.59,6-3.71,9.51-4.48,2.37-.52,1.6-4.2-.77-3.68a25.49,25.49,0,0,0-8.83,3.41A53,53,0,0,1,445.77,587c1.72-1.7-.77-4.52-2.49-2.81a56.75,56.75,0,0,0-10.59,15.25c-.3-3.52-.93-7-1.3-10.52-.25-2.42-3.92-1.61-3.67.77.47,4.63,1.48,9.23,1.36,13.9a1.77,1.77,0,0,0,1,1.67c-1.27,3-2.41,6.07-3.51,9.13-1.8-5.45-3.37-11-6.24-16-1.2-2.1-4.56-.42-3.36,1.69,3.41,5.95,5,12.69,7.3,19.1a1.75,1.75,0,0,0,.37.63c-.21.62-.43,1.23-.65,1.84-1.31,3.67-2.79,7.23-4.41,10.72-2.53-6.86-6.86-13-9.31-19.9-.81-2.28-4.16-.57-3.36,1.69,2.57,7.25,7.34,13.61,9.64,21a2.05,2.05,0,0,0,.59,2.25c-1.78,3.49-3.7,6.91-5.7,10.29l-1,.29a2,2,0,0,0-.44.19c-2.09-5.13-4.32-10.21-6.84-15.15-1.1-2.16-4.46-.47-3.36,1.69,3.08,6,5.73,12.28,8.22,18.58q-2.6,4.15-5.3,8.3a1.88,1.88,0,0,0,3.15,2.05c2.76-4.24,5.48-8.49,8.07-12.8,5.88-1.82,11.75-3.76,17.86-4.62C434.2,645.84,433.4,642.16,431,642.49Z"/><path class="cls-53" d="M404.76,761.4c-1-2.69-2-5.48-2.05-8.37q1.46-6,2.57-12.17a55.89,55.89,0,0,1,2.05,6.9c.52,2.37,4.2,1.6,3.68-.77a77.41,77.41,0,0,0-4.55-13.31q.9-6.09,1.5-12.23c.94,2.17,2,4.31,2.85,6.5s4.26.55,3.36-1.68c-1.09-2.74-2.42-5.39-3.54-8.12-.88-2.13-1.78-4.64-.9-6.89a1.62,1.62,0,0,0-.87-2.16q.22-4.4.3-8.79c1.7,3.29,3.18,6.66,6.1,9.24,1.8,1.58,4.63-.9,2.82-2.5-4.27-3.76-5.52-9.4-8.87-13.82,0-1.17,0-2.34,0-3.5,0-2.41-3.8-2.62-3.76-.19,0,1,0,2,0,2.92a1.85,1.85,0,0,0-.94.75l-11.07,17a1.88,1.88,0,0,0,3.15,2l8.84-13.57q-.07,5.07-.33,10.16a1.71,1.71,0,0,0-1.45.83,194.39,194.39,0,0,1-12.74,16.82c-1.54,1.87,1.63,3.91,3.15,2,3.69-4.5,7.34-9,10.68-13.79q-.57,7.9-1.64,15.76A2,2,0,0,0,402,732c-.35-1.4-2.9-1.82-3.73-.06a54.54,54.54,0,0,1-8.07,12.39c-1.56,1.81.91,4.65,2.49,2.82A61.54,61.54,0,0,0,401.83,733a1.77,1.77,0,0,0,.15-.42,1.84,1.84,0,0,0,.13.44c.16.36.31.72.46,1.08-.72,4.7-1.57,9.38-2.59,14a2,2,0,0,0-3,.86,35,35,0,0,1-6.43,9.88c-1.61,1.78.87,4.61,2.49,2.81a43.87,43.87,0,0,0,5.49-7.43,189.17,189.17,0,0,1-6.08,19.61c-.85,2.27,2.74,3.4,3.58,1.14q2.58-6.93,4.6-14c.25.72.51,1.42.77,2.13C402.23,765.37,405.58,763.65,404.76,761.4Z"/><path class="cls-53" d="M473.62,724.21c-1.56-2.78-2.09-5.89-3-8.91.87-4.15,1.51-8.36,2-12.57a16.5,16.5,0,0,1,4.48,5.42c1,2.2,4.38.5,3.36-1.69-1.62-3.49-4.58-5.81-7.45-8.21a108.6,108.6,0,0,0,.07-14.09,33.88,33.88,0,0,1,9,9.08c1.32,2,4.7.33,3.36-1.69a38.52,38.52,0,0,0-12.79-12.09c-.08-.68-.16-1.36-.25-2q-.26-1.84-.6-3.69c1.76.89,3.58,1.69,5.37,2.52,2.92,1.35,6.22,2.79,8.33,5.31,1.57,1.87,4.37-.64,2.82-2.49-4.42-5.27-12-6.78-17.74-10.29a34.17,34.17,0,0,0-4.37-9.48c-1.36-2-4.15.51-2.81,2.49a25.35,25.35,0,0,1,2.58,5,2.12,2.12,0,0,0-.32.83c-.42,2.81-3,5.36-4.83,7.36a70.2,70.2,0,0,0-6.58,7.63c-1.35,2,1.8,4.06,3.15,2,2.82-4.19,7.66-7.69,10.3-12.18.47,2.06.81,4.14,1.09,6.17l.09.81a1.69,1.69,0,0,0-1.67.82c-3.13,4.8-6.26,9.57-10.63,13.34-1.84,1.59.66,4.4,2.49,2.82,4.13-3.57,7.27-8,10.24-12.51a100,100,0,0,1,0,12.84,1.86,1.86,0,0,0-1,.48c-4,3.62-6,8.9-10.5,12-2,1.36.52,4.16,2.49,2.81,3.75-2.55,5.75-6.56,8.54-9.92q-.57,5.67-1.7,11.26a1.44,1.44,0,0,0-.51.7,1.6,1.6,0,0,0-1.42,1.69c0,2.83-3.19,5.26-4.91,7.19s.89,4.63,2.49,2.82c.51-.57,1.07-1.15,1.64-1.75-1.78,5.65-4.14,11.29-7.87,15.93-1.52,1.88,1.64,3.92,3.15,2,4-5,6.52-11.19,8.43-17.26.22-.7.43-1.41.63-2.11a19.83,19.83,0,0,0,1.43,3.24C471.44,728,474.8,726.32,473.62,724.21Z"/><path class="cls-50" d="M315.41,693.47a77.07,77.07,0,0,0-22.78-1.07c-17.19,2.05-33.44,8.74-50.57,11a2,2,0,0,0-.07-.75c-2-7.37-9.08-12.4-15.4-16A65.68,65.68,0,0,0,216,682a59.1,59.1,0,0,0-13.06-2.56,106.75,106.75,0,0,0-30.65,1.05c-6.57,1.19-16.56,3.5-18.81,10.81,0,.12-.05.24-.08.36a1.92,1.92,0,0,0,1.43,2.24c17.19,5.67,31.06,18.35,48.55,23.4,12.21,3.52,29.51,2.75,36.33-9.8,17.24-1.79,33.49-8.35,50.59-10.94a74.36,74.36,0,0,1,22.09.26c7.07,1.05,15,2.88,20.57,7.56,1.86,1.54,4.43-1.19,2.57-2.75C329.86,696.9,322.47,694.78,315.41,693.47Z"/><path class="cls-51" d="M222.37,691.61c3.33,3,6,6.59,9.09,9.74-3.5-1.06-7-2-10.57-2.86a1.73,1.73,0,0,0-.54-2.77c-3.82-1.79-4.92-6.7-8.14-9.3-1.87-1.52-4.45,1.22-2.57,2.74,2.82,2.28,4,5.85,6.6,8.26-3.29-.72-6.58-1.37-9.89-2a2.26,2.26,0,0,0-.22-.55,41.15,41.15,0,0,0-8.19-9.62,1.88,1.88,0,0,0-2.57,2.74,46.75,46.75,0,0,1,6.1,6.58q-4.89-.81-9.81-1.53a2,2,0,0,0-.42-.7c-2.45-2.68-3.74-6.13-6.55-8.54-1.84-1.58-4.41,1.16-2.57,2.74a26.93,26.93,0,0,1,4.45,5.77l-6.88-.94c-2.39-2.23-5.09-4.1-7.64-6.15-1.88-1.51-4.46,1.23-2.57,2.74,1,.83,2.09,1.63,3.15,2.44-4.28-.59-8.55-1.19-12.81-1.85-2.38-.36-3.2,3.31-.8,3.68,5.19.8,10.4,1.52,15.62,2.23-.93.34-1.86.66-2.8,1-2.32.73-1.2,4.32,1.11,3.59,2.62-.83,5.17-1.87,7.79-2.7a1.75,1.75,0,0,0,1.08-.86l6.19.86a23.93,23.93,0,0,1-5.83,2.86c-2.34.63-1.22,4.22,1.12,3.59,3.83-1,6.79-4.52,10.73-5.07a1.92,1.92,0,0,0,.9-.36c3,.46,6,.95,8.95,1.47a17.85,17.85,0,0,0-4,2.19c-1.7,1.17-3.35,2.5-5.49,2.54-2.43.05-2.26,3.81.16,3.76,4.66-.1,7.36-4.31,11.68-5.24a1.67,1.67,0,0,0,1-2.65c2.86.54,5.71,1.11,8.55,1.73a56.61,56.61,0,0,1-12.34,5.37c-2.32.73-1.2,4.32,1.11,3.59a58.56,58.56,0,0,0,14.36-6.47,1.75,1.75,0,0,0,.84-1.58c3.11.75,6.19,1.55,9.26,2.45-5,1.32-9.66,3.86-14.89,4.32-2.41.22-2.26,4,.16,3.76,7.28-.65,13.55-5.31,21-5.11a1.61,1.61,0,0,0,1.34-.56l1.2.41c2.06.73,2.9-2.21,1.37-3.37a1.87,1.87,0,0,0-.9-1.83c-5.35-3.36-8.6-9.12-13.26-13.27C223.13,687.26,220.56,690,222.37,691.61Z"/><path class="cls-54" d="M331.43,701.3a10.39,10.39,0,0,1,.4,1.91c0,.09,0,.48,0,.59a1.77,1.77,0,0,0-.42.83h5.75a1.89,1.89,0,0,0,.24-.75,60.24,60.24,0,0,0-2.88-26.58c-1.18-3.27-2.73-7.33-5.32-9.93a25.49,25.49,0,0,0-1.07-2.4c-.83-1.61-2.84-1-3.36.36-2.14.12-4.21,1.59-6,2.94-3.11-5.17-6.36-10.27-9.89-15.11-3.3-4.51-7.18-9.87-12.37-12.35a7,7,0,0,0-6.24-.23c-2.09,1-3.26,3.35-4,5.5a4.62,4.62,0,0,0-1.28,1.48,30.13,30.13,0,0,0-7.39-4.15,1.61,1.61,0,0,0-2.41-.54c-10,7-17.59,15.84-21.62,27.44-5.23,15.09-1.18,31.33-5.18,46.6-.38,1.48,1.36,3.14,2.76,2.13,4.66-3.38,10.32-4.81,15.25-7.7a85.48,85.48,0,0,0,13.2-10c8-7.13,15.6-16.65,17.82-27.4a1.57,1.57,0,0,0,.9-1.63,35,35,0,0,0-10.41-22.24c.15-.27.31-.54.48-.79a2,2,0,0,0,1.22-1.28,11.5,11.5,0,0,1,1.37-3.13,2.64,2.64,0,0,1,1.41-1.12,2.6,2.6,0,0,1,1.65.1,9.08,9.08,0,0,1,2.48,1.33c4.41,3,7.77,7.91,10.79,12.24s5.8,8.72,8.51,13.23c-12.76,11.23-18.21,29-19.77,45.47-.66,7-1,14.53.83,21.34a1.9,1.9,0,0,0,2.76,1.12c12.26-5.92,18.85-18.79,23.66-30.86,1.87-4.67,3.61-9.45,5-14.3.32.67.63,1.35.94,2A43.86,43.86,0,0,1,331.43,701.3Zm-1.53-14.16a46,46,0,0,0,1.09-8.88c2.15,5.91,2.81,12.51,2.92,18.65-.41-1-.85-2-1.29-3-.9-2-1.87-4.08-2.88-6.08C329.79,687.59,329.85,687.37,329.9,687.14Z"/><path class="cls-55" d="M287.89,650c1.33-2-1.92-3.92-3.24-1.9-.57.88-1.18,1.73-1.79,2.57a2,2,0,0,0-.74.34,1.83,1.83,0,0,0-1.61-.39c-3.47.74-6.82,2.11-10.4,2.19-2.42.06-2.43,3.82,0,3.76,3.38-.08,6.55-1.14,9.79-1.95a60.71,60.71,0,0,0-5.33,7.93l-.43.83c.27-1.42-1.18-3.05-2.72-2-3.3,2.15-7.13,4.15-11.08,4.63-2.38.28-2.41,4.05,0,3.76a28.75,28.75,0,0,0,10.18-3.47c.39.9.77,1.81,1.11,2.73q-.51,1.26-1.05,2.49-1,2.42-2,4.84a1.9,1.9,0,0,0-2.8-1.83c-4.29,2.5-9.67,3.6-12.71,7.82-1.41,2,1.85,3.84,3.25,1.9,1.24-1.72,3.4-2.67,5.26-3.55,1.46-.69,2.95-1.31,4.39-2a15.61,15.61,0,0,0,.39,3.75c-.21.58-.44,1.16-.68,1.74a1.87,1.87,0,0,0-.66.43c-3.93,3.87-8.48,7-12.4,10.9-1.73,1.7.93,4.36,2.65,2.66,1.91-1.88,4-3.59,6-5.3-3.86,6.89-8.09,13.62-9.53,21.51-.44,2.37,3.18,3.38,3.62,1,1.15-6.26,4-11.89,7.15-17.44a49.33,49.33,0,0,1,.81,7.17c0,2.42,3.8,2.42,3.76,0-.06-4.28-1.26-8.42-1.47-12.67.79-1.44,1.57-2.88,2.29-4.34a17.71,17.71,0,0,1,.68,4.23c.07,2.42,3.83,2.42,3.76,0-.08-3.24-1.37-6.29-2.12-9.41,1.09-2.79,2-5.66,3.15-8.44a56.19,56.19,0,0,1,1.3,6.32c.33,2.39,4,1.37,3.62-1a55.12,55.12,0,0,0-2.65-10.63c.6-1.38,1.22-2.75,1.87-4.11a43.18,43.18,0,0,1,4.4-7c.85,4.14,2.39,8.16,2.46,12.43.05,2.42,3.8,2.42,3.76,0-.1-5.7-2.79-11-3-16.64C286.1,652.54,287,651.26,287.89,650Z"/><path class="cls-55" d="M324.41,670.23a73,73,0,0,0-5.92,8.82,2,2,0,0,0-1.36.48,1.73,1.73,0,0,0-1.74.47,56.47,56.47,0,0,1-7.14,5.34c-2,1.39-.09,4.65,1.9,3.25,1.76-1.24,3.57-2.41,5.28-3.71-1.11,2.31-2.12,4.67-3.06,7.06a2,2,0,0,0-.36.17c-3.22,1.93-7.37,2.85-9.78,5.93-1.47,1.89,1.17,4.57,2.66,2.66s3.51-2.75,5.62-3.69c-.69,2-1.33,4-1.94,6a1.6,1.6,0,0,0-1.07.37c-3.31,2.49-6.65,5.05-8.94,8.56-1.33,2,1.92,3.92,3.24,1.9a23.62,23.62,0,0,1,5.22-5.39q-.86,3.18-1.65,6.38c-3,2.11-5.91,4.16-7.94,7.26-1.33,2,1.93,3.92,3.24,1.9a15.28,15.28,0,0,1,3.36-3.54c-.52,2.21-1,4.42-1.53,6.6-.54,2.36,3.08,3.36,3.63,1l1.05-4.55q.12.59.21,1.17A1.88,1.88,0,0,0,309.7,726a1.92,1.92,0,0,0,1.31-2.31,12.46,12.46,0,0,0-2.39-6.09c.53-2.09,1.06-4.19,1.62-6.27.37.84.73,1.69,1.1,2.53a1.89,1.89,0,0,0,2.57.68,1.93,1.93,0,0,0,.67-2.58c-.89-2.08-1.78-4.16-2.75-6.2.55-1.85,1.11-3.68,1.71-5.51.23,1.08.42,2.16.55,3.27.28,2.37,4,2.4,3.76,0a52,52,0,0,0-2.1-9.56c.94-2.48,2-5,3.09-7.37.62,1.4,1.21,2.81,1.71,4.27.78,2.28,4.41,1.3,3.62-1a67.81,67.81,0,0,0-3.2-7.55,65.11,65.11,0,0,1,6.1-9.42C328.55,671,325.91,668.32,324.41,670.23Z"/><rect class="cls-43" x="469.56" y="714.72" width="153.3" height="63.16"/><polygon class="cls-56" points="1025.28 677.94 1000.19 685.38 820.52 712.57 807.69 711.38 1025.28 677.94"/><path class="cls-57" d="M1000.19,685.38,886.92,750.9l-66.4-38.33Zm-80,41.17,54.64-31.76-86.6,13.31,32,18.45M887.9,745.3l22-12.8L872,710.6,837.09,716,887.9,745.3"/><polygon class="cls-58" points="886.92 750.9 887.97 757.73 807.69 711.38 820.52 712.57 886.92 750.9"/><polygon class="cls-59" points="1025.28 677.94 887.97 757.73 886.92 750.9 1000.19 685.38 1025.28 677.94"/><rect class="cls-28" x="1031.32" y="871.63" width="8.74" height="59.76"/><path class="cls-29" d="M1040.06,871.63V931.4h-3.81V882.13a5.74,5.74,0,0,0-4.93-6v-4.49Z"/><rect class="cls-28" x="928.2" y="871.63" width="8.73" height="59.76"/><path class="cls-29" d="M936.93,871.63V931.4h-3.8V882.13a5.72,5.72,0,0,0-4.93-6v-4.49Z"/><polygon class="cls-32" points="1069.28 855.03 1040.06 820.87 928.2 820.87 898.98 855.03 1069.28 855.03"/><rect class="cls-33" x="898.98" y="855.03" width="170.29" height="7.04"/><rect class="cls-35" x="909.43" y="862.07" width="149.42" height="15.19"/><rect class="cls-36" x="909.43" y="862.09" width="149.42" height="3.71"/><rect class="cls-43" x="902.86" y="706.75" width="162.55" height="66.58"/><rect class="cls-28" x="1043.72" y="721.24" width="10.08" height="243.22"/><path class="cls-29" d="M1053.72,721.24h-10.1v9.59c2.12.58,3.7,3.69,3.7,11.82V964.46h6.4Z"/><rect class="cls-28" x="916.48" y="721.24" width="10.1" height="243.22"/><path class="cls-29" d="M926.47,721.24H916.39v9.59c2.1.58,3.69,3.69,3.69,11.82V964.46h6.39Z"/><polygon class="cls-40" points="1065.41 706.75 1062.28 704.94 905.96 704.94 902.86 706.75 1065.41 706.75"/><path class="cls-28" d="M1233.57,1077.32V879.56h-14.78V1076.4C1223.72,1076.6,1228.65,1076.89,1233.57,1077.32Z"/><path class="cls-29" d="M1224.06,897.72v178.93q4.68.25,9.35.65V879.56h-14.77v8.14C1221.71,888.19,1224.06,890.83,1224.06,897.72Z"/><rect class="cls-28" x="1184.28" y="884.94" width="14.76" height="124.87"/><path class="cls-29" d="M1199,884.94v124.87h-6.42V906.88c0-8.67-4.76-11.58-8.34-12.56v-9.38Z"/><path class="cls-28" d="M844.24,1076.71V879.56h-14.8v197.35C834.37,1076.8,839.31,1076.68,844.24,1076.71Z"/><path class="cls-29" d="M834.71,897.72V1076.8c3.12-.07,6.24-.11,9.35-.09V879.56H829.28v8.14C832.36,888.19,834.71,890.83,834.71,897.72Z"/><rect class="cls-28" x="863.89" y="884.94" width="14.77" height="124.87"/><path class="cls-29" d="M878.66,884.94v124.87h-6.42V906.88c0-8.67-4.77-11.58-8.35-12.56v-9.38Z"/><polygon class="cls-32" points="1266.09 871.31 1209.44 805.04 853.21 805.04 796.58 871.31 1266.09 871.31"/><rect class="cls-33" x="796.58" y="871.31" width="469.51" height="13.63"/><rect class="cls-35" x="816.83" y="884.94" width="429.01" height="29.44"/><rect class="cls-36" x="816.83" y="884.94" width="429.01" height="7.22"/><rect class="cls-43" x="1013.29" y="836.61" width="206.37" height="84.53"/><path class="cls-28" d="M1187.48,1076.16V1046h-11.1v30.38Z"/><path class="cls-29" d="M1182.65,1059.27v17l4.83-.07V1046h-11.1v5.69C1179.06,1052.23,1182.65,1054,1182.65,1059.27Z"/><path class="cls-28" d="M1053.78,1077.17a4.8,4.8,0,0,1,2.77.81v-32h-11.08v31.22Z"/><path class="cls-29" d="M1051.74,1059.27v17.9h2a4.8,4.8,0,0,1,2.77.81v-32h-11.08v5.69C1048.16,1052.23,1051.74,1054,1051.74,1059.27Z"/><polygon class="cls-32" points="1224.58 1024.87 1187.48 981.5 1045.47 981.5 1008.38 1024.87 1224.58 1024.87"/><rect class="cls-33" x="1008.37" y="1024.87" width="216.2" height="8.93"/><rect class="cls-35" x="1021.64" y="1033.8" width="189.7" height="19.28"/><rect class="cls-36" x="1021.64" y="1033.83" width="189.7" height="4.71"/><path class="cls-28" d="M1204.94,1076.09V855h-12.8v221.09Q1198.55,1076.05,1204.94,1076.09Z"/><path class="cls-29" d="M1196.7,882.2v193.88q4.07,0,8.13,0V855H1192v12.16C1194.69,867.92,1196.7,871.87,1196.7,882.2Z"/><rect class="cls-28" x="1030.6" y="855.02" width="12.82" height="222.15"/><path class="cls-29" d="M1035.16,882.2v195h8.11V855h-12.8v12.16C1033.14,867.92,1035.16,871.87,1035.16,882.2Z"/><polygon class="cls-40" points="1219.67 836.62 1215.7 834.32 1017.24 834.32 1013.29 836.62 1219.67 836.62"/></g></g></g></svg>