<svg xmlns="http://www.w3.org/2000/svg" viewBox="0 0 76.91 195.44"><defs><style>.cls-1{fill:#f4b3ce;}.cls-2{fill:#d68eaf;}.cls-3{fill:#dda6c0;}</style></defs><title>Asset 19</title><g id="Layer_2" data-name="Layer 2"><g id="Layer_1-2" data-name="Layer 1"><path class="cls-1" d="M63.12,5,76.91,134.58,15.17,195.44,0,53m0,0L46.47,0,63.12,5M27.43,150l18-13.86L33.58,116.32,27.43,150m-11-54.67,2.47,23.25L32.41,108.1,29.93,84.85,16.38,95.3M48.74,113c4.27-1.87,7.75-9.61,7.76-17.28s-3.43-12.37-7.71-10.5-7.74,9.6-7.75,17.26,3.43,12.39,7.7,10.52"/><path class="cls-2" d="M48.79,85.23c4.28-1.87,7.72,2.83,7.71,10.5S53,111.14,48.74,113,41,110.17,41,102.49,44.52,87.09,48.79,85.23Z"/><polygon class="cls-2" points="33.58 116.32 45.42 136.1 27.43 149.97 33.58 116.32"/><polygon class="cls-2" points="29.93 84.85 32.41 108.1 18.86 118.55 16.38 95.3 29.93 84.85"/><path class="cls-3" d="M63.12,5h0L0,53m0,0L46.47,0,63.12,5M16.38,95.3l2.47,23.25"/></g></g></svg>