<svg xmlns="http://www.w3.org/2000/svg" xmlns:xlink="http://www.w3.org/1999/xlink" viewBox="0 0 1900.72 594.16"><defs><style>.cls-1{fill:none;}.cls-2{isolation:isolate;}.cls-3{clip-path:url(#clip-path);}.cls-4{fill:#7c7a97;}.cls-5{fill:#474969;}.cls-6{fill:#5652a8;}.cls-7{fill:#5b57b2;}.cls-12,.cls-7{opacity:0.5;mix-blend-mode:multiply;}.cls-8{fill:#bcaff2;}.cls-9{fill:#8e85cc;}.cls-10{fill:#5f5fb2;}.cls-11,.cls-12{fill:#7169b5;}.cls-13{fill:#7c380a;}.cls-14{fill:#9e4f19;}.cls-15{fill:#7472c1;}.cls-16{fill:#d9d4f4;}.cls-17{fill:#8986c4;}.cls-18{fill:#c2c2ef;}.cls-19{fill:#a398e5;}.cls-20{fill:#b27f7f;}.cls-21{fill:#b58c8c;}.cls-22{fill:#895555;}.cls-23{fill:#937373;}.cls-24{fill:#aa6b6b;}.cls-25{fill:#7c5252;}.cls-26{fill:#74962c;}.cls-27{fill:#5e870f;}.cls-28{fill:#828e57;}.cls-29{fill:#678234;}.cls-30{fill:#697c33;}.cls-31{fill:#64891f;}.cls-32{fill:#fcd683;}.cls-33{fill:#f9b564;}.cls-34{fill:#ea9357;}.cls-35{fill:#ef8e4d;}</style><clipPath id="clip-path" transform="translate(-123.62 -569.64)"><path class="cls-1" d="M512.23,93.9C553.48,78,1161-121.15,1761.11,113.8c129.07,50.54,276.45,180.61,288.71,330.39,20.07,245.2-140.17,411.06-334,513.4-173.81,91.78-1002.44,170.25-1399.42,1.15C202.27,910.1,0,801.72,0,565.17,0,319.66,388,141.89,512.23,93.9Z"/></clipPath></defs><title>Asset 21</title><g class="cls-2"><g id="Layer_2" data-name="Layer 2"><g id="Layer_1-2" data-name="Layer 1"><g class="cls-3"><rect class="cls-4" x="643.41" y="170.39" width="11.76" height="137.3"/><path class="cls-5" d="M778.79,740v137.3h-5.11V757.48c0-6.91-3.81-9.23-6.65-10V740Z" transform="translate(-123.62 -569.64)"/><polygon class="cls-6" points="662.27 150.02 662.27 173.46 605.49 231.76 605.49 208.34 662.27 150.02"/><polygon class="cls-7" points="662.27 153.13 662.27 162.28 605.49 217.5 605.49 208.34 662.27 153.13"/><rect class="cls-4" x="318.58" y="204.07" width="11.77" height="164.17"/><path class="cls-5" d="M453.85,773.72H442.07v6.46c2.46.38,4.32,2.48,4.32,8V937.88h7.46Z" transform="translate(-123.62 -569.64)"/><rect class="cls-4" x="376.41" y="208.34" width="11.74" height="99.34"/><path class="cls-5" d="M511.76,778v99.34h-5.09v-81.9c0-6.89-3.81-9.21-6.65-10V778Z" transform="translate(-123.62 -569.64)"/><rect class="cls-4" x="587.36" y="204.07" width="11.78" height="164.17"/><path class="cls-5" d="M722.62,773.72H710.85v6.46c2.46.38,4.32,2.48,4.32,8V937.88h7.45Z" transform="translate(-123.62 -569.64)"/><polygon class="cls-8" points="292.59 197.49 372.7 144.78 672.78 144.78 620.48 197.49 292.59 197.49"/><rect class="cls-9" x="292.59" y="197.49" width="327.89" height="10.85"/><polygon class="cls-10" points="672.78 155.64 672.78 144.78 620.48 197.49 620.48 208.34 672.78 155.64"/><rect class="cls-11" x="308.7" y="208.34" width="296.79" height="23.42"/><rect class="cls-12" x="308.7" y="208.35" width="296.79" height="9.15"/><rect class="cls-4" x="1015.09" y="188.84" width="11.65" height="162.53"/><path class="cls-5" d="M1150.23,758.48H1138.6v6.41c2.42.39,4.26,2.47,4.26,7.89V921h7.37Z" transform="translate(-123.62 -569.64)"/><rect class="cls-4" x="987.91" y="193.07" width="11.63" height="98.35"/><path class="cls-5" d="M1123.16,762.72v98.35h-5.06V780c0-6.83-3.75-9.12-6.57-9.89v-7.39Z" transform="translate(-123.62 -569.64)"/><rect class="cls-4" x="708.42" y="188.84" width="11.66" height="162.53"/><path class="cls-5" d="M843.56,758.48H831.91v6.41c2.43.39,4.28,2.47,4.28,7.89V921h7.37Z" transform="translate(-123.62 -569.64)"/><rect class="cls-4" x="735.56" y="193.07" width="11.63" height="98.35"/><path class="cls-5" d="M870.81,762.72v98.35h-5.06V780c0-6.83-3.76-9.12-6.57-9.89v-7.39Z" transform="translate(-123.62 -569.64)"/><polygon class="cls-8" points="1052.36 182.34 1007.74 130.14 727.14 130.14 682.54 182.34 1052.36 182.34"/><rect class="cls-9" x="682.54" y="182.34" width="369.81" height="10.74"/><rect class="cls-11" x="698.49" y="193.07" width="337.91" height="23.19"/><rect class="cls-12" x="698.49" y="193.07" width="337.91" height="5.69"/><path class="cls-13" d="M965.61,877.25a2.84,2.84,0,1,1-2.84-2.83A2.84,2.84,0,0,1,965.61,877.25Z" transform="translate(-123.62 -569.64)"/><path class="cls-13" d="M1093.5,877.25a2.84,2.84,0,1,1-2.83-2.83A2.83,2.83,0,0,1,1093.5,877.25Z" transform="translate(-123.62 -569.64)"/><rect class="cls-4" x="388.91" y="301.5" width="8.3" height="64.6"/><path class="cls-5" d="M520.83,871.15v64.6h-3.62V881.1a5.44,5.44,0,0,0-4.68-5.7v-4.25Z" transform="translate(-123.62 -569.64)"/><rect class="cls-4" x="506.97" y="269.7" width="8.3" height="96.41"/><path class="cls-5" d="M638.89,839.34v96.41h-3.62V849.32a5.42,5.42,0,0,0-4.68-5.71v-4.27Z" transform="translate(-123.62 -569.64)"/><polygon class="cls-6" points="521.36 256.51 521.36 271.87 484.17 309.41 484.17 294.07 521.36 256.51"/><polygon class="cls-7" points="521.36 257.9 521.36 263.9 484.17 300.07 484.17 294.07 521.36 257.9"/><polygon class="cls-8" points="340.71 286.95 393.17 252.44 528.25 252.44 494 286.95 340.71 286.95"/><rect class="cls-9" x="340.71" y="286.95" width="153.3" height="7.11"/><polygon class="cls-10" points="528.25 259.54 528.25 252.44 494 286.95 494 294.07 528.25 259.54"/><rect class="cls-14" x="351.25" y="294.07" width="132.92" height="15.35"/><rect class="cls-11" x="351.25" y="294.07" width="132.92" height="15.35"/><rect class="cls-12" x="351.25" y="294.07" width="132.92" height="6.01"/><polygon class="cls-15" points="498.73 143.33 498.73 204.96 494 208.24 494 145.08 498.73 143.33"/><polygon class="cls-16" points="340.71 145.08 345.43 143.33 498.73 143.33 494 145.08 340.71 145.08"/><rect class="cls-4" x="353.82" y="158.84" width="9.58" height="238.63"/><path class="cls-5" d="M486.91,728.48h-9.58v9.07c2,.55,3.53,3.51,3.53,11.22V967.12h6.05Z" transform="translate(-123.62 -569.64)"/><rect class="cls-4" x="467.72" y="158.84" width="9.58" height="238.63"/><path class="cls-5" d="M600.82,728.48h-9.57v9.07c2,.55,3.51,3.51,3.51,11.22V967.12h6.06Z" transform="translate(-123.62 -569.64)"/><rect class="cls-4" x="445.4" y="267.91" width="14.93" height="174.31"/><path class="cls-5" d="M583.94,837.56v174.31h-6.49V859.71c0-8.78-4.83-11.72-8.44-12.69v-9.46Z" transform="translate(-123.62 -569.64)"/><polygon class="cls-6" points="469.34 242.06 469.34 271.81 397.25 345.83 397.25 316.1 469.34 242.06"/><polygon class="cls-7" points="469.34 246 469.34 257.62 397.25 327.73 397.25 316.1 469.34 246"/><rect class="cls-4" x="32.99" y="310.68" width="14.94" height="208.42"/><path class="cls-5" d="M171.4,880.32h-15v8.21c3.12.48,5.48,3.15,5.48,10.12v190.09h9.47Z" transform="translate(-123.62 -569.64)"/><rect class="cls-4" x="106.41" y="316.1" width="14.9" height="126.12"/><path class="cls-5" d="M244.93,885.74v126.13h-6.46v-104c0-8.75-4.84-11.7-8.44-12.67v-9.48Z" transform="translate(-123.62 -569.64)"/><rect class="cls-4" x="374.24" y="310.68" width="14.95" height="208.42"/><path class="cls-5" d="M512.63,880.32H497.7v8.21c3.11.48,5.47,3.15,5.47,10.12v190.09h9.46Z" transform="translate(-123.62 -569.64)"/><polygon class="cls-8" points="0 302.32 101.7 235.4 482.69 235.4 416.28 302.32 0 302.32"/><rect class="cls-9" y="302.32" width="416.28" height="13.77"/><polygon class="cls-10" points="482.69 249.19 482.69 235.4 416.28 302.32 416.28 316.1 482.69 249.19"/><rect class="cls-11" x="20.46" y="316.1" width="376.79" height="29.74"/><rect class="cls-12" x="20.46" y="316.11" width="376.79" height="11.62"/><rect class="cls-4" x="1081.88" y="137.78" width="11.76" height="137.3"/><path class="cls-5" d="M1217.26,707.43V844.72h-5.11V724.87c0-6.91-3.81-9.23-6.65-10v-7.45Z" transform="translate(-123.62 -569.64)"/><polygon class="cls-17" points="1074.78 117.42 1074.78 140.85 1131.56 199.16 1131.56 175.74 1074.78 117.42"/><polygon class="cls-7" points="1074.78 120.53 1074.78 129.68 1131.56 184.9 1131.56 175.74 1074.78 120.53"/><rect class="cls-4" x="1406.83" y="171.47" width="11.77" height="164.17"/><path class="cls-5" d="M1542.1,741.11h-11.78v6.46c2.46.39,4.32,2.49,4.32,8V905.28h7.46Z" transform="translate(-123.62 -569.64)"/><rect class="cls-4" x="1348.91" y="175.74" width="11.74" height="99.34"/><path class="cls-5" d="M1484.26,745.38v99.34h-5.09V762.83c0-6.9-3.81-9.22-6.65-10v-7.46Z" transform="translate(-123.62 -569.64)"/><rect class="cls-4" x="1138.04" y="171.47" width="11.78" height="164.17"/><path class="cls-5" d="M1273.3,741.11h-11.77v6.46c2.45.39,4.31,2.49,4.31,8V905.28h7.46Z" transform="translate(-123.62 -569.64)"/><polygon class="cls-8" points="1444.46 164.89 1364.35 112.17 1064.27 112.17 1116.57 164.89 1444.46 164.89"/><rect class="cls-9" x="1116.57" y="164.89" width="327.89" height="10.85"/><polygon class="cls-18" points="1064.27 123.03 1064.27 112.17 1116.57 164.89 1116.57 175.74 1064.27 123.03"/><rect class="cls-11" x="1131.56" y="175.74" width="296.79" height="23.42"/><rect class="cls-12" x="1131.56" y="175.75" width="296.79" height="9.15"/><rect class="cls-4" x="1353.52" y="301.5" width="8.3" height="64.6"/><path class="cls-5" d="M1485.44,871.15v64.6h-3.63V881.1a5.44,5.44,0,0,0-4.68-5.7v-4.25Z" transform="translate(-123.62 -569.64)"/><rect class="cls-4" x="1235.46" y="269.7" width="8.3" height="96.41"/><path class="cls-5" d="M1367.37,839.34v96.41h-3.62V849.32a5.42,5.42,0,0,0-4.67-5.71v-4.27Z" transform="translate(-123.62 -569.64)"/><polygon class="cls-17" points="1229.37 256.51 1229.37 271.87 1266.56 309.41 1266.56 294.07 1229.37 256.51"/><polygon class="cls-7" points="1229.37 257.9 1229.37 263.9 1266.56 300.07 1266.56 294.07 1229.37 257.9"/><polygon class="cls-8" points="1410.02 286.95 1357.56 252.44 1222.48 252.44 1256.72 286.95 1410.02 286.95"/><rect class="cls-9" x="1256.72" y="286.95" width="153.3" height="7.11"/><polygon class="cls-18" points="1222.48 259.54 1222.48 252.44 1256.72 286.95 1256.72 294.07 1222.48 259.54"/><rect class="cls-11" x="1266.56" y="294.07" width="132.92" height="15.35"/><rect class="cls-12" x="1266.56" y="294.07" width="132.92" height="6.01"/><polygon class="cls-18" points="1252 143.33 1252 204.96 1256.72 208.24 1256.72 145.08 1252 143.33"/><rect class="cls-19" x="1256.72" y="145.08" width="153.3" height="63.16"/><rect class="cls-4" x="1387.43" y="158.84" width="9.58" height="238.63"/><path class="cls-5" d="M1520.52,728.48H1511v9.07c2,.55,3.52,3.51,3.52,11.22V967.12h6Z" transform="translate(-123.62 -569.64)"/><rect class="cls-4" x="1273.51" y="158.84" width="9.58" height="238.63"/><path class="cls-5" d="M1406.61,728.48H1397v9.07c2,.55,3.51,3.51,3.51,11.22V967.12h6.06Z" transform="translate(-123.62 -569.64)"/><polygon class="cls-16" points="1410.02 145.08 1405.3 143.33 1252 143.33 1256.72 145.08 1410.02 145.08"/><rect class="cls-4" x="1377" y="267.91" width="14.93" height="174.31"/><path class="cls-5" d="M1515.54,837.56v174.31h-6.48V859.71c0-8.78-4.84-11.72-8.44-12.69v-9.46Z" transform="translate(-123.62 -569.64)"/><polygon class="cls-17" points="1367.98 242.06 1367.98 271.81 1440.07 345.83 1440.07 316.1 1367.98 242.06"/><polygon class="cls-7" points="1367.98 246 1367.98 257.62 1440.07 327.73 1440.07 316.1 1367.98 246"/><rect class="cls-4" x="1789.54" y="310.68" width="14.94" height="208.42"/><path class="cls-5" d="M1928,880.32h-15v8.21c3.12.48,5.48,3.15,5.48,10.12v190.09H1928Z" transform="translate(-123.62 -569.64)"/><rect class="cls-4" x="1716.01" y="316.1" width="14.9" height="126.12"/><path class="cls-5" d="M1854.53,885.74v126.13h-6.46v-104c0-8.75-4.84-11.7-8.44-12.67v-9.48Z" transform="translate(-123.62 -569.64)"/><rect class="cls-4" x="1448.29" y="310.68" width="14.95" height="208.42"/><path class="cls-5" d="M1586.69,880.32h-14.94v8.21c3.12.48,5.48,3.15,5.48,10.12v190.09h9.46Z" transform="translate(-123.62 -569.64)"/><polygon class="cls-8" points="1837.32 302.32 1735.62 235.4 1354.64 235.4 1421.04 302.32 1837.32 302.32"/><rect class="cls-9" x="1421.04" y="302.32" width="416.28" height="13.77"/><polygon class="cls-18" points="1354.64 249.19 1354.64 235.4 1421.04 302.32 1421.04 316.1 1354.64 249.19"/><rect class="cls-11" x="1440.07" y="316.1" width="376.79" height="29.74"/><rect class="cls-12" x="1440.07" y="316.11" width="376.79" height="11.62"/><rect class="cls-4" x="1828.97" y="452.96" width="10.54" height="82.02"/><path class="cls-5" d="M1963.13,1022.6v82h-4.59v-69.38c0-5-3.4-6.68-6-7.24v-5.4Z" transform="translate(-123.62 -569.64)"/><rect class="cls-4" x="1679.09" y="412.58" width="10.53" height="122.4"/><path class="cls-5" d="M1813.24,982.22v122.4h-4.59V994.88c0-5-3.38-6.7-5.94-7.25v-5.41Z" transform="translate(-123.62 -569.64)"/><polygon class="cls-17" points="1671.36 395.83 1671.36 415.33 1718.58 463 1718.58 443.51 1671.36 395.83"/><polygon class="cls-7" points="1671.36 397.6 1671.36 405.21 1718.58 451.14 1718.58 443.51 1671.36 397.6"/><polygon class="cls-8" points="1900.71 434.49 1834.1 390.67 1662.62 390.67 1706.09 434.49 1900.71 434.49"/><rect class="cls-9" x="1706.09" y="434.49" width="194.62" height="9.03"/><polygon class="cls-18" points="1662.62 399.68 1662.62 390.67 1706.09 434.49 1706.09 443.51 1662.62 399.68"/><rect class="cls-11" x="1718.58" y="443.52" width="168.76" height="19.48"/><rect class="cls-12" x="1718.58" y="443.52" width="168.76" height="7.62"/><polygon class="cls-18" points="1700.1 252.14 1700.1 330.39 1706.09 334.55 1706.09 254.36 1700.1 252.14"/><rect class="cls-19" x="1706.09" y="254.36" width="194.62" height="80.19"/><rect class="cls-4" x="1872.04" y="271.83" width="12.16" height="302.97"/><path class="cls-5" d="M2007.68,841.48h-12.16V853c2.54.7,4.48,4.46,4.48,14.24v277.21h7.68Z" transform="translate(-123.62 -569.64)"/><rect class="cls-4" x="1727.4" y="271.83" width="12.17" height="302.97"/><path class="cls-5" d="M1863.06,841.48h-12.15V853c2.54.7,4.46,4.46,4.46,14.24v277.21h7.69Z" transform="translate(-123.62 -569.64)"/><polygon class="cls-16" points="1900.71 254.36 1894.72 252.14 1700.1 252.14 1706.09 254.36 1900.71 254.36"/><polygon class="cls-15" points="240.92 252.14 240.92 330.39 234.93 334.55 234.93 254.36 240.92 252.14"/><rect class="cls-19" x="40.3" y="254.36" width="194.62" height="80.19"/><rect class="cls-4" x="101.5" y="452.96" width="10.54" height="82.02"/><path class="cls-5" d="M235.66,1022.6v82h-4.6v-69.38c0-5-3.39-6.68-5.94-7.24v-5.4Z" transform="translate(-123.62 -569.64)"/><rect class="cls-4" x="251.39" y="412.58" width="10.53" height="122.4"/><path class="cls-5" d="M385.54,982.22v122.4H381V994.88c0-5-3.39-6.7-5.94-7.25v-5.41Z" transform="translate(-123.62 -569.64)"/><polygon class="cls-6" points="269.66 395.83 269.66 415.33 222.44 463 222.44 443.51 269.66 395.83"/><polygon class="cls-7" points="269.66 397.6 269.66 405.21 222.44 451.14 222.44 443.51 269.66 397.6"/><polygon class="cls-8" points="40.3 434.49 106.91 390.67 278.4 390.67 234.93 434.49 40.3 434.49"/><rect class="cls-9" x="40.3" y="434.49" width="194.62" height="9.03"/><polygon class="cls-10" points="278.4 399.68 278.4 390.67 234.93 434.49 234.93 443.51 278.4 399.68"/><rect class="cls-11" x="53.68" y="443.52" width="168.76" height="19.48"/><rect class="cls-12" x="53.68" y="443.52" width="168.76" height="7.62"/><polygon class="cls-16" points="40.3 254.36 46.3 252.14 240.92 252.14 234.93 254.36 40.3 254.36"/><rect class="cls-4" x="56.95" y="271.83" width="12.16" height="302.97"/><path class="cls-5" d="M192.6,841.48H180.44V853c2.54.7,4.48,4.46,4.48,14.24v277.21h7.68Z" transform="translate(-123.62 -569.64)"/><rect class="cls-4" x="201.56" y="271.83" width="12.17" height="302.97"/><path class="cls-5" d="M337.22,841.48H325.07V853c2.54.7,4.45,4.46,4.45,14.24v277.21h7.7Z" transform="translate(-123.62 -569.64)"/><polygon class="cls-20" points="239.77 224.74 178.35 224.74 158.24 145.31 258.48 145.31 239.77 224.74"/><rect class="cls-21" x="151.54" y="134.99" width="112.24" height="10.33"/><polygon class="cls-22" points="208.36 145.31 158.24 145.31 178.35 224.74 208.36 224.74 208.36 145.31"/><rect class="cls-23" x="151.54" y="134.99" width="56.82" height="10.33"/><polygon class="cls-24" points="239.77 225.93 178.35 225.93 158.24 215.21 258.48 215.21 239.77 225.93"/><polygon class="cls-25" points="208.36 215.21 158.24 215.21 178.35 225.93 208.36 225.93 208.36 215.21"/><path class="cls-26" d="M513.75,624.79l1.37-1.32a1.9,1.9,0,0,0-1.33-3.21,200.37,200.37,0,0,0-27.43,2.85,122.45,122.45,0,0,0-14,3.34,39.06,39.06,0,0,0-8.91,3.57c-5.08,3.08-9.5,7.36-13.83,11.39-2,1.9-4.05,3.83-6.12,5.7-.72.66-1.46,1.31-2.22,1.92a5.42,5.42,0,0,1-.49.34l-.24.16a2,2,0,0,0-1.4,2,326.91,326.91,0,0,0-58.34,19.12C362.08,678.85,342.33,685.74,328,701a1.83,1.83,0,0,0-.51,1.08l2.14,2.14a1.74,1.74,0,0,0,1-.56c13.95-14.78,33.24-21.57,51.44-29.45A331.08,331.08,0,0,1,436,656.14a1.53,1.53,0,0,0,.83,2.15c7.82,3.38,16.19,5.63,24.76,5a41.86,41.86,0,0,0,19.48-7C493.76,647.91,503,635.3,513.75,624.79Z" transform="translate(-123.62 -569.64)"/><path class="cls-27" d="M492,643.11c-3.91,0-8.36.26-12.44-.46,3.3-1.75,6.51-3.7,9.7-5.64,3.57,0,7.25,1.45,10.72,1.89,2.4.3,2.38-3.46,0-3.76-1.94-.24-3.83-.73-5.72-1.15a61.81,61.81,0,0,1,13.11-6.31c2.32-.72,1.37-4.35-1-3.64-6.66,2.06-12.69,5.65-18.67,9.33a10.29,10.29,0,0,0-1.53.23,1.63,1.63,0,0,0-1.37,1.55c-2.72,1.67-5.46,3.31-8.25,4.78a117.1,117.1,0,0,1,13.15-10.32c2-1.34.16-4.62-1.86-3.27a128.81,128.81,0,0,0-19,15.71,1.74,1.74,0,0,0-.54,1.51,126.88,126.88,0,0,1-13.54,3.9c5.17-5.42,10.44-10.92,16.87-14.67,2.1-1.22.24-4.49-1.85-3.27-8.46,4.93-15,12.67-21.81,19.56-3.78.91-7.54,1.88-11.24,3.1-2.3.75-1.36,4.39.95,3.63,3.5-1.15,7.06-2,10.63-2.9,3.62,4.28,9.09,6,13.08,9.87,1.74,1.68,4.4-1,2.65-2.66-3.41-3.29-7.95-5.08-11.44-8.2l4.27-1c.66-.15,1.31-.32,1.95-.48a2,2,0,0,0,.71.13c5.34,0,10.61,1,15.95,1.07,2.43,0,2.43-3.74,0-3.76s-4.58-.21-6.86-.43q3-1.07,5.84-2.34c5.46,2,11.79,1.75,17.5,1.76A1.88,1.88,0,0,0,492,643.11Z" transform="translate(-123.62 -569.64)"/><path class="cls-28" d="M478,707.54c5.65-12.93,9.66-28,5.81-42,1.69-.28,2.28-3,.27-3.64-6.8-2.06-13.82-2.73-20.77-1-1.12.27-2.22.6-3.31,1a2,2,0,0,0-1-2.8c-6.31-2.49-13.55-1-19.75,1.08a114.47,114.47,0,0,0-22.22,10.62c-6.25,3.68-12.25,7.75-18.32,11.71l-.35.15c-3.94,1.75-7.44,4.82-10.72,7.54-.74.63-1.5,1.24-2.25,1.86,5.44-9,10.12-18.59,15.76-27.3l.11-.19c8.8-.8,17.37-3.11,24.53-8.49,6.16-4.62,10.27-11.38,12.89-18.51,5.75-15.67,5.09-33,6.61-49.44a96.09,96.09,0,0,1,2.62-16c.46-1.71-1.63-3.32-3-2-13,12.48-31.14,18-43.71,31A42.06,42.06,0,0,0,390,624.38a34.34,34.34,0,0,0,.14,8.77c.35,3.49.91,7,1.51,10.41.35,2.05.72,4.09,1.07,6.14.11.68.22,1.35.31,2,0,.06,0,.27,0,.39v0c0,.05,0,.06,0,0a1.15,1.15,0,0,1,.09-.34,2.15,2.15,0,0,0,.21,1.78,39.4,39.4,0,0,0,2.09,10.7,1.49,1.49,0,0,0,1,1c-7.15,11.64-12.93,24.63-21.35,35.44a80.46,80.46,0,0,0-7.41,7.48L365,710.79l3.57,2.32a65.74,65.74,0,0,0,7.73-7.93c4.61-4.32,9.34-8.5,14.34-12.38.35-.28.72-.55,1.08-.82-5.83,8.66-8.73,19.59-10.37,29.53a126.65,126.65,0,0,0,1.2,48.19,66.72,66.72,0,0,0,3,9.77,1.9,1.9,0,0,0,2.93.56,72.19,72.19,0,0,0,18.64-22.16,69.27,69.27,0,0,0,7.32-25.33,116,116,0,0,0-1.09-28.22A90.68,90.68,0,0,0,410.37,690c-.86-2.76-2-5.68-4.46-7.41l-.32-.2c2.23-1.44,4.48-2.87,6.71-4.29a160.2,160.2,0,0,1,21.49-11.81c6.41-2.83,13.74-5.46,20.86-4.52a13.47,13.47,0,0,1,3.23.89,83.68,83.68,0,0,0-11,5.55,1.6,1.6,0,0,0-1.89.35c-4.27,4.16-7,9.26-7.08,15.29-.09,5.82,2.1,11.5,4.25,16.81a1.73,1.73,0,0,0,.61.79c.55,2.1,1.16,4.16,1.76,6.12,2.06,6.76,4.45,13.42,6.12,20.29,1.39,5.74,2.39,12,.67,17.78a1.88,1.88,0,0,0,3.36,1.6C463.44,734.61,471.83,721.65,478,707.54Z" transform="translate(-123.62 -569.64)"/><path class="cls-29" d="M425.78,642.49A92.28,92.28,0,0,0,411.49,646c1.74-3.07,3.41-6.17,5-9.34,4.77-1.33,9.6-2.44,14.34-3.88,2.3-.7,1.54-4.38-.78-3.68-3.79,1.16-7.64,2.1-11.47,3.1,1.11-2.48,2.15-5,3.09-7.59.49-1.31,1-2.64,1.43-4l.11-.08c4.26-3.55,9.95-4.68,14.95-6.78,2.25-.94.54-4.29-1.68-3.36-3.75,1.58-7.73,2.67-11.35,4.49,1-2.78,2-5.56,3.17-8.28a1.63,1.63,0,0,0,2.27-.12c2.64-2.59,6-3.71,9.51-4.48,2.37-.52,1.6-4.2-.77-3.68a25.49,25.49,0,0,0-8.83,3.41A53,53,0,0,1,440.53,587c1.72-1.7-.77-4.52-2.49-2.81a56.75,56.75,0,0,0-10.59,15.25c-.3-3.52-.93-7-1.3-10.52-.25-2.42-3.92-1.61-3.67.77.47,4.63,1.47,9.23,1.36,13.9a1.77,1.77,0,0,0,1,1.67c-1.27,3-2.41,6.07-3.51,9.13-1.8-5.45-3.37-11-6.24-16-1.2-2.1-4.56-.42-3.36,1.69,3.41,5.95,5,12.69,7.3,19.1a1.75,1.75,0,0,0,.37.63c-.21.62-.43,1.23-.65,1.84-1.31,3.67-2.79,7.23-4.41,10.72-2.53-6.86-6.86-13-9.31-19.9-.81-2.28-4.16-.57-3.36,1.69,2.57,7.25,7.34,13.61,9.64,21a2.05,2.05,0,0,0,.59,2.25c-1.79,3.49-3.7,6.91-5.7,10.29l-1,.29a2,2,0,0,0-.44.19c-2.09-5.13-4.32-10.21-6.84-15.15-1.1-2.16-4.46-.47-3.36,1.69,3.08,6,5.73,12.28,8.22,18.58q-2.59,4.15-5.3,8.3a1.88,1.88,0,0,0,3.15,2.05c2.76-4.24,5.48-8.49,8.07-12.8,5.88-1.82,11.75-3.76,17.86-4.62C429,645.84,428.16,642.16,425.78,642.49Z" transform="translate(-123.62 -569.64)"/><path class="cls-29" d="M399.52,761.4c-1-2.69-2-5.48-2-8.37q1.45-6,2.57-12.17a55.89,55.89,0,0,1,2,6.9c.52,2.37,4.2,1.6,3.68-.77a77.41,77.41,0,0,0-4.55-13.31q.9-6.09,1.5-12.23c.94,2.17,2,4.31,2.85,6.5s4.26.55,3.36-1.68c-1.09-2.74-2.42-5.39-3.54-8.12-.88-2.13-1.78-4.64-.9-6.89a1.62,1.62,0,0,0-.87-2.16q.22-4.4.3-8.79c1.7,3.29,3.18,6.66,6.1,9.24,1.8,1.58,4.63-.9,2.82-2.5-4.27-3.76-5.52-9.4-8.87-13.82,0-1.17,0-2.34,0-3.5,0-2.41-3.8-2.62-3.76-.19,0,1,0,2,0,2.92a1.85,1.85,0,0,0-.94.75l-11.07,17a1.88,1.88,0,0,0,3.15,2l8.84-13.57q-.07,5.07-.33,10.16a1.71,1.71,0,0,0-1.45.83,196.44,196.44,0,0,1-12.74,16.82c-1.54,1.87,1.62,3.91,3.15,2,3.69-4.5,7.34-9,10.68-13.79q-.57,7.9-1.64,15.76a2,2,0,0,0-1.12,1.42c-.35-1.4-2.9-1.82-3.73-.06a54.54,54.54,0,0,1-8.07,12.39c-1.56,1.81.91,4.65,2.49,2.82A61.54,61.54,0,0,0,396.59,733a1.77,1.77,0,0,0,.15-.42,1.84,1.84,0,0,0,.13.44c.16.36.31.72.46,1.08-.72,4.7-1.57,9.38-2.59,14a2,2,0,0,0-3,.86,35,35,0,0,1-6.43,9.88c-1.61,1.78.87,4.61,2.49,2.81a43.87,43.87,0,0,0,5.49-7.43,189.17,189.17,0,0,1-6.08,19.61c-.85,2.27,2.74,3.4,3.58,1.14q2.58-6.93,4.6-14c.25.72.51,1.42.77,2.13C397,765.37,400.34,763.65,399.52,761.4Z" transform="translate(-123.62 -569.64)"/><path class="cls-29" d="M468.38,724.21c-1.56-2.78-2.09-5.89-3-8.91.87-4.15,1.51-8.36,2-12.57a16.5,16.5,0,0,1,4.48,5.42c1,2.2,4.38.5,3.36-1.69-1.62-3.49-4.58-5.81-7.45-8.21a108.6,108.6,0,0,0,.07-14.09,33.88,33.88,0,0,1,9,9.08c1.32,2,4.7.33,3.36-1.69a38.52,38.52,0,0,0-12.79-12.09c-.08-.68-.16-1.36-.25-2q-.26-1.84-.6-3.69c1.76.89,3.58,1.69,5.37,2.52,2.92,1.35,6.22,2.79,8.33,5.31,1.57,1.87,4.37-.64,2.82-2.49-4.42-5.27-12-6.78-17.74-10.29A34.17,34.17,0,0,0,461,659.3c-1.36-2-4.15.51-2.81,2.49a25.35,25.35,0,0,1,2.58,5,2.12,2.12,0,0,0-.32.83c-.42,2.81-3,5.36-4.83,7.36A70.2,70.2,0,0,0,449,682.6c-1.35,2,1.8,4.06,3.15,2,2.82-4.19,7.66-7.69,10.3-12.18.47,2.06.81,4.14,1.09,6.17l.09.81a1.69,1.69,0,0,0-1.67.82c-3.13,4.8-6.26,9.57-10.63,13.34-1.84,1.59.66,4.4,2.49,2.82,4.13-3.57,7.27-8,10.24-12.51a100,100,0,0,1,0,12.84,1.86,1.86,0,0,0-1,.48c-4,3.62-6,8.9-10.5,12-2,1.36.52,4.16,2.49,2.81,3.75-2.55,5.75-6.56,8.54-9.92q-.57,5.67-1.7,11.26a1.44,1.44,0,0,0-.51.7,1.6,1.6,0,0,0-1.42,1.69c0,2.83-3.19,5.26-4.91,7.19s.89,4.63,2.49,2.82c.51-.57,1.07-1.15,1.64-1.75-1.78,5.65-4.14,11.29-7.87,15.93-1.52,1.88,1.64,3.92,3.15,2,4-5,6.52-11.19,8.43-17.26.22-.7.43-1.41.63-2.11a19.83,19.83,0,0,0,1.43,3.24C466.2,728,469.56,726.32,468.38,724.21Z" transform="translate(-123.62 -569.64)"/><path class="cls-26" d="M310.17,693.47a77.07,77.07,0,0,0-22.78-1.07c-17.19,2.05-33.44,8.74-50.57,11a2,2,0,0,0-.07-.75c-2-7.37-9.08-12.4-15.4-16A65.68,65.68,0,0,0,210.71,682a59.1,59.1,0,0,0-13.06-2.56A106.75,106.75,0,0,0,167,680.44c-6.57,1.19-16.56,3.5-18.81,10.81,0,.12-.05.24-.08.36a1.92,1.92,0,0,0,1.43,2.24c17.19,5.67,31.06,18.35,48.55,23.4,12.21,3.52,29.51,2.75,36.33-9.8,17.24-1.79,33.49-8.35,50.59-10.94a74.36,74.36,0,0,1,22.09.26c7.07,1.05,14.95,2.88,20.57,7.56,1.86,1.54,4.43-1.19,2.57-2.75C324.62,696.9,317.23,694.78,310.17,693.47Z" transform="translate(-123.62 -569.64)"/><path class="cls-27" d="M217.13,691.61c3.33,3,6,6.59,9.09,9.74-3.5-1.06-7-2-10.57-2.86a1.73,1.73,0,0,0-.54-2.77c-3.82-1.79-4.92-6.7-8.14-9.3-1.87-1.52-4.45,1.22-2.57,2.74,2.82,2.28,4,5.85,6.6,8.26-3.29-.72-6.58-1.37-9.89-2a2.26,2.26,0,0,0-.22-.55,41.15,41.15,0,0,0-8.19-9.62,1.88,1.88,0,0,0-2.57,2.74,46.75,46.75,0,0,1,6.1,6.58q-4.89-.81-9.81-1.53a2,2,0,0,0-.42-.7c-2.45-2.68-3.75-6.13-6.55-8.54-1.84-1.58-4.41,1.16-2.57,2.74a26.93,26.93,0,0,1,4.45,5.77l-6.88-.94c-2.39-2.23-5.09-4.1-7.64-6.15-1.88-1.51-4.46,1.23-2.57,2.74,1,.83,2.09,1.63,3.15,2.44-4.28-.59-8.55-1.19-12.81-1.85-2.38-.36-3.2,3.31-.8,3.68,5.19.8,10.4,1.52,15.62,2.23-.93.34-1.86.66-2.8,1-2.32.73-1.2,4.32,1.11,3.59,2.62-.83,5.17-1.87,7.79-2.7a1.75,1.75,0,0,0,1.08-.86l6.19.86a23.93,23.93,0,0,1-5.83,2.86c-2.34.63-1.22,4.22,1.12,3.59,3.83-1,6.79-4.52,10.73-5.07a1.92,1.92,0,0,0,.9-.36c3,.46,6,.95,8.95,1.47a17.85,17.85,0,0,0-4,2.19c-1.7,1.17-3.35,2.5-5.49,2.54-2.43.05-2.26,3.81.16,3.76,4.66-.1,7.36-4.31,11.68-5.24a1.67,1.67,0,0,0,1-2.65c2.86.54,5.71,1.11,8.55,1.73a56.61,56.61,0,0,1-12.34,5.37c-2.32.73-1.2,4.32,1.11,3.59a58.56,58.56,0,0,0,14.36-6.47,1.75,1.75,0,0,0,.84-1.58c3.11.75,6.19,1.55,9.26,2.45-5,1.32-9.66,3.86-14.89,4.32-2.41.22-2.26,4,.16,3.76,7.28-.65,13.55-5.31,21-5.11a1.61,1.61,0,0,0,1.34-.56l1.2.41c2.06.73,2.9-2.21,1.37-3.37a1.87,1.87,0,0,0-.9-1.83c-5.35-3.36-8.6-9.12-13.26-13.27C217.89,687.26,215.32,690,217.13,691.61Z" transform="translate(-123.62 -569.64)"/><path class="cls-30" d="M326.19,701.3a10.39,10.39,0,0,1,.4,1.91c0,.09,0,.48,0,.59a1.77,1.77,0,0,0-.42.83h5.75a1.89,1.89,0,0,0,.24-.75,60.24,60.24,0,0,0-2.88-26.58c-1.18-3.27-2.73-7.33-5.32-9.93a23.25,23.25,0,0,0-1.08-2.4c-.82-1.61-2.83-1-3.35.36-2.14.12-4.21,1.59-6,2.94-3.11-5.17-6.36-10.27-9.89-15.11-3.3-4.51-7.18-9.87-12.37-12.35a7,7,0,0,0-6.24-.23c-2.09,1-3.26,3.35-4,5.5a4.62,4.62,0,0,0-1.28,1.48,30.13,30.13,0,0,0-7.39-4.15,1.61,1.61,0,0,0-2.41-.54c-10,7-17.59,15.84-21.62,27.44-5.23,15.09-1.18,31.33-5.18,46.6-.38,1.48,1.36,3.14,2.76,2.13,4.66-3.38,10.32-4.81,15.25-7.7a85.48,85.48,0,0,0,13.2-10c8-7.13,15.6-16.65,17.82-27.4a1.57,1.57,0,0,0,.9-1.63,35,35,0,0,0-10.41-22.24c.15-.27.31-.54.48-.79a2,2,0,0,0,1.22-1.28,11.5,11.5,0,0,1,1.37-3.13,2.64,2.64,0,0,1,1.41-1.12,2.6,2.6,0,0,1,1.65.1,9.08,9.08,0,0,1,2.48,1.33c4.41,3,7.77,7.91,10.79,12.24s5.8,8.72,8.51,13.23c-12.76,11.23-18.21,29-19.77,45.47-.66,7-1.05,14.53.83,21.34a1.9,1.9,0,0,0,2.76,1.12c12.26-5.92,18.85-18.79,23.66-30.86,1.87-4.67,3.61-9.45,5-14.3.32.67.63,1.35.94,2A43.86,43.86,0,0,1,326.19,701.3Zm-1.53-14.16a46,46,0,0,0,1.09-8.88c2.15,5.91,2.81,12.51,2.92,18.65-.41-1-.85-2-1.29-3-.9-2-1.87-4.08-2.88-6.08C324.55,687.59,324.61,687.37,324.66,687.14Z" transform="translate(-123.62 -569.64)"/><path class="cls-31" d="M282.65,650c1.33-2-1.92-3.92-3.24-1.9-.57.88-1.18,1.73-1.79,2.57a2,2,0,0,0-.74.34,1.83,1.83,0,0,0-1.61-.39c-3.47.74-6.82,2.11-10.4,2.19-2.42.06-2.43,3.82,0,3.76,3.38-.08,6.55-1.14,9.79-1.95a60.71,60.71,0,0,0-5.33,7.93l-.43.83c.27-1.42-1.18-3.05-2.72-2-3.3,2.15-7.13,4.15-11.08,4.63-2.38.28-2.41,4.05,0,3.76a28.75,28.75,0,0,0,10.18-3.47c.39.9.77,1.81,1.11,2.73-.35.84-.69,1.67-1.05,2.49q-1,2.42-2,4.84a1.9,1.9,0,0,0-2.8-1.83c-4.29,2.5-9.67,3.6-12.71,7.82-1.42,2,1.85,3.84,3.25,1.9,1.24-1.72,3.4-2.67,5.26-3.55,1.46-.69,3-1.31,4.39-2a15.61,15.61,0,0,0,.39,3.75c-.21.58-.44,1.16-.68,1.74a1.87,1.87,0,0,0-.66.43c-3.93,3.87-8.48,7-12.4,10.9-1.73,1.7.93,4.36,2.65,2.66,1.91-1.88,4-3.59,6-5.3-3.86,6.89-8.09,13.62-9.53,21.51-.44,2.37,3.18,3.38,3.62,1,1.15-6.26,4-11.89,7.15-17.44a49.33,49.33,0,0,1,.81,7.17c0,2.42,3.8,2.42,3.76,0-.06-4.28-1.26-8.42-1.47-12.67.79-1.44,1.57-2.88,2.29-4.34a17.71,17.71,0,0,1,.68,4.23c.07,2.42,3.83,2.42,3.76,0-.08-3.24-1.37-6.29-2.12-9.41,1.09-2.79,2-5.66,3.15-8.44a56.19,56.19,0,0,1,1.3,6.32c.33,2.39,4,1.37,3.62-1a55.12,55.12,0,0,0-2.65-10.63c.6-1.38,1.22-2.75,1.87-4.11a43.18,43.18,0,0,1,4.4-7c.85,4.14,2.39,8.16,2.46,12.43.05,2.42,3.8,2.42,3.76,0-.1-5.7-2.79-11-3-16.64C280.86,652.54,281.8,651.26,282.65,650Z" transform="translate(-123.62 -569.64)"/><path class="cls-31" d="M319.17,670.23a73,73,0,0,0-5.92,8.82,2.09,2.09,0,0,0-1.37.48,1.72,1.72,0,0,0-1.73.47,56.47,56.47,0,0,1-7.14,5.34c-2,1.39-.09,4.65,1.9,3.25,1.76-1.24,3.57-2.41,5.28-3.71-1.11,2.31-2.12,4.67-3.06,7.06a2,2,0,0,0-.36.17C303.55,694,299.4,695,297,698c-1.47,1.89,1.17,4.57,2.66,2.66s3.51-2.75,5.62-3.69c-.69,2-1.33,4-1.94,6a1.6,1.6,0,0,0-1.07.37c-3.31,2.49-6.65,5.05-8.94,8.56-1.33,2,1.92,3.92,3.24,1.9a23.62,23.62,0,0,1,5.22-5.39q-.86,3.18-1.65,6.38c-3,2.11-5.91,4.16-7.94,7.26-1.33,2,1.93,3.92,3.24,1.9a15.28,15.28,0,0,1,3.36-3.54c-.52,2.21-1,4.42-1.53,6.6-.54,2.36,3.08,3.36,3.63,1,.34-1.51.7-3,1.05-4.55q.12.59.21,1.17a1.88,1.88,0,0,0,2.31,1.31,1.92,1.92,0,0,0,1.31-2.31,12.46,12.46,0,0,0-2.39-6.09c.53-2.09,1.06-4.19,1.62-6.27.37.84.73,1.69,1.1,2.53a1.89,1.89,0,0,0,2.57.68,1.93,1.93,0,0,0,.67-2.58c-.89-2.08-1.78-4.16-2.75-6.2.55-1.85,1.11-3.68,1.71-5.51.23,1.08.42,2.16.55,3.27.28,2.37,4,2.4,3.76,0a52,52,0,0,0-2.1-9.56c.94-2.48,2-5,3.09-7.37.62,1.4,1.21,2.81,1.7,4.27.79,2.28,4.42,1.3,3.63-1a67.81,67.81,0,0,0-3.2-7.55,65.11,65.11,0,0,1,6.1-9.42C323.31,671,320.67,668.32,319.17,670.23Z" transform="translate(-123.62 -569.64)"/><rect class="cls-19" x="340.71" y="145.08" width="153.3" height="63.16"/><polygon class="cls-32" points="896.42 108.29 871.34 115.73 691.67 142.92 678.83 141.73 896.42 108.29"/><path class="cls-33" d="M995,685.38,881.68,750.9l-66.4-38.33Zm-80,41.17,54.64-31.76L883,708.1l32,18.45M882.66,745.3l22-12.8-37.93-21.9L831.85,716l50.81,29.34" transform="translate(-123.62 -569.64)"/><polygon class="cls-34" points="758.06 181.26 759.12 188.09 678.83 141.73 691.67 142.92 758.06 181.26"/><polygon class="cls-35" points="896.42 108.29 759.12 188.09 758.06 181.26 871.34 115.73 896.42 108.29"/><rect class="cls-4" x="902.46" y="301.99" width="8.74" height="59.76"/><path class="cls-5" d="M1034.82,871.63V931.4H1031V882.13a5.74,5.74,0,0,0-4.93-6v-4.49Z" transform="translate(-123.62 -569.64)"/><rect class="cls-4" x="799.34" y="301.99" width="8.73" height="59.76"/><path class="cls-5" d="M931.69,871.63V931.4h-3.8V882.13a5.72,5.72,0,0,0-4.93-6v-4.49Z" transform="translate(-123.62 -569.64)"/><polygon class="cls-8" points="940.42 285.39 911.2 251.23 799.34 251.23 770.12 285.39 940.42 285.39"/><rect class="cls-9" x="770.12" y="285.39" width="170.29" height="7.04"/><rect class="cls-11" x="780.57" y="292.42" width="149.42" height="15.19"/><rect class="cls-12" x="780.57" y="292.44" width="149.42" height="3.71"/><rect class="cls-19" x="774" y="137.11" width="162.55" height="66.58"/><rect class="cls-4" x="914.87" y="151.6" width="10.08" height="243.22"/><path class="cls-5" d="M1048.48,721.24h-10.1v9.59c2.12.58,3.7,3.69,3.7,11.82V964.46h6.4Z" transform="translate(-123.62 -569.64)"/><rect class="cls-4" x="787.63" y="151.6" width="10.1" height="243.22"/><path class="cls-5" d="M921.23,721.24H911.15v9.59c2.1.58,3.69,3.69,3.69,11.82V964.46h6.39Z" transform="translate(-123.62 -569.64)"/><polygon class="cls-16" points="936.55 137.1 933.42 135.3 777.11 135.3 774 137.1 936.55 137.1"/><rect class="cls-4" x="1089.93" y="309.92" width="14.78" height="206.35"/><path class="cls-5" d="M1228.17,879.56H1213.4v8.14c3.07.49,5.42,3.13,5.42,10v188.19h9.35Z" transform="translate(-123.62 -569.64)"/><rect class="cls-4" x="1055.42" y="315.3" width="14.76" height="124.87"/><path class="cls-5" d="M1193.8,884.94v124.87h-6.42V906.88c0-8.67-4.76-11.58-8.34-12.56v-9.38Z" transform="translate(-123.62 -569.64)"/><rect class="cls-4" x="700.58" y="309.92" width="14.81" height="206.35"/><path class="cls-5" d="M838.82,879.56H824v8.14c3.08.49,5.43,3.13,5.43,10v188.19h9.35Z" transform="translate(-123.62 -569.64)"/><rect class="cls-4" x="735.04" y="315.3" width="14.77" height="124.87"/><path class="cls-5" d="M873.42,884.94v124.87H867V906.88c0-8.67-4.77-11.58-8.35-12.56v-9.38Z" transform="translate(-123.62 -569.64)"/><polygon class="cls-8" points="1137.23 301.67 1080.59 235.4 724.35 235.4 667.73 301.67 1137.23 301.67"/><rect class="cls-9" x="667.73" y="301.66" width="469.51" height="13.63"/><rect class="cls-11" x="687.97" y="315.3" width="429.01" height="29.44"/><rect class="cls-12" x="687.97" y="315.3" width="429.01" height="7.22"/><rect class="cls-19" x="884.44" y="266.97" width="206.37" height="84.53"/><rect class="cls-4" x="1047.53" y="476.3" width="11.1" height="75.88"/><path class="cls-5" d="M1182.24,1046v75.87h-4.83v-62.55c0-5.28-3.59-7-6.27-7.63V1046Z" transform="translate(-123.62 -569.64)"/><rect class="cls-4" x="916.61" y="476.3" width="11.08" height="75.88"/><path class="cls-5" d="M1051.31,1046v75.87h-4.81v-62.55c0-5.28-3.58-7-6.27-7.63V1046Z" transform="translate(-123.62 -569.64)"/><polygon class="cls-8" points="1095.72 455.23 1058.63 411.86 916.61 411.86 879.52 455.23 1095.72 455.23"/><rect class="cls-9" x="879.52" y="455.23" width="216.2" height="8.93"/><rect class="cls-11" x="892.78" y="464.16" width="189.7" height="19.28"/><rect class="cls-12" x="892.78" y="464.18" width="189.7" height="4.71"/><rect class="cls-4" x="1063.28" y="285.37" width="12.8" height="308.79"/><path class="cls-5" d="M1199.59,855h-12.82v12.16c2.68.74,4.69,4.69,4.69,15v281.6h8.13Z" transform="translate(-123.62 -569.64)"/><rect class="cls-4" x="901.74" y="285.37" width="12.82" height="308.79"/><path class="cls-5" d="M1038,855h-12.8v12.16c2.67.74,4.69,4.69,4.69,15v281.6H1038Z" transform="translate(-123.62 -569.64)"/><polygon class="cls-16" points="1090.81 266.97 1086.84 264.67 888.38 264.67 884.44 266.97 1090.81 266.97"/></g></g></g></g></svg>