<svg xmlns="http://www.w3.org/2000/svg" xmlns:xlink="http://www.w3.org/1999/xlink" viewBox="0 0 2086.16 1602.77"><defs><style>.cls-1,.cls-23,.cls-7{fill:none;}.cls-2{clip-path:url(#clip-path);}.cls-3{fill:#7d6bbf;}.cls-4{fill:#6a58ba;}.cls-5{fill:#6155bc;}.cls-6{fill:#f5ce4e;}.cls-7{stroke:#a8ade9;}.cls-22,.cls-23,.cls-7{stroke-miterlimit:10;stroke-width:2px;}.cls-8{fill:#a79cdb;}.cls-9{fill:#cac0f2;}.cls-10{fill:#2e2c44;}.cls-11{fill:#4a4977;}.cls-12{fill:#a293db;}.cls-13{fill:#666;}.cls-14{fill:#966374;}.cls-15{fill:#624d53;}.cls-16{fill:#d7d3f4;}.cls-17{fill:#eaafa0;}.cls-18{fill:#404f5d;}.cls-19{fill:#303e4c;}.cls-20{fill:#94c0a8;}.cls-21{fill:#e1c556;}.cls-22{fill:#fff;}.cls-22,.cls-23{stroke:#bbbdbf;}.cls-24{fill:#f9d19b;fill-rule:evenodd;}.cls-25{fill:#f4b7a6;}.cls-26{fill:#ffecdc;}.cls-27{fill:#d8babc;}</style><clipPath id="clip-path"><path class="cls-1" d="M524.36,617.05C565.61,601.11,1173.15,402,1773.24,637c129.07,50.53,276.45,180.6,288.71,330.38,20.07,245.2-140.16,411.07-334,513.41-173.8,91.77-1002.44,170.25-1399.41,1.14-114.18-48.63-316.45-157-316.45-393.57C12.13,842.81,400.09,665,524.36,617.05Z"/></clipPath></defs><title>Asset 21</title><g id="Layer_2" data-name="Layer 2"><g id="Layer_1-2" data-name="Layer 1"><g class="cls-2"><rect class="cls-3" x="34.65" width="2051.52" height="628.28"/><rect class="cls-4" y="932.76" width="2068.73" height="670.01"/><rect class="cls-5" x="184.26" y="584.5" width="1715.97" height="709.16"/><path class="cls-6" d="M750.2,1349.2c-1.93,1.93-46.91,27.31-46.91,27.31l-60.57-41,49.18-23.94Z"/><line class="cls-7" x1="1508.76" y1="574.88" x2="1516.84" y2="582.96"/><line class="cls-7" x1="1518.13" y1="576.43" x2="1526.21" y2="584.5"/><line class="cls-7" x1="1602.96" y1="522.69" x2="1611.03" y2="530.76"/><line class="cls-7" x1="1612.33" y1="524.23" x2="1620.4" y2="532.31"/><polygon class="cls-8" points="299.55 1296.4 7.73 1517.68 7.73 83.71 299.55 305.2 299.55 1296.4"/><polygon class="cls-8" points="1776.91 1296.4 2068.73 1517.68 2068.73 83.71 1776.91 305.2 1776.91 1296.4"/><polygon class="cls-9" points="224.9 1100.01 90.48 1201.94 90.48 541.41 224.9 643.44 224.9 1100.01"/><rect class="cls-10" x="705.91" y="801.65" width="664.65" height="353.58"/><rect class="cls-11" x="705.91" y="1140.85" width="664.65" height="23.97"/><polygon class="cls-12" points="224.9 1100.01 90.48 1201.94 90.48 1026.35 224.9 1099.65 224.9 1100.01"/><polygon class="cls-13" points="436.07 830.8 440.78 837.51 439.58 829.38 436.07 830.8"/><path class="cls-14" d="M440.73,829.34a3.43,3.43,0,1,1-3-3.78A3.43,3.43,0,0,1,440.73,829.34Z"/><path class="cls-15" d="M438.51,825.75a2.87,2.87,0,1,1-4.41,2.09s0,0,0-.06a3.43,3.43,0,1,0,4.4-2Z"/><polygon class="cls-16" points="224.9 643.44 90.48 720.95 90.48 541.41 224.9 643.44 224.9 643.44"/><polygon class="cls-17" points="202.86 1087.64 90.48 1172.85 90.48 571.78 202.86 657.07 202.86 1087.64"/><polygon class="cls-13" points="522.07 957.4 529.54 964.45 526.02 954.78 522.07 957.4"/><path class="cls-14" d="M527.41,954.44a4.29,4.29,0,1,1-4.66-3.87A4.29,4.29,0,0,1,527.41,954.44Z"/><path class="cls-15" d="M523.79,950.6a3.6,3.6,0,1,1-4.89,3.68v-.08a5.13,5.13,0,0,0,0,1,4.29,4.29,0,1,0,4.92-4.64Z"/><rect class="cls-18" x="1679.55" y="1335.57" width="9.6" height="8.78" transform="translate(-464.79 1222.82) rotate(-35.38)"/><polygon class="cls-18" points="1680.93 1324.37 1679.94 1318.01 1751.24 1309.01 1752.04 1315.33 1680.93 1324.37"/><path class="cls-19" d="M1747,1306a32.77,32.77,0,1,1-63.61,6.3l-5.16.41a37.86,37.86,0,1,0,73.93-7.31Z"/><path class="cls-19" d="M1686.73,1365.42c4.34-3.08,2.44-14-4.69-24s-16.77-15.41-21.11-12.32Z"/><path class="cls-20" d="M1729.65,1339.67a26.48,26.48,0,0,1-2.75,1.42h0l-.85.37h0a27,27,0,0,1-24.94-2.43c-.63-.41-1.2-.82-1.74-1.23a27.18,27.18,0,0,1-9.68-14.54,27.55,27.55,0,0,1-.87-5.89v-.48c0-.2,0-.4,0-.61a26.57,26.57,0,0,1,1.11-7.6,28.44,28.44,0,0,1,1.23-3.34c.12-.26.24-.53.38-.8,0-.1.09-.2.14-.3a26.67,26.67,0,0,1,2-3.29,27,27,0,0,1,2.62-3.23c.5-.52,1-1,1.55-1.51l.4-.35c.21-.18.42-.36.64-.53s.4-.33.61-.48l.14-.11a25.38,25.38,0,0,1,2.34-1.59,26.74,26.74,0,0,1,7.19-3l.39-.09a26.07,26.07,0,0,1,5.22-.74h.13l.94,0c.46,0,.91,0,1.36,0a26.82,26.82,0,0,1,13.5,4.38c.62.39,1.2.81,1.75,1.23a27,27,0,0,1,10.54,20.27v.18s0,0,0,0c0,.37,0,.74,0,1.11a26.69,26.69,0,0,1-1,7.2,27.1,27.1,0,0,1-8,12.81c-.5.45-1,.9-1.65,1.36A26.2,26.2,0,0,1,1729.65,1339.67Z"/><path class="cls-21" d="M1726.89,1341.09l-.85.37.25-.37Z"/><polygon class="cls-21" points="1713.08 1336.79 1712.47 1335.63 1711.65 1336.22 1711.47 1336.91 1710.83 1336.93 1710.03 1336.86 1709.13 1337.5 1708.98 1338.48 1710.2 1338.4 1712.46 1338.36 1715.2 1337.16 1714.75 1336.53 1713.08 1336.79"/><polygon class="cls-21" points="1723.74 1309.16 1723.43 1309.44 1722.98 1309.02 1722.22 1309.45 1722.65 1310.04 1723.29 1310.78 1724.06 1310.84 1723.93 1310.29 1724.03 1309.86 1724.36 1309.09 1725.06 1308.33 1724.44 1307.76 1724.02 1307.78 1723.69 1308.01 1723.69 1308.49 1723.74 1309.16"/><polygon class="cls-21" points="1723.06 1308.78 1723.53 1308.5 1723.42 1307.99 1722.9 1307.52 1721.95 1307.58 1721.53 1307.88 1721.87 1308.36 1723.06 1308.78"/><path class="cls-21" d="M1732.32,1337.85c.62-.46,1.15-.91,1.65-1.36a27.1,27.1,0,0,0,8-12.81l-1.92-1.14-1.14.84-.69-.54,1-1,.22-.54-.36-.9-.81.31-.41.63-1.75-2.85-1.53-.87.08-.12.35-.49-.31-.26-.8.21-1-.3-1.13-1.7.31-.33,1.31,1.68.56.14-.51-2.79-1.69-2.22-.21-.28-1.75-.91-1.34.15-1-.69-.71-.09-.44.45.28.54-.53.81.94.6,0,0-.86.81-.18-.25-.2-.4-.19-.37-.67-.67h-1.57l-.92-.94-1,.49.22.52-.68.29-.54-1.2-.89-.82-.69.18-1,1,.14.75.68,1,.51.6.66-.17,1,0,1,0,.34.76,1,.23-.38.45.06,2.36h-.4l-.48-.74-.19.55.21.52.59.36.62-.45.28.15.07-.33-.17-1.49.59-.84.63.89-.07.48-.12,1.23-.77.6-.28,1.36v0l.12,0,1.24-.48.53.26.16.08-.87.77-.21,1,1.18,1.6,0,.73-.84.6-.95-.21-1.16-1.64,0-1.52-.8-.93,0,0-.63.45-.24-.33v-.54l-.82-2.14,1.17-.83-1.82-2.18-.84-.42,0,0-.65-.91-.28-.48-1.4-.66-1.16.82-3.24-1.11-.57.69.33.46-.75.35-.35-.24-1.75,1.22-.28,1.16-.56,2.38.6.85.18,0,1.09,1.53.72.15.62.87-.07.4-.07.42.79,1.39-1.85,1.05-1.51,3.24-2,.27-.65.54-.17,1-1.64,1.16-.49,1.53-1.37,1,1.65,2.32,3,.47,1.36-.15.65.59.82-.58.87.07,2,0,1.88-1.65.44-1,3.19.61,4.51,0-.1-.55-2-1.85-.12-.77,2.7-5.37.3,0-1.14,4.24-.82.67-.16.9.83,1,3.22,1.09,1,.38.55-.42-.44-.82s-.62-3.49-.57-3.53l1.08-.74.41.58-.67.6.16,1.72.92,1.44,1.65,3.36.05,1-.68.49-1,.58-1.44,3.35.24.58,1.07,0,2.25-1.19h.05A26.2,26.2,0,0,0,1732.32,1337.85Zm-1-24.28L1730,1313l-.41.28.14.77-.52.43-1.79,0-1-1.41.23-.3,1.07.56,1.67-1.17,2.1.75.24.33Zm-4.88,8.17-.89-1.37-.34-.36.9-.64.55.06.33.25.58.65.35,0,.06.39-.8.63.24,1-.33.34Zm3,5.55-.38-.08-.34-.56.09-.22-.55-.88.33-.14.7.17.32-.22v-1.3l.77-.6.51-.11.55.66.17.76-.38.31-.56-.87-.4.23,0,1.55-.52.36v.69Z"/><path class="cls-21" d="M1712.72,1298.87l-.42-.59-.3.21.1.15-.13.12.29.34.29.12.33-.13.23.27.32-.06-.14-.3-.17-.23Z"/><polygon class="cls-21" points="1711.18 1297.83 1711.52 1298.23 1711.85 1298.07 1711.87 1297.66 1711.5 1297.64 1711.18 1297.83"/><path class="cls-21" d="M1699.65,1294.76l-.07,0-.14.11c-.21.15-.41.31-.61.48l.4-.06Zm17.5-5.47c-.45,0-.9,0-1.36,0l.16.22,1.26.22Zm1.17,7.78.84-.22.62.87.8-.1-.29-.72.74-.53-.52-2.53-1.1-1.22-.92-.47-.92.73-.43-.87.44-.5,1.21.27-.9-1.41-.39-.31-.58.16.27.57-.58.26-.67-.83-.44.1-.78-1a26.07,26.07,0,0,0-5.22.74l-.35.13,0,0a26.74,26.74,0,0,0-7.19,3l1.09,1.52-.74.52.21,1.16,1.21-1,1.07.17,1.73.67.65-.33,2.2.34,1.7.81v-.19l1.5.31.15.39-.08.29.62.07.1,0-.21-.41-.14-.47.36-.26.31.08.32.45,0,.27-.22.43.19.19,0,0,0,.08.54.56.37-.13.16.42-.32.24-.47-.17-.33.31.46,1.38v0l.2.24.51-.34-.24-1.19.21-.22.79.57.74-.48-.09-1.11,1.18-.91-1.29-.7-.28-.39,1-.55-.69-1.71-.89-.29-1.39,1-1.11-.85-1.22.21-.41-.41,1.16-.83-.58-1.12,0-.75.6-.74,2.37,1.07.91.7-.54.52.38.48.33-.18.44.47.12-.07-.07-.29.28-.28.51.61.68.1h0l.2,0,1.13,1.22-.09,1-1.94-1Zm-11.57-4.32-.07-.49.57-.29.85.11.48.68Zm1.29,1.82-.51-.09-.46-.65.52-.22.25.29.2,0,.39.42Zm.91-.42-.41-.17-.35-.33.68-.48.49.69Zm.89.24,0,.45-.38-.1,0-.4Zm-.81-.05,0,.05.32.95-.39.28-.47-.66.13-.36Zm.74-1.29-.09.69-.4-.35Zm-.11-.53-.24.18.13.17-.43.3-.87-1.22-.2-.55.38-.1.66.42Zm-8.13,21.39.49-1.14-1.27-1.82-.46-1.82,1-.79.5-1.07-.9-1.31.65-1.59-.16-.88-.37.21-.94-1.16.3-.88-.63-1.44-1.94-.18-.89-1.84,1.76-1.43-.44-.91-.4.35c-.54.49-1,1-1.55,1.51l-.12.53,1,1.65-1.17,1.06-1.51-.54-.81.53a26.67,26.67,0,0,0-2,3.29l-.06.21-.08.09-.49.5s0,.15.11.3a3,3,0,0,0,.18.44c0,.07,0,1.91,0,1.91l-1.4,1a26.57,26.57,0,0,0-1.11,7.6l.23.13,1-.13,2.55.12,1.07-1.2,1-.09.63,1,.16.24,1.19.35,1.73-1,.92-.51,1.74.08.82-.35Z"/><path class="cls-22" d="M1306,1517.07c.54.27,1.37-1.84,3.2-2.58a5.7,5.7,0,0,1,6.43,2.16c1.12,1.78.66,4,.35,5.55-.1.5-.67,1.16-.41,1.49s.92-.08,1.76.18a2.84,2.84,0,0,1,1.36,1.12c1.46,1.93,1.35,5.28,1.35,5.28a24.47,24.47,0,0,1-3.37,11.47c-1.91,2.93-3.81,5.85-6.72,6.12-4,.36-7.46-4.42-8-3.86-.32.32,1,1.64,1.47,3.8a9.28,9.28,0,0,1-1.16,6.07c-2.9,5.47-11.1,7.45-16.75,5.65-1.55-.5-3-1-4.08-2.39-1.89-2.59-.62-6.15-2.55-7.14-.45-.23-.54,0-1.63-.21a12.2,12.2,0,0,1-4.58-2c-3.95-2.74-5-8.66-5.11-9.45-.24-1.45-1.06-6.49,1.77-10.71s7.91-5.89,7.67-6.36c-.11-.21-1,.34-2.08,0-1.59-.52-2.18-2.69-2.27-3-1.09-4,3.09-10.48,7.7-11,3.39-.36,6.59,2.58,7.75,1.33.4-.44.1-.9.53-1.81.8-1.7,2.89-2.28,3.65-2.49,2.4-.67,4.46.05,8.58,1.5,2.84,1,4.18,1.81,5.29,2.93.9.91,1.72,1.74,1.65,2.81-.08,1.38-1.54,1.88-1.9,4C1305.79,1515.84,1305.61,1516.9,1306,1517.07Z"/><path class="cls-23" d="M1290.13,1512.45a9.18,9.18,0,0,1,4-1.33c3.45-.28,7.19,1.52,7.2,3.11,0,1.42-3,1.78-3.11,3.79a3.1,3.1,0,0,0,1.49,2.62c.7.41,1,.11,1.83.43,1.92.72,2.62,3,2.71,3.34a5.72,5.72,0,0,1,0,2.95"/><path class="cls-23" d="M1295.2,1526.32a6.45,6.45,0,0,0-1.17,4.25c.35,3.4,3.69,5.09,4.59,5.49,1.57.7,1.77,0,4.72.63,2.12.49,3.56.84,4.5,2,1.09,1.4.53,2.68,1.45,3.12s2.67-.78,4-1.82a10,10,0,0,0,3.31-4.06,9.2,9.2,0,0,0,.66-4.22"/><path class="cls-23" d="M1294.38,1534.42a6.27,6.27,0,0,1-2.48,3.77c-1.74,1.13-3.77.89-5.58.68-1.62-.19-2.32-1-2.82-.64-.65.53-.15,2.27.3,3.21a5.67,5.67,0,0,0,1.41,1.85"/><path class="cls-23" d="M1295.25,1540.62a16.49,16.49,0,0,1,2.13,4.72c.51,1.87,1,3.62.26,5.54a6.65,6.65,0,0,1-2.17,2.91"/><path class="cls-23" d="M1281.76,1517a5.83,5.83,0,0,1,1.21,3.4c0,.41,0,1.77-1.56,3.94-1.63,2.33-2.63,2.28-5,4.7A14.14,14.14,0,0,0,1273,1534a9.18,9.18,0,0,0-.51,6c.51,1.78,1.52,2.82,2.94,4.3s2.79,2.92,5.06,3.42a7.88,7.88,0,0,0,3.75-.11"/><path class="cls-24" d="M1489,1087.52h0a2.82,2.82,0,0,0,3.1-1.18l7.62-13.7-14.3-3.1,1.25,15.62A2.83,2.83,0,0,0,1489,1087.52Z"/><path class="cls-24" d="M1639.73,1120.28h0a2.82,2.82,0,0,0,3.1-1.17l7.62-13.7-14.29-3.11,1.24,15.63A2.82,2.82,0,0,0,1639.73,1120.28Z"/><polygon class="cls-24" points="1667.69 1105.02 1471.57 1062.39 1451.25 1061.95 1684.68 1112.69 1667.69 1105.02"/><rect class="cls-25" x="1563.21" y="971.87" width="7.78" height="238.87" transform="translate(167.84 2390.86) rotate(-77.74)"/><rect class="cls-26" x="352.87" y="814.55" width="299.97" height="205.7"/><rect class="cls-27" x="361.81" y="823.51" width="281.88" height="187.48"/></g></g></g></svg>