<svg xmlns="http://www.w3.org/2000/svg" viewBox="0 0 108.12 129.42"><defs><style>.cls-1{fill:#ffd606;}.cls-2{fill:#ffca22;}.cls-3{fill:#fca430;}</style></defs><title>Asset 7</title><g id="Layer_2" data-name="Layer 2"><g id="Layer_1-2" data-name="Layer 1"><path class="cls-1" d="M107.61,16.18C69.69,9.24,54.06,0,54.06,0S38.44,9.24.51,16.18c0,0-9.49,104.32,53.55,113.24C117.1,120.5,107.61,16.18,107.61,16.18Z"/><path class="cls-2" d="M99.39,23.63C67.29,17.76,54.06,9.94,54.06,9.94S40.83,17.76,8.73,23.63c0,0-8,88.3,45.33,95.85C107.42,111.93,99.39,23.63,99.39,23.63Z"/><polygon class="cls-3" points="54.06 30.21 61.45 52.97 85.38 52.97 66.02 67.03 73.42 89.79 54.06 75.72 34.7 89.79 42.1 67.03 22.74 52.97 46.67 52.97 54.06 30.21"/></g></g></svg>