<svg xmlns="http://www.w3.org/2000/svg" viewBox="0 0 284.08 160.6"><defs><style>.cls-1{fill:#ff4000;}.cls-2{fill:#ffb950;}.cls-3{fill:#a7bc00;}.cls-4{fill:#a1dfe4;}.cls-5{fill:#a452bd;}</style></defs><title>Asset 25</title><g id="Layer_2" data-name="Layer 2"><g id="Layer_1-2" data-name="Layer 1"><path class="cls-1" d="M14.29,58.48c15.51-14.75,32.78-28,52.94-35.7,22.63-8.64,47.29-12.58,71.45-10.38A158,158,0,0,1,171,18.68c9,2.82,17.74,8.11,26,12.73a152.19,152.19,0,0,1,40.85,33.28c15.19,17.65,27,39.39,34.39,61.44,2.42,7.23,13.92,4.13,11.48-3.17C270.5,83.4,245.1,46.63,209.12,24.68a262,262,0,0,0-28-14.84c-10.06-4.57-21.65-6.52-32.51-8.14C122.89-2.14,96.9.69,72.12,8.51c-25.5,8.06-47,23.27-66.25,41.55-5.56,5.29,2.87,13.7,8.42,8.42Z"/><path class="cls-2" d="M11.62,66.35C27.48,50.59,45.28,36.56,66.56,29c24.19-8.61,50.24-11.91,75.6-7,22.45,4.34,43.36,11.9,62.2,25,13.86,9.67,25.16,22.95,34.71,36.79,5.9,8.55,11.41,17.39,16.43,26.48,4.06,7.36,8.19,15,10.35,23.2,1.95,7.4,13.43,4.26,11.48-3.17-4.54-17.23-15.32-33.57-25.08-48.24C242.22,67,230.61,52.14,216.18,41,175.61,9.72,120.17.14,71.33,14.91,44.72,23,22.77,38.48,3.2,57.93c-5.44,5.41,3,13.83,8.42,8.42Z"/><path class="cls-3" d="M17.51,75.86c14.12-14,29.71-26.69,48.11-34.69A146.13,146.13,0,0,1,131,29.37a160.11,160.11,0,0,1,30.35,5c9.41,2.39,17.82,7,26.3,11.69,15.93,8.71,28.82,21.18,40.74,34.7,13.32,15.1,22.41,34.69,27.41,54.11,1.92,7.41,13.4,4.27,11.49-3.17-4.88-18.92-13.56-38.3-25.69-53.71C230.14,63.5,216,49.28,200.21,39.59c-8.88-5.46-18.63-11-28.47-14.54-10-3.56-21-5.47-31.49-6.75-23.9-2.92-48.35.66-71,8.72C46,35.31,26.47,50.17,9.09,67.44c-5.44,5.41,3,13.83,8.42,8.42Z"/><path class="cls-4" d="M10.18,83.41c14.67-14.59,31-27.84,50.39-35.65C82.16,39.05,106,35.1,129.19,37.34a149.28,149.28,0,0,1,29.94,6c9.37,2.95,18.64,8.54,27,13.6,15.86,9.58,29.77,24.53,40.43,39.58,11.54,16.29,19.66,36.2,24.6,55.47,1.9,7.41,13.39,4.27,11.48-3.17-9.82-38.32-31.8-74.84-64.28-98.1-8.94-6.41-19.25-11.73-29.26-16.27-9.57-4.32-20.55-6.34-30.88-7.91C113,22.74,87.55,25.76,63.5,34S19.55,57.31,1.76,75c-5.44,5.41,3,13.83,8.42,8.42Z"/><path class="cls-5" d="M10.18,93.49c14.3-14.21,30.13-27.07,48.84-35a146.49,146.49,0,0,1,66.45-11.36,159,159,0,0,1,30,5.28c9.33,2.5,17.91,7.43,26.3,12.12a104.28,104.28,0,0,1,36.67,33.54,198.35,198.35,0,0,1,26.14,58.31c1.9,7.41,13.39,4.27,11.48-3.17a210.7,210.7,0,0,0-24.09-56c-9.6-15.76-22-29.12-37.66-39.08-8.86-5.64-18.71-11.15-28.53-14.92s-20.68-5.63-31-7c-24.54-3.26-49.58.17-72.84,8.47S19.14,67.79,1.76,85.07c-5.44,5.41,3,13.83,8.42,8.42Z"/></g></g></svg>