<svg id="Layer_1" data-name="Layer 1" xmlns="http://www.w3.org/2000/svg" viewBox="0 0 2062 1080"><defs><style>.cls-1{fill:#7e6bb0;}.cls-2{fill:#6a5ba7;}.cls-3{fill:#625aa7;}.cls-4{fill:#f6ce4f;}.cls-5{fill:#a79bcc;}.cls-6{fill:#cabfde;}.cls-7{fill:#2f2c44;}.cls-8{fill:#4b4a78;}.cls-9{fill:#a393c7;}.cls-10{fill:#eaafa0;}.cls-11{fill:#42505e;}.cls-12{fill:#303f4c;}.cls-13{fill:#95c0a8;}.cls-14{fill:#e1c555;}.cls-15{fill:#fff;stroke:#bbbdbf;stroke-miterlimit:10;stroke-width:2px;}.cls-16{fill:#f9d19c;}.cls-17{fill:#f3b7a6;}.cls-18{fill:#ffecdd;}.cls-19{fill:#d8babc;}</style></defs><title>scene</title><path class="cls-1" d="M1506,53.28l8.07,8.08h88.49c-407-111.28-794-46.06-979,0h890.53Zm-9.37-1.54,8.08,8.08Z"/><path class="cls-2" d="M1764.78,770.52h-46.26c.62.4,1.2.82,1.74,1.24a27,27,0,0,1,9.85,15.24l5.72-.72a33.53,33.53,0,0,0-.92-3.47l5.15-.59a37.86,37.86,0,0,1-63.69,37l-4,2.85c5.06,8.84,6,17.48,2.24,20.18L1648.8,806c3.83-2.72,11.78,1.15,18.49,9l3.8-2.7a37.78,37.78,0,0,1-4.95-22.71l5.16-.4a32.7,32.7,0,0,0-.22,5.33l5.6-.71h0c0-.2,0-.4,0-.6a26.52,26.52,0,0,1,1.11-7.6,24.74,24.74,0,0,1,1.23-3.34l-.12-.3.49-.5.15-.3a27.5,27.5,0,0,1,4.58-6.53c.5-.52,1-1,1.55-1.5.13-.12.26-.24.4-.35l.64-.54.61-.48.14-.11c.5-.38,1-.73,1.53-1.07H287.42v2.74l-127.9,97c54.21,41.35,112.3,69.49,156.92,88.5,397,169.1,1225.61,90.63,1399.42-1.15,55.53-29.32,108.3-63.87,154.87-104l-106-80.34ZM691.16,853.37l-60.57-41.06,49.18-23.94,58.3,37.69C736.14,828,691.16,853.37,691.16,853.37Zm616.72,153.75a24.3,24.3,0,0,1-3.38,11.48c-1.9,2.92-3.8,5.85-6.71,6.12-4,.36-7.46-4.43-8-3.87-.32.32,1,1.64,1.46,3.81a9.24,9.24,0,0,1-1.15,6.07c-2.9,5.47-11.1,7.45-16.76,5.64-1.54-.49-3-1-4.07-2.38-1.89-2.59-.62-6.15-2.55-7.14-.45-.23-.54,0-1.63-.22a12.21,12.21,0,0,1-4.59-2c-3.94-2.74-5-8.65-5.1-9.44-.24-1.45-1.06-6.5,1.77-10.72s7.91-5.88,7.67-6.35c-.11-.21-1,.33-2.08,0-1.59-.52-2.18-2.69-2.27-3-1.09-3.95,3.08-10.47,7.7-11,3.39-.37,6.59,2.58,7.75,1.33.4-.44.1-.9.53-1.81.8-1.7,2.89-2.29,3.65-2.5,2.4-.67,4.46.06,8.58,1.5,2.83,1,4.18,1.82,5.29,2.94.89.9,1.72,1.73,1.65,2.8-.08,1.38-1.55,1.89-1.91,4,0,.26-.22,1.32.14,1.5.54.26,1.37-1.84,3.2-2.59a5.7,5.7,0,0,1,6.43,2.17c1.12,1.78.66,4,.35,5.55-.1.5-.67,1.16-.41,1.48s.92-.08,1.76.19a2.73,2.73,0,0,1,1.36,1.12C1308,1003.78,1307.88,1007.12,1307.88,1007.12Z"/><path class="cls-2" d="M1721.84,813.35c-.5.45-1,.89-1.65,1.36a26.1,26.1,0,0,1-2.67,1.81,25.73,25.73,0,0,1-2.76,1.43h0l-.85.37h0a27.1,27.1,0,0,1-24.94-2.43c-.63-.41-1.2-.82-1.74-1.24a27.14,27.14,0,0,1-9.68-14.54l-5.6.72a32.4,32.4,0,0,0,5.14,11.31,32.76,32.76,0,0,0,59.47-19.53l-5.73.73a26.67,26.67,0,0,1-1,7.19A27.08,27.08,0,0,1,1721.84,813.35Z"/><path class="cls-3" d="M340.73,409.62V291.41h300V409.62h53.06V278.51h664.65V409.62h406.36V115.27l-3.67-1.47q-11.35-4.44-22.71-8.66H484.23c-50.11,20.8-122.85,54.51-196.81,99.09V409.62Z"/><path class="cls-3" d="M1602.56,61.36h-979C561.15,76.89,521.71,90.24,512.23,93.9c-8.24,3.18-17.64,6.94-28,11.24H1738.4Q1670.36,79.73,1602.56,61.36Z"/><path class="cls-3" d="M1358.42,409.62v232H693.77v-232H640.71v87.49h-300V409.62H287.42v360.9H1689l.81-.52a26.71,26.71,0,0,1,7.19-3l.39-.1a27.48,27.48,0,0,1,5.22-.74h.13c.32,0,.63,0,.94,0s.91,0,1.36,0a26.8,26.8,0,0,1,13.5,4.37h46.26V409.62Zm312.43,187.71-36.5-7.93L1630.7,596a3,3,0,0,1-5.43-1.18l-.59-7.49-141.07-30.66L1480,563.2a2.82,2.82,0,0,1-3.1,1.17h0a2.82,2.82,0,0,1-2.33-2.35l-.6-7.49-36.5-7.94,1.65-7.6,34.21,7.44v0l14.3,3.11,0,0L1624,579.19v0l14.29,3.1,0,0,34.21,7.43Zm-231.73-58.52,20.32.43,196.12,42.63,17,7.67Z"/><path class="cls-4" d="M630.59,812.31l60.57,41.06s45-25.38,46.91-27.31l-58.3-37.69Z"/><path class="cls-5" d="M78.35,374.54q-14.19,17.15-26.3,35.08h26.3Z"/><path class="cls-5" d="M287.42,770.52H172.12V607.68L78.35,678.79V409.62H52.05c-32.18,47.9-52,100-52,155.55C0,709.26,75.05,805.79,159.52,870.24l127.9-97Z"/><path class="cls-5" d="M287.42,409.62V204.23c-25,15.09-50.19,31.41-74.65,48.91V409.62Z"/><polygon class="cls-5" points="212.77 409.62 212.77 576.51 212.77 576.87 172.12 607.68 172.12 770.52 287.42 770.52 287.42 409.62 212.77 409.62"/><path class="cls-5" d="M1888.1,186.7V409.62h156.47C2025.31,322.46,1962.34,243.94,1888.1,186.7Z"/><path class="cls-5" d="M1888.1,770.52H1764.78v2.74l106,80.34c116-99.92,193.41-234.47,179.09-409.41a257.53,257.53,0,0,0-5.25-34.57H1888.1Z"/><path class="cls-5" d="M1888.1,409.62V186.7c-39.54-30.49-82.28-54.92-123.32-71.43V409.62Z"/><rect class="cls-5" x="1764.78" y="409.62" width="123.32" height="360.9"/><path class="cls-6" d="M212.77,409.62V253.14q-11.13,8-22,16.23V409.62Z"/><polygon class="cls-6" points="212.77 576.51 212.77 409.62 190.73 409.62 190.73 564.49 212.77 576.51"/><rect class="cls-7" x="693.77" y="278.51" width="664.65" height="131.11"/><rect class="cls-7" x="693.77" y="409.62" width="664.65" height="208.08"/><rect class="cls-8" x="693.77" y="632.09" width="664.65" height="9.59"/><rect class="cls-8" x="693.77" y="617.7" width="664.65" height="14.38"/><polygon class="cls-9" points="78.34 649.71 78.34 678.79 172.12 607.68 172.12 578.6 78.34 649.71"/><polygon class="cls-9" points="212.77 576.51 190.73 564.49 190.73 564.5 172.12 578.6 172.12 607.68 212.77 576.87 212.77 576.51"/><path class="cls-10" d="M172.12,409.62V283.88C137.4,311.72,105.24,342,78.35,374.54v35.08Z"/><polygon class="cls-10" points="172.12 409.62 78.34 409.62 78.34 503.2 172.12 554.34 172.12 409.62"/><path class="cls-10" d="M190.73,409.62V269.37q-9.4,7.14-18.61,14.51V409.62Z"/><polygon class="cls-10" points="190.73 564.49 190.73 409.62 172.12 409.62 172.12 554.34 190.73 564.49"/><polygon class="cls-10" points="172.12 554.34 78.34 503.2 78.34 649.71 172.12 578.6 172.12 554.34"/><polygon class="cls-10" points="172.12 578.6 190.73 564.5 190.73 564.49 172.12 554.34 172.12 578.6"/><path class="cls-11" d="M1671.09,812.23l-3.8,2.7c.9,1.05,1.78,2.16,2.62,3.34s1.72,2.55,2.45,3.83l4-2.85a36.65,36.65,0,0,1-3.43-4.16C1672.27,814.16,1671.66,813.2,1671.09,812.23Z"/><path class="cls-11" d="M1730.81,792v.2c0,.37,0,.74,0,1.11h0l5.73-.73a33.12,33.12,0,0,0-.73-6.33l-5.72.72h0A27.21,27.21,0,0,1,1730.81,792Z"/><path class="cls-11" d="M1677.55,800.11h0a26.76,26.76,0,0,1-.87-5.88v-.49l-5.6.71a32.21,32.21,0,0,0,.87,6.38Z"/><path class="cls-12" d="M1739.91,792.18l-3.35.43a32.76,32.76,0,0,1-59.47,19.53,32.4,32.4,0,0,1-5.14-11.31l-3.15.4-1-6.37,3.27-.41a32.7,32.7,0,0,1,.22-5.33l-5.16.4a37.78,37.78,0,0,0,4.95,22.71l2.5-1.78,5.09,7.16-2.31,1.64a37.86,37.86,0,0,0,63.69-37l-5.15.59a33.53,33.53,0,0,1,.92,3.47l3.28-.41Z"/><path class="cls-12" d="M1673.59,810.45l-2.5,1.78c.57,1,1.18,1.93,1.85,2.86a36.65,36.65,0,0,0,3.43,4.16l2.31-1.64Z"/><path class="cls-12" d="M1668.8,801.23l3.15-.4a32.21,32.21,0,0,1-.87-6.38l-3.27.41Z"/><path class="cls-12" d="M1739.91,792.18l-.8-6.31-3.28.41a33.12,33.12,0,0,1,.73,6.33Z"/><path class="cls-12" d="M1665.76,816l1.53-1.08c-6.71-7.83-14.66-11.7-18.49-9l25.8,36.33c3.79-2.7,2.82-11.34-2.24-20.18l-1.51,1.07Z"/><path class="cls-12" d="M1667.29,814.93l-1.53,1.08,5.09,7.16,1.51-1.07q-1.09-1.92-2.45-3.83C1669.07,817.09,1668.19,816,1667.29,814.93Z"/><polygon class="cls-13" points="1710.35 798.49 1711.51 800.13 1712.46 800.33 1713.3 799.73 1713.33 799 1712.15 797.4 1712.36 796.45 1713.23 795.68 1713.07 795.6 1711.3 795.82 1711.18 795.87 1711.18 795.84 1709.58 796.04 1710.38 796.97 1710.35 798.49"/><polygon class="cls-13" points="1709.44 796.06 1708.69 796.15 1708.89 796.45 1709.44 796.06"/><path class="cls-13" d="M1687.23,814.65c.54.42,1.11.83,1.74,1.24a27.1,27.1,0,0,0,24.94,2.43h0l.25-.37h.6a25.73,25.73,0,0,0,2.76-1.43h0l-2.25,1.19-1.07,0-.25-.58,1.45-3.36,1-.58.69-.49,0-1-1.65-3.36-.92-1.44-.16-1.71.66-.61-.41-.57-1.07.73s.57,3.54.57,3.54l.44.82-.55.41-1-.37-3.22-1.09-.83-1,.16-.91.82-.66,1.14-4.25-.3,0-2.7,5.38.12.76,2,1.86.1.54-4.51,0-3.19-.62-.44,1-1.88,1.64-2,0-.87-.08-.82.59-.65-.6-1.36.15-3-.47-1.65-2.32,1.36-1,.5-1.52,1.64-1.17.17-1,.65-.53,2-.28,1.52-3.23,1.84-1.06-.79-1.39.08-.42-21.24,2.7A27.14,27.14,0,0,0,1687.23,814.65Zm9.76-.3.91-.64.8.08.64,0,.18-.69.82-.58.61,1.16,1.67-.26.45.63-2.74,1.2-2.26,0-1.22.07Z"/><path class="cls-13" d="M1724,795.38l1.75,2.85.41-.63.81-.31.36.89-.22.54-1,1,.69.54,1.14-.83,1.92,1.13a26.67,26.67,0,0,0,1-7.19l-8.27,1-.08.11Z"/><polygon class="cls-13" points="1716.55 803.51 1716.88 804.07 1717.27 804.15 1717.63 803.89 1717.64 803.21 1718.15 802.84 1718.11 801.29 1718.51 801.07 1719.06 801.94 1719.45 801.62 1719.28 800.86 1718.73 800.21 1718.22 800.32 1717.45 800.92 1717.44 802.21 1717.12 802.44 1716.41 802.26 1716.09 802.4 1716.64 803.29 1716.55 803.51"/><polygon class="cls-13" points="1713.42 797.23 1714.31 798.59 1714.96 799.51 1715.29 799.18 1715.05 798.18 1715.85 797.56 1715.79 797.17 1715.44 797.19 1714.86 796.54 1714.53 796.29 1713.98 796.23 1713.08 796.87 1713.42 797.23"/><polygon class="cls-13" points="1696.82 771 1697.23 770.71 1697.09 770.52 1696.08 770.52 1696.41 770.84 1696.82 771"/><polygon class="cls-13" points="1697.56 770.52 1697.46 770.52 1697.55 770.6 1697.56 770.52"/><polygon class="cls-13" points="1696.9 771.19 1696.53 771.46 1696.4 771.82 1696.87 772.47 1697.26 772.19 1696.94 771.25 1696.9 771.19"/><polygon class="cls-13" points="1695.4 771.34 1695.9 771.42 1696.3 771.14 1695.91 770.71 1695.7 770.75 1695.51 770.52 1695.33 770.52 1694.94 770.69 1695.4 771.34"/><polygon class="cls-13" points="1697.38 771.2 1697.35 771.59 1697.73 771.7 1697.71 771.25 1697.38 771.2"/><path class="cls-13" d="M1679.19,782.64a3.59,3.59,0,0,1-.18-.44,24.74,24.74,0,0,0-1.23,3.34l1.4-1S1679.24,782.71,1679.19,782.64Z"/><path class="cls-13" d="M1679.53,781.1l-.15.3.09-.09Z"/><path class="cls-13" d="M1708.38,770.7l.52,2.53-.74.52.29.72-.8.11-.62-.87-.84.21-1-2.32,1.94,1,.09-1-1-1.1h-6.73l-.2.14.41.42,1.22-.21,1.11.84,1.39-1,.89.29.69,1.7-1,.55.28.4,1.28.69-1.17.91.09,1.12-.74.48-.79-.57-.21.22.24,1.19-.51.33-.2-.24h0l-.46-1.39.33-.31.46.17.33-.23-.16-.43-.37.13-.54-.56,0-.07,0,0-.19-.2.23-.42-.05-.27-.32-.45-.31-.09-.37.26.15.47.21.42-.1-.06-.62-.06.08-.29-.15-.4-1.5-.3v.18l-1.7-.81-2.2-.33-.65.33-1.73-.67-1.07-.18-1.21,1-.21-1.16.74-.51-.72-1H1689c-.52.34-1,.69-1.53,1.07l.07,0-.42.51-.4,0-.64.54.44.91-1.76,1.43.89,1.83,1.94.18.63,1.45-.3.88.94,1.16.37-.22.15.89-.64,1.59.9,1.3-.5,1.07-1,.8.46,1.82,1.27,1.82-.49,1.14.31,1-.83.36-1.73-.09-.92.52h0l10-1.26h0l.28-1.17,1.75-1.21.35.24.75-.36-.33-.46.57-.68,3.24,1.11,1.16-.83,1.4.67.28.48.65.91,0,0,2.26-.28h0l-1,0-.65.17-.51-.61-.68-.94-.14-.76,1-1,.68-.17.9.81.54,1.21.67-.29-.21-.52,1-.5.92.95h1.57l.67.68.19.36h0l1.24-.15h0l0,0-.94-.6.53-.82-.28-.53.44-.46.71.1,1,.69,1.34-.15,1.75.91.21.28,10.48-1.33a27,27,0,0,0-9.85-15.24c-.54-.42-1.12-.84-1.74-1.24h-10.3Zm-8.66,4.22-.33.17-.34-.4.32-.19.37,0Zm1.26,1.29-.23-.27-.33.14-.3-.12-.28-.35.13-.12-.1-.14.3-.22.42.59.4-.09.17.22.13.31Zm10.91,8.43.42,0,.61.57-.69.75-.33.77-.1.43.13.56-.77-.06-.64-.74-.43-.6.76-.43.45.42.31-.28,0-.66v-.48Zm-2.07-.2,1-.06.52.46.1.51-.46.28-1.19-.41-.34-.48Z"/><path class="cls-13" d="M1683.81,777.82l1.17-1.06-1-1.65.12-.54a27.61,27.61,0,0,0-2.62,3.23l.81-.52Z"/><path class="cls-13" d="M1682.51,792l-1,.09-1.07,1.2-2.55-.12-1,.12-.23-.12c0,.2,0,.4,0,.6h0l6.47-.81Z"/><polygon class="cls-13" points="1705.93 770.36 1705.93 770.36 1705.89 770.36 1705.21 770.25 1704.7 769.65 1704.42 769.93 1704.48 770.22 1704.37 770.29 1703.93 769.82 1703.6 769.99 1703.22 769.51 1703.76 769 1702.85 768.29 1700.48 767.23 1699.88 767.97 1699.91 768.72 1700.49 769.84 1699.53 770.52 1706.26 770.52 1706.14 770.39 1705.93 770.36"/><polygon class="cls-13" points="1695.46 770.47 1695.33 770.52 1695.51 770.52 1695.46 770.47"/><path class="cls-13" d="M1696.74,770l-.68.48,0,0h1Z"/><path class="cls-13" d="M1697.37,766.88l-.39.1,0,0Z"/><polygon class="cls-13" points="1694.62 769.61 1696.45 769.61 1695.97 768.93 1695.12 768.83 1694.55 769.11 1694.62 769.61"/><path class="cls-13" d="M1689.79,770l-.81.52h1.18Z"/><polygon class="cls-13" points="1697.64 769.9 1697.15 770.25 1697.46 770.52 1697.56 770.52 1697.64 769.9"/><polygon class="cls-13" points="1696.99 770.03 1697.42 769.73 1697.29 769.55 1697.53 769.38 1696.96 768.58 1696.3 768.16 1695.92 768.25 1696.12 768.8 1696.99 770.03"/><path class="cls-13" d="M1705.08,766.56l-1.27-.23-.15-.21c-.31,0-.62,0-.94,0h-.13l.78,1,.44-.11.67.84.58-.26-.27-.57.58-.16.39.31.9,1.4-1.21-.26-.44.5.43.87.92-.73.92.47.94,1h10.3a26.8,26.8,0,0,0-13.5-4.37Z"/><path class="cls-13" d="M1719.63,788.33l1.68,2.22.52,2.78-.56-.14-1.31-1.68-.31.34,1.13,1.69,1,.31.8-.21.31.26-.35.49h0l8.27-1h0c0-.37,0-.74,0-1.11V792a27.21,27.21,0,0,0-.7-5h0l-10.48,1.33Z"/><polygon class="cls-13" points="1707.19 790.42 1709.01 792.6 1707.84 793.43 1708.66 795.58 1708.66 796.11 1708.69 796.15 1709.44 796.06 1709.53 795.99 1709.58 796.04 1709.58 796.04 1711.18 795.84 1711.18 795.84 1711.46 794.47 1712.22 793.88 1712.35 792.65 1712.42 792.16 1711.79 791.27 1711.2 792.12 1711.37 793.6 1711.3 793.94 1711.02 793.78 1710.4 794.24 1709.81 793.87 1709.6 793.36 1709.79 792.81 1710.27 793.55 1710.67 793.56 1710.61 791.19 1710.99 790.74 1709.93 790.51 1709.6 789.75 1708.61 789.72 1706.35 790 1706.35 790 1707.19 790.42"/><polygon class="cls-13" points="1713.94 789.75 1714.8 788.93 1713.56 789.09 1713.76 789.49 1713.94 789.75"/><polygon class="cls-13" points="1713.07 795.6 1712.54 795.34 1711.3 795.82 1711.3 795.82 1713.07 795.6 1713.07 795.6"/><path class="cls-13" d="M1676.68,794.23a26.76,26.76,0,0,0,.87,5.88h0l21.24-2.7h0l.06-.39-.61-.87-.73-.15-1.08-1.53-.18,0-.6-.86.56-2.37-10,1.26-1.73,1-1.19-.34-.16-.24h0l-6.47.81v.49Z"/><polygon class="cls-13" points="1717.06 791.33 1717.58 790.9 1717.44 790.14 1717.85 789.85 1719.19 790.43 1719.6 790.14 1719.36 789.81 1717.26 789.05 1715.59 790.23 1714.52 789.67 1714.29 789.96 1715.27 791.38 1717.06 791.33"/><path class="cls-14" d="M1713.91,818.32l.85-.37h-.6Z"/><polygon class="cls-14" points="1700.33 815.22 1703.07 814.02 1702.62 813.39 1700.95 813.65 1700.34 812.49 1699.52 813.07 1699.34 813.76 1698.7 813.79 1697.9 813.71 1696.99 814.35 1696.85 815.33 1698.07 815.26 1700.33 815.22"/><polygon class="cls-14" points="1711.61 786.01 1711.3 786.29 1710.85 785.87 1710.09 786.3 1710.52 786.9 1711.16 787.64 1711.93 787.7 1711.8 787.14 1711.9 786.72 1712.23 785.94 1712.92 785.19 1712.31 784.62 1711.88 784.64 1711.56 784.87 1711.56 785.35 1711.61 786.01"/><polygon class="cls-14" points="1710.93 785.63 1711.39 785.35 1711.29 784.84 1710.77 784.38 1709.82 784.44 1709.4 784.74 1709.74 785.22 1710.93 785.63"/><polygon class="cls-14" points="1706.31 789.98 1705.66 789.07 1705.38 788.59 1703.98 787.92 1702.82 788.75 1699.58 787.64 1699.01 788.32 1699.34 788.78 1698.59 789.14 1698.24 788.9 1696.49 790.11 1696.21 791.28 1696.21 791.28 1706.35 790 1706.31 789.98"/><polygon class="cls-14" points="1711.3 795.82 1711.18 795.84 1711.18 795.87 1711.3 795.82"/><polygon class="cls-14" points="1713.56 789.09 1713.37 788.73 1712.7 788.05 1711.13 788.06 1710.21 787.11 1709.19 787.61 1709.4 788.13 1708.73 788.42 1708.19 787.21 1707.29 786.4 1706.61 786.57 1705.6 787.54 1705.74 788.3 1706.42 789.24 1706.93 789.85 1707.58 789.68 1708.6 789.72 1708.61 789.72 1713.56 789.09 1713.56 789.09"/><path class="cls-14" d="M1713.23,795.68l-.88.77-.2.95,1.18,1.6,0,.73-.84.6-1-.2-1.16-1.64,0-1.52-.8-.93-.14,0-.54.39-.21-.3-9.9,1.26-.08.42.79,1.39-1.84,1.06-1.52,3.23-2,.28-.65.53-.17,1-1.64,1.17-.5,1.52-1.36,1,1.65,2.32,3,.47,1.36-.15.65.6.82-.59.87.08,2,0,1.88-1.64.44-1,3.19.62,4.51,0-.1-.54-2-1.86-.12-.76,2.7-5.38.3,0-1.14,4.25-.82.66-.16.91.83,1,3.22,1.09,1,.37.55-.41-.44-.82s-.62-3.5-.57-3.54l1.07-.73.41.57-.66.61.16,1.71.92,1.44,1.65,3.36,0,1-.69.49-1,.58-1.45,3.36.25.58,1.07,0,2.25-1.19h0a26.1,26.1,0,0,0,2.67-1.81c.62-.47,1.15-.91,1.65-1.36a27.08,27.08,0,0,0,8-12.82l-1.92-1.13-1.14.83-.69-.54,1-1,.22-.54-.36-.89-.81.31-.41.63-1.75-2.85-1.53-.88.08-.11-9.49,1.21Zm3.18,6.59.71.17.32-.23v-1.29l.77-.6.51-.11.55.65.17.76-.39.32-.55-.87-.4.22,0,1.55-.51.37v.68l-.36.26-.38-.08-.34-.56.09-.22-.55-.89Zm-1.88-6,.32.25.59.65.35,0,.06.39-.8.62.24,1-.33.33-.65-.92-.89-1.36-.34-.36.9-.64Z"/><polygon class="cls-14" points="1719.42 788.05 1717.67 787.14 1716.33 787.28 1715.29 786.6 1714.58 786.5 1714.14 786.96 1714.42 787.49 1713.89 788.31 1714.83 788.91 1714.8 788.93 1714.8 788.93 1719.63 788.33 1719.42 788.05"/><polygon class="cls-14" points="1696.25 794.51 1696.43 794.47 1697.51 796 1698.23 796.15 1698.86 797.02 1698.79 797.41 1698.79 797.41 1708.69 796.15 1708.66 796.11 1708.66 795.58 1707.84 793.43 1709.01 792.6 1707.19 790.42 1706.35 790 1706.35 790 1696.21 791.28 1695.65 793.65 1696.25 794.51"/><polygon class="cls-14" points="1709.58 796.04 1709.53 795.99 1709.44 796.06 1709.58 796.04 1709.58 796.04"/><path class="cls-14" d="M1709.94,790.51l1,.23-.38.45.06,2.37h-.4l-.48-.74-.19.55.21.51.59.37.62-.46.28.16.07-.34-.17-1.49.59-.84.63.89-.07.49-.12,1.23-.77.59-.28,1.36h0l.12,0h0l1.24-.48.52.26h0l9.49-1.21h0l.35-.49-.31-.26-.8.21-1-.31-1.13-1.69.31-.34,1.31,1.68.56.14-.52-2.78-1.68-2.22h0l-4.83.61-.86.81-.18-.26-.2-.4-5,.63,1,0Zm4.58-.84,1.07.56,1.67-1.18,2.1.76.24.33-.41.29-1.34-.58-.41.29.14.76-.52.43-1.79,0-1-1.42Z"/><path class="cls-14" d="M1701,775.63l-.4.09-.42-.59-.3.22.1.14-.13.12.28.35.3.12.33-.14.23.27.31-.05-.13-.31Z"/><polygon class="cls-14" points="1699.05 774.69 1699.39 775.09 1699.72 774.92 1699.74 774.52 1699.37 774.5 1699.05 774.69"/><path class="cls-14" d="M1678.89,781.9l.12.3c.12-.27.24-.53.37-.8Z"/><path class="cls-14" d="M1687.52,771.62l-.07,0-.14.11-.61.48.4,0Z"/><path class="cls-14" d="M1677.93,793.14l2.55.12,1.07-1.2,1-.09.64,1,3.08-.39h0l.92-.52,1.73.09.83-.36-.31-1,.49-1.14-1.27-1.82-.46-1.82,1-.8.5-1.07-.9-1.3.64-1.59-.15-.89-.37.22-.94-1.16.3-.88-.63-1.45-1.94-.18-.89-1.83,1.76-1.43-.44-.91c-.14.11-.27.23-.4.35-.54.48-1.05,1-1.55,1.5l-.12.54,1,1.65-1.17,1.06-1.51-.54-.81.52a27.56,27.56,0,0,0-2,3.3l-.06.21-.09.09c-.13.27-.25.53-.37.8a3.59,3.59,0,0,0,.18.44c0,.07,0,1.9,0,1.9l-1.4,1a26.52,26.52,0,0,0-1.11,7.6l.23.12Z"/><path class="cls-14" d="M1697.55,770.6l-.09-.08h-.37l.14.19-.41.29-.41-.16-.33-.32h-.57l.19.24.21,0,.39.43-.4.28-.5-.08-.46-.65.39-.17h-5.17l.72,1-.74.51.21,1.16,1.21-1,1.07.18,1.73.67.65-.33,2.2.33,1.7.81v-.18l1.5.3.15.4-.08.29.62.06.1.06-.21-.42-.15-.47.37-.26.31.09.32.45.05.27-.23.42.19.2,0,0,0,.07.54.56.37-.13.16.43-.33.23-.46-.17-.33.31.46,1.39h0l.2.24.51-.33-.24-1.19.21-.22.79.57.74-.48-.09-1.12,1.17-.91-1.28-.69-.28-.4,1-.55-.69-1.7-.89-.29-1.39,1-1.11-.84-1.22.21-.41-.42.2-.14h-2Zm-.69,1.87-.46-.65.13-.36.37-.27,0,.06.32.94Zm.49-.88,0-.39.33,0,0,.45Z"/><polygon class="cls-14" points="1707.27 771.62 1707.18 772.57 1705.24 771.6 1706.18 773.92 1707.03 773.71 1707.65 774.58 1708.44 774.47 1708.16 773.75 1708.9 773.23 1708.38 770.7 1708.22 770.52 1706.26 770.52 1707.27 771.62"/><path class="cls-14" d="M1695.33,770.52l.13,0,0,0h.57l0,0,.68-.48.35.5h.37l-.31-.27.49-.35-.08.62h2l1-.68-.58-1.12,0-.75.6-.74,2.37,1.06.91.71-.54.51.38.48.33-.17.44.47.11-.07-.06-.29.28-.28.51.6.68.11h0l.21,0,.12.13h2l-.94-1-.92-.47-.92.73-.43-.87.44-.5,1.21.26-.9-1.4-.39-.31-.58.16.27.57-.58.26-.67-.84-.44.11-.78-1a27.48,27.48,0,0,0-5.22.74l-.35.13,0,0a26.71,26.71,0,0,0-7.19,3l.37.52Zm1-2.36.66.42.57.8-.24.17.13.18-.43.3-.87-1.23-.2-.55Zm-.33.78.48.67h-1.83l-.07-.5.57-.28Z"/><path class="cls-14" d="M1705.08,766.56l-.06-.41c-.45,0-.9,0-1.36,0l.15.21Z"/><polygon class="cls-14" points="1683.15 792.93 1683.31 793.17 1684.5 793.51 1686.22 792.54 1683.15 792.93 1683.15 792.93"/><path class="cls-15" d="M1305.17,1000.73c-.84-.27-1.51.13-1.76-.19s.31-1,.41-1.48c.31-1.53.77-3.77-.35-5.55a5.7,5.7,0,0,0-6.43-2.17c-1.83.75-2.66,2.85-3.2,2.59-.36-.18-.18-1.24-.14-1.5.36-2.11,1.83-2.62,1.91-4,.07-1.07-.76-1.9-1.65-2.8-1.11-1.12-2.46-1.94-5.29-2.94-4.12-1.44-6.18-2.17-8.58-1.5-.76.21-2.85.8-3.65,2.5-.43.91-.13,1.37-.53,1.81-1.16,1.25-4.36-1.7-7.75-1.33-4.62.5-8.79,7-7.7,11,.09.31.68,2.48,2.27,3,1,.34,2-.2,2.08,0,.24.47-4.92,2.25-7.67,6.35s-2,9.27-1.77,10.72c.13.79,1.16,6.7,5.1,9.44a12.21,12.21,0,0,0,4.59,2c1.09.17,1.18,0,1.63.22,1.93,1,.66,4.55,2.55,7.14,1,1.41,2.53,1.89,4.07,2.38,5.66,1.81,13.86-.17,16.76-5.64a9.24,9.24,0,0,0,1.15-6.07c-.44-2.17-1.78-3.49-1.46-3.81.57-.56,4.08,4.23,8,3.87,2.91-.27,4.81-3.2,6.71-6.12a24.3,24.3,0,0,0,3.38-11.48s.11-3.34-1.35-5.27A2.73,2.73,0,0,0,1305.17,1000.73ZM1282,988c3.45-.28,7.19,1.53,7.2,3.11,0,1.43-3,1.78-3.11,3.79a3.1,3.1,0,0,0,1.49,2.63c.7.41,1,.1,1.83.43,1.92.72,2.62,3.05,2.71,3.34a5.8,5.8,0,0,1,0,2.94,5.8,5.8,0,0,0,0-2.94c-.09-.29-.79-2.62-2.71-3.34-.85-.33-1.13,0-1.83-.43a3.1,3.1,0,0,1-1.49-2.63c.12-2,3.11-2.36,3.11-3.79,0-1.58-3.75-3.39-7.2-3.11a9.17,9.17,0,0,0-4,1.34A9.17,9.17,0,0,1,1282,988Zm-13.65,36.6c-2.27-.51-3.66-2-5.06-3.42s-2.43-2.53-2.94-4.3a9.18,9.18,0,0,1,.51-6,14.28,14.28,0,0,1,3.45-4.94c2.32-2.42,3.32-2.36,5-4.69a6.87,6.87,0,0,0,1.56-4,5.8,5.8,0,0,0-1.21-3.39,5.8,5.8,0,0,1,1.21,3.39,6.87,6.87,0,0,1-1.56,4c-1.63,2.33-2.63,2.27-5,4.69a14.28,14.28,0,0,0-3.45,4.94,9.18,9.18,0,0,0-.51,6c.51,1.77,1.52,2.82,2.94,4.3s2.79,2.91,5.06,3.42a7.88,7.88,0,0,0,3.75-.11A7.88,7.88,0,0,1,1268.37,1024.57Zm11.4-9.52c-1.74,1.13-3.77.89-5.58.68-1.62-.2-2.32-1-2.82-.64s-.15,2.26.3,3.21a5.67,5.67,0,0,0,1.41,1.85,5.67,5.67,0,0,1-1.41-1.85c-.45-.95-1-2.69-.3-3.21s1.2.44,2.82.64c1.81.21,3.84.45,5.58-.68a6.29,6.29,0,0,0,2.48-3.77A6.29,6.29,0,0,1,1279.77,1015.05Zm5.74,12.69a6.71,6.71,0,0,1-2.17,2.91,6.71,6.71,0,0,0,2.17-2.91c.72-1.93.24-3.67-.26-5.54a16.49,16.49,0,0,0-2.13-4.72,16.49,16.49,0,0,1,2.13,4.72C1285.75,1024.07,1286.23,1025.81,1285.51,1027.74Zm18.93-14.92a9.88,9.88,0,0,1-3.32,4.06c-1.29,1-2.91,2.34-4,1.83s-.37-1.73-1.45-3.12c-1-1.21-2.38-1.56-4.5-2.05-3-.68-3.16.07-4.72-.63-.9-.4-4.24-2.08-4.59-5.49a6.42,6.42,0,0,1,1.17-4.24,6.42,6.42,0,0,0-1.17,4.24c.35,3.41,3.69,5.09,4.59,5.49,1.56.7,1.77,0,4.72.63,2.12.49,3.55.84,4.5,2.05,1.08,1.39.53,2.68,1.45,3.12s2.67-.79,4-1.83a9.88,9.88,0,0,0,3.32-4.06,9.16,9.16,0,0,0,.66-4.21A9.16,9.16,0,0,1,1304.44,1012.82Z"/><path class="cls-16" d="M1474.53,562a2.82,2.82,0,0,0,2.33,2.35h0a2.82,2.82,0,0,0,3.1-1.17l3.65-6.57-9.68-2.1Z"/><polygon class="cls-16" points="1487.58 549.5 1473.28 546.39 1473.29 546.43 1487.56 549.53 1487.58 549.5"/><polygon class="cls-16" points="1638.32 582.26 1624.03 579.16 1624.03 579.19 1638.3 582.3 1638.32 582.26"/><path class="cls-16" d="M1625.27,594.78a3,3,0,0,0,5.43,1.18l3.65-6.56-9.67-2.11Z"/><polygon class="cls-16" points="1459.44 539.24 1439.12 538.81 1672.55 589.54 1655.56 581.87 1459.44 539.24"/><polygon class="cls-17" points="1439.08 538.99 1437.43 546.59 1473.93 554.53 1473.29 546.43 1439.08 538.99"/><polygon class="cls-17" points="1634.35 589.4 1670.85 597.33 1672.51 589.73 1638.3 582.3 1634.35 589.4"/><polygon class="cls-17" points="1487.56 549.53 1483.61 556.63 1624.67 587.29 1624.03 579.19 1487.56 549.53"/><polygon class="cls-17" points="1473.29 546.43 1473.93 554.53 1483.61 556.63 1487.56 549.53 1473.29 546.43"/><polygon class="cls-17" points="1624.03 579.19 1624.67 587.29 1634.35 589.4 1638.3 582.3 1624.03 579.19"/><polygon class="cls-18" points="349.68 300.37 631.55 300.37 631.55 409.62 640.71 409.62 640.71 291.41 340.74 291.41 340.74 409.62 349.68 409.62 349.68 300.37"/><polygon class="cls-18" points="640.71 497.11 640.71 409.62 631.55 409.62 631.55 487.85 349.68 487.85 349.68 409.62 340.74 409.62 340.74 497.11 640.71 497.11"/><path class="cls-19" d="M349.67,300.37V409.62H631.55V300.37Zm72.12,5.07a3.13,3.13,0,0,1,.18-.76.11.11,0,0,1,0-.05s0,0,0,0a3.37,3.37,0,0,1,4.45-2l0,0,.34.16.17.08a3.21,3.21,0,0,1,.48.34c.07.05.13.12.2.18a2.73,2.73,0,0,1,.23.25,2,2,0,0,1,.18.23c.06.09.12.18.17.27s.09.17.13.25.09.21.13.32l.09.26a3.91,3.91,0,0,1,.07.39,1.46,1.46,0,0,1,0,.22,3.28,3.28,0,0,1-.87,2.56l.92,6.26-3.6-5.14h-.23A3.44,3.44,0,0,1,421.79,305.44Z"/><path class="cls-19" d="M349.67,487.85H631.55V409.62H349.67Zm161-60.43a4.41,4.41,0,0,1,1.09.06l0,0,.43.11.26.06a4.84,4.84,0,0,1,.66.28,3.53,3.53,0,0,1,.32.21,3.53,3.53,0,0,1,.32.21,3.45,3.45,0,0,1,.28.26,1.72,1.72,0,0,1,.27.27,3.36,3.36,0,0,1,.24.29,4,4,0,0,1,.23.34c.06.1.12.2.17.3s.13.3.19.45l.1.27a5.14,5.14,0,0,1,.15.8,4.26,4.26,0,0,1-.58,2.57l2.71,7.43-5.72-5.39a2.3,2.3,0,0,1-.28.06,4.3,4.3,0,0,1-4.67-3.88,4.82,4.82,0,0,1,0-.76c0-.06,0-.12,0-.18a.28.28,0,0,0,0-.09v.05A4.29,4.29,0,0,1,510.62,427.42Z"/><path class="cls-19" d="M425.05,309.23l3.6,5.14-.92-6.26A3.44,3.44,0,0,1,425.05,309.23Z"/><path class="cls-19" d="M421.79,305.44a3.13,3.13,0,0,1,.18-.76A3.13,3.13,0,0,0,421.79,305.44Z"/><path class="cls-19" d="M427.8,303.61a2,2,0,0,1,.18.23A2,2,0,0,0,427.8,303.61Z"/><path class="cls-19" d="M428.57,305.33a1.46,1.46,0,0,1,0,.22A1.46,1.46,0,0,0,428.57,305.33Z"/><path class="cls-19" d="M428.41,304.68l.09.26Z"/><path class="cls-19" d="M424,307.77l-.08-.12,3.46-1.39a3,3,0,0,0,.28-.93,2.87,2.87,0,0,0-1.26-2.7,3.37,3.37,0,0,0-4.45,2v0A2.87,2.87,0,0,0,424,307.77Z"/><path class="cls-19" d="M426.72,302.76l.17.08Z"/><path class="cls-19" d="M427.37,303.18c.07.05.13.12.2.18S427.44,303.23,427.37,303.18Z"/><path class="cls-19" d="M428.15,304.11c.05.08.09.17.13.25C428.24,304.28,428.2,304.19,428.15,304.11Z"/><path class="cls-19" d="M427.4,306.26l-3.46,1.39.08.12a3.86,3.86,0,0,0,.49.1A2.87,2.87,0,0,0,427.4,306.26Z"/><path class="cls-19" d="M428.6,305.55a3.42,3.42,0,0,1,0,.64A3.42,3.42,0,0,0,428.6,305.55Z"/><path class="cls-19" d="M426.89,302.84a3.21,3.21,0,0,1,.48.34A3.21,3.21,0,0,0,426.89,302.84Z"/><path class="cls-19" d="M427.57,303.36a2.73,2.73,0,0,1,.23.25A2.73,2.73,0,0,0,427.57,303.36Z"/><path class="cls-19" d="M428.28,304.36a2.15,2.15,0,0,1,.13.32C428.37,304.57,428.33,304.47,428.28,304.36Z"/><path class="cls-19" d="M422,304.63a.11.11,0,0,0,0,.05h0S422,304.65,422,304.63Z"/><path class="cls-19" d="M428.5,304.94a3.91,3.91,0,0,1,.07.39A3.91,3.91,0,0,0,428.5,304.94Z"/><path class="cls-19" d="M426.38,302.6l0,0,.3.13Z"/><path class="cls-19" d="M428,303.84c.06.09.12.18.17.27C428.1,304,428,303.93,428,303.84Z"/><path class="cls-19" d="M424,307.77a2.87,2.87,0,0,1-2-3.07v0h0a3.13,3.13,0,0,0-.18.76,3.44,3.44,0,0,0,3,3.79h.23Z"/><path class="cls-19" d="M427.68,305.33a3,3,0,0,1-.28.93l.05,0,.28,1.87a3.28,3.28,0,0,0,.87-2.56,1.46,1.46,0,0,0,0-.22,3.91,3.91,0,0,0-.07-.39l-.09-.26a2.15,2.15,0,0,0-.13-.32c0-.08-.08-.17-.13-.25s-.11-.18-.17-.27a2,2,0,0,0-.18-.23,2.73,2.73,0,0,0-.23-.25c-.07-.06-.13-.13-.2-.18a3.21,3.21,0,0,0-.48-.34l-.17-.08-.3-.13A2.87,2.87,0,0,1,427.68,305.33Z"/><path class="cls-19" d="M427.4,306.26a2.87,2.87,0,0,1-2.89,1.61,3.86,3.86,0,0,1-.49-.1l1,1.46a3.44,3.44,0,0,0,2.68-1.12l-.28-1.87Z"/><path class="cls-19" d="M511.69,435.91l5.72,5.39-2.71-7.43A4.28,4.28,0,0,1,511.69,435.91Z"/><path class="cls-19" d="M510.07,434.38l-.13-.12,3.89-2.58a3.75,3.75,0,0,0,.11-1.21,3.6,3.6,0,0,0-2.23-3,4.41,4.41,0,0,0-1.09-.06,4.29,4.29,0,0,0-3.85,3.69v0A3.61,3.61,0,0,0,510.07,434.38Z"/><path class="cls-19" d="M512.09,427.56l.26.06Z"/><path class="cls-19" d="M506.75,431.33c0-.06,0-.12,0-.18S506.75,431.27,506.75,431.33Z"/><path class="cls-19" d="M514.2,428.85a3.36,3.36,0,0,1,.24.29A3.36,3.36,0,0,0,514.2,428.85Z"/><path class="cls-19" d="M515,430.23l.1.27Z"/><path class="cls-19" d="M514.67,429.48c.06.1.12.2.17.3C514.79,429.68,514.73,429.58,514.67,429.48Z"/><path class="cls-19" d="M513.65,428.32a3.45,3.45,0,0,1,.28.26A3.45,3.45,0,0,0,513.65,428.32Z"/><path class="cls-19" d="M513,427.9a3.53,3.53,0,0,1,.32.21A3.53,3.53,0,0,0,513,427.9Z"/><path class="cls-19" d="M513.83,431.68l-3.89,2.58.13.12a3.21,3.21,0,0,0,.62,0A3.58,3.58,0,0,0,513.83,431.68Z"/><path class="cls-19" d="M506.76,431.15a.06.06,0,0,0,0,0v-.05A.28.28,0,0,1,506.76,431.15Z"/><path class="cls-19" d="M514.84,429.78c.07.15.13.3.19.45C515,430.08,514.91,429.93,514.84,429.78Z"/><path class="cls-19" d="M513.33,428.11a3.53,3.53,0,0,1,.32.21A3.53,3.53,0,0,0,513.33,428.11Z"/><path class="cls-19" d="M513.93,428.58a1.72,1.72,0,0,1,.27.27A1.72,1.72,0,0,0,513.93,428.58Z"/><path class="cls-19" d="M512.35,427.62a3.85,3.85,0,0,1,.66.28A4.84,4.84,0,0,0,512.35,427.62Z"/><path class="cls-19" d="M506.74,432.09a4.82,4.82,0,0,1,0-.76A4.82,4.82,0,0,0,506.74,432.09Z"/><path class="cls-19" d="M514.44,429.14a4,4,0,0,1,.23.34A4,4,0,0,0,514.44,429.14Z"/><path class="cls-19" d="M511.66,427.45l0,0a2.57,2.57,0,0,1,.38.08Z"/><path class="cls-19" d="M515.13,430.5a5.14,5.14,0,0,1,.15.8A5.14,5.14,0,0,0,515.13,430.5Z"/><path class="cls-19" d="M513.94,430.47a3.75,3.75,0,0,1-.11,1.21l.06,0,.81,2.23a4.26,4.26,0,0,0,.58-2.57,5.14,5.14,0,0,0-.15-.8l-.1-.27c-.06-.15-.12-.3-.19-.45s-.11-.2-.17-.3a4,4,0,0,0-.23-.34,3.36,3.36,0,0,0-.24-.29,1.72,1.72,0,0,0-.27-.27,3.45,3.45,0,0,0-.28-.26,3.53,3.53,0,0,0-.32-.21,3.53,3.53,0,0,0-.32-.21,3.85,3.85,0,0,0-.66-.28l-.26-.06a2.57,2.57,0,0,0-.38-.08A3.6,3.6,0,0,1,513.94,430.47Z"/><path class="cls-19" d="M506.75,431.33a4.82,4.82,0,0,0,0,.76,4.3,4.3,0,0,0,4.67,3.88,2.3,2.3,0,0,0,.28-.06l-1.62-1.53a3.61,3.61,0,0,1-3.3-3.24v0a.06.06,0,0,1,0,0C506.76,431.21,506.75,431.27,506.75,431.33Z"/><path class="cls-19" d="M513.83,431.68a3.58,3.58,0,0,1-3.14,2.7,3.21,3.21,0,0,1-.62,0l1.62,1.53a4.28,4.28,0,0,0,3-2l-.81-2.23Z"/></svg>