<svg xmlns="http://www.w3.org/2000/svg" viewBox="0 0 168.54 117.37"><defs><style>.cls-1{fill:#94414f;}.cls-2{fill:#bfb5a8;}.cls-3{fill:#fef1e0;}.cls-4{fill:#c55463;}</style></defs><title>Asset 8</title><g id="Layer_2" data-name="Layer 2"><g id="Layer_1-2" data-name="Layer 1"><polygon class="cls-1" points="74.46 74.21 107.02 96.86 113.4 88.09 138.68 91.31 105.15 72.33 74.46 74.21"/><path class="cls-2" d="M12.48,75.71h0L159.09,3a13.4,13.4,0,0,0-8.36-3,12.67,12.67,0,0,0-3.89.62,13.76,13.76,0,0,0-3.47,1.69L15.3,64.86a17.67,17.67,0,0,0-2.71,1.21L10.3,67.54l-.13.1C4.09,72.27,0,80.85,0,90.69a34.76,34.76,0,0,0,.29,4.48c1.64,12.6,10.05,22.2,20.19,22.2,7.33-1.2,17.09-7.41,10-29.64C26.3,74.54,18.29,74,12.48,75.71Z"/><path class="cls-3" d="M30.5,87.73c7.07,22.23-2.69,28.44-10,29.64a16.55,16.55,0,0,0,8.35-2.31L156,41a15,15,0,0,0,2.67-1.55h0c4.93-3.61,9.91-9.66,9.91-17.55,0-6.21-2.77-18.28-13.2-21a16.06,16.06,0,0,0-11.89,1.66l-131,73.2C18.29,74,26.3,74.54,30.5,87.73Z"/><path class="cls-4" d="M102.43,32.7a21.84,21.84,0,0,0-17.52-3L80,32.2a12.3,12.3,0,0,1-2.12,1l-16.51,8.2A16.6,16.6,0,0,1,70,42C80.5,45.25,86.46,52.7,88.45,63.11c1.59,8.31-.58,15.64-6.8,21.32l24.06-11.94a7.18,7.18,0,0,1,1.14-.89,18.62,18.62,0,0,0,4.3-5.07A22.41,22.41,0,0,0,114,50.6,25.83,25.83,0,0,0,102.43,32.7Z"/></g></g></svg>