<svg xmlns="http://www.w3.org/2000/svg" viewBox="0 0 128.79 151.15"><defs><style>.cls-1{fill:#f4b3ce;}.cls-2{fill:#666;}.cls-3{fill:#966374;}.cls-4{fill:#624d53;}.cls-5{fill:#d68eaf;}</style></defs><title>Asset 17</title><g id="Layer_2" data-name="Layer 2"><g id="Layer_1-2" data-name="Layer 1"><rect class="cls-1" x="11.36" y="8.57" width="106.08" height="134.01" transform="translate(-12.73 13.05) rotate(-10.54)"/><polygon class="cls-2" points="7.18 27.05 14.64 34.1 11.13 24.43 7.18 27.05"/><path class="cls-3" d="M12.52,24.09a4.29,4.29,0,1,1-4.66-3.87A4.29,4.29,0,0,1,12.52,24.09Z"/><path class="cls-4" d="M8.9,20.25A3.6,3.6,0,1,1,4,23.93v-.08a4.49,4.49,0,0,0,0,1A4.29,4.29,0,1,0,8.9,20.25Z"/><polygon class="cls-5" points="59.92 98.87 50.26 126.23 78.78 120.92 59.92 98.87"/><circle class="cls-5" cx="83.99" cy="89.53" r="12.27"/><rect class="cls-5" x="34.35" y="71.46" width="21.87" height="21.87" transform="translate(-14.31 9.67) rotate(-10.54)"/></g></g></svg>