<svg xmlns="http://www.w3.org/2000/svg" viewBox="0 0 125.77 125.77"><defs><style>.cls-1{fill:#fff;}.cls-2{fill:#bbc1c9;}.cls-3{fill:#d6dae1;}.cls-4{fill:#22252a;}.cls-5{fill:#ef4d4d;}</style></defs><title>Asset 14</title><g id="Layer_2" data-name="Layer 2"><g id="Layer_1-2" data-name="Layer 1"><circle class="cls-1" cx="62.88" cy="62.88" r="60.09"/><path class="cls-2" d="M62.88,125.77a62.89,62.89,0,1,1,62.89-62.89,63,63,0,0,1-62.89,62.89Zm0-120.19a57.31,57.31,0,1,0,57.31,57.3A57.37,57.37,0,0,0,62.88,5.58Z"/><path class="cls-3" d="M122.69,57.06a60.09,60.09,0,0,0-119.61,0q-.29,2.88-.29,5.82a60.1,60.1,0,1,0,120.19,0Q123,59.94,122.69,57.06Zm-59.81,63.8a58,58,0,0,1-58-58c0-1.54.08-3.07.2-4.59a58,58,0,0,1,115.55,0c.12,1.52.2,3.05.2,4.59A58,58,0,0,1,62.88,120.86Z"/><rect class="cls-4" x="62.41" y="8.12" width="0.94" height="5.66"/><rect class="cls-4" x="36.45" y="15.08" width="0.94" height="5.66" transform="translate(-4.01 20.83) rotate(-29.96)"/><polygon class="cls-4" points="20.13 38.74 20.59 37.92 15.7 35.09 15.23 35.91 20.13 38.74"/><polygon class="cls-4" points="13.78 63.35 13.78 62.41 8.12 62.41 8.12 63.35 13.78 63.35"/><polygon class="cls-4" points="20.59 87.84 20.12 87.03 15.22 89.86 15.7 90.67 20.59 87.84"/><polygon class="cls-4" points="38.74 105.64 37.92 105.17 35.09 110.08 35.91 110.54 38.74 105.64"/><polygon class="cls-4" points="63.35 111.99 62.41 111.99 62.41 117.65 63.35 117.64 63.35 111.99"/><rect class="cls-4" x="88.38" y="105.03" width="0.94" height="5.66" transform="translate(-42.04 58.91) rotate(-30.02)"/><polygon class="cls-4" points="105.64 87.03 105.17 87.85 110.08 90.67 110.54 89.86 105.64 87.03"/><polygon class="cls-4" points="111.99 62.42 111.99 63.36 117.65 63.35 117.65 62.42 111.99 62.42"/><polygon class="cls-4" points="105.18 37.93 105.65 38.74 110.55 35.91 110.08 35.1 105.18 37.93"/><polygon class="cls-4" points="87.03 20.12 87.85 20.6 90.68 15.69 89.86 15.22 87.03 20.12"/><rect class="cls-4" x="61.26" y="8.12" width="3.3" height="10.18"/><rect class="cls-4" x="36.42" y="14.76" width="3.3" height="10.18" transform="translate(-4.83 21.69) rotate(-29.99)"/><rect class="cls-4" x="18.23" y="32.93" width="3.3" height="10.18" transform="translate(-22.99 36.22) rotate(-59.99)"/><rect class="cls-4" x="8.12" y="61.2" width="10.18" height="3.3"/><rect class="cls-4" x="14.76" y="86.04" width="10.18" height="3.3" transform="translate(-41.2 21.69) rotate(-30.01)"/><rect class="cls-4" x="32.93" y="104.24" width="10.18" height="3.3" transform="translate(-72.68 85.84) rotate(-59.98)"/><rect class="cls-4" x="61.21" y="107.47" width="3.3" height="10.18"/><rect class="cls-4" x="86.05" y="100.82" width="3.3" height="10.18" transform="translate(-41.18 57.97) rotate(-29.97)"/><rect class="cls-4" x="104.24" y="82.65" width="3.3" height="10.18" transform="translate(-23.06 135.53) rotate(-59.98)"/><rect class="cls-4" x="107.47" y="61.26" width="10.18" height="3.3"/><rect class="cls-4" x="100.83" y="36.42" width="10.18" height="3.3" transform="translate(-4.85 58.03) rotate(-29.98)"/><rect class="cls-4" x="82.66" y="18.23" width="10.18" height="3.3" transform="translate(26.66 85.93) rotate(-60)"/><rect class="cls-4" x="48.96" y="39.55" width="4.24" height="31.47" transform="translate(-22.74 70.01) rotate(-58.54)"/><polygon class="cls-4" points="98.04 39.63 99.64 42.12 64.24 63.32 62.65 60.83 98.04 39.63"/><path class="cls-5" d="M61.78,64.62v38.65a4,4,0,0,0-2.92,4,4.13,4.13,0,1,0,8.25,0,4.24,4.24,0,0,0-3.21-4V64.62a3,3,0,0,0,0-5.72V48.43H61.78V58.91a3,3,0,0,0,0,5.71Z"/></g></g></svg>