<svg xmlns="http://www.w3.org/2000/svg" xmlns:xlink="http://www.w3.org/1999/xlink" viewBox="0 0 2062 1080"><defs><style>.cls-1,.cls-3{fill:none;}.cls-2{isolation:isolate;}.cls-3{stroke:#aaadd7;stroke-miterlimit:10;stroke-width:2px;}.cls-4{clip-path:url(#clip-path);}.cls-5{fill:#7f8bc5;}.cls-6{fill:#8091c9;}.cls-7{fill:#c5d4dd;}.cls-8{fill:#ffecdd;}.cls-9{fill:#d8babc;}.cls-10{fill:#aaadd7;}.cls-11{fill:#c0c4e3;}.cls-12{fill:#2f2c44;}.cls-13{fill:#4b4a78;}.cls-14{fill:#a3bd9d;}.cls-15{fill:#6e8b6e;}.cls-16{fill:#7c95ae;}.cls-17{fill:#819ab7;}.cls-17,.cls-23{opacity:0.5;mix-blend-mode:multiply;}.cls-18{fill:#e3f1f6;}.cls-19{fill:#b4c7d1;}.cls-20{fill:#85a1b7;}.cls-21{fill:#c3912c;}.cls-22,.cls-23{fill:#97abba;}.cls-24{fill:#9bb5c7;}.cls-25{fill:#c9daea;}.cls-26{fill:#fffffa;}.cls-27{fill:#949fd0;}.cls-28{fill:#f6ce4f;}.cls-29{fill:#676767;}.cls-30{fill:#976475;}.cls-31{fill:#634e54;}.cls-32{fill:#d4d8ed;}.cls-33{fill:#a4cfef;}.cls-34{fill:#a27c2c;}.cls-35{fill:#afc8c9;}.cls-36{fill:#ebf6ef;}.cls-37{fill:#f9d19c;fill-rule:evenodd;}.cls-38{fill:#f3b7a6;}.cls-39{fill:#42505e;}.cls-40{fill:#303f4c;}.cls-41{fill:#95c0a8;}.cls-42{fill:#e1c555;}.cls-43{fill:#b27f80;}.cls-44{fill:#b58c8b;}.cls-45{fill:#8a5656;}.cls-46{fill:#937373;}.cls-47{fill:#aa6c6b;}.cls-48{fill:#7d5353;}.cls-49{fill:#75973d;}.cls-50{fill:#5f883c;}.cls-51{fill:#838e57;}.cls-52{fill:#698338;}.cls-53{fill:#6a7d35;}.cls-54{fill:#658a3b;}</style><clipPath id="clip-path"><path class="cls-1" d="M512.23,93.9C553.48,78,1161-121.15,1761.11,113.8c129.07,50.54,276.45,180.61,288.71,330.39,20.07,245.2-140.17,411.06-334,513.4-173.81,91.78-1002.44,170.25-1399.42,1.15C202.27,910.1,0,801.72,0,565.17,0,319.66,388,141.89,512.23,93.9Z"/></clipPath></defs><title>Untitled-1</title><g class="cls-2"><g id="Layer_1" data-name="Layer 1"><line class="cls-3" x1="1642.01" y1="-7.31" x2="1650.08" y2="0.76"/><line class="cls-3" x1="1651.37" y1="-5.77" x2="1659.45" y2="2.31"/><g class="cls-4"><rect class="cls-5" x="27.42" width="2034.08" height="105.14"/><rect class="cls-6" x="4.9" y="409.62" width="2056.6" height="670.01"/><rect class="cls-7" x="177.03" y="61.36" width="1715.97" height="709.16"/><rect class="cls-8" x="345.64" y="291.41" width="299.97" height="205.7"/><rect class="cls-9" x="354.58" y="300.37" width="281.88" height="187.48"/><polygon class="cls-10" points="292.32 773.26 0.5 994.53 0.5 1.85 292.32 2.31 292.32 773.26"/><polygon class="cls-10" points="1769.68 773.26 2061.5 994.53 2061.5 0 1769.68 0.7 1769.68 773.26"/><polygon class="cls-11" points="217.67 576.87 83.25 678.79 83.25 18.27 217.67 120.29 217.67 576.87"/><rect class="cls-12" x="698.68" y="278.51" width="664.65" height="353.58"/><rect class="cls-13" x="698.68" y="617.7" width="664.65" height="23.97"/><rect class="cls-14" x="763.86" y="725.39" width="11.76" height="137.3"/><path class="cls-15" d="M775.62,725.39v137.3h-5.11V742.84c0-6.91-3.81-9.23-6.65-10v-7.46Z"/><polygon class="cls-16" points="782.72 705.03 782.72 728.47 725.94 786.77 725.94 763.35 782.72 705.03"/><polygon class="cls-17" points="782.72 708.14 782.72 717.29 725.94 772.51 725.94 763.35 782.72 708.14"/><rect class="cls-14" x="439.03" y="759.08" width="11.77" height="164.17"/><path class="cls-15" d="M450.68,759.08H438.9v6.46c2.46.39,4.32,2.49,4.32,8V923.25h7.46Z"/><rect class="cls-14" x="496.86" y="763.35" width="11.74" height="99.34"/><path class="cls-15" d="M508.59,763.35v99.34H503.5V780.8c0-6.9-3.81-9.22-6.64-10v-7.46Z"/><rect class="cls-14" x="707.81" y="759.08" width="11.78" height="164.17"/><path class="cls-15" d="M719.45,759.08H707.69v6.46c2.45.39,4.31,2.49,4.31,8V923.25h7.45Z"/><polygon class="cls-18" points="413.04 752.5 493.15 699.79 793.23 699.79 740.93 752.5 413.04 752.5"/><rect class="cls-19" x="413.04" y="752.5" width="327.89" height="10.85"/><polygon class="cls-20" points="793.23 710.65 793.23 699.79 740.93 752.5 740.93 763.35 793.23 710.65"/><rect class="cls-21" x="429.15" y="763.35" width="296.79" height="23.42"/><rect class="cls-22" x="429.15" y="763.35" width="296.79" height="23.42"/><rect class="cls-23" x="429.15" y="763.36" width="296.79" height="9.15"/><rect class="cls-14" x="517.43" y="871.15" width="8.3" height="64.6"/><path class="cls-15" d="M525.73,871.15v64.6h-3.62V881.1a5.44,5.44,0,0,0-4.68-5.7v-4.25Z"/><rect class="cls-14" x="635.49" y="839.34" width="8.3" height="96.41"/><path class="cls-15" d="M643.79,839.34v96.41h-3.62V849.32a5.42,5.42,0,0,0-4.68-5.71v-4.27Z"/><polygon class="cls-16" points="649.88 826.15 649.88 841.51 612.69 879.06 612.69 863.71 649.88 826.15"/><polygon class="cls-17" points="649.88 827.54 649.88 833.54 612.69 869.72 612.69 863.71 649.88 827.54"/><polygon class="cls-18" points="469.23 856.6 521.69 822.09 656.76 822.09 622.52 856.6 469.23 856.6"/><rect class="cls-19" x="469.23" y="856.6" width="153.3" height="7.11"/><polygon class="cls-20" points="656.76 829.19 656.76 822.09 622.52 856.6 622.52 863.71 656.76 829.19"/><rect class="cls-21" x="479.77" y="863.71" width="132.92" height="15.35"/><rect class="cls-22" x="479.77" y="863.71" width="132.92" height="15.35"/><rect class="cls-23" x="479.77" y="863.71" width="132.92" height="6.01"/><polygon class="cls-24" points="627.24 712.97 627.24 774.61 622.52 777.89 622.52 714.73 627.24 712.97"/><rect class="cls-25" x="469.23" y="714.72" width="153.3" height="63.16"/><polygon class="cls-26" points="469.23 714.73 473.95 712.97 627.24 712.97 622.52 714.73 469.23 714.73"/><rect class="cls-14" x="482.34" y="728.48" width="9.58" height="238.63"/><path class="cls-15" d="M491.81,728.48h-9.57v9.07c2,.55,3.53,3.51,3.53,11.22V967.12h6Z"/><rect class="cls-14" x="596.24" y="728.48" width="9.58" height="238.63"/><path class="cls-15" d="M605.72,728.48h-9.57v9.07c2,.55,3.51,3.51,3.51,11.22V967.12h6.06Z"/><polygon class="cls-27" points="217.67 576.87 83.25 678.79 83.25 503.2 217.67 576.51 217.67 576.87"/><rect class="cls-28" x="401.78" y="319.08" width="98.03" height="71.09" transform="translate(12.57 724.66) rotate(-78.37)"/><polygon class="cls-29" points="428.84 307.65 433.55 314.37 432.35 306.24 428.84 307.65"/><path class="cls-30" d="M433.5,306.19a3.43,3.43,0,1,1-3-3.78A3.44,3.44,0,0,1,433.5,306.19Z"/><path class="cls-31" d="M431.29,302.6a2.87,2.87,0,1,1-4.42,2.1s0-.05,0-.07a3.68,3.68,0,0,0-.19.81,3.43,3.43,0,1,0,4.6-2.84Z"/><polygon class="cls-32" points="217.67 120.29 83.25 197.8 83.25 18.27 217.67 120.29 217.67 120.29"/><polygon class="cls-33" points="195.63 564.5 83.25 649.71 83.25 48.63 195.63 133.93 195.63 564.5"/><rect class="cls-14" x="1178.65" y="758.48" width="11.65" height="162.53"/><path class="cls-15" d="M1190.17,758.48h-11.64v6.41c2.42.39,4.27,2.47,4.27,7.89V921h7.37Z"/><rect class="cls-14" x="1151.47" y="762.72" width="11.63" height="98.35"/><path class="cls-15" d="M1163.09,762.72v98.35h-5V780c0-6.83-3.76-9.12-6.57-9.89v-7.39Z"/><rect class="cls-14" x="871.97" y="758.48" width="11.66" height="162.53"/><path class="cls-15" d="M883.49,758.48H871.85v6.41c2.42.39,4.28,2.47,4.28,7.89V921h7.36Z"/><rect class="cls-14" x="899.11" y="762.72" width="11.63" height="98.35"/><path class="cls-15" d="M910.74,762.72v98.35h-5.06V780c0-6.83-3.75-9.12-6.57-9.89v-7.39Z"/><polygon class="cls-18" points="1215.91 751.98 1171.29 699.79 890.7 699.79 846.09 751.98 1215.91 751.98"/><rect class="cls-19" x="846.09" y="751.98" width="369.81" height="10.74"/><rect class="cls-22" x="862.04" y="762.72" width="337.91" height="23.19"/><rect class="cls-23" x="862.04" y="762.72" width="337.91" height="5.69"/><rect class="cls-14" x="1078.18" y="871.63" width="8.74" height="59.76"/><path class="cls-15" d="M1086.92,871.63V931.4h-3.81V882.13a5.74,5.74,0,0,0-4.93-6v-4.49Z"/><rect class="cls-14" x="975.06" y="871.63" width="8.73" height="59.76"/><path class="cls-15" d="M983.79,871.63V931.4H980V882.13c0-4.16-2.82-5.55-4.94-6v-4.49Z"/><polygon class="cls-18" points="1116.14 855.03 1086.92 820.87 975.06 820.87 945.84 855.03 1116.14 855.03"/><rect class="cls-19" x="945.84" y="855.03" width="170.29" height="7.04"/><rect class="cls-22" x="956.29" y="862.07" width="149.42" height="15.19"/><rect class="cls-23" x="956.29" y="862.09" width="149.42" height="3.71"/><path class="cls-34" d="M970.51,877.25a2.84,2.84,0,1,1-2.84-2.83A2.83,2.83,0,0,1,970.51,877.25Z"/><path class="cls-34" d="M1098.41,877.25a2.85,2.85,0,1,1-2.83-2.83A2.84,2.84,0,0,1,1098.41,877.25Z"/><rect class="cls-25" x="949.72" y="706.75" width="162.55" height="66.58"/><rect class="cls-14" x="1090.59" y="721.24" width="10.08" height="243.22"/><path class="cls-15" d="M1100.58,721.24h-10.09v9.59c2.11.58,3.69,3.69,3.69,11.82V964.46h6.4Z"/><rect class="cls-14" x="963.35" y="721.24" width="10.1" height="243.22"/><path class="cls-15" d="M973.33,721.24H963.25v9.59c2.1.58,3.69,3.69,3.69,11.82V964.46h6.39Z"/><polygon class="cls-26" points="1112.27 706.75 1109.14 704.94 952.83 704.94 949.72 706.75 1112.27 706.75"/><rect class="cls-14" x="1286.38" y="725.39" width="11.76" height="137.3"/><path class="cls-15" d="M1298.14,725.39v137.3H1293V742.84c0-6.91-3.81-9.23-6.65-10v-7.46Z"/><polygon class="cls-35" points="1279.28 705.03 1279.28 728.47 1336.06 786.77 1336.06 763.35 1279.28 705.03"/><polygon class="cls-17" points="1279.28 708.14 1279.28 717.29 1336.06 772.51 1336.06 763.35 1279.28 708.14"/><rect class="cls-14" x="1611.33" y="759.08" width="11.77" height="164.17"/><path class="cls-15" d="M1623,759.08H1611.2v6.46c2.46.39,4.32,2.49,4.32,8V923.25H1623Z"/><rect class="cls-14" x="1553.41" y="763.35" width="11.74" height="99.34"/><path class="cls-15" d="M1565.14,763.35v99.34h-5.09V780.8c0-6.9-3.81-9.22-6.64-10v-7.46Z"/><rect class="cls-14" x="1342.54" y="759.08" width="11.78" height="164.17"/><path class="cls-15" d="M1354.18,759.08h-11.77v6.46c2.46.39,4.32,2.49,4.32,8V923.25h7.45Z"/><polygon class="cls-18" points="1648.96 752.5 1568.85 699.79 1268.77 699.79 1321.07 752.5 1648.96 752.5"/><rect class="cls-19" x="1321.07" y="752.5" width="327.89" height="10.85"/><polygon class="cls-36" points="1268.77 710.65 1268.77 699.79 1321.07 752.5 1321.07 763.35 1268.77 710.65"/><rect class="cls-21" x="1336.06" y="763.35" width="296.79" height="23.42"/><rect class="cls-22" x="1336.06" y="763.35" width="296.79" height="23.42"/><rect class="cls-23" x="1336.06" y="763.36" width="296.79" height="9.15"/><rect class="cls-14" x="1536.27" y="871.15" width="8.3" height="64.6"/><path class="cls-15" d="M1544.57,871.15v64.6H1541V881.1a5.44,5.44,0,0,0-4.68-5.7v-4.25Z"/><rect class="cls-14" x="1418.21" y="839.34" width="8.3" height="96.41"/><path class="cls-15" d="M1426.51,839.34v96.41h-3.62V849.32a5.42,5.42,0,0,0-4.68-5.71v-4.27Z"/><polygon class="cls-35" points="1412.12 826.15 1412.12 841.51 1449.31 879.06 1449.31 863.71 1412.12 826.15"/><polygon class="cls-17" points="1412.12 827.54 1412.12 833.54 1449.31 869.72 1449.31 863.71 1412.12 827.54"/><polygon class="cls-18" points="1592.77 856.6 1540.31 822.09 1405.24 822.09 1439.48 856.6 1592.77 856.6"/><rect class="cls-19" x="1439.48" y="856.6" width="153.3" height="7.11"/><polygon class="cls-36" points="1405.24 829.19 1405.24 822.09 1439.48 856.6 1439.48 863.71 1405.24 829.19"/><rect class="cls-21" x="1449.31" y="863.71" width="132.92" height="15.35"/><rect class="cls-22" x="1449.31" y="863.71" width="132.92" height="15.35"/><rect class="cls-23" x="1449.31" y="863.71" width="132.92" height="6.01"/><polygon class="cls-36" points="1434.76 712.97 1434.76 774.61 1439.48 777.89 1439.48 714.73 1434.76 712.97"/><rect class="cls-25" x="1439.48" y="714.72" width="153.3" height="63.16"/><rect class="cls-14" x="1570.19" y="728.48" width="9.58" height="238.63"/><path class="cls-15" d="M1579.66,728.48h-9.58v9.07c2,.55,3.53,3.51,3.53,11.22V967.12h6.05Z"/><rect class="cls-14" x="1456.26" y="728.48" width="9.58" height="238.63"/><path class="cls-15" d="M1465.75,728.48h-9.57v9.07c2,.55,3.51,3.51,3.51,11.22V967.12h6.06Z"/><polygon class="cls-26" points="1592.77 714.73 1588.05 712.97 1434.76 712.97 1439.48 714.73 1592.77 714.73"/><rect class="cls-14" x="1218.45" y="879.56" width="14.78" height="199.01"/><path class="cls-15" d="M1223.72,897.72v180.85h9.36v-199h-14.77v8.14C1221.37,888.19,1223.72,890.83,1223.72,897.72Z"/><rect class="cls-14" x="1183.94" y="884.94" width="14.76" height="124.87"/><path class="cls-15" d="M1198.7,884.94v124.87h-6.41V906.88c0-8.67-4.77-11.58-8.35-12.56v-9.38Z"/><rect class="cls-14" x="829.1" y="879.56" width="14.81" height="199.22"/><path class="cls-15" d="M834.38,897.72v181.06h9.35V879.56H828.94v8.14C832,888.19,834.38,890.83,834.38,897.72Z"/><rect class="cls-14" x="863.56" y="884.94" width="14.77" height="124.87"/><path class="cls-15" d="M878.32,884.94v124.87H871.9V906.88c0-8.67-4.77-11.58-8.34-12.56v-9.38Z"/><polygon class="cls-18" points="1265.75 871.31 1209.11 805.04 852.87 805.04 796.25 871.31 1265.75 871.31"/><rect class="cls-19" x="796.25" y="871.31" width="469.51" height="13.63"/><rect class="cls-22" x="816.49" y="884.94" width="429.01" height="29.44"/><rect class="cls-23" x="816.49" y="884.94" width="429.01" height="7.22"/><path class="cls-37" d="M1481.37,571.59h0a2.83,2.83,0,0,0,2.78-1.8l4.53-15h-14.62l4.53,15A2.82,2.82,0,0,0,1481.37,571.59Z"/><path class="cls-37" d="M1635.63,571.59h0a2.82,2.82,0,0,0,2.78-1.8l4.54-15h-14.63l4.54,15A2.81,2.81,0,0,0,1635.63,571.59Z"/><polygon class="cls-37" points="1659.71 550.74 1459.01 550.74 1439.06 554.63 1677.94 554.63 1659.71 550.74"/><rect class="cls-38" x="1439.06" y="554.82" width="238.87" height="7.78"/><rect class="cls-39" x="1483.76" y="535.08" width="8.78" height="9.6"/><polygon class="cls-39" points="1473.46 533.64 1467.7 530.76 1501.65 467.42 1507.26 470.43 1473.46 533.64"/><path class="cls-40" d="M1496.73,469.08A32.77,32.77,0,1,1,1465,524.59l-2.66,4.44a37.86,37.86,0,1,0,36.85-64.5Z"/><path class="cls-40" d="M1510.29,552.68c0-5.32-10-10.07-22.29-10.07s-22.27,4.75-22.27,10.07Z"/><path class="cls-41" d="M1514.14,502.78a24.38,24.38,0,0,1-.43,3.07h0c0,.3-.12.6-.19.9h0a27.07,27.07,0,0,1-16.42,18.92c-.71.28-1.37.51-2,.71a27.1,27.1,0,0,1-17.46-.53,28.1,28.1,0,0,1-5.3-2.69l-.13-.1-.27-.19-.49-.34a27,27,0,0,1-5.56-5.31,28.11,28.11,0,0,1-2-2.93c-.15-.25-.29-.51-.43-.77-.06-.1-.11-.2-.16-.3a26.81,26.81,0,0,1-1.56-3.5,27.33,27.33,0,0,1-1.11-4q-.21-1.05-.33-2.13l-.06-.53c0-.28,0-.55-.06-.83s0-.51,0-.77a1.21,1.21,0,0,1,0-.19,26.77,26.77,0,0,1,1.76-10.43c0-.13.09-.25.14-.38a27.47,27.47,0,0,1,2.43-4.69l.07-.11c.17-.26.35-.52.53-.77s.53-.74.8-1.09a27,27,0,0,1,11.39-8.48c.68-.27,1.36-.51,2-.7a27.11,27.11,0,0,1,18.13.79,28.28,28.28,0,0,1,4.5,2.34l.14.11h0c.31.2.61.41.91.62a27,27,0,0,1,11.11,18.92c.08.67.13,1.37.16,2.14A26.75,26.75,0,0,1,1514.14,502.78Z"/><path class="cls-42" d="M1513.71,505.85c0,.3-.12.6-.19.9l-.16-.41Z"/><polygon class="cls-42" points="1502.21 514.62 1500.91 514.45 1500.91 515.45 1501.37 516 1501.02 516.54 1500.49 517.15 1500.49 518.25 1501.2 518.94 1501.86 517.9 1503.13 516.03 1503.73 513.11 1502.96 513.11 1502.21 514.62"/><polygon class="cls-42" points="1485.85 489.93 1485.9 490.34 1485.3 490.46 1485.21 491.33 1485.94 491.33 1486.91 491.24 1487.41 490.64 1486.88 490.43 1486.59 490.1 1486.15 489.38 1485.94 488.38 1485.12 488.55 1484.89 488.91 1484.89 489.3 1485.28 489.58 1485.85 489.93"/><polygon class="cls-42" points="1485.14 490.26 1485.19 489.72 1484.71 489.51 1484.03 489.67 1483.53 490.47 1483.53 490.99 1484.11 490.99 1485.14 490.26"/><path class="cls-42" d="M1514.22,499.55c0-.77-.08-1.47-.16-2.14a27.11,27.11,0,0,0-5.82-13.93l-2,.91,0,1.41-.84.25-.19-1.41-.31-.49-.94-.22-.22.84.28.69-3.34-.22-1.6.74,0-.13-.2-.57-.4.1-.29.78-.83.65-2-.06-.09-.45,2.13-.09.44-.38-2.57-1.19-2.79.08H1492l-1.76.91-.65,1.17-1.17.46-.48.52.11.62.6.09.36.9,1-.42v0l.16,1.17h-.31l-.45-.07-.4-.06-.94.16-.9,1.28-1.31.21-.18,1.11.55.13-.16.72-1.29-.26-1.19.26-.25.66.21,1.38.69.32h1.17l.79-.07.24-.63.62-.81.61-.79.81.17.8-.73.14.57,2,1.32-.24.32-.89,0,.34.48.55.12.63-.27v-.76l.29-.14-.23-.25-1.31-.73-.35-1h1.09l.35.35.94.81,0,1,.95,1,0,0,0-.13.33-1.29.51-.28.16-.09.13,1.16.66.72,2,0,.58.44v1l-.71.65h-2l-1.22-.91-1.23.12h-.06v.78h-.41l-.43-.31-2.23-.57v-1.44l-2.82.22-.84.45,0,0h-1.12l-.55-.05-1.35.75v1.43l-2.78,2,.23.86h.56l-.14.81-.4.15,0,2.13.79.9,1.6,1.84h1.05l.07-.17h1.88l.54-.5h1.07l.28.28.3.3,1.59.17-.21,2.11,1.76,3.11-.93,1.78.07.83.73.73v2l1,1.28V521h2.84l2.13-2.2.67-1.19.86-.18v-1l.56-.67,1.19-1.63-.25-2.48-.52-.92,2.35-2.24,2.58-3.7-.5-.23-2.68.57-.7-.35-2.82-5.31.2-.23,2.8,3.39.07,1.06.64.65,1.32-.09,2.75-2,.86-.57,0-.68-.92-.12s-3.21-1.52-3.21-1.59,0-1.3,0-1.3h.71l.1.9,1.5.86,1.7.08,3.7.61.86.54v.84l-.11,1.16,1.9,3.12.61.14.61-.89.33-2.52,0,0A26.75,26.75,0,0,0,1514.22,499.55Zm-20.39-13.25-1.24.77v.49l.7.34,0,.67-1,1.48-1.72,0-.11-.36,1.08-.54v-2.05l1.83-1.28h.4Zm3.84,8.71L1496,495l-.49.06v-1.1l.37-.42.39-.11.86-.1.19-.3.36.18,0,1,1,.38.08.46Zm6.24.8-.28.27L1503,496l-.13-.2-1-.07.08-.34.55-.47v-.39l-1-.77,0-1,.21-.48.85-.07.72.3,0,.5-1-.05,0,.46,1.29.86V495l.55.41Z"/><path class="cls-42" d="M1471.08,493h-.72v.37h.17s0,.08,0,.19l.45,0,.27-.17.08-.35.35,0,.14-.29-.33-.07h-.28Z"/><polygon class="cls-42" points="1469.35 493.61 1469.87 493.56 1469.92 493.2 1469.6 492.95 1469.37 493.24 1469.35 493.61"/><path class="cls-42" d="M1460.17,501.23l-.07,0a1.21,1.21,0,0,0,0,.19c0,.26,0,.51,0,.77l.19-.36Zm5.66-17.43c-.27.35-.54.72-.8,1.09h.26l.92-.91Zm7,3.55.31-.82h1.07l.38-.71-.75-.18v-.91l-2.37-1-1.63.18-.92.48.07,1.17-1-.15-.15-.65.91-.83-1.66-.09-.48.15-.21.57.63.1-.13.63-1.07.06-.17.42-1.29,0a27.47,27.47,0,0,0-2.43,4.69l-.09.36-.05,0a26.69,26.69,0,0,0-1.7,7.6H1462l0,.9,1.07.5-.08-1.54.76-.77,1.56-1,.1-.72,1.55-1.61,1.64-.91-.14-.12,1.11-1,.41.1.19.24.42-.47.1-.05-.46-.07-.47-.15v-.45l.25-.21h.55l.25.12.22.43.27,0v0l.07,0,.77-.12.11-.38.44.12v.4l-.41.28.06.45,1.4.43h0l.32,0,0-.61-1.1-.5-.07-.3.93-.31,0-.88-1-.57-.06-1.49-1.31.65h-.49l.13-1.13-1.79-.42-.75.55v1.72l-1.33.41-.53,1.12-.58.09v-1.43l-1.25-.17-.63-.4-.25-.93,2.24-1.31,1.1-.34.11.74.61,0,0-.37.64-.09v-.13l-.28-.12-.06-.39.79-.06.47-.5,0,0h0l.15-.15,1.65-.21.72.62-1.91,1Zm-10.21,6.93-.45-.23.1-.63.58-.63h.83Zm2.22,0-.36.36h-.8l.12-.55.38,0,.08-.19.58-.08Zm.19-1-.38.24-.47.09v-.83h.85Zm.71-.58.38.24-.31.25-.3-.25Zm-.51.63h.06l1,.28v.49h-.8l-.22-.32Zm-.63-1.35.52.47-.52.13Zm-.48-.22v.3h.21v.52h-1.5l-.56-.16.14-.36.72-.3Zm12.72,19-.64-1.06-2.22,0-1.76-.68-.08-1.25-.59-1-1.58,0-.92-1.45-.81-.39,0,.44-1.48.09-.55-.76-1.54-.32-1.27,1.48-2-.34-.15-2.26-1-.17.06.53q.12,1.08.33,2.13l.36.41,1.92.15.19,1.56-1.31.93,0,1a26.81,26.81,0,0,0,1.56,3.5l.13.17,0,.13.12.69.31.08a4.09,4.09,0,0,0,.47.1c.08,0,1.54,1.12,1.54,1.12v1.71a27,27,0,0,0,5.56,5.31l.23-.11.5-.92,1.57-2-.36-1.57.49-.83,1.15,0h.28l1-.77.21-2,.11-1,1.08-1.37.18-.87Z"/><polygon class="cls-43" points="368.29 794.38 306.87 794.38 286.76 714.96 387 714.96 368.29 794.38"/><rect class="cls-44" x="280.06" y="704.63" width="112.24" height="10.33"/><polygon class="cls-45" points="336.88 714.96 286.76 714.96 306.87 794.38 336.88 794.38 336.88 714.96"/><rect class="cls-46" x="280.06" y="704.63" width="56.82" height="10.33"/><polygon class="cls-47" points="368.29 795.58 306.87 795.58 286.76 784.85 387 784.85 368.29 795.58"/><polygon class="cls-48" points="336.88 784.85 286.76 784.85 306.87 795.58 336.88 795.58 336.88 784.85"/><path class="cls-49" d="M410.32,518.22l0-1.91a1.89,1.89,0,0,0-3.2-1.33,199.41,199.41,0,0,0-17.37,21.42,120.44,120.44,0,0,0-7.54,12.27,38.64,38.64,0,0,0-3.77,8.83c-1.41,5.77-1.51,11.92-1.72,17.83-.1,2.79-.16,5.58-.29,8.37,0,1-.11,1.95-.21,2.92a4.67,4.67,0,0,1-.11.59,2.41,2.41,0,0,0-.05.28,2,2,0,0,0,.43,2.41,326.64,326.64,0,0,0-27.7,54.79c-7.44,19-16.52,37.88-15.9,58.82a1.81,1.81,0,0,0,.4,1.12h3a1.78,1.78,0,0,0,.33-1.12c-.6-20.32,8.23-38.76,15.52-57.21a331.42,331.42,0,0,1,25.35-50.92,1.52,1.52,0,0,0,2.1.93c7.92-3.14,15.43-7.47,21-14a41.87,41.87,0,0,0,8.8-18.74C412.55,548.7,410.18,533.23,410.32,518.22Z"/><path class="cls-50" d="M407.9,546.56c-2.77,2.77-5.73,6.1-9.12,8.47,1.09-3.57,2-7.21,2.86-10.84,2.49-2.56,6.15-4.1,8.91-6.25,1.92-1.49-.76-4.13-2.65-2.66-1.55,1.2-3.23,2.19-4.86,3.24a61.69,61.69,0,0,1,4.8-13.74c1.13-2.14-2.11-4-3.24-1.9-3.26,6.17-5,13-6.6,19.8a13,13,0,0,0-.92,1.25,1.64,1.64,0,0,0,.13,2.07c-.74,3.1-1.51,6.19-2.45,9.21a118.81,118.81,0,0,1,2-16.6c.47-2.36-3.15-3.37-3.62-1a128.92,128.92,0,0,0-2.32,24.56,1.72,1.72,0,0,0,.69,1.45A130,130,0,0,1,384.68,576c-.18-7.49-.34-15.11,1.55-22.31.62-2.35-3-3.34-3.63-1-2.49,9.47-1.62,19.56-1.57,29.25-2,3.32-4,6.67-5.75,10.15-1.09,2.15,2.15,4.06,3.24,1.89,1.66-3.28,3.54-6.44,5.46-9.57,5.59.46,10.69-2.18,16.22-2.28,2.43,0,2.43-3.8,0-3.76-4.74.09-9.21,2-13.89,2.3q1.17-1.86,2.32-3.72l1-1.73a2,2,0,0,0,.6-.4c3.8-3.75,8.22-6.79,12-10.53,1.72-1.7-.93-4.36-2.66-2.66s-3.39,3.09-5.16,4.55c.89-1.89,1.72-3.82,2.47-5.78,5.31-2.43,9.58-7.11,13.61-11.14A1.88,1.88,0,0,0,407.9,546.56Z"/><path class="cls-49" d="M336.32,674.19a77.12,77.12,0,0,0-9.66-20.65c-9.81-14.26-23.3-25.53-33.27-39.64a2.16,2.16,0,0,0,.64-.41c5.58-5.22,6.74-13.81,7-21.06a66.56,66.56,0,0,0-.77-11.62,58.76,58.76,0,0,0-3.82-12.74,106.7,106.7,0,0,0-15.2-26.65c-4.11-5.25-10.81-13-18.33-11.6l-.36.09a1.93,1.93,0,0,0-1.31,2.31c3,17.86-1.77,36,1.9,53.86,2.57,12.45,11.31,27.4,25.6,27.59,9.6,14.43,23,25.75,33.23,39.67A74.66,74.66,0,0,1,332,673c2.36,6.75,4.41,14.58,2.89,21.73-.51,2.36,3.11,3.37,3.62,1C340,688.59,338.45,681.06,336.32,674.19Z"/><path class="cls-50" d="M294.65,591c-1.08,4.33-3,8.36-4.39,12.58q-1-5.39-2.39-10.68a1.74,1.74,0,0,0,2.2-1.78c-.19-4.2,3.64-7.47,4.44-11.52.47-2.37-3.15-3.38-3.62-1-.71,3.55-3.29,6.3-4.24,9.68q-1.33-4.86-2.86-9.67a1.89,1.89,0,0,0,.38-.45,41,41,0,0,0,4.7-11.72,1.88,1.88,0,0,0-3.62-1,46.4,46.4,0,0,1-3,8.46c-1-3.14-2.11-6.27-3.21-9.39a2.12,2.12,0,0,0,.43-.7c1.22-3.42,3.68-6.17,4.51-9.78.54-2.35-3.09-3.36-3.63-1a26.42,26.42,0,0,1-3,6.62L275,553.13c.86-3.16,1.26-6.42,1.89-9.63.46-2.37-3.17-3.38-3.63-1-.25,1.3-.47,2.61-.69,3.92q-2.22-6.09-4.33-12.19c-.78-2.28-4.42-1.3-3.62,1,1.7,5,3.49,9.92,5.29,14.87-.73-.67-1.45-1.34-2.15-2-1.73-1.7-4.39,1-2.66,2.66,1.95,1.93,4.06,3.7,6,5.64a1.79,1.79,0,0,0,1.27.55c.71,2,1.42,3.92,2.12,5.88a24.23,24.23,0,0,1-5.24-3.83c-1.65-1.78-4.3.89-2.66,2.66,2.7,2.91,7.16,3.91,9.48,7.14a1.91,1.91,0,0,0,.74.63q1.47,4.29,2.87,8.61a17.47,17.47,0,0,0-3.83-2.57c-1.82-1-3.77-1.81-4.8-3.68-1.17-2.12-4.42-.23-3.25,1.89,2.26,4.08,7.24,4.51,10.07,7.9a1.66,1.66,0,0,0,2.81-.35c.86,2.78,1.69,5.57,2.45,8.38a57.53,57.53,0,0,1-10.5-8.43c-1.72-1.71-4.38,1-2.65,2.66a58.73,58.73,0,0,0,12.4,9.69,1.76,1.76,0,0,0,1.8,0c.78,3.09,1.5,6.19,2.14,9.32-3.49-3.8-7.91-6.75-10.76-11.16-1.31-2-4.57-.15-3.25,1.9,4,6.13,11,9.51,14.29,16.16a1.59,1.59,0,0,0,1.12.93c.06.42.13.83.19,1.25.31,2.16,3.3,1.54,3.62-.35a1.88,1.88,0,0,0,1.2-1.65c.48-6.3,4.07-11.86,5.57-17.92C298.85,589.64,295.23,588.64,294.65,591Z"/><path class="cls-51" d="M427,640.23c-2.31-13.91-7.18-28.73-18-38.32,1.27-1.17.26-3.8-1.76-3.21-6.82,2-13.06,5.25-18,10.47-.79.84-1.53,1.71-2.24,2.62a2,2,0,0,0-2.34-1.81c-6.65,1.35-11.87,6.58-16,11.67a114.4,114.4,0,0,0-12.83,21c-3.22,6.49-6,13.18-9,19.81-.07.1-.15.21-.21.31-2.35,3.62-3.61,8.1-4.87,12.17-.28.93-.58,1.86-.87,2.79-.36-10.51-1.66-21.1-1.69-31.48,0-.08,0-.15,0-.22,6.94-5.47,12.86-12.08,15.93-20.5,2.64-7.23,2.39-15.13.69-22.55-3.72-16.26-13.76-30.47-21.42-45a96,96,0,0,1-6.54-14.83c-.54-1.68-3.18-1.9-3.62,0C320.23,560.7,308,575.21,304.59,593a42,42,0,0,0,3.26,25.62,34.17,34.17,0,0,0,4.9,7.26c2.2,2.74,4.56,5.34,6.94,7.91,1.41,1.53,2.84,3,4.25,4.56.47.5.93,1,1.37,1.53l.25.31,0,0v0c0,.05,0,.05,0,0a1,1,0,0,1-.1-.33,2.06,2.06,0,0,0,1.14,1.37A39.32,39.32,0,0,0,334.2,649a1.5,1.5,0,0,0,1.37.32c.35,13.66,2.59,27.69,1.44,41.34A78.43,78.43,0,0,0,334.88,701c-.28,1.21-.55,2.42-.83,3.62h4.26a66.87,66.87,0,0,0,2.15-10.86c1.51-6.14,3.19-12.22,5.26-18.2.15-.43.31-.85.46-1.28-.16,10.44,3.38,21.18,7.42,30.41a127,127,0,0,0,27.3,39.73,66.35,66.35,0,0,0,7.83,6.56,1.9,1.9,0,0,0,2.76-1.13A72.26,72.26,0,0,0,395,721.12a69.27,69.27,0,0,0-7.68-25.22c-4.32-8.39-10.11-16-16.31-23.06a91,91,0,0,0-10.27-10.41c-2.22-1.84-4.79-3.65-7.78-3.77h-.38c1.09-2.43,2.2-4.85,3.29-7.26a161.27,161.27,0,0,1,11.56-21.62c3.83-5.87,8.54-12.08,15-15.18a13.62,13.62,0,0,1,3.19-1,84.62,84.62,0,0,0-6.17,10.64,1.62,1.62,0,0,0-1.4,1.33c-1.3,5.81-.79,11.57,2.42,16.67,3.1,4.93,8,8.5,12.73,11.77a1.76,1.76,0,0,0,.94.33c1.61,1.46,3.24,2.85,4.82,4.17,5.41,4.54,11.05,8.82,16.19,13.66,4.3,4.06,8.56,8.75,10.27,14.54a1.89,1.89,0,0,0,3.69-.5C429.58,670.86,429.54,655.42,427,640.23Z"/><path class="cls-52" d="M347.75,614.22A91.91,91.91,0,0,0,337.7,625c-.22-3.52-.52-7-.94-10.54,3.27-3.71,6.71-7.27,9.89-11.07,1.55-1.84-1.09-4.51-2.65-2.65-2.55,3-5.26,5.92-7.92,8.85-.43-2.69-.94-5.37-1.55-8-.32-1.36-.64-2.73-1-4.1,0,0,0-.09,0-.14,1.63-5.29,5.79-9.34,8.84-13.83,1.36-2-1.9-3.89-3.25-1.9-2.28,3.37-5,6.46-7.06,10-.68-2.87-1.33-5.76-1.86-8.66a1.63,1.63,0,0,0,1.83-1.35c.8-3.6,3-6.36,5.53-8.94a1.88,1.88,0,0,0-2.66-2.66,25.86,25.86,0,0,0-5.54,7.68,52.9,52.9,0,0,1,.42-17.88c.5-2.36-3.12-3.37-3.63-1a57,57,0,0,0-.56,18.56c-2.17-2.78-4.61-5.37-6.82-8.11-1.53-1.88-4.17.79-2.66,2.66,2.92,3.61,6.27,6.93,8.73,10.9a1.75,1.75,0,0,0,1.71.87c.58,3.22,1.29,6.41,2,9.58-4.48-3.59-8.82-7.39-14-10-2.15-1.1-4.06,2.14-1.9,3.25,6.11,3.13,11.1,7.92,16.54,12a1.83,1.83,0,0,0,.66.32c.15.63.3,1.26.46,1.89.9,3.8,1.6,7.59,2.14,11.4-5.86-4.37-12.82-7.14-18.65-11.6-1.93-1.47-3.8,1.8-1.9,3.25,6.11,4.67,13.58,7.4,19.51,12.29a2.07,2.07,0,0,0,1.73,1.57c.41,3.9.66,7.81.83,11.73l-.65.78a2,2,0,0,0-.27.39c-4.55-3.16-9.19-6.2-14-9-2.11-1.21-4,2-1.9,3.25,5.87,3.37,11.51,7.16,17,11.08.07,3.27.09,6.55.09,9.85a1.88,1.88,0,0,0,3.76,0c0-5.06,0-10.1-.22-15.13,3.94-4.73,7.79-9.56,12.45-13.61C352.24,615.28,349.57,612.64,347.75,614.22Z"/><path class="cls-52" d="M390.63,728.2c-2.3-1.73-4.7-3.49-6.29-5.91q-2.07-5.85-4.49-11.59a54.07,54.07,0,0,1,5.49,4.66c1.73,1.7,4.39-1,2.66-2.66A77.31,77.31,0,0,0,376.93,704q-2.58-5.6-5.42-11.06c2,1.3,4,2.53,5.94,3.89s3.87-1.86,1.9-3.25c-2.41-1.7-5-3.19-7.4-4.87-1.89-1.3-4-2.91-4.52-5.28a1.6,1.6,0,0,0-1.9-1.33q-2.22-3.81-4.55-7.54c3.22,1.83,6.31,3.85,10.16,4.42,2.37.34,3.39-3.28,1-3.63-5.63-.82-9.76-4.87-15-6.74-.64-1-1.29-1.95-1.94-2.92-1.35-2-4.61-.12-3.25,1.9l1.62,2.42a1.79,1.79,0,0,0-.37,1.14v20.3a1.88,1.88,0,0,0,3.76,0v-16.2q2.7,4.29,5.27,8.69a1.7,1.7,0,0,0-.76,1.49,197.65,197.65,0,0,1-1.51,21c-.26,2.41,3.5,2.38,3.76,0,.65-5.79,1.23-11.57,1.43-17.39q3.84,6.93,7.22,14.11a2,2,0,0,0-.16,1.8c-1.06-1-3.42.05-3.16,2a54.67,54.67,0,0,1,0,14.79c-.32,2.37,3.3,3.39,3.63,1a62.11,62.11,0,0,0,0-16.79,1.94,1.94,0,0,0-.11-.43,2,2,0,0,0,.35.3l1,.65q2.94,6.5,5.47,13.16a2,2,0,0,0-2.05,2.36,34.52,34.52,0,0,1,0,11.78c-.37,2.37,3.25,3.39,3.63,1a44.72,44.72,0,0,0,.54-9.23,191.34,191.34,0,0,1,5.61,19.75c.53,2.37,4.15,1.37,3.62-1q-1.62-7.2-3.81-14.27l1.8,1.36C390.67,732.9,392.54,729.63,390.63,728.2Z"/><path class="cls-52" d="M428,659.45c-2.82-1.48-5-3.79-7.34-5.85a123,123,0,0,0-5.22-11.6,16.51,16.51,0,0,1,6.72,2.09c2.06,1.29,3.94-2,1.89-3.24-3.26-2.05-7-2.38-10.72-2.82a109.12,109.12,0,0,0-7.63-11.85,33.94,33.94,0,0,1,12.51,2.69c2.2,1,4.12-2.29,1.9-3.25a38.43,38.43,0,0,0-17.32-3.15c-.44-.53-.87-1.06-1.32-1.58-.81-.93-1.65-1.86-2.52-2.75,2-.23,3.92-.55,5.87-.83,3.2-.46,6.74-1,9.89-.09,2.33.71,3.31-2.92,1-3.63-6.58-2-13.79.89-20.48,1.06a34.09,34.09,0,0,0-8.84-5.57c-2.23-.94-3.19,2.7-1,3.63a25,25,0,0,1,4.9,2.77,2,2,0,0,0,.18.87c1.18,2.59.39,6.14,0,8.81a70,70,0,0,0-1.35,10c0,2.42,3.72,2.42,3.76,0,.07-5,2.22-10.62,2-15.83,1.52,1.47,2.94,3,4.28,4.58l.52.63a1.69,1.69,0,0,0-1,1.6c0,5.72,0,11.43-1.62,17-.67,2.33,3,3.32,3.62,1,1.52-5.25,1.73-10.66,1.76-16.08a102.92,102.92,0,0,1,7,10.77,1.77,1.77,0,0,0-.55.92c-1.36,5.21-.14,10.72-2.26,15.79-.93,2.24,2.71,3.2,3.63,1,1.75-4.19,1.23-8.64,1.74-13a113.38,113.38,0,0,1,4.72,10.35,1.52,1.52,0,0,0-.05.87,1.62,1.62,0,0,0-.26,2.2c1.54,2.36.19,6.14-.19,8.7-.36,2.37,3.26,3.39,3.62,1,.12-.76.27-1.55.42-2.36,1.59,5.71,2.69,11.72,2.09,17.65-.24,2.41,3.52,2.38,3.76,0,.65-6.39-.64-12.94-2.35-19.07-.19-.71-.4-1.41-.62-2.11a20.4,20.4,0,0,0,3,1.94C428.29,663.82,430.19,660.58,428,659.45Z"/><path class="cls-53" d="M331.1,701.3a11.15,11.15,0,0,1,.39,1.91c0,.09,0,.48,0,.59a1.87,1.87,0,0,0-.42.83h5.76a1.89,1.89,0,0,0,.23-.75,60.23,60.23,0,0,0-2.87-26.58c-1.19-3.27-2.74-7.33-5.33-9.93a25.49,25.49,0,0,0-1.07-2.4c-.83-1.61-2.84-1-3.36.36-2.14.12-4.21,1.59-6,2.94-3.11-5.17-6.36-10.27-9.89-15.11-3.29-4.51-7.18-9.87-12.36-12.35a7,7,0,0,0-6.25-.23c-2.09,1-3.25,3.35-4,5.5a4.78,4.78,0,0,0-1.29,1.48,30,30,0,0,0-7.39-4.15,1.6,1.6,0,0,0-2.4-.54c-10,7-17.6,15.84-21.63,27.44C248,685.4,252,701.64,248,716.91c-.39,1.48,1.35,3.14,2.76,2.13,4.65-3.38,10.31-4.81,15.24-7.7a85.48,85.48,0,0,0,13.2-10c8-7.13,15.6-16.65,17.82-27.4a1.57,1.57,0,0,0,.9-1.63,35,35,0,0,0-10.41-22.24,8,8,0,0,1,.49-.79,2,2,0,0,0,1.21-1.28,11.5,11.5,0,0,1,1.37-3.13,2.64,2.64,0,0,1,1.41-1.12,2.6,2.6,0,0,1,1.65.1,8.94,8.94,0,0,1,2.48,1.33c4.41,3,7.77,7.91,10.79,12.24s5.8,8.72,8.51,13.23c-12.76,11.23-18.21,29-19.76,45.47-.67,7-1.05,14.53.83,21.34a1.9,1.9,0,0,0,2.76,1.12c12.25-5.92,18.84-18.79,23.65-30.86,1.87-4.67,3.61-9.45,5-14.3l.93,2A45.33,45.33,0,0,1,331.1,701.3Zm-1.54-14.16a44.46,44.46,0,0,0,1.09-8.88c2.15,5.91,2.81,12.51,2.92,18.65-.41-1-.85-2-1.29-3q-1.35-3.07-2.87-6.08Z"/><path class="cls-54" d="M287.56,650c1.33-2-1.93-3.92-3.25-1.9-.57.88-1.17,1.73-1.79,2.57a2.08,2.08,0,0,0-.74.34,1.83,1.83,0,0,0-1.61-.39c-3.47.74-6.82,2.11-10.4,2.19-2.42.06-2.43,3.82,0,3.76,3.38-.08,6.55-1.14,9.8-1.95a60.78,60.78,0,0,0-5.34,7.93l-.42.83c.27-1.42-1.19-3.05-2.73-2-3.29,2.15-7.12,4.15-11.08,4.63-2.38.28-2.41,4.05,0,3.76a28.75,28.75,0,0,0,10.18-3.47c.39.9.77,1.81,1.12,2.73-.35.84-.7,1.67-1.06,2.49q-1,2.42-2,4.84a1.9,1.9,0,0,0-2.8-1.83c-4.29,2.5-9.66,3.6-12.7,7.82-1.42,2,1.84,3.84,3.24,1.9,1.24-1.72,3.41-2.67,5.26-3.55,1.46-.69,2.95-1.31,4.39-2a15.13,15.13,0,0,0,.4,3.75q-.33.87-.69,1.74a1.87,1.87,0,0,0-.66.43c-3.93,3.87-8.47,7-12.4,10.9-1.73,1.7.93,4.36,2.66,2.66,1.9-1.88,4-3.59,6-5.3-3.86,6.89-8.08,13.62-9.53,21.51-.44,2.37,3.19,3.38,3.62,1,1.15-6.26,4-11.89,7.15-17.44A49.33,49.33,0,0,1,263,705c0,2.42,3.8,2.42,3.76,0-.06-4.28-1.26-8.42-1.47-12.67.79-1.44,1.57-2.88,2.3-4.34a18.77,18.77,0,0,1,.68,4.23c.06,2.42,3.82,2.42,3.76,0-.09-3.24-1.38-6.29-2.13-9.41,1.09-2.79,2-5.66,3.15-8.44a54.05,54.05,0,0,1,1.3,6.32c.34,2.39,4,1.37,3.62-1a54.4,54.4,0,0,0-2.65-10.63c.6-1.38,1.22-2.75,1.87-4.11a43.18,43.18,0,0,1,4.4-7c.86,4.14,2.39,8.16,2.46,12.43.05,2.42,3.81,2.42,3.76,0-.1-5.7-2.79-11-3-16.64C285.77,652.54,286.7,651.26,287.56,650Z"/><path class="cls-54" d="M324.07,670.23a73,73,0,0,0-5.92,8.82,2,2,0,0,0-1.36.48,1.73,1.73,0,0,0-1.74.47,56.47,56.47,0,0,1-7.14,5.34c-2,1.39-.08,4.65,1.9,3.25,1.76-1.24,3.57-2.41,5.28-3.71-1.1,2.31-2.12,4.67-3.06,7.06a2,2,0,0,0-.36.17C308.45,694,304.3,695,301.9,698c-1.48,1.89,1.16,4.57,2.65,2.66s3.51-2.75,5.62-3.69q-1,3-1.94,6a1.62,1.62,0,0,0-1.07.37c-3.31,2.49-6.65,5.05-8.94,8.56-1.33,2,1.93,3.92,3.24,1.9a23.83,23.83,0,0,1,5.22-5.39q-.85,3.18-1.64,6.38c-3,2.11-5.92,4.16-8,7.26-1.33,2,1.93,3.92,3.25,1.9a15.45,15.45,0,0,1,3.35-3.54c-.52,2.21-1,4.42-1.53,6.6-.54,2.36,3.09,3.36,3.63,1,.35-1.51.7-3,1.06-4.55.07.39.14.78.2,1.17a1.88,1.88,0,0,0,2.31,1.31,1.92,1.92,0,0,0,1.32-2.31,12.65,12.65,0,0,0-2.39-6.09c.52-2.09,1-4.19,1.62-6.27l1.09,2.53a1.89,1.89,0,0,0,2.57.68,1.93,1.93,0,0,0,.67-2.58c-.89-2.08-1.78-4.16-2.75-6.2.55-1.85,1.11-3.68,1.72-5.51.22,1.08.41,2.16.54,3.27.28,2.37,4.05,2.4,3.76,0a52,52,0,0,0-2.1-9.56c.95-2.48,2-5,3.09-7.37.63,1.4,1.21,2.81,1.71,4.27.78,2.28,4.41,1.3,3.62-1a67.75,67.75,0,0,0-3.19-7.55,64.22,64.22,0,0,1,6.09-9.42C328.21,671,325.57,668.32,324.07,670.23Z"/><rect class="cls-25" x="927.81" y="836.61" width="206.37" height="84.53"/><path class="cls-14" d="M1090.93,1077.91H1102v-32h-11.1v32Z"/><path class="cls-15" d="M1097.16,1059.27v18.64H1102v-32h-11.1v5.69C1093.57,1052.23,1097.16,1054,1097.16,1059.27Z"/><path class="cls-14" d="M971.06,1078.59V1046H960v32.28A78.82,78.82,0,0,1,971.06,1078.59Z"/><path class="cls-15" d="M966.25,1059.27v19c1.61.06,3.21.18,4.81.36V1046H960v5.69C962.67,1052.23,966.25,1054,966.25,1059.27Z"/><polygon class="cls-18" points="1139.09 1024.87 1101.99 981.5 959.98 981.5 922.89 1024.87 1139.09 1024.87"/><rect class="cls-19" x="922.89" y="1024.87" width="216.2" height="8.93"/><rect class="cls-22" x="936.15" y="1033.8" width="189.7" height="19.28"/><rect class="cls-23" x="936.15" y="1033.83" width="189.7" height="4.71"/><rect class="cls-14" x="1106.65" y="855.02" width="12.8" height="222.89"/><path class="cls-15" d="M1111.21,882.2v195.71h8.13V855h-12.82v12.16C1109.21,867.92,1111.21,871.87,1111.21,882.2Z"/><path class="cls-14" d="M945.44,1078.78c4.16,0,8.33-.32,12.49-.48V855H945.11V1078.8Z"/><path class="cls-15" d="M949.67,882.2v196.47c2.71-.11,5.41-.26,8.11-.36V855H945v12.16C947.65,867.92,949.67,871.87,949.67,882.2Z"/><polygon class="cls-26" points="1134.18 836.62 1130.21 834.32 931.75 834.32 927.8 836.62 1134.18 836.62"/><rect class="cls-14" x="1372.34" y="837.56" width="14.93" height="174.31"/><path class="cls-15" d="M1387.27,837.56v174.31h-6.49V859.71c0-8.78-4.83-11.72-8.44-12.69v-9.46Z"/><polygon class="cls-35" points="1363.32 811.7 1363.32 841.46 1435.42 915.48 1435.42 885.74 1363.32 811.7"/><polygon class="cls-17" points="1363.32 815.65 1363.32 827.26 1435.42 897.37 1435.42 885.74 1363.32 815.65"/><path class="cls-14" d="M1799.83,1076.91V880.32h-14.94v195.81C1789.88,1076.23,1794.86,1076.48,1799.83,1076.91Z"/><path class="cls-15" d="M1790.22,898.65V1076.3c3.16.13,6.31.32,9.46.6V880.32h-15v8.21C1787.86,889,1790.22,891.68,1790.22,898.65Z"/><rect class="cls-14" x="1711.35" y="885.74" width="14.9" height="126.12"/><path class="cls-15" d="M1726.26,885.74v126.13h-6.47v-104c0-8.75-4.84-11.7-8.44-12.67v-9.48Z"/><path class="cls-14" d="M1458.59,1077.86V880.32h-14.95V1078C1448.62,1078,1453.61,1077.84,1458.59,1077.86Z"/><path class="cls-15" d="M1449,898.65v179.29c3.15,0,6.3-.09,9.46-.08V880.32h-14.94v8.21C1446.6,889,1449,891.68,1449,898.65Z"/><polygon class="cls-18" points="1832.67 871.97 1730.96 805.04 1349.98 805.04 1416.39 871.97 1832.67 871.97"/><rect class="cls-19" x="1416.39" y="871.97" width="416.28" height="13.77"/><polygon class="cls-36" points="1349.98 818.83 1349.98 805.04 1416.39 871.97 1416.39 885.74 1349.98 818.83"/><rect class="cls-21" x="1435.42" y="885.74" width="376.79" height="29.74"/><rect class="cls-22" x="1435.42" y="885.74" width="376.79" height="29.74"/><rect class="cls-23" x="1435.42" y="885.76" width="376.79" height="11.62"/><path class="cls-14" d="M1700.14,1078.23V1022.6h-10.55V1078A47.64,47.64,0,0,1,1700.14,1078.23Z"/><path class="cls-15" d="M1695.54,1035.24v42.57a26.15,26.15,0,0,1,4.6.42V1022.6h-10.55v5.4C1692.14,1028.56,1695.54,1030.23,1695.54,1035.24Z"/><rect class="cls-14" x="1539.71" y="982.22" width="10.53" height="94.84"/><path class="cls-15" d="M1545.65,994.88v82.19h4.59V982.22h-10.53v5.41C1542.27,988.18,1545.65,989.86,1545.65,994.88Z"/><polygon class="cls-35" points="1531.98 965.48 1531.98 984.98 1579.2 1032.64 1579.2 1013.16 1531.98 965.48"/><polygon class="cls-17" points="1531.98 967.24 1531.98 974.86 1579.2 1020.78 1579.2 1013.16 1531.98 967.24"/><polygon class="cls-18" points="1761.33 1004.13 1694.72 960.32 1523.24 960.32 1566.71 1004.13 1761.33 1004.13"/><rect class="cls-19" x="1566.71" y="1004.13" width="194.62" height="9.03"/><polygon class="cls-36" points="1523.24 969.33 1523.24 960.32 1566.71 1004.13 1566.71 1013.16 1523.24 969.33"/><rect class="cls-21" x="1579.2" y="1013.16" width="168.76" height="19.48"/><rect class="cls-22" x="1579.2" y="1013.16" width="168.76" height="19.48"/><rect class="cls-23" x="1579.2" y="1013.16" width="168.76" height="7.62"/><polygon class="cls-36" points="1560.72 821.78 1560.72 900.03 1566.71 904.2 1566.71 824.01 1560.72 821.78"/><rect class="cls-25" x="1566.71" y="824.01" width="194.62" height="80.19"/><path class="cls-14" d="M1733.28,1076.57c4.32-.27,8.38.09,11.54,2.19V841.48h-12.16v235.18C1732.86,1076.63,1733.06,1076.59,1733.28,1076.57Z"/><path class="cls-15" d="M1737,867.23v209.29a15.31,15.31,0,0,1,7.68,2.15V841.48h-12.16V853C1735.06,853.69,1737,857.45,1737,867.23Z"/><path class="cls-14" d="M1588.39,1078.05h11.8V841.48H1588v236.6C1588.15,1078.07,1588.26,1078.05,1588.39,1078.05Z"/><path class="cls-15" d="M1592.37,867.23v210.82h7.69V841.48h-12.15V853C1590.45,853.69,1592.37,857.45,1592.37,867.23Z"/><polygon class="cls-26" points="1761.33 824.01 1755.34 821.78 1560.72 821.78 1566.71 824.01 1761.33 824.01"/><rect class="cls-14" x="674.73" y="837.56" width="14.93" height="174.31"/><path class="cls-15" d="M689.66,837.56v174.31h-6.49V859.71c0-8.78-4.83-11.72-8.44-12.69v-9.46Z"/><polygon class="cls-16" points="698.68 811.7 698.68 841.46 626.58 915.48 626.58 885.74 698.68 811.7"/><polygon class="cls-17" points="698.68 815.65 698.68 827.26 626.58 897.37 626.58 885.74 698.68 815.65"/><path class="cls-14" d="M277.27,1076.84V880.32H262.32v196.27Q269.81,1076.7,277.27,1076.84Z"/><path class="cls-15" d="M267.65,898.65v178c3.16,0,6.31.11,9.47.18V880.32H262.17v8.21C265.29,889,267.65,891.68,267.65,898.65Z"/><rect class="cls-14" x="335.74" y="885.74" width="14.9" height="126.12"/><path class="cls-15" d="M350.65,885.74v126.13h-6.47v-104c0-8.75-4.84-11.7-8.44-12.67v-9.48Z"/><path class="cls-14" d="M618.52,1077.46V880.32H603.57v198.61C608.56,1078.46,613.54,1078,618.52,1077.46Z"/><path class="cls-15" d="M608.89,898.65v179.77l9.46-1V880.32H603.41v8.21C606.53,889,608.89,891.68,608.89,898.65Z"/><polygon class="cls-18" points="229.33 871.97 331.04 805.04 712.02 805.04 645.61 871.97 229.33 871.97"/><rect class="cls-19" x="229.33" y="871.97" width="416.28" height="13.77"/><polygon class="cls-20" points="712.02 818.83 712.02 805.04 645.61 871.97 645.61 885.74 712.02 818.83"/><rect class="cls-21" x="249.79" y="885.74" width="376.79" height="29.74"/><rect class="cls-22" x="249.79" y="885.74" width="376.79" height="29.74"/><rect class="cls-23" x="249.79" y="885.76" width="376.79" height="11.62"/><path class="cls-14" d="M372.41,1078.09V1022.6H361.86V1078C365.38,1078,368.9,1077.92,372.41,1078.09Z"/><path class="cls-15" d="M367.81,1035.24V1078c1.53,0,3.07,0,4.6.11V1022.6H361.86v5.4C364.41,1028.56,367.81,1030.23,367.81,1035.24Z"/><rect class="cls-14" x="511.76" y="982.22" width="10.53" height="96.17"/><path class="cls-15" d="M517.69,994.88v83.52h4.6V982.22H511.76v5.41C514.31,988.18,517.69,989.86,517.69,994.88Z"/><polygon class="cls-16" points="530.02 965.48 530.02 984.98 482.8 1032.64 482.8 1013.16 530.02 965.48"/><polygon class="cls-17" points="530.02 967.24 530.02 974.86 482.8 1020.78 482.8 1013.16 530.02 967.24"/><polygon class="cls-18" points="300.67 1004.13 367.28 960.32 538.76 960.32 495.29 1004.13 300.67 1004.13"/><rect class="cls-19" x="300.67" y="1004.13" width="194.62" height="9.03"/><polygon class="cls-20" points="538.76 969.33 538.76 960.32 495.29 1004.13 495.29 1013.16 538.76 969.33"/><rect class="cls-21" x="314.05" y="1013.16" width="168.76" height="19.48"/><rect class="cls-22" x="314.05" y="1013.16" width="168.76" height="19.48"/><rect class="cls-23" x="314.05" y="1013.16" width="168.76" height="7.62"/><polygon class="cls-24" points="501.28 821.78 501.28 900.03 495.29 904.2 495.29 824.01 501.28 821.78"/><rect class="cls-25" x="300.67" y="824.01" width="194.62" height="80.19"/><polygon class="cls-26" points="300.67 824.01 306.66 821.78 501.28 821.78 495.29 824.01 300.67 824.01"/><path class="cls-14" d="M329.48,1078.35V841.48H317.32v236.46Z"/><path class="cls-15" d="M321.66,867.23v210.85l7.68.26V841.48H317.19V853C319.73,853.69,321.66,857.45,321.66,867.23Z"/><path class="cls-14" d="M474.09,1078.8V841.48H461.92v237.23A117.55,117.55,0,0,1,474.09,1078.8Z"/><path class="cls-15" d="M466.27,867.23v211.39a75.86,75.86,0,0,1,7.69.17V841.48H461.81V853C464.35,853.69,466.27,857.45,466.27,867.23Z"/></g><line class="cls-3" x1="1496.63" y1="51.74" x2="1504.71" y2="59.82"/><line class="cls-3" x1="1506" y1="53.28" x2="1514.07" y2="61.36"/></g></g></svg>