<svg xmlns="http://www.w3.org/2000/svg" xmlns:xlink="http://www.w3.org/1999/xlink" viewBox="0 0 2086.16 1686.95"><defs><style>.cls-1,.cls-54{fill:none;}.cls-2{isolation:isolate;}.cls-3{clip-path:url(#clip-path);}.cls-4{fill:#7a8bdd;}.cls-5{fill:#7c92df;}.cls-6{fill:#c4d3dc;}.cls-7{fill:#ffecdc;}.cls-8{fill:#d8babc;}.cls-9{fill:#a8ade9;}.cls-10{fill:#bec5f4;}.cls-11{fill:#2e2c44;}.cls-12{fill:#4a4977;}.cls-13{fill:#a2bc9c;}.cls-14{fill:#6d8b6e;}.cls-15{fill:#7c94ad;}.cls-16{fill:#8199b7;}.cls-16,.cls-22{opacity:0.5;mix-blend-mode:multiply;}.cls-17{fill:#e2f1f7;}.cls-18{fill:#b4c7d1;}.cls-19{fill:#85a1b7;}.cls-20{fill:#c4911e;}.cls-21,.cls-22{fill:#97abba;}.cls-23{fill:#9ab4c6;}.cls-24{fill:#c9daea;}.cls-25{fill:#fffff9;}.cls-26{fill:#929fdd;}.cls-27{fill:#f5ce4e;}.cls-28{fill:#666;}.cls-29{fill:#966374;}.cls-30{fill:#624d53;}.cls-31{fill:#d2d8f7;}.cls-32{fill:#a3d0f2;}.cls-33{fill:#a27a0f;}.cls-34{fill:#afc8c9;}.cls-35{fill:#e8fff4;}.cls-36{fill:#f9d19b;fill-rule:evenodd;}.cls-37{fill:#f4b7a6;}.cls-38{fill:#404f5d;}.cls-39{fill:#303e4c;}.cls-40{fill:#94c0a8;}.cls-41{fill:#e1c556;}.cls-42{fill:#b27f7f;}.cls-43{fill:#b58c8c;}.cls-44{fill:#895555;}.cls-45{fill:#937373;}.cls-46{fill:#aa6b6b;}.cls-47{fill:#7c5252;}.cls-48{fill:#74962c;}.cls-49{fill:#5e870f;}.cls-50{fill:#828e57;}.cls-51{fill:#678234;}.cls-52{fill:#697c33;}.cls-53{fill:#64891f;}.cls-54{stroke:#a8ade9;stroke-miterlimit:10;stroke-width:2px;}</style><clipPath id="clip-path"><path class="cls-1" d="M524.36,617.05C565.61,601.11,1173.15,402,1773.24,637c129.07,50.53,276.45,180.6,288.71,330.38,20.07,245.2-140.16,411.07-334,513.41-173.8,91.77-1002.44,170.25-1399.41,1.14-114.18-48.63-316.45-157-316.45-393.57C12.13,842.81,400.09,665,524.36,617.05Z"/></clipPath></defs><title>Asset 23</title><g class="cls-2"><g id="Layer_2" data-name="Layer 2"><g id="Layer_1-2" data-name="Layer 1"><g class="cls-3"><rect class="cls-4" x="34.65" width="2051.52" height="628.28"/><rect class="cls-5" y="932.76" width="2068.73" height="670.01"/><rect class="cls-6" x="184.26" y="584.5" width="1715.97" height="709.16"/><rect class="cls-7" x="352.87" y="814.55" width="299.97" height="205.7"/><rect class="cls-8" x="361.81" y="823.51" width="281.88" height="187.48"/><polygon class="cls-9" points="299.55 1296.4 7.73 1517.68 7.73 83.71 299.55 305.2 299.55 1296.4"/><polygon class="cls-9" points="1776.91 1296.4 2068.73 1517.68 2068.73 83.71 1776.91 305.2 1776.91 1296.4"/><polygon class="cls-10" points="224.9 1100.01 90.48 1201.94 90.48 541.41 224.9 643.44 224.9 1100.01"/><rect class="cls-11" x="705.91" y="801.65" width="664.65" height="353.58"/><rect class="cls-12" x="705.91" y="1140.85" width="664.65" height="23.97"/><rect class="cls-13" x="771.09" y="1248.54" width="11.76" height="137.3"/><path class="cls-14" d="M782.85,1248.54v137.3h-5.11V1266c0-6.92-3.81-9.23-6.65-10v-7.45Z"/><polygon class="cls-15" points="789.95 1228.17 789.95 1251.61 733.17 1309.91 733.17 1286.49 789.95 1228.17"/><polygon class="cls-16" points="789.95 1231.28 789.95 1240.43 733.17 1295.66 733.17 1286.49 789.95 1231.28"/><rect class="cls-13" x="446.25" y="1282.22" width="11.77" height="164.17"/><path class="cls-14" d="M457.91,1282.22H446.13v6.47c2.46.38,4.32,2.48,4.32,8v149.73h7.46Z"/><rect class="cls-13" x="504.08" y="1286.49" width="11.74" height="99.34"/><path class="cls-14" d="M515.82,1286.49v99.35h-5.09v-81.9c0-6.89-3.81-9.22-6.65-10v-7.47Z"/><rect class="cls-13" x="715.04" y="1282.22" width="11.78" height="164.17"/><path class="cls-14" d="M726.68,1282.22H714.91v6.47c2.46.38,4.32,2.48,4.32,8v149.73h7.45Z"/><polygon class="cls-17" points="420.27 1275.64 500.38 1222.93 800.46 1222.93 748.15 1275.64 420.27 1275.64"/><rect class="cls-18" x="420.27" y="1275.64" width="327.89" height="10.85"/><polygon class="cls-19" points="800.46 1233.79 800.46 1222.93 748.15 1275.64 748.15 1286.49 800.46 1233.79"/><rect class="cls-20" x="436.38" y="1286.49" width="296.79" height="23.42"/><rect class="cls-21" x="436.38" y="1286.49" width="296.79" height="23.42"/><rect class="cls-22" x="436.38" y="1286.51" width="296.79" height="9.15"/><rect class="cls-13" x="524.66" y="1394.29" width="8.3" height="64.6"/><path class="cls-14" d="M533,1394.29v64.6h-3.62v-54.64a5.45,5.45,0,0,0-4.68-5.71v-4.25Z"/><rect class="cls-13" x="642.72" y="1362.49" width="8.3" height="96.41"/><path class="cls-14" d="M651,1362.49v96.4H647.4v-86.43a5.43,5.43,0,0,0-4.68-5.71v-4.26Z"/><polygon class="cls-15" points="657.11 1349.3 657.11 1364.66 619.92 1402.2 619.92 1386.86 657.11 1349.3"/><polygon class="cls-16" points="657.11 1350.69 657.11 1356.69 619.92 1392.86 619.92 1386.86 657.11 1350.69"/><polygon class="cls-17" points="476.45 1379.74 528.92 1345.23 663.99 1345.23 629.75 1379.74 476.45 1379.74"/><rect class="cls-18" x="476.45" y="1379.74" width="153.3" height="7.11"/><polygon class="cls-19" points="663.99 1352.33 663.99 1345.23 629.75 1379.74 629.75 1386.86 663.99 1352.33"/><rect class="cls-20" x="486.99" y="1386.86" width="132.92" height="15.35"/><rect class="cls-21" x="486.99" y="1386.86" width="132.92" height="15.35"/><rect class="cls-22" x="486.99" y="1386.86" width="132.92" height="6.01"/><polygon class="cls-23" points="634.47 1236.12 634.47 1297.75 629.75 1301.03 629.75 1237.87 634.47 1236.12"/><rect class="cls-24" x="476.45" y="1237.87" width="153.3" height="63.16"/><polygon class="cls-25" points="476.45 1237.87 481.18 1236.12 634.47 1236.12 629.75 1237.87 476.45 1237.87"/><rect class="cls-13" x="489.57" y="1251.63" width="9.58" height="238.63"/><path class="cls-14" d="M499,1251.63h-9.57v9.07c2,.55,3.52,3.51,3.52,11.21v218.35H499Z"/><rect class="cls-13" x="603.47" y="1251.63" width="9.58" height="238.63"/><path class="cls-14" d="M613,1251.63h-9.57v9.07c2,.55,3.51,3.51,3.51,11.21v218.35H613Z"/><polygon class="cls-26" points="224.9 1100.01 90.48 1201.94 90.48 1026.35 224.9 1099.65 224.9 1100.01"/><rect class="cls-27" x="409.01" y="842.22" width="98.03" height="71.09" transform="translate(-494.06 1149.41) rotate(-78.37)"/><polygon class="cls-28" points="436.07 830.8 440.78 837.51 439.58 829.38 436.07 830.8"/><path class="cls-29" d="M440.73,829.34a3.43,3.43,0,1,1-3-3.78A3.43,3.43,0,0,1,440.73,829.34Z"/><path class="cls-30" d="M438.51,825.75a2.87,2.87,0,1,1-4.41,2.09s0,0,0-.06a3.43,3.43,0,1,0,4.4-2Z"/><polygon class="cls-31" points="224.9 643.44 90.48 720.95 90.48 541.41 224.9 643.44 224.9 643.44"/><polygon class="cls-32" points="202.86 1087.64 90.48 1172.85 90.48 571.78 202.86 657.07 202.86 1087.64"/><rect class="cls-13" x="1185.87" y="1281.63" width="11.65" height="162.53"/><path class="cls-14" d="M1197.4,1281.63h-11.64v6.4c2.42.39,4.27,2.47,4.27,7.9v148.23h7.37Z"/><rect class="cls-13" x="1158.69" y="1285.86" width="11.63" height="98.35"/><path class="cls-14" d="M1170.32,1285.86v98.36h-5v-81.08c0-6.83-3.76-9.12-6.58-9.89v-7.39Z"/><rect class="cls-13" x="879.2" y="1281.63" width="11.66" height="162.53"/><path class="cls-14" d="M890.72,1281.63H879.07v6.4c2.43.39,4.29,2.47,4.29,7.9v148.23h7.36Z"/><rect class="cls-13" x="906.34" y="1285.86" width="11.63" height="98.35"/><path class="cls-14" d="M918,1285.86v98.36h-5.06v-81.08c0-6.83-3.75-9.12-6.57-9.89v-7.39Z"/><polygon class="cls-17" points="1223.13 1275.13 1178.52 1222.93 897.92 1222.93 853.32 1275.13 1223.13 1275.13"/><rect class="cls-18" x="853.32" y="1275.13" width="369.81" height="10.74"/><rect class="cls-21" x="869.27" y="1285.86" width="337.91" height="23.19"/><rect class="cls-22" x="869.27" y="1285.86" width="337.91" height="5.69"/><rect class="cls-13" x="1085.41" y="1394.78" width="8.74" height="59.76"/><path class="cls-14" d="M1094.15,1394.78v59.76h-3.81v-49.27c0-4.15-2.83-5.54-4.93-6v-4.48Z"/><rect class="cls-13" x="982.29" y="1394.78" width="8.73" height="59.76"/><path class="cls-14" d="M991,1394.78v59.76h-3.79v-49.27c0-4.15-2.82-5.54-4.94-6v-4.48Z"/><polygon class="cls-17" points="1123.37 1378.17 1094.15 1344.02 982.29 1344.02 953.07 1378.17 1123.37 1378.17"/><rect class="cls-18" x="953.07" y="1378.17" width="170.29" height="7.04"/><rect class="cls-21" x="963.52" y="1385.21" width="149.42" height="15.19"/><rect class="cls-22" x="963.52" y="1385.23" width="149.42" height="3.71"/><path class="cls-33" d="M977.74,1400.4a2.84,2.84,0,1,1-2.84-2.84A2.83,2.83,0,0,1,977.74,1400.4Z"/><path class="cls-33" d="M1105.63,1400.4a2.84,2.84,0,1,1-2.82-2.84A2.83,2.83,0,0,1,1105.63,1400.4Z"/><rect class="cls-24" x="956.95" y="1229.89" width="162.55" height="66.58"/><rect class="cls-13" x="1097.81" y="1244.39" width="10.08" height="243.22"/><path class="cls-14" d="M1107.81,1244.39h-10.1V1254c2.12.58,3.7,3.7,3.7,11.83v221.81h6.4Z"/><rect class="cls-13" x="970.58" y="1244.39" width="10.1" height="243.22"/><path class="cls-14" d="M980.56,1244.39H970.48V1254c2.1.58,3.69,3.7,3.69,11.83v221.81h6.39Z"/><polygon class="cls-25" points="1119.5 1229.89 1116.37 1228.08 960.05 1228.08 956.95 1229.89 1119.5 1229.89"/><rect class="cls-13" x="1293.61" y="1248.54" width="11.76" height="137.3"/><path class="cls-14" d="M1305.37,1248.54v137.3h-5.11V1266c0-6.92-3.81-9.23-6.65-10v-7.45Z"/><polygon class="cls-34" points="1286.51 1228.17 1286.51 1251.61 1343.29 1309.91 1343.29 1286.49 1286.51 1228.17"/><polygon class="cls-16" points="1286.51 1231.28 1286.51 1240.43 1343.29 1295.66 1343.29 1286.49 1286.51 1231.28"/><rect class="cls-13" x="1618.56" y="1282.22" width="11.77" height="164.17"/><path class="cls-14" d="M1630.21,1282.22h-11.78v6.47c2.46.38,4.32,2.48,4.32,8v149.73h7.46Z"/><rect class="cls-13" x="1560.64" y="1286.49" width="11.74" height="99.34"/><path class="cls-14" d="M1572.37,1286.49v99.35h-5.09v-81.9c0-6.89-3.81-9.22-6.64-10v-7.47Z"/><rect class="cls-13" x="1349.77" y="1282.22" width="11.78" height="164.17"/><path class="cls-14" d="M1361.41,1282.22h-11.77v6.47c2.46.38,4.32,2.48,4.32,8v149.73h7.45Z"/><polygon class="cls-17" points="1656.19 1275.64 1576.08 1222.93 1276 1222.93 1328.3 1275.64 1656.19 1275.64"/><rect class="cls-18" x="1328.3" y="1275.64" width="327.89" height="10.85"/><polygon class="cls-35" points="1276 1233.79 1276 1222.93 1328.3 1275.64 1328.3 1286.49 1276 1233.79"/><rect class="cls-20" x="1343.29" y="1286.49" width="296.79" height="23.42"/><rect class="cls-21" x="1343.29" y="1286.49" width="296.79" height="23.42"/><rect class="cls-22" x="1343.29" y="1286.51" width="296.79" height="9.15"/><rect class="cls-13" x="1543.5" y="1394.29" width="8.3" height="64.6"/><path class="cls-14" d="M1551.8,1394.29v64.6h-3.62v-54.64a5.45,5.45,0,0,0-4.68-5.71v-4.25Z"/><rect class="cls-13" x="1425.44" y="1362.49" width="8.3" height="96.41"/><path class="cls-14" d="M1433.74,1362.49v96.4h-3.62v-86.43a5.43,5.43,0,0,0-4.68-5.71v-4.26Z"/><polygon class="cls-34" points="1419.35 1349.3 1419.35 1364.66 1456.54 1402.2 1456.54 1386.86 1419.35 1349.3"/><polygon class="cls-16" points="1419.35 1350.69 1419.35 1356.69 1456.54 1392.86 1456.54 1386.86 1419.35 1350.69"/><polygon class="cls-17" points="1600 1379.74 1547.54 1345.23 1412.46 1345.23 1446.7 1379.74 1600 1379.74"/><rect class="cls-18" x="1446.71" y="1379.74" width="153.3" height="7.11"/><polygon class="cls-35" points="1412.46 1352.33 1412.46 1345.23 1446.7 1379.74 1446.7 1386.86 1412.46 1352.33"/><rect class="cls-20" x="1456.54" y="1386.86" width="132.92" height="15.35"/><rect class="cls-21" x="1456.54" y="1386.86" width="132.92" height="15.35"/><rect class="cls-22" x="1456.54" y="1386.86" width="132.92" height="6.01"/><polygon class="cls-35" points="1441.98 1236.12 1441.98 1297.75 1446.7 1301.03 1446.7 1237.87 1441.98 1236.12"/><rect class="cls-24" x="1446.71" y="1237.87" width="153.3" height="63.16"/><rect class="cls-13" x="1577.42" y="1251.63" width="9.58" height="238.63"/><path class="cls-14" d="M1586.89,1251.63h-9.58v9.07c2,.55,3.53,3.51,3.53,11.21v218.35h6.05Z"/><rect class="cls-13" x="1463.49" y="1251.63" width="9.58" height="238.63"/><path class="cls-14" d="M1473,1251.63h-9.57v9.07c2,.55,3.5,3.51,3.5,11.21v218.35H1473Z"/><polygon class="cls-25" points="1600 1237.87 1595.28 1236.12 1441.98 1236.12 1446.7 1237.87 1600 1237.87"/><rect class="cls-13" x="1225.68" y="1402.71" width="14.78" height="206.35"/><path class="cls-14" d="M1240.31,1402.71h-14.77v8.13c3.06.49,5.41,3.14,5.41,10v188.2h9.36Z"/><rect class="cls-13" x="1191.17" y="1408.09" width="14.76" height="124.87"/><path class="cls-14" d="M1205.93,1408.09V1533h-6.41V1430c0-8.68-4.77-11.58-8.35-12.56v-9.38Z"/><rect class="cls-13" x="836.33" y="1402.71" width="14.81" height="206.35"/><path class="cls-14" d="M851,1402.71H836.17v8.13c3.08.49,5.44,3.14,5.44,10v188.2H851Z"/><rect class="cls-13" x="870.78" y="1408.09" width="14.77" height="124.87"/><path class="cls-14" d="M885.55,1408.09V1533h-6.42V1430c0-8.68-4.77-11.58-8.35-12.56v-9.38Z"/><polygon class="cls-17" points="1272.98 1394.45 1216.33 1328.19 860.1 1328.19 803.48 1394.45 1272.98 1394.45"/><rect class="cls-18" x="803.48" y="1394.45" width="469.51" height="13.63"/><rect class="cls-21" x="823.72" y="1408.09" width="429.01" height="29.44"/><rect class="cls-22" x="823.72" y="1408.09" width="429.01" height="7.22"/><path class="cls-36" d="M1488.6,1094.74h0a2.84,2.84,0,0,0,2.78-1.81l4.53-15h-14.63l4.54,15A2.83,2.83,0,0,0,1488.6,1094.74Z"/><path class="cls-36" d="M1642.86,1094.74h0a2.83,2.83,0,0,0,2.78-1.81l4.54-15h-14.63l4.53,15A2.84,2.84,0,0,0,1642.86,1094.74Z"/><polygon class="cls-36" points="1666.93 1073.88 1466.24 1073.88 1446.29 1077.77 1685.17 1077.77 1666.93 1073.88"/><rect class="cls-37" x="1446.29" y="1077.96" width="238.87" height="7.78"/><rect class="cls-38" x="1490.99" y="1058.22" width="8.78" height="9.6"/><polygon class="cls-38" points="1480.69 1056.78 1474.93 1053.9 1508.88 990.57 1514.49 993.57 1480.69 1056.78"/><path class="cls-39" d="M1504,992.22a32.77,32.77,0,1,1-31.69,55.51l-2.66,4.44a37.86,37.86,0,1,0,36.85-64.5Z"/><path class="cls-39" d="M1517.52,1075.83c0-5.33-10-10.08-22.29-10.08s-22.27,4.75-22.27,10.08Z"/><path class="cls-40" d="M1521.37,1025.92a24.38,24.38,0,0,1-.43,3.07h0c-.06.31-.12.61-.19.91h0a27.05,27.05,0,0,1-16.42,18.93c-.71.27-1.37.5-2,.7a27,27,0,0,1-22.76-3.22l-.13-.1-.27-.18-.49-.35a26.41,26.41,0,0,1-5.56-5.3,27.22,27.22,0,0,1-2-2.94c-.15-.25-.29-.51-.43-.77l-.17-.29a29.54,29.54,0,0,1-1.55-3.5,27.12,27.12,0,0,1-1.11-4q-.21-1-.33-2.13l-.06-.53c0-.27,0-.55-.07-.83s0-.51,0-.77a1.09,1.09,0,0,1,0-.18,27,27,0,0,1,1.75-10.44l.15-.37a26.75,26.75,0,0,1,2.43-4.69.41.41,0,0,1,.07-.11c.17-.27.35-.52.52-.78l.81-1.09a26.86,26.86,0,0,1,11.39-8.47c.68-.28,1.36-.51,2-.71a27.11,27.11,0,0,1,18.13.8,26.73,26.73,0,0,1,4.5,2.34l.14.1h0c.32.2.62.41.92.63a26.63,26.63,0,0,1,5.28,5,27,27,0,0,1,5.82,13.93,19.67,19.67,0,0,1,.16,2.13A24.85,24.85,0,0,1,1521.37,1025.92Z"/><path class="cls-41" d="M1520.94,1029c-.06.31-.12.61-.19.91l-.16-.42Z"/><polygon class="cls-41" points="1509.44 1037.76 1508.14 1037.59 1508.14 1038.59 1508.6 1039.14 1508.24 1039.68 1507.72 1040.29 1507.72 1041.4 1508.43 1042.08 1509.08 1041.04 1510.36 1039.18 1510.96 1036.25 1510.19 1036.25 1509.44 1037.76"/><polygon class="cls-41" points="1493.08 1013.08 1493.13 1013.48 1492.52 1013.61 1492.44 1014.48 1493.17 1014.48 1494.14 1014.38 1494.64 1013.78 1494.11 1013.57 1493.82 1013.24 1493.38 1012.53 1493.17 1011.52 1492.35 1011.7 1492.12 1012.05 1492.12 1012.45 1492.51 1012.72 1493.08 1013.08"/><polygon class="cls-41" points="1492.37 1013.41 1492.41 1012.87 1491.94 1012.65 1491.26 1012.81 1490.76 1013.62 1490.76 1014.14 1491.34 1014.14 1492.37 1013.41"/><path class="cls-41" d="M1521.44,1022.69a19.67,19.67,0,0,0-.16-2.13,27,27,0,0,0-5.82-13.93l-2,.9,0,1.42-.84.25-.19-1.41-.31-.5-.94-.22-.22.84.28.69-3.34-.22-1.6.74,0-.13-.2-.57-.4.11-.29.77-.84.66-2-.06-.09-.45,2.12-.09.44-.38-2.56-1.19-2.79.08h-.35l-1.76.9-.65,1.18-1.17.45-.48.53.11.62.6.08.36.9,1-.42v0l.16,1.17h-.31l-.45-.06-.4-.06-.94.15-.91,1.29-1.3.2L1493,1016l.55.12-.16.72-1.29-.26-1.19.26-.25.66.21,1.39.69.32h1.17l.78-.07.24-.62.62-.81.61-.79.82.16.8-.72.14.57,2,1.32-.25.32-.88,0,.34.47.54.13.64-.27v-.77l.29-.14-.23-.25-1.32-.72-.34-1h1.09l.35.34.93.81.05,1,.95,1,0,0,0-.13.33-1.29.51-.28.16-.08.13,1.16.65.72,2,0,.58.44v1l-.72.66h-2l-1.22-.91-1.23.11H1500v.79h-.41l-.43-.32-2.23-.56V1019l-2.82.22-.84.44,0,0h-1.12l-.55-.05-1.35.76v1.42l-2.79,2,.24.86h.56l-.15.82-.39.14,0,2.13.79.9,1.6,1.84h1l.07-.17h1.87l.55-.5h1.07l.28.28.3.31,1.59.16-.21,2.11,1.76,3.11-.93,1.78.06.84.74.73v2l1,1.29v1.67h2.84l2.13-2.19.67-1.19.86-.19v-1l.56-.66,1.19-1.63-.25-2.49-.52-.91,2.35-2.25,2.58-3.69-.5-.24-2.69.57-.69-.34-2.82-5.31.2-.23,2.8,3.39.06,1,.65.65,1.32-.08,2.75-2,.86-.56,0-.69-.92-.12s-3.21-1.51-3.21-1.58,0-1.3,0-1.3h.7l.11.89,1.5.86,1.7.09,3.69.6.87.55v.84l-.11,1.15,1.9,3.12.61.14.61-.88.33-2.53,0,0A24.85,24.85,0,0,0,1521.44,1022.69Zm-20.38-13.24-1.24.76v.5l.7.33,0,.67-1,1.48h-1.72l-.11-.36,1.08-.55v-2l1.83-1.27h.4Zm3.84,8.71-1.63-.07-.49.07v-1.11l.37-.41.39-.12.86-.1.19-.3.35.18,0,1,1,.39.08.46Zm6.24.8-.29.27-.65-.06-.13-.19-1-.07.08-.35.55-.47v-.39l-1.05-.76,0-1,.21-.49.85-.06.71.3,0,.49-1-.05,0,.46,1.29.86v.63l.55.41Z"/><path class="cls-41" d="M1478.31,1016.1h-.73v.37h.18l0,.18.45,0,.27-.17.08-.34.35,0,.14-.29-.33-.07h-.28Z"/><polygon class="cls-41" points="1476.57 1016.75 1477.1 1016.71 1477.15 1016.34 1476.83 1016.1 1476.6 1016.39 1476.57 1016.75"/><path class="cls-41" d="M1467.4,1024.37l-.07.05a1.09,1.09,0,0,0,0,.18c0,.26,0,.52,0,.77l.2-.36Zm5.66-17.43-.81,1.09h.27l.91-.9Zm7,3.55.31-.81h1.07l.38-.71-.76-.19v-.9l-2.36-1-1.63.19-.92.47.07,1.17-1-.14-.15-.65.91-.84-1.67-.08-.47.15-.21.56.62.11-.12.62-1.07.07-.17.41-1.29,0a26.75,26.75,0,0,0-2.43,4.69l-.09.35-.06,0a26.67,26.67,0,0,0-1.69,7.61h1.87v.9l1.07.5-.08-1.55.76-.77,1.55-1,.11-.72,1.55-1.6,1.64-.92-.15-.11,1.12-1,.41.11.19.23.42-.47.1,0-.46-.07-.47-.16v-.45l.25-.2h.55l.25.11.22.43.27,0v0l.07,0,.77-.12.11-.37.44.11v.4l-.41.29.06.44,1.4.43v0l.32,0,0-.61-1.11-.49-.06-.3.92-.31,0-.88-1-.58-.06-1.48-1.31.64h-.49l.13-1.13-1.79-.42-.75.56v1.71l-1.33.42-.53,1.11-.58.1v-1.43l-1.25-.17-.63-.41-.25-.92,2.24-1.31,1.1-.34.1.74.62,0,0-.37.64-.1v-.12l-.28-.12-.06-.39.78-.07.48-.49,0,0h0l.15-.15,1.65-.22.72.63-1.91,1Zm-10.21,6.94-.45-.24.1-.63.58-.62h.83Zm2.22,0-.36.36h-.8l.12-.55.38,0,.08-.19.58-.07Zm.19-1-.38.24-.47.09v-.83h.85Zm.71-.58.38.23-.31.26-.3-.26Zm-.51.62h.06l1,.29v.48h-.8l-.22-.31Zm-.63-1.35.52.48-.52.12Zm-.48-.21v.29h.21v.52h-1.5l-.56-.15.14-.37.72-.29Zm12.72,19-.64-1.06-2.22,0-1.76-.67-.08-1.25-.59-1-1.58,0-.92-1.44-.81-.39,0,.43-1.48.09-.55-.76-1.54-.31-1.27,1.48-2-.35-.15-2.26-1-.17.06.53q.12,1.08.33,2.13l.36.41,1.92.15.19,1.57-1.31.92,0,1a29.54,29.54,0,0,0,1.55,3.5l.14.17,0,.12.12.69.31.08.46.11c.09,0,1.55,1.11,1.55,1.11v1.72a26.41,26.41,0,0,0,5.56,5.3l.23-.11.5-.92,1.57-2-.36-1.57.48-.84,1.15,0h.29l1-.77.21-2,.11-1,1.08-1.37.18-.88Z"/><polygon class="cls-42" points="375.52 1317.53 314.09 1317.53 293.99 1238.1 394.22 1238.1 375.52 1317.53"/><rect class="cls-43" x="287.29" y="1227.78" width="112.24" height="10.33"/><polygon class="cls-44" points="344.11 1238.1 293.99 1238.1 314.09 1317.53 344.11 1317.53 344.11 1238.1"/><rect class="cls-45" x="287.29" y="1227.78" width="56.82" height="10.33"/><polygon class="cls-46" points="375.52 1318.72 314.09 1318.72 293.99 1308 394.22 1308 375.52 1318.72"/><polygon class="cls-47" points="344.11 1308 293.99 1308 314.09 1318.72 344.11 1318.72 344.11 1308"/><path class="cls-48" d="M417.55,1041.36l0-1.9a1.89,1.89,0,0,0-3.21-1.33A199.32,199.32,0,0,0,397,1059.55a120.44,120.44,0,0,0-7.54,12.27,38.13,38.13,0,0,0-3.77,8.82c-1.41,5.78-1.51,11.93-1.72,17.84-.1,2.79-.16,5.58-.29,8.36-.05,1-.11,2-.22,2.93a3,3,0,0,1-.1.58c0,.16-.05.24-.05.28a2,2,0,0,0,.43,2.42A326.31,326.31,0,0,0,356,1167.84c-7.44,19-16.51,37.87-15.89,58.81a1.78,1.78,0,0,0,.4,1.13h3a1.81,1.81,0,0,0,.33-1.13c-.6-20.31,8.23-38.75,15.52-57.2a330.52,330.52,0,0,1,25.35-50.92,1.52,1.52,0,0,0,2.1.92c7.92-3.14,15.43-7.46,21-14a42,42,0,0,0,8.8-18.75C419.78,1071.84,417.4,1056.38,417.55,1041.36Z"/><path class="cls-49" d="M415.13,1069.7c-2.77,2.77-5.73,6.1-9.12,8.48,1.09-3.58,2-7.22,2.86-10.85,2.49-2.56,6.15-4.1,8.91-6.25,1.92-1.48-.77-4.12-2.65-2.65-1.55,1.2-3.23,2.19-4.86,3.23a61.36,61.36,0,0,1,4.8-13.74c1.13-2.14-2.11-4-3.25-1.89-3.25,6.16-5,13-6.59,19.79a11.63,11.63,0,0,0-.92,1.26,1.62,1.62,0,0,0,.13,2.06c-.74,3.11-1.51,6.2-2.45,9.21a118.67,118.67,0,0,1,2-16.59c.47-2.37-3.15-3.38-3.62-1a128.89,128.89,0,0,0-2.32,24.55,1.69,1.69,0,0,0,.69,1.45,128.82,128.82,0,0,1-6.82,12.34c-.18-7.49-.35-15.11,1.55-22.31.62-2.34-3-3.34-3.63-1-2.49,9.47-1.62,19.56-1.57,29.26-2,3.31-4,6.66-5.75,10.14-1.09,2.16,2.15,4.06,3.24,1.9,1.66-3.29,3.53-6.45,5.46-9.58,5.59.46,10.69-2.17,16.22-2.27,2.42,0,2.43-3.81,0-3.76-4.74.08-9.22,2-13.89,2.3.77-1.24,1.55-2.48,2.32-3.73.35-.57.69-1.15,1-1.72a1.89,1.89,0,0,0,.6-.41c3.8-3.74,8.22-6.78,12-10.52,1.73-1.71-.93-4.36-2.65-2.66s-3.39,3.09-5.16,4.55q1.33-2.85,2.47-5.79c5.31-2.42,9.58-7.1,13.61-11.14A1.88,1.88,0,0,0,415.13,1069.7Z"/><path class="cls-48" d="M343.55,1197.34a77.18,77.18,0,0,0-9.66-20.66c-9.81-14.26-23.3-25.52-33.27-39.64a1.94,1.94,0,0,0,.64-.4c5.58-5.22,6.74-13.82,6.95-21.06a66.43,66.43,0,0,0-.77-11.62,58.68,58.68,0,0,0-3.82-12.75,106.78,106.78,0,0,0-15.2-26.64c-4.11-5.26-10.81-13-18.33-11.61l-.36.1a1.91,1.91,0,0,0-1.31,2.31c3,17.85-1.78,36,1.9,53.85,2.57,12.45,11.31,27.41,25.59,27.59,9.61,14.43,23,25.75,33.24,39.67a74.56,74.56,0,0,1,10.06,19.68c2.36,6.74,4.41,14.57,2.89,21.72-.51,2.36,3.11,3.37,3.62,1C347.25,1211.73,345.68,1204.2,343.55,1197.34Z"/><path class="cls-49" d="M301.88,1114.13c-1.08,4.34-3.06,8.37-4.39,12.59-.69-3.59-1.5-7.15-2.39-10.69a1.74,1.74,0,0,0,2.2-1.77c-.19-4.21,3.64-7.48,4.44-11.53.47-2.37-3.15-3.38-3.62-1-.71,3.56-3.3,6.3-4.24,9.68q-1.33-4.86-2.86-9.67a1.83,1.83,0,0,0,.38-.44,41.19,41.19,0,0,0,4.7-11.73,1.88,1.88,0,0,0-3.62-1,46.4,46.4,0,0,1-3,8.46c-1-3.14-2.11-6.26-3.21-9.39a1.79,1.79,0,0,0,.42-.7c1.23-3.41,3.69-6.17,4.52-9.77.54-2.36-3.09-3.36-3.63-1a25.94,25.94,0,0,1-3,6.62c-.78-2.17-1.57-4.35-2.36-6.52.86-3.16,1.26-6.42,1.88-9.63.46-2.36-3.16-3.37-3.62-1-.25,1.31-.47,2.62-.69,3.93q-2.22-6.09-4.33-12.19c-.79-2.28-4.42-1.3-3.63,1,1.71,5,3.5,9.92,5.3,14.87-.73-.67-1.45-1.34-2.16-2-1.72-1.71-4.38,1-2.65,2.65,1.95,1.94,4.06,3.71,6,5.64a1.79,1.79,0,0,0,1.27.55q1.06,2.94,2.12,5.88a23.62,23.62,0,0,1-5.24-3.82c-1.65-1.78-4.31.88-2.66,2.65,2.7,2.91,7.16,3.91,9.48,7.14a1.91,1.91,0,0,0,.74.63q1.47,4.29,2.87,8.61a17.83,17.83,0,0,0-3.83-2.57c-1.82-1-3.77-1.8-4.8-3.68-1.18-2.12-4.42-.22-3.25,1.9,2.25,4.08,7.24,4.51,10.07,7.9a1.67,1.67,0,0,0,2.81-.35c.86,2.78,1.69,5.57,2.45,8.37a56.37,56.37,0,0,1-10.5-8.43c-1.72-1.7-4.38,1-2.66,2.66a58.46,58.46,0,0,0,12.41,9.69,1.74,1.74,0,0,0,1.79,0q1.19,4.63,2.15,9.33c-3.49-3.81-7.91-6.75-10.76-11.17-1.31-2-4.57-.14-3.25,1.9,4,6.14,11,9.51,14.29,16.16a1.59,1.59,0,0,0,1.12.93c.06.42.13.84.19,1.26.31,2.16,3.3,1.53,3.62-.36a1.88,1.88,0,0,0,1.2-1.65c.48-6.3,4.07-11.86,5.57-17.92C306.08,1112.78,302.46,1111.78,301.88,1114.13Z"/><path class="cls-50" d="M434.24,1163.38c-2.32-13.92-7.18-28.73-18-38.33,1.27-1.16.26-3.79-1.76-3.21-6.82,2-13.07,5.26-18,10.47-.79.84-1.53,1.72-2.24,2.62a2,2,0,0,0-2.34-1.81c-6.65,1.35-11.88,6.58-16,11.68a114,114,0,0,0-12.83,21c-3.22,6.49-6,13.18-9,19.81l-.22.32c-2.34,3.61-3.6,8.1-4.86,12.17-.28.93-.58,1.86-.87,2.79-.36-10.52-1.66-21.11-1.69-31.49,0-.07,0-.15,0-.22,6.94-5.47,12.85-12.08,15.93-20.49,2.64-7.24,2.39-15.14.69-22.55-3.72-16.27-13.76-30.47-21.43-45a96.8,96.8,0,0,1-6.53-14.82c-.55-1.69-3.18-1.9-3.62,0-4.08,17.55-16.29,32.06-19.73,49.81a42.17,42.17,0,0,0,3.26,25.62A34.65,34.65,0,0,0,320,1149c2.19,2.73,4.56,5.33,6.94,7.91,1.41,1.52,2.84,3,4.25,4.55.47.51.93,1,1.37,1.54l.24.3,0,0v0s0,.05,0,0a1.51,1.51,0,0,1-.11-.34,2.14,2.14,0,0,0,1.15,1.38,39.5,39.5,0,0,0,7.58,7.82,1.52,1.52,0,0,0,1.38.32c.35,13.66,2.59,27.69,1.44,41.35a78,78,0,0,0-2.13,10.31c-.28,1.21-.55,2.42-.83,3.63h4.26a67.2,67.2,0,0,0,2.15-10.87c1.51-6.13,3.19-12.22,5.26-18.2l.46-1.27c-.16,10.43,3.38,21.18,7.42,30.4a126.83,126.83,0,0,0,27.3,39.73,65.4,65.4,0,0,0,7.83,6.56,1.89,1.89,0,0,0,2.76-1.12,72.31,72.31,0,0,0,3.53-28.75,69.39,69.39,0,0,0-7.68-25.22c-4.32-8.39-10.11-16-16.31-23.06A91.78,91.78,0,0,0,368,1185.57c-2.22-1.83-4.79-3.64-7.78-3.76h-.38q1.64-3.64,3.29-7.26a160.74,160.74,0,0,1,11.56-21.62c3.83-5.87,8.54-12.07,15-15.17a13.62,13.62,0,0,1,3.19-1,83.41,83.41,0,0,0-6.17,10.64,1.61,1.61,0,0,0-1.4,1.33c-1.3,5.8-.79,11.56,2.42,16.67,3.09,4.93,8,8.49,12.73,11.76a1.77,1.77,0,0,0,.94.34c1.61,1.46,3.24,2.85,4.81,4.17,5.42,4.53,11,8.81,16.2,13.66,4.3,4,8.56,8.75,10.27,14.54a1.89,1.89,0,0,0,3.69-.5C436.81,1194,436.77,1178.57,434.24,1163.38Z"/><path class="cls-51" d="M355,1137.36a92.85,92.85,0,0,0-10.06,10.73c-.21-3.52-.51-7-.94-10.53,3.28-3.71,6.72-7.28,9.9-11.07,1.55-1.85-1.1-4.52-2.66-2.66-2.54,3-5.25,5.92-7.91,8.86-.43-2.69-.94-5.38-1.55-8.06-.32-1.36-.64-2.73-1-4.1a.69.69,0,0,0,.05-.13c1.63-5.3,5.79-9.35,8.84-13.84,1.36-2-1.9-3.89-3.25-1.9-2.28,3.37-5,6.46-7.06,9.95-.68-2.87-1.33-5.76-1.87-8.66a1.64,1.64,0,0,0,1.84-1.34c.8-3.61,3-6.36,5.53-8.94,1.7-1.73-.95-4.39-2.66-2.66a25.82,25.82,0,0,0-5.54,7.67,53.1,53.1,0,0,1,.41-17.87c.51-2.37-3.11-3.37-3.62-1a57,57,0,0,0-.56,18.56c-2.17-2.79-4.61-5.37-6.82-8.11-1.53-1.89-4.17.79-2.66,2.65,2.92,3.62,6.27,6.93,8.73,10.9a1.75,1.75,0,0,0,1.71.88c.58,3.21,1.29,6.4,2,9.57-4.48-3.59-8.83-7.38-14-10-2.16-1.11-4.06,2.14-1.9,3.24,6.11,3.13,11.1,7.92,16.54,12a1.68,1.68,0,0,0,.66.32l.45,1.9c.91,3.79,1.61,7.59,2.15,11.39-5.86-4.37-12.82-7.13-18.65-11.59-1.93-1.48-3.8,1.79-1.9,3.24,6.11,4.68,13.58,7.4,19.51,12.3a2,2,0,0,0,1.72,1.56c.41,3.9.67,7.81.84,11.74-.21.26-.43.51-.65.77a2,2,0,0,0-.27.4c-4.55-3.16-9.19-6.2-14-9-2.11-1.21-4,2-1.9,3.24,5.87,3.38,11.51,7.17,17,11.09.07,3.27.09,6.55.09,9.84a1.88,1.88,0,0,0,3.76,0c0-5.06,0-10.1-.22-15.13,3.94-4.73,7.79-9.56,12.45-13.61C359.47,1138.43,356.8,1135.78,355,1137.36Z"/><path class="cls-51" d="M397.86,1251.34c-2.3-1.72-4.7-3.49-6.29-5.9q-2.07-5.87-4.49-11.6a54.07,54.07,0,0,1,5.49,4.66c1.73,1.7,4.39-1,2.66-2.65a76.15,76.15,0,0,0-11.08-8.67q-2.56-5.61-5.41-11.07c2,1.3,4,2.53,5.94,3.89s3.86-1.86,1.9-3.24c-2.42-1.7-5-3.2-7.4-4.87-1.9-1.31-4-2.92-4.52-5.29a1.61,1.61,0,0,0-1.9-1.33q-2.22-3.81-4.55-7.54c3.22,1.84,6.31,3.86,10.16,4.42,2.37.35,3.39-3.27,1-3.63-5.64-.82-9.76-4.86-15-6.74l-1.94-2.92c-1.35-2-4.61-.11-3.25,1.9l1.62,2.42a1.79,1.79,0,0,0-.37,1.14v20.3a1.88,1.88,0,0,0,3.76,0v-16.2c1.8,2.87,3.56,5.76,5.27,8.7a1.69,1.69,0,0,0-.76,1.49,197.65,197.65,0,0,1-1.51,21.05c-.26,2.4,3.5,2.38,3.76,0,.65-5.79,1.23-11.58,1.43-17.4q3.84,6.95,7.22,14.12a2,2,0,0,0-.17,1.79c-1.05-1-3.41,0-3.15,2a54.59,54.59,0,0,1,0,14.78c-.32,2.37,3.3,3.4,3.63,1a62,62,0,0,0,0-16.78,2.45,2.45,0,0,0-.11-.43,2.57,2.57,0,0,0,.35.29l1,.66q2.94,6.49,5.47,13.16a2,2,0,0,0-2.05,2.35,34.77,34.77,0,0,1,0,11.78c-.37,2.37,3.25,3.39,3.63,1a44.62,44.62,0,0,0,.54-9.22,187.44,187.44,0,0,1,5.6,19.75c.53,2.36,4.16,1.36,3.63-1q-1.62-7.21-3.81-14.28c.6.46,1.2.92,1.8,1.36C397.9,1256,399.77,1252.78,397.86,1251.34Z"/><path class="cls-51" d="M435.27,1182.6c-2.82-1.48-5-3.8-7.34-5.85a121.91,121.91,0,0,0-5.22-11.6,16.36,16.36,0,0,1,6.72,2.09c2.06,1.29,3.94-2,1.89-3.25-3.26-2-7-2.38-10.73-2.81a106.61,106.61,0,0,0-7.62-11.85,33.93,33.93,0,0,1,12.51,2.68c2.2,1,4.12-2.28,1.9-3.24a38.46,38.46,0,0,0-17.32-3.16c-.44-.53-.87-1.06-1.32-1.57q-1.22-1.41-2.52-2.76c2-.22,3.92-.54,5.87-.83,3.19-.46,6.74-1,9.89-.09,2.33.71,3.31-2.92,1-3.62-6.58-2-13.79.88-20.48,1a34.32,34.32,0,0,0-8.84-5.56c-2.23-.94-3.2,2.7-1,3.62a25.64,25.64,0,0,1,4.89,2.77,2.06,2.06,0,0,0,.19.88c1.18,2.58.39,6.13,0,8.8a70.18,70.18,0,0,0-1.35,10c0,2.43,3.72,2.42,3.76,0,.07-5,2.22-10.62,2-15.82,1.51,1.47,2.94,3,4.28,4.58l.51.62a1.71,1.71,0,0,0-.95,1.6c0,5.73,0,11.44-1.62,17-.68,2.33,2.95,3.32,3.62,1,1.52-5.24,1.73-10.66,1.76-16.07a103.49,103.49,0,0,1,7,10.77,1.69,1.69,0,0,0-.55.92c-1.36,5.2-.14,10.71-2.26,15.78-.93,2.24,2.71,3.21,3.63,1,1.74-4.18,1.23-8.63,1.74-13A112.33,112.33,0,0,1,424,1177a1.51,1.51,0,0,0-.05.87,1.61,1.61,0,0,0-.26,2.19c1.54,2.36.19,6.15-.19,8.7-.36,2.37,3.26,3.39,3.62,1,.11-.75.27-1.54.42-2.35,1.59,5.7,2.69,11.72,2.09,17.64-.24,2.41,3.52,2.39,3.76,0,.65-6.39-.64-12.94-2.35-19.07-.19-.71-.41-1.41-.62-2.11a19.6,19.6,0,0,0,3,1.94C435.52,1187,437.42,1183.72,435.27,1182.6Z"/><path class="cls-52" d="M338.33,1224.45a10.88,10.88,0,0,1,.39,1.9c0,.09,0,.48,0,.59a1.85,1.85,0,0,0-.42.84H344a2,2,0,0,0,.24-.75,60.14,60.14,0,0,0-2.88-26.59c-1.18-3.27-2.73-7.32-5.32-9.93a25.49,25.49,0,0,0-1.07-2.4c-.83-1.6-2.84-1-3.36.37-2.14.12-4.21,1.58-6,2.93-3.11-5.17-6.36-10.27-9.89-15.11-3.3-4.51-7.18-9.87-12.36-12.34a7,7,0,0,0-6.25-.23c-2.09,1-3.26,3.34-4,5.5a4.6,4.6,0,0,0-1.28,1.47,30,30,0,0,0-7.39-4.15,1.6,1.6,0,0,0-2.4-.54c-10,7-17.6,15.84-21.63,27.45-5.23,15.09-1.18,31.32-5.18,46.6-.38,1.47,1.36,3.14,2.77,2.12,4.65-3.37,10.31-4.8,15.24-7.7a84.85,84.85,0,0,0,13.2-10c8-7.13,15.6-16.65,17.82-27.4a1.56,1.56,0,0,0,.9-1.63,35,35,0,0,0-10.41-22.24,8,8,0,0,1,.49-.79,1.94,1.94,0,0,0,1.21-1.28,11.44,11.44,0,0,1,1.37-3.12,2.62,2.62,0,0,1,1.41-1.13,2.54,2.54,0,0,1,1.65.11,9,9,0,0,1,2.48,1.32c4.41,3,7.77,7.92,10.79,12.24s5.8,8.72,8.51,13.23c-12.76,11.24-18.21,29-19.77,45.48-.66,7-1,14.52.83,21.33a1.92,1.92,0,0,0,2.77,1.13c12.25-5.93,18.84-18.79,23.65-30.86,1.87-4.68,3.61-9.45,5-14.31l.93,2A44.92,44.92,0,0,1,338.33,1224.45Zm-1.54-14.16a45.21,45.21,0,0,0,1.09-8.89c2.15,5.91,2.81,12.51,2.92,18.66-.41-1-.85-2-1.29-3-.9-2-1.86-4.07-2.88-6.08C336.68,1210.73,336.74,1210.51,336.79,1210.29Z"/><path class="cls-53" d="M294.79,1173.09c1.33-2-1.93-3.91-3.25-1.89-.57.87-1.18,1.72-1.79,2.57a2,2,0,0,0-.74.33,1.82,1.82,0,0,0-1.61-.38c-3.47.73-6.82,2.1-10.4,2.18-2.42.06-2.43,3.82,0,3.76,3.38-.07,6.55-1.13,9.79-1.94a61.28,61.28,0,0,0-5.33,7.92c-.14.28-.28.56-.43.84.28-1.43-1.18-3.06-2.72-2-3.3,2.15-7.13,4.15-11.08,4.63-2.38.29-2.41,4,0,3.76a28.36,28.36,0,0,0,10.18-3.47c.39.91.77,1.82,1.11,2.74-.34.83-.69,1.66-1,2.48-.69,1.61-1.36,3.22-2,4.85a1.89,1.89,0,0,0-2.8-1.83c-4.29,2.49-9.67,3.59-12.71,7.81-1.41,2,1.85,3.85,3.25,1.9,1.24-1.72,3.4-2.67,5.26-3.55,1.46-.69,2.95-1.3,4.39-2a15,15,0,0,0,.4,3.74q-.33.88-.69,1.74a2,2,0,0,0-.66.43c-3.93,3.87-8.47,7-12.4,10.9-1.73,1.71.93,4.36,2.66,2.66,1.9-1.88,4-3.59,6-5.3-3.86,6.89-8.08,13.62-9.53,21.52-.44,2.37,3.19,3.38,3.62,1,1.15-6.27,4.05-11.9,7.15-17.45a49.49,49.49,0,0,1,.81,7.17c0,2.42,3.8,2.43,3.76,0-.06-4.27-1.26-8.42-1.47-12.67.79-1.44,1.57-2.88,2.3-4.34a19,19,0,0,1,.68,4.23c.06,2.42,3.82,2.43,3.75,0-.08-3.24-1.37-6.29-2.12-9.41,1.09-2.79,2-5.65,3.15-8.44a54.48,54.48,0,0,1,1.3,6.32c.34,2.4,4,1.37,3.62-1a55.3,55.3,0,0,0-2.65-10.63c.6-1.38,1.22-2.75,1.87-4.1a42.32,42.32,0,0,1,4.4-7c.85,4.13,2.39,8.16,2.46,12.42.05,2.42,3.81,2.43,3.76,0-.1-5.69-2.79-11-3-16.63C293,1175.68,293.93,1174.41,294.79,1173.09Z"/><path class="cls-53" d="M331.3,1193.37a72.35,72.35,0,0,0-5.92,8.83,2,2,0,0,0-1.36.47,1.73,1.73,0,0,0-1.74.47,56.54,56.54,0,0,1-7.14,5.35c-2,1.38-.08,4.65,1.9,3.24,1.76-1.24,3.57-2.4,5.28-3.7-1.11,2.3-2.12,4.66-3.06,7a2.92,2.92,0,0,0-.36.17c-3.22,1.94-7.37,2.86-9.78,5.94-1.47,1.88,1.17,4.56,2.66,2.65s3.51-2.75,5.62-3.68c-.68,2-1.33,4-1.94,6a1.6,1.6,0,0,0-1.07.36c-3.31,2.49-6.65,5-8.94,8.57-1.33,2,1.93,3.92,3.24,1.9a23.67,23.67,0,0,1,5.22-5.4q-.86,3.18-1.64,6.38c-3,2.11-5.92,4.16-7.95,7.27-1.33,2,1.93,3.92,3.25,1.89a15.24,15.24,0,0,1,3.35-3.54q-.78,3.33-1.53,6.61c-.54,2.36,3.09,3.36,3.63,1,.35-1.52.7-3,1.06-4.55.07.38.14.77.2,1.16a1.88,1.88,0,0,0,2.31,1.32,1.92,1.92,0,0,0,1.31-2.32,12.49,12.49,0,0,0-2.39-6.09c.53-2.09,1.06-4.18,1.63-6.26.36.84.73,1.68,1.09,2.53a1.88,1.88,0,0,0,2.57.67,1.92,1.92,0,0,0,.67-2.57c-.89-2.08-1.78-4.16-2.75-6.21.55-1.84,1.11-3.68,1.71-5.51.23,1.08.42,2.17.55,3.27.28,2.38,4,2.4,3.76,0a51.85,51.85,0,0,0-2.1-9.55c.94-2.49,2-5,3.09-7.38.63,1.4,1.21,2.82,1.71,4.27.78,2.28,4.41,1.3,3.62-1a68.55,68.55,0,0,0-3.19-7.55A64.66,64.66,0,0,1,334,1196C335.44,1194.15,332.8,1191.47,331.3,1193.37Z"/><rect class="cls-13" x="681.96" y="1360.7" width="14.93" height="174.31"/><path class="cls-14" d="M696.89,1360.7V1535H690.4V1382.85c0-8.78-4.83-11.72-8.44-12.69v-9.46Z"/><polygon class="cls-15" points="705.9 1334.85 705.9 1364.6 633.81 1438.62 633.81 1408.88 705.9 1334.85"/><polygon class="cls-16" points="705.9 1338.79 705.9 1350.41 633.81 1420.52 633.81 1408.88 705.9 1338.79"/><rect class="cls-13" x="269.55" y="1403.47" width="14.94" height="208.42"/><path class="cls-14" d="M284.35,1403.47h-15v8.2c3.12.49,5.48,3.15,5.48,10.13v190.09h9.47Z"/><rect class="cls-13" x="342.97" y="1408.89" width="14.9" height="126.12"/><path class="cls-14" d="M357.88,1408.89V1535h-6.47V1431c0-8.76-4.84-11.71-8.44-12.68v-9.47Z"/><rect class="cls-13" x="610.8" y="1403.47" width="14.95" height="208.42"/><path class="cls-14" d="M625.58,1403.47H610.64v8.2c3.11.49,5.48,3.15,5.48,10.13v190.09h9.46Z"/><polygon class="cls-17" points="236.56 1395.11 338.27 1328.19 719.25 1328.19 652.84 1395.11 236.56 1395.11"/><rect class="cls-18" x="236.56" y="1395.11" width="416.28" height="13.77"/><polygon class="cls-19" points="719.25 1341.98 719.25 1328.19 652.84 1395.11 652.84 1408.88 719.25 1341.98"/><rect class="cls-20" x="257.02" y="1408.89" width="376.79" height="29.74"/><rect class="cls-21" x="257.02" y="1408.89" width="376.79" height="29.74"/><rect class="cls-22" x="257.02" y="1408.9" width="376.79" height="11.62"/><rect class="cls-13" x="369.09" y="1545.75" width="10.54" height="82.02"/><path class="cls-14" d="M379.64,1545.75v82H375v-69.38c0-5-3.4-6.67-6-7.24v-5.39Z"/><rect class="cls-13" x="518.98" y="1505.37" width="10.53" height="122.4"/><path class="cls-14" d="M529.52,1505.37v122.39h-4.6V1518c0-5-3.38-6.7-5.94-7.25v-5.41Z"/><polygon class="cls-15" points="537.25 1488.62 537.25 1508.12 490.03 1555.79 490.03 1536.3 537.25 1488.62"/><polygon class="cls-16" points="537.25 1490.38 537.25 1498 490.03 1543.93 490.03 1536.3 537.25 1490.38"/><polygon class="cls-17" points="307.89 1527.27 374.51 1483.46 545.99 1483.46 502.52 1527.27 307.89 1527.27"/><rect class="cls-18" x="307.9" y="1527.27" width="194.62" height="9.03"/><polygon class="cls-19" points="545.99 1492.47 545.99 1483.46 502.52 1527.27 502.52 1536.3 545.99 1492.47"/><rect class="cls-20" x="321.28" y="1536.3" width="168.76" height="19.48"/><rect class="cls-21" x="321.28" y="1536.3" width="168.76" height="19.48"/><rect class="cls-22" x="321.28" y="1536.3" width="168.76" height="7.62"/><polygon class="cls-23" points="508.51 1344.93 508.51 1423.18 502.52 1427.34 502.52 1347.15 508.51 1344.93"/><rect class="cls-24" x="307.9" y="1347.15" width="194.62" height="80.19"/><polygon class="cls-25" points="307.89 1347.15 313.89 1344.93 508.51 1344.93 502.52 1347.15 307.89 1347.15"/><rect class="cls-13" x="324.55" y="1364.62" width="12.16" height="302.97"/><path class="cls-14" d="M336.57,1364.62H324.41v11.52c2.55.7,4.48,4.45,4.48,14.23v277.22h7.68Z"/><rect class="cls-13" x="469.15" y="1364.62" width="12.17" height="302.97"/><path class="cls-14" d="M481.19,1364.62H469v11.52c2.54.7,4.46,4.45,4.46,14.23v277.22h7.69Z"/><rect class="cls-24" x="935.03" y="1359.76" width="206.37" height="84.53"/><rect class="cls-13" x="1098.12" y="1569.09" width="11.1" height="75.88"/><path class="cls-14" d="M1109.22,1569.09V1645h-4.83v-62.55c0-5.28-3.59-7.05-6.27-7.64v-5.69Z"/><rect class="cls-13" x="967.21" y="1569.09" width="11.08" height="75.88"/><path class="cls-14" d="M978.29,1569.09V1645h-4.81v-62.55c0-5.28-3.58-7.05-6.27-7.64v-5.69Z"/><polygon class="cls-17" points="1146.32 1548.01 1109.22 1504.64 967.21 1504.64 930.12 1548.01 1146.32 1548.01"/><rect class="cls-18" x="930.12" y="1548.01" width="216.2" height="8.93"/><rect class="cls-21" x="943.38" y="1556.95" width="189.7" height="19.28"/><rect class="cls-22" x="943.38" y="1556.97" width="189.7" height="4.71"/><rect class="cls-13" x="1113.88" y="1378.16" width="12.8" height="308.79"/><path class="cls-14" d="M1126.57,1378.16h-12.82v12.17c2.68.73,4.69,4.69,4.69,15V1687h8.13Z"/><rect class="cls-13" x="952.34" y="1378.16" width="12.82" height="308.79"/><path class="cls-14" d="M965,1378.16h-12.8v12.17c2.67.73,4.69,4.69,4.69,15V1687H965Z"/><polygon class="cls-25" points="1141.41 1359.76 1137.44 1357.46 938.98 1357.46 935.03 1359.76 1141.41 1359.76"/><rect class="cls-13" x="1379.57" y="1360.7" width="14.93" height="174.31"/><path class="cls-14" d="M1394.5,1360.7V1535H1388V1382.85c0-8.78-4.83-11.72-8.44-12.69v-9.46Z"/><polygon class="cls-34" points="1370.55 1334.85 1370.55 1364.6 1442.65 1438.62 1442.65 1408.88 1370.55 1334.85"/><polygon class="cls-16" points="1370.55 1338.79 1370.55 1350.41 1442.65 1420.52 1442.65 1408.88 1370.55 1338.79"/><rect class="cls-13" x="1792.12" y="1403.47" width="14.94" height="208.42"/><path class="cls-14" d="M1806.91,1403.47h-15v8.2c3.12.49,5.48,3.15,5.48,10.13v190.09h9.47Z"/><rect class="cls-13" x="1718.58" y="1408.89" width="14.9" height="126.12"/><path class="cls-14" d="M1733.48,1408.89V1535H1727V1431c0-8.76-4.84-11.71-8.44-12.68v-9.47Z"/><rect class="cls-13" x="1450.87" y="1403.47" width="14.95" height="208.42"/><path class="cls-14" d="M1465.65,1403.47h-14.94v8.2c3.11.49,5.48,3.15,5.48,10.13v190.09h9.46Z"/><polygon class="cls-17" points="1839.9 1395.11 1738.19 1328.19 1357.21 1328.19 1423.62 1395.11 1839.9 1395.11"/><rect class="cls-18" x="1423.62" y="1395.11" width="416.28" height="13.77"/><polygon class="cls-35" points="1357.21 1341.98 1357.21 1328.19 1423.62 1395.11 1423.62 1408.88 1357.21 1341.98"/><rect class="cls-20" x="1442.65" y="1408.89" width="376.79" height="29.74"/><rect class="cls-21" x="1442.65" y="1408.89" width="376.79" height="29.74"/><rect class="cls-22" x="1442.65" y="1408.9" width="376.79" height="11.62"/><rect class="cls-13" x="1696.82" y="1545.75" width="10.54" height="82.02"/><path class="cls-14" d="M1707.36,1545.75v82h-4.59v-69.38c0-5-3.4-6.67-6-7.24v-5.39Z"/><rect class="cls-13" x="1546.94" y="1505.37" width="10.53" height="122.4"/><path class="cls-14" d="M1557.47,1505.37v122.39h-4.59V1518c0-5-3.38-6.7-5.94-7.25v-5.41Z"/><polygon class="cls-34" points="1539.2 1488.62 1539.2 1508.12 1586.42 1555.79 1586.42 1536.3 1539.2 1488.62"/><polygon class="cls-16" points="1539.2 1490.38 1539.2 1498 1586.42 1543.93 1586.42 1536.3 1539.2 1490.38"/><polygon class="cls-17" points="1768.56 1527.27 1701.95 1483.46 1530.47 1483.46 1573.94 1527.27 1768.56 1527.27"/><rect class="cls-18" x="1573.94" y="1527.27" width="194.62" height="9.03"/><polygon class="cls-35" points="1530.47 1492.47 1530.47 1483.46 1573.94 1527.27 1573.94 1536.3 1530.47 1492.47"/><rect class="cls-20" x="1586.43" y="1536.3" width="168.76" height="19.48"/><rect class="cls-21" x="1586.43" y="1536.3" width="168.76" height="19.48"/><rect class="cls-22" x="1586.43" y="1536.3" width="168.76" height="7.62"/><polygon class="cls-35" points="1567.95 1344.93 1567.95 1423.18 1573.94 1427.34 1573.94 1347.15 1567.95 1344.93"/><rect class="cls-24" x="1573.94" y="1347.15" width="194.62" height="80.19"/><rect class="cls-13" x="1739.89" y="1364.62" width="12.16" height="302.97"/><path class="cls-14" d="M1751.91,1364.62h-12.16v11.52c2.54.7,4.48,4.45,4.48,14.23v277.22h7.68Z"/><rect class="cls-13" x="1595.25" y="1364.62" width="12.17" height="302.97"/><path class="cls-14" d="M1607.29,1364.62h-12.15v11.52c2.54.7,4.46,4.45,4.46,14.23v277.22h7.69Z"/><polygon class="cls-25" points="1768.56 1347.15 1762.57 1344.93 1567.95 1344.93 1573.94 1347.15 1768.56 1347.15"/><line class="cls-54" x1="1508.42" y1="573.81" x2="1516.5" y2="581.89"/><line class="cls-54" x1="1517.79" y1="575.35" x2="1525.87" y2="583.43"/><line class="cls-54" x1="1602.62" y1="521.62" x2="1610.7" y2="529.69"/><line class="cls-54" x1="1611.99" y1="523.16" x2="1620.06" y2="531.24"/></g></g></g></g></svg>