<svg id="Layer_1" data-name="Layer 1" xmlns="http://www.w3.org/2000/svg" xmlns:xlink="http://www.w3.org/1999/xlink" viewBox="0 0 2061 1089"><defs><style>.cls-1,.cls-27,.cls-28,.cls-34{fill:none;}.cls-2{clip-path:url(#clip-path);}.cls-3{fill:#2d2856;}.cls-4{fill:#3a305e;}.cls-5{fill:#3e3e77;}.cls-6{fill:#feffd2;}.cls-7{fill:#554577;}.cls-8{fill:#35326d;}.cls-9{fill:#252556;}.cls-10{fill:#35356d;}.cls-11{fill:#5068ad;}.cls-12{fill:#b27f7f;}.cls-13{fill:#b58c8c;}.cls-14{fill:#895555;}.cls-15{fill:#937373;}.cls-16{fill:#aa6b6b;}.cls-17{fill:#7c5252;}.cls-18{fill:#3f4c64;}.cls-19{fill:#485872;}.cls-20{fill:#57677f;}.cls-21{fill:#4c577f;}.cls-22{fill:#7f6ba0;}.cls-23{fill:#a184c3;}.cls-24{fill:#635989;}.cls-25{opacity:0.8;fill:url(#linear-gradient);}.cls-26{fill:#fff;}.cls-27{stroke:#e6f3f9;}.cls-27,.cls-28{stroke-miterlimit:10;stroke-width:4px;}.cls-28{stroke:#d8e2e5;}.cls-29{fill:#6841c9;}.cls-30{fill:#010101;}.cls-31{fill:#a07174;}.cls-32{fill:#432a63;}.cls-33{fill:#f5f0e8;}.cls-34{stroke:#f24657;stroke-linecap:round;stroke-linejoin:round;stroke-width:1.5px;}</style><clipPath id="clip-path"><path class="cls-1" d="M892.83,13.61c-448.5,52.88-662.13,218.19-773,329C14.27,448.23-3.1,540.91.41,611.24,4.9,701.41,61.5,747.45,169,800c47.34,23.14,61,56.68,84.46,85,25.68,31.09,63.24,62.05,115,98.81,76,54,170.22,74.72,201.4,78.68,283.49,36,532.84,37.54,715.62,19.51,300.17-29.6,422.94-88.51,463-103,102.68-37.13,306-122,311.89-219.89,5.83-96.88-143.1-131.68-143.1-212.78,0-25.87,2.26-35.35,21-95.62,26.06-83.67-16.15-176.2-69.39-231.95C1669.42,10,1122-13.42,892.83,13.61Z"/></clipPath><linearGradient id="linear-gradient" x1="964.5" y1="1241.26" x2="964.5" y2="130.48" gradientUnits="userSpaceOnUse"><stop offset="0" stop-color="#ffbd29" stop-opacity="0"/><stop offset="0.15" stop-color="#ffbd29" stop-opacity="0.18"/><stop offset="0.44" stop-color="#ffbd29" stop-opacity="0.53"/><stop offset="0.67" stop-color="#ffbd29" stop-opacity="0.78"/><stop offset="0.85" stop-color="#ffbd29" stop-opacity="0.94"/><stop offset="0.94" stop-color="#ffbd29"/></linearGradient></defs><title>bully - school scene [Recovered]</title><path class="cls-1" d="M956.87,16.07c-448.5,52.88-662.13,218.18-773,329C78.31,450.69,60.94,543.36,64.45,613.7,68.94,703.87,125.54,749.91,233,802.47c47.34,23.15,61,56.68,84.46,85,25.68,31.08,63.24,62,115,98.81,76,54,170.23,74.72,201.4,78.67,283.49,36,532.84,37.55,715.62,19.52,300.17-29.6,422.94-88.51,463-103,102.68-37.14,306-122,311.89-219.89,5.83-96.89-143.1-131.69-143.1-212.78,0-25.88,2.26-35.35,21-95.62,26.06-83.67-16.15-176.2-69.39-231.95C1733.46,12.4,1186.08-11,956.87,16.07Z"/><g class="cls-2"><rect class="cls-3" x="801.15" y="-254.64" width="1273.81" height="912.43"/><rect class="cls-4" x="1076.86" y="52.07" width="660.96" height="511.78"/><rect class="cls-5" x="1098.97" y="77.11" width="295.79" height="465.34"/><rect class="cls-5" x="1419.92" y="77.11" width="295.79" height="465.34"/><path class="cls-6" d="M1259.34,111h-.82a46.88,46.88,0,1,1-56,56.8A56.8,56.8,0,1,0,1259.34,111Z"/><polygon class="cls-7" points="1729.85 86.52 1085.2 86.52 1076.86 74.07 1737.82 74.07 1729.85 86.52"/><polygon class="cls-7" points="1729.85 108.54 1085.2 108.54 1076.86 96.09 1737.82 96.09 1729.85 108.54"/><polygon class="cls-7" points="1729.85 130.56 1085.2 130.56 1076.86 118.12 1737.82 118.12 1729.85 130.56"/><polygon class="cls-7" points="1729.85 152.58 1085.2 152.58 1076.86 140.14 1737.82 140.14 1729.85 152.58"/><polygon class="cls-7" points="1729.85 174.6 1085.2 174.6 1076.86 162.16 1737.82 162.16 1729.85 174.6"/><polygon class="cls-7" points="1729.85 196.63 1085.2 196.63 1076.86 184.18 1737.82 184.18 1729.85 196.63"/><polygon class="cls-7" points="1729.85 218.65 1085.2 218.65 1076.86 206.21 1737.82 206.21 1729.85 218.65"/><polygon class="cls-7" points="1729.85 240.67 1085.2 240.67 1076.86 228.23 1737.82 228.23 1729.85 240.67"/><polygon class="cls-7" points="1729.85 262.69 1085.2 262.69 1076.86 250.25 1737.82 250.25 1729.85 262.69"/><polygon class="cls-7" points="1729.85 284.71 1085.2 284.71 1076.86 272.27 1737.82 272.27 1729.85 284.71"/><polygon class="cls-7" points="1729.85 306.74 1085.2 306.74 1076.86 294.29 1737.82 294.29 1729.85 306.74"/><polygon class="cls-7" points="1729.85 328.76 1085.2 328.76 1076.86 316.31 1737.82 316.31 1729.85 328.76"/><polygon class="cls-7" points="1729.85 350.78 1085.2 350.78 1076.86 338.34 1737.82 338.34 1729.85 350.78"/><polygon class="cls-7" points="1729.85 372.8 1085.2 372.8 1076.86 360.36 1737.82 360.36 1729.85 372.8"/><polygon class="cls-7" points="1729.85 394.82 1085.2 394.82 1076.86 382.38 1737.82 382.38 1729.85 394.82"/><rect class="cls-8" x="1519.85" y="190.4" width="323.04" height="503.51"/><rect class="cls-9" x="1535.89" y="205.23" width="290.97" height="117.3"/><rect class="cls-9" x="1535.89" y="336.17" width="290.97" height="117.3"/><rect class="cls-9" x="1535.89" y="465.41" width="290.97" height="117.3"/><rect class="cls-10" x="1657.48" y="237.91" width="16.28" height="84.62"/><rect class="cls-10" x="1586.73" y="267.01" width="16.28" height="94.76" transform="translate(1280.48 1909.26) rotate(-90)"/><rect class="cls-10" x="1571.65" y="256.73" width="16.28" height="85.43" transform="translate(1280.34 1879.23) rotate(-90)"/><rect class="cls-10" x="1700.42" y="239.66" width="16.28" height="82.88"/><rect class="cls-10" x="1794.91" y="235.98" width="16.28" height="86.37" transform="translate(204.42 -600.21) rotate(20.01)"/><rect class="cls-10" x="1728.53" y="239.25" width="16.28" height="82.88" transform="translate(2.33 575.42) rotate(-18.83)"/><rect class="cls-10" x="1683.8" y="256.09" width="16.28" height="66.44"/><rect class="cls-10" x="1667.78" y="247.58" width="16.28" height="74.96"/><rect class="cls-10" x="1653.32" y="498.09" width="16.28" height="84.62"/><rect class="cls-10" x="1673.64" y="507.51" width="16.28" height="75.21"/><rect class="cls-10" x="1689.93" y="515.58" width="16.28" height="67.13"/><rect class="cls-10" x="1704" y="498.09" width="16.28" height="84.62"/><rect class="cls-10" x="1719" y="507.51" width="16.28" height="75.21"/><rect class="cls-10" x="1734.33" y="515.58" width="16.28" height="67.13"/><rect class="cls-10" x="1750.61" y="498.09" width="16.28" height="84.62"/><rect class="cls-10" x="1780.11" y="497.73" width="16.28" height="84.62" transform="translate(-78.6 605.94) rotate(-18.83)"/><rect class="cls-10" x="1580.74" y="368.85" width="16.28" height="84.62"/><rect class="cls-10" x="1599.69" y="378.46" width="16.28" height="75.01"/><rect class="cls-10" x="1614.64" y="386.8" width="16.28" height="66.67"/><rect class="cls-10" x="1638.35" y="386.8" width="16.28" height="66.67"/><rect class="cls-10" x="1659.98" y="376.91" width="16.28" height="76.56"/><rect class="cls-10" x="1674.66" y="368.85" width="16.28" height="84.62"/><rect class="cls-10" x="1551.64" y="368.23" width="16.28" height="84.62" transform="translate(-52.85 440.31) rotate(-15.8)"/><polygon class="cls-11" points="1134.38 1815.59 -269.25 1815.59 783.51 657.15 2187.14 657.15 1134.38 1815.59"/><polygon class="cls-12" points="1876.02 735.7 1798.41 735.7 1773.01 635.34 1899.65 635.34 1876.02 735.7"/><rect class="cls-13" x="1764.54" y="622.3" width="141.81" height="13.05"/><polygon class="cls-14" points="1836.33 635.34 1773.01 635.34 1798.41 735.7 1836.33 735.7 1836.33 635.34"/><rect class="cls-15" x="1764.54" y="622.3" width="71.79" height="13.05"/><polygon class="cls-16" points="1876.02 737.21 1798.41 737.21 1773.01 723.66 1899.65 723.66 1876.02 737.21"/><polygon class="cls-17" points="1836.33 723.66 1773.01 723.66 1798.41 737.21 1836.33 737.21 1836.33 723.66"/><path class="cls-18" d="M1830.32,489.71a106,106,0,0,0-14.72,21.46,69.4,69.4,0,0,0-6.65,23.47c-2.31,21.46,5.16,41.7,10,62.26.34,1.47.65,3,.95,4.43q-2.5-6.15-5-12.28-6.69-16-13.77-31.89c-4.72-10.59-9.87-21-14.32-31.73-4.26-10.25-7.83-20.8-12.24-31-4.07-9.41-9.42-19.94-7.55-30.51a1.8,1.8,0,0,0-3.47-1,86.59,86.59,0,0,0-4.7,30.57,98.05,98.05,0,0,0,5.52,28.25,204.28,204.28,0,0,0,12.1,27.38,297.39,297.39,0,0,0,15.35,27.32,104.86,104.86,0,0,0,10.46,13.3c-2.34-1.42-4.75-2.72-7.21-3.9a54.79,54.79,0,0,0-11.38-4.33c-12.21-2.77-27.87,2.49-34.37,13.56a20.5,20.5,0,0,0-2,15.11,1.82,1.82,0,0,0,3,.8c11.18-11,26.71-13.78,41.84-12,5.42.63,11,3,15.92,5.3a49.88,49.88,0,0,1,7.89,4.47,18,18,0,0,1,2.6,2.19,1.89,1.89,0,0,0,1.46,2.14l.17.38a1.86,1.86,0,0,0,2.66,1,1.58,1.58,0,0,0,.76-.65,1.52,1.52,0,0,0,.35-.45,1.56,1.56,0,0,0,.78-2c-.18-.54-.38-1.06-.58-1.57a1.9,1.9,0,0,0,.58-1.67q-.46-3.21-1.09-6.39a268.65,268.65,0,0,0,1.81-51.21c-.87-16.67-2.49-34.7,3.46-50.67a35.64,35.64,0,0,1,4.27-8C1834.32,490.23,1831.64,488.16,1830.32,489.71Z"/><path class="cls-18" d="M1977.19,519.94c-5.2-.07-10.18-1.82-15.39-1.8a108.86,108.86,0,0,0-16.32,1.53,106.64,106.64,0,0,0-30.09,9.32c-16.33,7.9-31.09,19.55-43.73,32.67,3.13-5.95,5.94-12.06,8.58-18.23,2-4.76,4-9.57,5.85-14.39a167.85,167.85,0,0,1,7.23-15.36,156.9,156.9,0,0,0,7.14-15.27c2-5.23,3.4-10.66,5.31-15.92a123.88,123.88,0,0,1,10.09-20.83c3.91-6.53,8.46-13,14.37-17.83,1.62-1.34-.45-3.8-2.18-2.83-15.58,8.73-28.34,21.38-38.19,36.19s-16.72,31.61-21.95,48.6c-.43,1.4-.84,2.81-1.24,4.21a54.17,54.17,0,0,0-1.38-12.1c-1-4.17-2.4-8.22-3-12.47-.27-2-2.91-1.43-3.47,0-6.16,15.48-5.18,32.13-6.3,48.44-.93,13.59-4.69,26.73-6.88,40.11a1.87,1.87,0,0,0-.16,1c-.21,1.36-.41,2.72-.58,4.08l-.12.3a1.52,1.52,0,0,0-.06,1.14c-.07.61-.14,1.21-.2,1.82a1.67,1.67,0,0,0-.1,1.15c0,.23,0,.46-.07.69-.19,2.31,3.41,2.29,3.6,0,0-.24,0-.48.07-.72l0,0c0,.73-.07,1.46-.09,2.2,0,2.32,3.55,2.31,3.6,0a79.63,79.63,0,0,1,.62-8.05c1.44-1.78,3-3.5,4.46-5.22,3.28-3.77,6.55-7.51,10.1-11a157.21,157.21,0,0,1,23.17-18.87A219,219,0,0,1,1916,547.49c10.12-5,20.42-10.08,31.13-13.71,5-1.71,9.79-4.14,14.68-6.19s10.08-4.19,15.39-4.05C1979.51,523.57,1979.51,520,1977.19,519.94Z"/><path class="cls-19" d="M1935.61,621c-8.2-10.39-21.94-15.56-34.49-18.27-13.22-2.85-28-3.66-40.95,1-7,2.55-13.28,7.11-16.72,13.86a1.8,1.8,0,0,0-.21.84l-1.88.47c2.76-8.3,5-16.76,7.63-25.11a195.6,195.6,0,0,1,10.48-26.76c8.6-17.86,20.29-34.14,27.23-52.81.68-1.84-1.77-2.8-3-1.75-12.83,10.91-24.57,23.26-33.11,37.87-7.93,13.57-12.42,28.67-14.5,44.2a178.83,178.83,0,0,0-1.46,20,1.83,1.83,0,0,0-1.69,3,4.55,4.55,0,0,1,1.7,2.45c.28,2,3.49,1.49,3.53-.45a2,2,0,0,0,1.88.56,1.83,1.83,0,0,0,2.2,2.22l1-.25a1.94,1.94,0,0,0,.15.36h3.25A6.81,6.81,0,0,1,1848,621q9.39-2.28,18.85-4.25l2.46-.5c3.62-.09,7.24,0,10.81.29,5.87.42,12,1.18,17.5,3.32a58.05,58.05,0,0,1,20.46,14,46.92,46.92,0,0,1,12.61,27.49c1.12,10.94-1.5,22-6.21,31.83a1.89,1.89,0,0,0,.91,2.53c-.35,1.11-.71,2.21-1.09,3.3-.67,2,2.33,3.17,3.29,1.39,6.77-12.53,12.59-25.91,15.26-40C1945.39,646.83,1944.48,632.25,1935.61,621Z"/><path class="cls-18" d="M1853.41,512.78c2.3-9.45,3.72-19.2,3.18-28.94a68.27,68.27,0,0,0-8.5-29.23c-1-1.76-4-.56-3.29,1.38a48.86,48.86,0,0,1,2.6,26.34c-1.53,8.06-5.07,15.55-8.86,22.77-4,7.63-8.36,15.07-11.85,23a74.28,74.28,0,0,0-6.6,30c-.06,18.5,7,36.06,12.47,53.43a1.83,1.83,0,0,0,2.71,1c1.91.07,3.51-1.59,4.54-3.09a1.8,1.8,0,0,0-.65-2.46h0C1828.72,574.91,1846,543.49,1853.41,512.78Z"/><path class="cls-19" d="M1819.16,608c-2.77-5.46-6.76-10.35-12.26-12.86a53.07,53.07,0,0,0-5.62-18.75A83.33,83.33,0,0,0,1790,560.47c-8.41-9.75-17.73-18.79-23.18-30.61-.19-.42-.37-.84-.57-1.26-1-2.13-4-.27-3.11,1.81.18.42.37.83.56,1.25,4.77,11.08,5,23.59,9.07,34.93,3.77,10.53,13.22,17.7,17.67,27.82A58.22,58.22,0,0,0,1781,598a111.22,111.22,0,0,0-20.38,12.39,70.94,70.94,0,0,0-17,17.66,32.79,32.79,0,0,0-5.56,18c0,1.71,2.52,2.56,3.36.91,3.82-7.53,10-13.78,16.25-19.3a82.37,82.37,0,0,1,21.06-13.91c5.46-2.37,11.76-3.61,17.58-4.66a49.82,49.82,0,0,1,9.74-.91c1.66,0,4.39.24,5.14,1.53a1.68,1.68,0,0,0,1.2.84c.23.2.48.38.7.6a1.8,1.8,0,0,0,3.07-1.26C1817.3,611.73,1820.18,610,1819.16,608Z"/><path class="cls-20" d="M1952.41,572.61c-7.81-10.88-19.83-16.52-33.08-16.94-8.3-.26-16.7,1.41-24.62,3.76a79,79,0,0,0-21.45,10c-12.63,8.47-21.92,20.78-28.76,34.21a167,167,0,0,0-7.62,17.66c-4.88-35.8-21.44-70.65-45.44-97.55a142.75,142.75,0,0,0-22.2-20.2c-1.77-1.29-3.38,1.37-2.18,2.83,12.64,15.32,23,32.5,31.51,50.38a275.26,275.26,0,0,1,19.36,54.09,10.32,10.32,0,0,0-2-1.52c-4.14-2.46-9.48-1.69-13.85-.4a55.8,55.8,0,0,0-15.77,8,57.17,57.17,0,0,0-12.41,11.33c-3,3.82-4.6,8.33-6,13a117.3,117.3,0,0,0-3.72,20.88c-1.54,14.51-1.69,29.38-6.28,43.37a1.8,1.8,0,0,0,3,1.75c1.83-2.06,2.9-4.74,4-7.26,1.61-3.84,3-7.8,4.3-11.74,3.54-10.4,6.87-20.87,10.73-31.16,3.66-9.75,7.68-19.68,13.66-28.27a27.47,27.47,0,0,1,7.71-7.85,9.37,9.37,0,0,1,8-1.12,14,14,0,0,1,4.57,2.66h27.6A118,118,0,0,1,1862,602.68a136.77,136.77,0,0,1,31.86-18.77c10.35-4.26,21.66-7.2,32.93-6.24a34.42,34.42,0,0,1,25.54,14.45c4.51,6.38,7,13.9,8.65,21.48.42,2,3.66,1.54,3.53-.48C1963.66,599.06,1960.77,584.26,1952.41,572.61Z"/><polygon class="cls-21" points="801.15 657.93 -269.25 1825.04 -269.25 664.85 801.15 -502.27 801.15 657.93"/><polygon class="cls-22" points="1758.64 608.18 1482.25 909.01 401.82 909.01 678.38 608.18 1758.64 608.18"/><rect class="cls-23" x="401.82" y="909.01" width="1080.43" height="14.48" transform="translate(1884.08 1832.51) rotate(-180)"/><polygon class="cls-24" points="1482.25 923.22 1758.64 621.66 1758.64 608.18 1482.25 909.01 1482.25 923.22"/><polygon class="cls-25" points="1080.83 155.13 848.17 155.13 -452.86 1459.86 2381.86 1459.86 1080.83 155.13"/><path class="cls-26" d="M968.44,609.41l-80.36,129s39.49-25.36,79.3-18c21.4,4,31.63,24.23,31.63,24.23s26.1-21.58,63.08-20c21,.9,33.15,20,38.53,25.38l67.67-118.43c-9-14.07-33-24.35-50.74-25.37-36.38-2.12-55.51,13.29-55.51,13.29s-8.78-16.22-30.39-19.48C1004.39,595.93,981.4,602.88,968.44,609.41Z"/><path class="cls-27" d="M1049.66,633.33C1030.1,612.08,995.14,615.58,971,625"/><path class="cls-27" d="M1152.68,642.29c-18.94-18.3-47.23-22.48-72.16-16.57a93.64,93.64,0,0,0-20.26,7.32"/><path class="cls-27" d="M1041.77,644.66c-19.56-21.25-54.52-17.76-78.69-8.31"/><path class="cls-27" d="M1144.79,653.62c-18.94-18.3-47.23-22.48-72.16-16.58a94.17,94.17,0,0,0-20.26,7.32"/><path class="cls-27" d="M1035.29,657c-19.56-21.25-54.52-17.76-78.69-8.31"/><path class="cls-27" d="M1138.32,666c-19-18.3-47.24-22.47-72.17-16.57a94.17,94.17,0,0,0-20.26,7.32"/><line class="cls-28" x1="1061.23" y1="621.21" x2="1001.06" y2="740.1"/><polygon class="cls-29" points="1045.38 707.29 1043.26 715.21 1051.18 713.09 1113.61 650.66 1107.81 644.87 1045.38 707.29"/><path class="cls-30" d="M783.59,594.86h252.14a54.48,54.48,0,0,0,1.16-8.39c.14-3.35.73-17.79-8.38-28-7.06-7.87-8.39-5.59-14-11.18-8.51-8.51-2.62-16.72-8.38-28-4.9-9.55-8.37-9.25-19.57-19.57-11.43-10.53-10.72-19.23-19.57-33.54-13.16-21.3-34.51-28.53-41.92-30.75-8.24-2.46-36.77-7.09-61.5,2.8-28,11.18-39.13,27.95-44.72,55.9-.58,2.92-.43,5.56-5.59,11.18-6.94,7.57-11.82,8.6-14,14-5.59,14,2.8,19.56,0,30.75-2.07,8.27-6,7.52-11.18,16.77,0,0-9.42,9.16-5.59,25.15A13.41,13.41,0,0,0,783.59,594.86Z"/><path class="cls-31" d="M886.13,507.35c-4.56-3.68-4.55-11-13.74-13.35-11.12-2.84-16.62,5.8-19.45,10.69-5.79,10,1.49,25,10.68,31.28,5.49,3.76,13.1,3.33,15.79,4.94,1.06.63,1.5,3.43,1.69,4.7,1.42,9.63,6.14,18.37,10.82,25.41A68.76,68.76,0,0,0,912,590.87a53,53,0,0,0,18.57,7.89c5.46,1.1,11.41,2.3,18.14-.21,8.29-3.08,12.58-10,14.52-13.23,1.7-2.84,6.14-11.08,3.84-44.18-1.4-20.07-3.92-29.88-5.34-34.8-2.94-10.22-8.55-25.11-12.59-24.54-2.19.31-1.32,4.82-4.7,7.47-7.61,6-22.08-9.16-31.8-4.06-8.62,4.53-8.61,15.06-15,22.76C895.07,511,890.32,510.74,886.13,507.35Z"/><path class="cls-31" d="M905.34,579.43s-8.92,33.77-8.92,47.91l32.11,3.46c6-9.3,11.87-46,11.87-47.88Z"/><path class="cls-32" d="M825.41,833.4c-8.18-8.23-15.85-13.36-23.69-16-1.18,4.47-2.24,9-3.1,13.54-6.29,33.55-8.92,67.88-10.83,101.92a1.11,1.11,0,0,0,0,.19,170.49,170.49,0,0,0,9.55,30.84c29.06,70.73,43.29,111.2,91.5,176.59,20.63,28,24.56,32.81,38.51,45.14,5.84,5.16,15.1,6.15,12-7.83-9.74-44.41-14-59.36-22.66-89.77-13.44-47.16-21.7-76.16-41.07-140.52C856.69,884.61,846.09,854.2,825.41,833.4Z"/><path class="cls-32" d="M784,834c10.42-6.55,19.58-10,28.3-10.84.16,4.9.17,9.81,0,14.74-1.5,36.18-7,72.29-13.14,107.94,0,.06,0,.13,0,.2a181.21,181.21,0,0,1-17.24,29.59c-46.93,66.18-67.05,97.86-123.36,163.12-22.35,25.91-21.48,25.91-37.1,41.52-5.84,5.84-11.68,4.18-10.56-11,3.23-43.58,3.79-45.55,16.64-88.12,13.82-45.77,30.69-88.41,60.14-141.18C721.6,879.12,757.65,850.57,784,834Z"/><path class="cls-31" d="M959.82,719.45c11.26.7,28.95,16,42.12,29.3,15.59,15.77,29.24,27.85,29.24,27.85s6.85-11.48,24.76-34.47c9.14-11.73,11.39-16.51,13.35-20.07,7.81-14.26-4.48-16-4.09-27.09.11-3.12,3.06-7.72,7-8.32,0,0-1-10.34,11.39-17.52,6-3.48,13.74,1.06,17.71,4.81,5.13,4.86,14.19,17.37,12,27.09-1.37,5.93-4.81,9.9-9.53,18.5s-6.49,13.15-13.08,28.06c-5.91,13.4-5.59,11.61-18.49,43.43-9.44,23.3-10.63,24.53-17.11,28.37-5,3-13.44,8.86-36,0-22.37-8.81-24.39-11.34-52.85-31.29-21.53-15.09-29.93-33.66-29.93-33.66C931.7,741.15,954.88,723.44,959.82,719.45Z"/><path class="cls-33" d="M849.49,604.81c-7.69,11-15.24,25.44-32.11,32.16-18.57,7.39-45,10-57.31,9.53,0,0-29.29,25.34-58.94,45.55-45.67,31.13-79.73,44.74-79.73,44.74l58.39,34.4c1.41,12.32-17.25,54.68-17.25,54.68s51,2.63,104.24,18.4c67.6,20,121.12,82.82,121.12,82.82S934,829.21,921.6,779.5c-1.37-5.48,23.25,41.57,23.25,41.57L1037,716.93s-81.81-95.55-97.39-101.36C902.61,601.81,868.22,604.92,849.49,604.81Z"/><path class="cls-26" d="M1174.68,745.93c4.17,4.17,101.54,59.11,101.54,59.11l131.12-88.87-106.46-51.83Z"/><line class="cls-27" x1="1277.2" y1="689.97" x2="1369.54" y2="732.03"/><line class="cls-27" x1="1264.37" y1="697.64" x2="1356.71" y2="739.7"/><line class="cls-27" x1="1251.54" y1="706.12" x2="1343.88" y2="748.18"/><line class="cls-27" x1="1238.71" y1="713.79" x2="1331.05" y2="755.84"/><path class="cls-34" d="M1339.59,721.08c11.6-8.28,24.88-15.36,27.22-11.9,3.11,4.61-6.39,22.65-8.88,21.82-1.12-.37-4.4-6.37-2.57-8.2,2.68-2.68,9.34-.71,12.54,1.11"/><path class="cls-34" d="M1374.46,719.49l8.15,2.63"/><line class="cls-34" x1="1381.79" y1="717.84" x2="1375.85" y2="723.91"/></g></svg>