<svg id="Layer_1" data-name="Layer 1" xmlns="http://www.w3.org/2000/svg" xmlns:xlink="http://www.w3.org/1999/xlink" viewBox="0 0 2061 1080"><defs><style>.cls-1,.cls-11,.cls-12,.cls-13{fill:none;}.cls-2{clip-path:url(#clip-path);}.cls-3{fill:#735c93;}.cls-4{fill:#c4a5a8;}.cls-5{opacity:0.6;}.cls-6{fill:#7f6ba0;}.cls-21,.cls-7{fill:#fff;}.cls-8{fill:#a7bc00;}.cls-9{fill:#ffeac7;}.cls-10{fill:#fff5e2;}.cls-11,.cls-12,.cls-13{stroke:#d0c4b9;stroke-miterlimit:10;stroke-width:3px;}.cls-12{stroke-dasharray:17.48 17.48;}.cls-13{stroke-dasharray:16.07 16.07;}.cls-14{fill:#ffdc8f;}.cls-15{fill:#9eba00;}.cls-16{fill:#818c96;}.cls-17{fill:#b5bcd9;}.cls-17,.cls-18,.cls-21,.cls-22,.cls-32,.cls-34{fill-rule:evenodd;}.cls-18,.cls-20{fill:#a07174;}.cls-19{fill:#6b4b36;}.cls-22{fill:#5e3c24;}.cls-23{fill:#00bad9;}.cls-24{fill:#ffc610;}.cls-25{fill:#ff5247;}.cls-26{fill:#fdfdfd;}.cls-27{fill:#becd42;}.cls-28{fill:#d3de85;}.cls-29{fill:#f5f6e2;}.cls-30{fill:#dbdbdb;}.cls-31{fill:#512f14;}.cls-32{fill:#432a63;}.cls-33{fill:#f4dfd5;}.cls-34{fill:#191415;}.cls-35{fill:#745441;}</style><clipPath id="clip-path"><path class="cls-1" d="M1900.34,298.8C1827.9,220.26,1516-70.3,758.46,22.85S-99,573.06,71.17,772.25c180.15,210.54,524.31,362.18,1305,225.46,0,0,180.68-43.11,41.77,40.51-5.41,3.26-54.35,38.81-54.35,38.81C1543,1001.31,2409.26,850.53,1900.34,298.8Z"/></clipPath></defs><title>bully - school scene</title><g class="cls-2"><rect class="cls-3" width="2061" height="1080"/><rect class="cls-4" x="366.93" y="197.52" width="1492.51" height="684.96"/><g class="cls-5"><rect class="cls-6" x="366.93" y="274.87" width="1492.51" height="10.73"/><rect class="cls-6" x="366.93" y="378.77" width="1492.51" height="10.73"/><rect class="cls-6" x="366.93" y="482.68" width="1492.51" height="10.73"/><rect class="cls-6" x="366.93" y="586.59" width="1492.51" height="10.73"/><rect class="cls-6" x="366.93" y="690.49" width="1492.51" height="10.73"/><rect class="cls-6" x="366.93" y="794.4" width="1492.51" height="10.73"/></g><rect class="cls-7" x="731.21" y="529.26" width="458.45" height="292.95"/><rect class="cls-8" x="539.23" y="421.6" width="252.43" height="312.24"/><rect class="cls-9" x="558.07" y="357.08" width="252.43" height="312.24"/><rect class="cls-10" x="503.81" y="377.42" width="252.43" height="321"/><polyline class="cls-11" points="720.5 592.89 720.5 600.89 712.5 600.89"/><line class="cls-12" x1="695.02" y1="600.89" x2="633.84" y2="600.89"/><polyline class="cls-11" points="625.1 600.89 617.1 600.89 617.1 592.89"/><line class="cls-13" x1="617.1" y1="576.82" x2="617.1" y2="424.2"/><polyline class="cls-11" points="617.1 416.16 617.1 408.16 625.1 408.16"/><line class="cls-12" x1="642.58" y1="408.16" x2="703.76" y2="408.16"/><polyline class="cls-11" points="712.5 408.16 720.5 408.16 720.5 416.16"/><line class="cls-13" x1="720.5" y1="432.23" x2="720.5" y2="584.85"/><circle class="cls-11" cx="615.93" cy="600.89" r="76.37"/><polygon class="cls-14" points="836.37 538.25 852.52 548.75 855.61 537.23 836.37 538.25"/><polygon class="cls-15" points="836.37 538.25 842.72 542.38 843.94 537.85 836.37 538.25"/><rect class="cls-15" x="894.33" y="507.52" width="11.93" height="95.72" transform="translate(130.83 1281.25) rotate(-75)"/><rect class="cls-7" x="942.56" y="566.23" width="11.93" height="4.15" transform="translate(154.09 1337.42) rotate(-75)"/><polygon class="cls-14" points="613.27 333.53 596.11 342.26 604.54 350.7 613.27 333.53"/><polygon class="cls-16" points="613.27 333.53 606.52 336.96 609.84 340.28 613.27 333.53"/><rect class="cls-16" x="560.52" y="332.46" width="11.93" height="95.72" transform="translate(434.85 -289.17) rotate(45)"/><rect class="cls-7" x="525.21" y="413.55" width="11.93" height="4.15" transform="translate(449.47 -253.86) rotate(45)"/><path class="cls-17" d="M162,450.19l-5,120.8a66,66,0,0,0,63.25,68.69l1.15.05a47.68,47.68,0,0,0,49.61-45.68l6.49-157.46A47.69,47.69,0,0,0,231.89,387l-1.15-.05A66,66,0,0,0,162,450.19Z"/><path class="cls-18" d="M241.16,550.85a23.46,23.46,0,1,0,22.48,24.4A23.46,23.46,0,0,0,241.16,550.85Z"/><path class="cls-18" d="M239.88,427.25a23.46,23.46,0,1,0,22.47,24.4A23.46,23.46,0,0,0,239.88,427.25Z"/><path class="cls-18" d="M239.25,442.53a69.88,69.88,0,1,0,66.94,72.7A69.89,69.89,0,0,0,239.25,442.53Z"/><path class="cls-18" d="M303.08,500.05c-9-.37-16.59,6.06-16.93,14.36s6.68,15.33,15.69,15.7,16.58-6.06,16.92-14.36S312.08,500.42,303.08,500.05Z"/><path class="cls-19" d="M341.7,409.12c17.77,10.75,35.08,12.34,75.58,31a12.36,12.36,0,0,1,2.38,1.63c5.51,4.09,6.4,7.19,9.62,9.84,2.32,1.91,5.67,2.59,12.38,4,8.84,1.79,7.06.43,12.08,2a54.73,54.73,0,0,1,16.54,9.3c1.66,1.35,4,3.93,6.54,4,1.55,0,2.76-.25,3.58-1.54,2.25-3.56-1.81-9.12-2.08-9.46-2.88-3.65-5-3.83-10.16-7.95-3.14-2.49-5.37-4.09-6.49-8.46-.49-1.87,3.49-2,6-1.92,3.83.08,5.71.19,7.7,2.11,3.84,3.7,2.26,11.64,10.34,17.59.61.45,6.4,4.13,8.16,2.9,1.5-1,.55-4.45,0-7.8-3-17.87-1.91-17.69-3.26-20.88-2.63-6.2-8.51-9.59-12.92-14.34-5.35-5.76-7.45-7.09-8.64-7.61-4.84-2.09-6.22-2.1-22.35.32-12.48,1.88-16.69.48-18.32-.42-7.65-4.24-9.68-6.27-15.29-10.13-16.23-11.18-14.06-8.59-44-29.06C349.69,361,347.12,357.36,342.72,358,332.31,359.58,336.4,405.91,341.7,409.12Z"/><path class="cls-20" d="M341.7,409.12c17.77,10.75,35.08,12.34,75.58,31a12.36,12.36,0,0,1,2.38,1.63c5.51,4.09,6.4,7.19,9.62,9.84,2.32,1.91,5.67,2.59,12.38,4,8.84,1.79,7.06.43,12.08,2a54.73,54.73,0,0,1,16.54,9.3c1.66,1.35,4,3.93,6.54,4,1.55,0,2.76-.25,3.58-1.54,2.25-3.56-1.81-9.12-2.08-9.46-2.88-3.65-5-3.83-10.16-7.95-3.14-2.49-6.26-5.16-7.59-9.77-1.25-4.34,1.82-10.91,3.86-10.32,3.67,1,7.22,4.93,9.76,8.2,6.61,8.55,3.4,15.26,11.48,21.21.61.45,4.52,3.27,6.28,2,1.5-1,.71-4.48,0-7.8-3.85-17.74-2.36-16-3.72-19.19-2.63-6.2-6.13-10.15-10.58-15.17-5.21-5.89-7.45-7.09-8.64-7.61-4.84-2.09-6.22-2.1-22.35.32-12.48,1.88-16.69.48-18.32-.42-7.65-4.24-9.68-6.27-15.29-10.13-16.23-11.18-14.06-8.59-44-29.06C349.69,361,347.12,357.36,342.72,358,332.31,359.58,336.4,405.91,341.7,409.12Z"/><path class="cls-17" d="M330.52,351.35c4.29,3.32,5.56,9.6,5.92,14.7a88.89,88.89,0,0,1-1.05,18.79c-1,6.8-2.95,13.23-8.09,17.91-12.65,5.55-63.84,27.58-100.76,37.52-16.1,4.34-40.16-.58-43.81-16.4-3.85-16.68,6.82-32.4,22.92-36.72,34.92-9.39,71.6-26.64,107.14-38.81C319.06,348.24,326,347.83,330.52,351.35Z"/><path class="cls-21" d="M407.73,396.43l16.49,9.27A40.17,40.17,0,0,1,409.39,438l-13.2-6.74Z"/><path class="cls-17" d="M306.71,388.84c-1.29-1.08-2.66-2.24-4-3.46-5.4-6.33-9.94-13.41-7.66-20.9l1.26-2.21c9.08-15.76,27.5-16.63,42.16-9.78,30.22,14.09,52.15,29.44,82.35,43.54-1.83,32.59-25.31,43.57-25.31,43.57-15.78-7.35-41.29-20.84-53.49-27.35-4.28-2.28-6.93-3.71-6.93-3.71l0,.09C326.31,401.1,315.56,396.25,306.71,388.84Z"/><path class="cls-18" d="M419.42,628.14a42.65,42.65,0,0,0,10.74-2.53c3.74-1.24,4.07-3.71,10.6-12.83a84.41,84.41,0,0,1,14.32-15.16c2.47-2,5-3.26,6.11-2.43,1.82,1.32,1.16,4,.11,6.45-1.48,3.4-3.54,4.5-5.95,8.93-1.11,2-1.17,2.9-.7,3.88.89,1.87,6.88,2.78,12.11,3.24,19.66,1.73,29.46-1.56,39.44,1.88,3.09,1.07,3.05,2.64,2.92,2.93-.22.56-.44,3.91-28.8,5.18l-.37,0c-.52,0-.64.21-.69.31s.14.53.25.62c2.51,1.26,20.12-.43,33.49.94,3.94.4,6.75,2,6.42,3.82-.4,2.09-8.21,3.32-9,3.38-12.36,1.12-27.06.36-29.79,1.45-.27.11-.92.66-.83,1.07.13.56,1.61.67,2.39.71,5.79.3,21,.33,29.81,2.88,3,.89,2.08,2.4,1.87,2.82-.77,1.48-5.05,2.79-6.37,3-11,1.4-29.67.18-32.51,1.16-.22.08-.85.3-.85.58s1.27.66,1.7.76c4.72,1,15.35.32,21.44,2.23,2.1.66,2.29,1.5,2.29,1.86,0,.71-1,3.24-7.72,3.62-27.08,1.57-45.68,1.41-45.68,1.41-7.35-1-10-2.52-15.72-2.84a66,66,0,0,0-19,1.46l-2.12-29.82S412.07,628.94,419.42,628.14Z"/><path class="cls-17" d="M330.52,676.79c4.29-3.32,5.56-9.6,5.92-14.7a88.83,88.83,0,0,0-1.05-18.78c-1-6.81-2.95-13.23-8.09-17.91-12.65-5.55-63.84-27.59-100.76-37.53-16.1-4.33-40.16.58-43.81,16.4-3.85,16.68,6.82,32.41,22.92,36.72,34.92,9.4,71.6,26.64,107.14,38.81C319.06,679.91,326,680.32,330.52,676.79Z"/><path class="cls-21" d="M410.5,662.89,429.19,660a40.14,40.14,0,0,0-2.57-35.41l-14.72,1.68Z"/><path class="cls-17" d="M312.06,630.19c-1.64.37-2.1,5.54-3.82,6.19-7.28,4-14,9.08-14.51,16.89.13.84.26,1.68.4,2.51,3,18,19.92,25.22,36.05,24,33.25-2.6,59.16-9.28,92.39-11.88,9.72-31.17-8.42-49.69-8.42-49.69-17.35,1.36-46,5-59.68,6.85l-7.79,1V626C333.65,627.33,323.61,627.62,312.06,630.19Z"/><path class="cls-22" d="M199.79,442.25c-16.45,4-35.74,18-46.94,40.37A78.55,78.55,0,0,0,145,523a77.69,77.69,0,0,0,14.71,40c2.82,3.85,15.49,20.84,38.72,25.26C217,591.84,222,590,256.59,590c20.63,0,40.26.12,54-1.64,1.47-.19,7.74-2.6,8.2-9,.72-9.86-3.53-12.16-19.22-20.1-14.16-7.18-21.94-31.09-22.54-43.57,0,0-5.37-27.64,17.39-47.11,6.87-5.89,9.72-4.94,16.41-13.26,2.27-2.81,4.64-10.9,3-13.44-1.19-1.85-4.94-6.89-8.24-6.89A778.24,778.24,0,0,0,199.79,442.25Z"/><polygon class="cls-14" points="646.21 734.86 631.88 747.74 642.21 753.7 646.21 734.86"/><polygon class="cls-23" points="646.21 734.86 640.57 739.92 644.63 742.27 646.21 734.86"/><rect class="cls-23" x="607.15" y="744.31" width="11.93" height="95.72" transform="translate(478.23 -200.43) rotate(30)"/><rect class="cls-7" x="582.19" y="833.34" width="11.93" height="4.15" transform="translate(496.5 -182.15) rotate(30)"/><polygon class="cls-14" points="603.75 739.82 593.25 755.96 604.77 759.05 603.75 739.82"/><polygon class="cls-24" points="603.75 739.82 599.62 746.16 604.15 747.38 603.75 739.82"/><rect class="cls-24" x="580.66" y="755.88" width="11.93" height="95.72" transform="translate(228.01 -124.44) rotate(15)"/><rect class="cls-7" x="567.73" y="849.89" width="11.93" height="4.15" transform="matrix(0.97, 0.26, -0.26, 0.97, 240.05, -119.45)"/><polygon class="cls-14" points="1166.77 736.13 1170.76 754.98 1181.09 749.01 1166.77 736.13"/><polygon class="cls-25" points="1166.77 736.13 1168.34 743.54 1172.4 741.2 1166.77 736.13"/><rect class="cls-25" x="1193.89" y="745.58" width="11.93" height="95.72" transform="translate(-235.97 706.23) rotate(-30)"/><rect class="cls-7" x="1218.86" y="834.61" width="11.93" height="4.15" transform="translate(-254.25 724.51) rotate(-30)"/><rect class="cls-26" x="699.82" y="239.35" width="48.21" height="205.98" transform="translate(-30.04 612.16) rotate(-45)"/><rect class="cls-8" x="650.07" y="272.82" width="48.21" height="39.54" transform="translate(-9.43 562.41) rotate(-45)"/><rect class="cls-27" x="680.65" y="303.4" width="48.21" height="39.54" transform="translate(-22.1 592.99) rotate(-45)"/><rect class="cls-28" x="711.23" y="333.98" width="48.21" height="39.54" transform="translate(-34.76 623.57) rotate(-45)"/><rect class="cls-29" x="741.81" y="364.56" width="48.21" height="39.54" transform="translate(-47.43 654.15) rotate(-45)"/><polygon class="cls-14" points="853.03 446.88 861.76 464.05 870.2 455.61 853.03 446.88"/><polygon class="cls-23" points="853.03 446.88 856.46 453.63 859.78 450.31 853.03 446.88"/><rect class="cls-23" x="893.85" y="445.81" width="11.93" height="95.72" transform="translate(-85.53 780.86) rotate(-45)"/><rect class="cls-7" x="929.16" y="526.91" width="11.93" height="4.15" transform="translate(-100.15 816.17) rotate(-45)"/><path class="cls-30" d="M538,782.74h11.24a4.15,4.15,0,0,1,4.15,4.15v3.25a4.15,4.15,0,0,1-4.15,4.15H538a0,0,0,0,1,0,0V782.74A0,0,0,0,1,538,782.74Z" transform="translate(717.41 -154.94) rotate(45)"/><circle class="cls-7" cx="525.79" cy="768.57" r="26.47"/><circle class="cls-31" cx="525.79" cy="768.57" r="20.51"/><path class="cls-18" d="M843.36,814.67a151.58,151.58,0,0,1,17.4-17c11.39-9.65,20.57-16.8,36.08-20.86,5.81-1.52,7.07-11,1.17-9.9-16,3.07-29.59,12.38-42.49,23a149.68,149.68,0,0,0-18.6,18c-1.64,1.93-2,4.61-.15,6.58C838.39,816.22,841.71,816.61,843.36,814.67Z"/><path class="cls-18" d="M894.37,779c2.89-.76,6.79-4.25,7.1-6.68-18.32,3.52-30.09,12.14-42.23,20.93a172.86,172.86,0,0,0-21.9,18.34,6.09,6.09,0,0,0-1.82,3.91,5,5,0,0,0,.55.7c1.62,1.69,4.94,2.09,6.58.15a152.49,152.49,0,0,1,17.41-17C871.45,789.77,878.85,783.1,894.37,779Z"/><path class="cls-18" d="M845.19,817.68a168.09,168.09,0,0,1,21.17-16.52c13.68-9.22,29.34-17.29,46.06-19.06,6.6-.69,7.27-10.45.64-10.09-21.15,1.14-36.92,10.31-51.51,20A170.62,170.62,0,0,0,839,809.5c-2,1.93-2.79,4.82-1,7.21C839.55,818.77,843.15,819.6,845.19,817.68Z"/><path class="cls-18" d="M912.4,782.14a5.73,5.73,0,0,0,4.55-3c-17.49,1.42-34.07,9-49,17.94a165.07,165.07,0,0,0-23.31,16.51,5.62,5.62,0,0,0-2.11,5.17,4.08,4.08,0,0,0,2.59-1.07,167.47,167.47,0,0,1,21.18-16.52C880,792,895.68,783.9,912.4,782.14Z"/><path class="cls-18" d="M849.63,832c6.84-5.75,18.14-8.05,25.8-12.61,14.16-8.44,28.5-14,43-16.14,6.56-1,9.83-10.9,3.2-10.57-18,.89-35.11,8.43-50.48,17.33a165.64,165.64,0,0,0-23.54,16.18c-2.15,1.81-6.79,1.94-5.1,4.44C843.94,832.73,847.49,833.76,849.63,832Z"/><path class="cls-18" d="M850.75,821.51a166.83,166.83,0,0,1,22.39-14.81c14.35-8.12,28.21-13.5,43.24-15.76,6.56-1,10.17-10.09,3.54-9.91-18,.48-35.3,7.64-50.86,16.2a164.82,164.82,0,0,0-23.9,15.64c-2.19,1.76-3.16,4.58-1.53,7.12C845,822.16,848.56,823.27,850.75,821.51Z"/><path class="cls-18" d="M908.21,814c-2.88-.33-8.51-.94-14,4.08-3.94,3.63-7.88,2.08-9.83,1a1.14,1.14,0,0,1-.12-1.93c5.33-3.77,10.2-8,13.13-12.48-8.28-4.09-6.67-18.46-24.32-27.21L839.5,805l-12,7.29,14.41,26.58,17.5-7.8,2.27,1.08a13.29,13.29,0,0,0,7,1.24l20.74-1.95a12,12,0,0,0,5.71-2.08l14.75-10.18A3,3,0,0,0,908.21,814Z"/><path class="cls-21" d="M815.43,807.68l19.11-7.24s18.31,11.72,20.51,35.17l-14.67,6.27Z"/><path class="cls-32" d="M825.14,1020.21c-16.31,5.22-32.86-4.12-38.5-19.8-14.86-41.35-43.91-84.94-58.76-126.28-6.15-17.12,5.1-31.73,19.81-38.5C778,821.7,795.75,811.23,826,797.29c0,0,25.28,13,17,50.2-17.8,8.2-28.63,14.85-45.79,23.18-2.73,1.32-5.63,2.7-8.74,4.14l1.46,2.78,52,98.8,3,5.33C850.58,997.41,840.59,1015.26,825.14,1020.21Z"/><path class="cls-32" d="M971.56,1034.43l-120.8,5a66,66,0,0,1-68.69-63.26L782,975a47.67,47.67,0,0,1,45.68-49.6l157.46-6.49a47.68,47.68,0,0,1,49.61,45.68l0,1.14A66,66,0,0,1,971.56,1034.43Z"/><path class="cls-18" d="M979.22,931.84a69.88,69.88,0,1,1-72.7-66.94A69.89,69.89,0,0,1,979.22,931.84Z"/><path class="cls-18" d="M921.7,868c.37,9-6.06,16.59-14.36,16.93s-15.33-6.68-15.7-15.69,6.06-16.58,14.36-16.92S921.33,859,921.7,868Z"/><path class="cls-19" d="M1109.78,878.66c-18.37-35.09-14.14-32.57-24.18-51.58-3.47-6.57-5.41-9-9-17.84-.77-1.89-1.75-6.62,1.87-19.91,4.68-17.17,4.84-18.66,3.19-24.16-.41-1.37-.91-2.87-6.06-10.45-4-5.84-5.65-9.61-8.55-11.6-3.11-2.14-9.66-4.78-28.64-10.29-3.55-1-7.13-2.49-8.45-1-1.55,1.75,1.63,8.54,2.11,9.21,5,7.06,6.54,6,9.43,10.42a3.16,3.16,0,0,1,.57,2.38c-.23.8-.58,1.11-2.28,2a2.4,2.4,0,0,1-3-.83,32.83,32.83,0,0,0-4.16-5.83c-.31-.36-5.85-5.44-10-3.45-1.51.72-2,2-2.12,3.67-.26,2.76,2.23,5.63,3.49,7.61a59.73,59.73,0,0,1,8,19.09c1.06,5.64-.19,3.54.63,13.34.62,7.44.93,11.16,2.71,13.91,2.46,3.83,5.7,5.19,9.43,11.67a14.31,14.31,0,0,1,1.47,2.79c15.06,46.25,14.59,65.2,24,85.81,2.81,6.16,38.78,26,41.8,14.93C1113.24,913.85,1121.62,901.26,1109.78,878.66Z"/><path class="cls-20" d="M1032,776.09c1.06,5.64-.19,3.54.63,13.34.62,7.44.93,11.16,2.71,13.91,2.46,3.83,5.7,5.19,9.43,11.67a14.31,14.31,0,0,1,1.47,2.79c15.06,46.25,14.59,65.2,24,85.81,2.81,6.16,36.88,29.51,39.9,18.43,1.27-4.68,11.56-20.78-.28-43.38-18.37-35.09-14.14-32.57-24.18-51.58-3.47-6.57-5.41-9-9-17.84-.77-1.89-1.75-6.62,1.87-19.91,4.68-17.17,4.84-18.66,3.19-24.16-.41-1.37-3.28-3.63-9.82-9.43-5.48-4.86-10-9.53-17-13.2-3.91-2.06-2.67-2.33-15.77-7.56-3.43-1.37-7.13-2.5-8.44-1-1.55,1.76.87,6.45,1.41,7.07,6.81,7.81,11.28,9.37,20.41,16.81,3.81,3.1,8.08,5.82,8.75,9.94.38,2.28-7.13,4.77-11.66,2.87-4.83-2-7.33-5.76-9.63-9.48"/><path class="cls-32" d="M1120.47,922.63c-.52-5.4-5.15-9.83-9.28-12.85a88.62,88.62,0,0,0-16.44-9.14c-6.29-2.79-12.76-4.57-19.46-2.72-11.45,7.73-57.41,39.26-85.52,65.18-12.26,11.3-20.94,34.26-9.51,45.79,12,12.16,31,11.54,43.28.23,26.59-24.52,60.75-46.33,90-69.89C1117,934,1121,928.36,1120.47,922.63Z"/><path class="cls-21" d="M1087,830l-6.66-17.71a40.15,40.15,0,0,0-34.13,9.78l4.66,14.07Z"/><path class="cls-32" d="M1079.26,931c.88,1.44,1.81,3,2.81,4.52,5.44,6.3,11.75,11.86,19.5,10.73.79-.3,1.59-.59,2.38-.9,17-6.59,20.59-24.67,16-40.2-9.36-32-21.22-56-30.58-88-32.5-3.11-46.91,18.44-46.91,18.44,4.89,16.7,14.36,44,19,57,1.61,4.58,2.63,7.42,2.63,7.42l-.1,0C1070.1,909.8,1073.28,921.16,1079.26,931Z"/><path class="cls-33" d="M1019.43,738.41h58.91a4,4,0,0,1,4,4v.86a4,4,0,0,1-4,4h-58.91a0,0,0,0,1,0,0v-8.84a0,0,0,0,1,0,0Z" transform="translate(-210.04 485.47) rotate(-23.72)"/><path class="cls-34" d="M979.62,773.68l0-.06a42.59,42.59,0,0,1,12.83-14.36c6.15-4.25,7.25-5,19.56-8.1,2.93-.74,7.28-1,8.66-.11,1.11.7.93.92,2.16,4s1.38,3.39,1.52,4.79c.35,3.35-5.59,7.17-10.05,9.5-5.38,2.81-10.32,4.31-19,5.66a36,36,0,0,1-15-.73"/><path class="cls-20" d="M1039.91,761.18c-3.8-6.14-3.73-8.42-7.31-12-.34-.34-5.85-5.44-10-3.45-1.51.72-2,2-2.12,3.67-.26,2.76,2.23,5.63,3.49,7.61a59.73,59.73,0,0,1,8,19.09"/><path class="cls-22" d="M893.3,908.22c-8.43.79-27.62,4.63-41.53,17.18-22.92,20.68-18.6,55.25-9.08,76,3.16,6.91,13.27,28.95,40.66,40.1,6.74,2.74,30.77,8.7,55.36-.07,40.07-14.28,44.45-58.17,44.91-65.69.64-10.78.5-37.17-18.52-53-11.58-9.65-26.64-12.47-35.47-14.13C921.29,907,908.39,906.81,893.3,908.22Z"/><ellipse class="cls-7" cx="909.39" cy="1009.13" rx="20.67" ry="19.46"/><path class="cls-35" d="M915.45,996.89a12.13,12.13,0,0,0-5.83-1.75,12.42,12.42,0,0,0-6.92,2.19c-9.81,6.19-15.84,21.9-15.84,21.9-4.35,11.32-7,22.47-5.07,31.64,2.12,10.28,5,13.32,6.7,15.72,3.16,4.41,10.85,12.27,20,13.32a11.89,11.89,0,0,0,2.29.06c12.06-1,20.61-13.79,22.16-16.4,7.39-12.45,4.21-24.46,2.29-34.56,0,0-1.95-9.72-10.21-22.75A26.61,26.61,0,0,0,915.45,996.89Z"/></g></svg>