<svg id="Layer_1" data-name="Layer 1" xmlns="http://www.w3.org/2000/svg" xmlns:xlink="http://www.w3.org/1999/xlink" viewBox="0 0 2061 1080"><defs><style>.cls-1{fill:none;}.cls-2{clip-path:url(#clip-path);}.cls-3{fill:#735c93;}.cls-4{fill:#c4a5a8;}.cls-5{opacity:0.6;}.cls-6{fill:#7f6ba0;}.cls-14,.cls-7{fill:#fff;}.cls-8{fill:#ffdc8f;}.cls-9{fill:#9eba00;}.cls-10{fill:#00bad9;}.cls-11{fill:#ffc610;}.cls-12{fill:#ff5247;}.cls-13,.cls-17{fill:#a07174;}.cls-13,.cls-14,.cls-15,.cls-19,.cls-20{fill-rule:evenodd;}.cls-15{fill:#432a63;}.cls-16{fill:#6b4b36;}.cls-18{fill:#f4dfd5;}.cls-19{fill:#191415;}.cls-20{fill:#5e3c24;}.cls-21{fill:#745441;}</style><clipPath id="clip-path"><path class="cls-1" d="M1900.34,298.8C1827.9,220.26,1516-70.3,758.46,22.85S-99,573.06,71.17,772.25c180.15,210.54,524.31,362.18,1305,225.46,0,0,180.68-43.11,41.77,40.51-5.41,3.26-54.35,38.81-54.35,38.81C1543,1001.31,2409.26,850.53,1900.34,298.8Z"/></clipPath></defs><title>bully - school scene</title><g class="cls-2"><rect class="cls-3" width="2061" height="1080"/><rect class="cls-4" x="366.93" y="197.52" width="1492.51" height="684.96"/><g class="cls-5"><rect class="cls-6" x="366.93" y="274.87" width="1492.51" height="10.73"/><rect class="cls-6" x="366.93" y="378.77" width="1492.51" height="10.73"/><rect class="cls-6" x="366.93" y="482.68" width="1492.51" height="10.73"/><rect class="cls-6" x="366.93" y="586.59" width="1492.51" height="10.73"/><rect class="cls-6" x="366.93" y="690.49" width="1492.51" height="10.73"/><rect class="cls-6" x="366.93" y="794.4" width="1492.51" height="10.73"/></g><rect class="cls-7" x="731.21" y="529.26" width="458.45" height="292.95"/><polygon class="cls-8" points="836.37 538.25 852.52 548.75 855.61 537.23 836.37 538.25"/><polygon class="cls-9" points="836.37 538.25 842.72 542.38 843.94 537.85 836.37 538.25"/><rect class="cls-9" x="894.33" y="507.52" width="11.93" height="95.72" transform="translate(130.83 1281.25) rotate(-75)"/><rect class="cls-7" x="942.56" y="566.23" width="11.93" height="4.15" transform="translate(154.09 1337.42) rotate(-75)"/><polygon class="cls-8" points="646.21 734.86 631.88 747.74 642.21 753.7 646.21 734.86"/><polygon class="cls-10" points="646.21 734.86 640.57 739.92 644.63 742.27 646.21 734.86"/><rect class="cls-10" x="607.15" y="744.31" width="11.93" height="95.72" transform="translate(478.23 -200.43) rotate(30)"/><rect class="cls-7" x="582.19" y="833.34" width="11.93" height="4.15" transform="translate(496.5 -182.15) rotate(30)"/><polygon class="cls-8" points="603.75 739.82 593.25 755.96 604.77 759.05 603.75 739.82"/><polygon class="cls-11" points="603.75 739.82 599.62 746.16 604.15 747.38 603.75 739.82"/><rect class="cls-11" x="580.66" y="755.88" width="11.93" height="95.72" transform="translate(228.01 -124.44) rotate(15)"/><rect class="cls-7" x="567.73" y="849.89" width="11.93" height="4.15" transform="matrix(0.97, 0.26, -0.26, 0.97, 240.05, -119.45)"/><polygon class="cls-8" points="1166.77 736.13 1170.76 754.98 1181.09 749.01 1166.77 736.13"/><polygon class="cls-12" points="1166.77 736.13 1168.34 743.54 1172.4 741.2 1166.77 736.13"/><rect class="cls-12" x="1193.89" y="745.58" width="11.93" height="95.72" transform="translate(-235.97 706.23) rotate(-30)"/><rect class="cls-7" x="1218.86" y="834.61" width="11.93" height="4.15" transform="translate(-254.25 724.51) rotate(-30)"/><polygon class="cls-8" points="853.03 446.88 861.76 464.05 870.2 455.61 853.03 446.88"/><polygon class="cls-10" points="853.03 446.88 856.46 453.63 859.78 450.31 853.03 446.88"/><rect class="cls-10" x="893.85" y="445.81" width="11.93" height="95.72" transform="translate(-85.53 780.86) rotate(-45)"/><rect class="cls-7" x="929.16" y="526.91" width="11.93" height="4.15" transform="translate(-100.15 816.17) rotate(-45)"/><path class="cls-13" d="M843.36,814.67a151.58,151.58,0,0,1,17.4-17c11.39-9.65,20.57-16.8,36.08-20.86,5.81-1.52,7.07-11,1.17-9.9-16,3.07-29.59,12.38-42.49,23a149.68,149.68,0,0,0-18.6,18c-1.64,1.93-2,4.61-.15,6.58C838.39,816.22,841.71,816.61,843.36,814.67Z"/><path class="cls-13" d="M894.37,779c2.89-.76,6.79-4.25,7.1-6.68-18.32,3.52-30.09,12.14-42.23,20.93a172.86,172.86,0,0,0-21.9,18.34,6.09,6.09,0,0,0-1.82,3.91,5,5,0,0,0,.55.7c1.62,1.69,4.94,2.09,6.58.15a152.49,152.49,0,0,1,17.41-17C871.45,789.77,878.85,783.1,894.37,779Z"/><path class="cls-13" d="M845.19,817.68a168.09,168.09,0,0,1,21.17-16.52c13.68-9.22,29.34-17.29,46.06-19.06,6.6-.69,7.27-10.45.64-10.09-21.15,1.14-36.92,10.31-51.51,20A170.62,170.62,0,0,0,839,809.5c-2,1.93-2.79,4.82-1,7.21C839.55,818.77,843.15,819.6,845.19,817.68Z"/><path class="cls-13" d="M912.4,782.14a5.73,5.73,0,0,0,4.55-3c-17.49,1.42-34.07,9-49,17.94a165.07,165.07,0,0,0-23.31,16.51,5.62,5.62,0,0,0-2.11,5.17,4.08,4.08,0,0,0,2.59-1.07,167.47,167.47,0,0,1,21.18-16.52C880,792,895.68,783.9,912.4,782.14Z"/><path class="cls-13" d="M849.63,832c6.84-5.75,18.14-8.05,25.8-12.61,14.16-8.44,28.5-14,43-16.14,6.56-1,9.83-10.9,3.2-10.57-18,.89-35.11,8.43-50.48,17.33a165.64,165.64,0,0,0-23.54,16.18c-2.15,1.81-6.79,1.94-5.1,4.44C843.94,832.73,847.49,833.76,849.63,832Z"/><path class="cls-13" d="M850.75,821.51a166.83,166.83,0,0,1,22.39-14.81c14.35-8.12,28.21-13.5,43.24-15.76,6.56-1,10.17-10.09,3.54-9.91-18,.48-35.3,7.64-50.86,16.2a164.82,164.82,0,0,0-23.9,15.64c-2.19,1.76-3.16,4.58-1.53,7.12C845,822.16,848.56,823.27,850.75,821.51Z"/><path class="cls-13" d="M908.21,814c-2.88-.33-8.51-.94-14,4.08-3.94,3.63-7.88,2.08-9.83,1a1.14,1.14,0,0,1-.12-1.93c5.33-3.77,10.2-8,13.13-12.48-8.28-4.09-6.67-18.46-24.32-27.21L839.5,805l-12,7.29,14.41,26.58,17.5-7.8,2.27,1.08a13.29,13.29,0,0,0,7,1.24l20.74-1.95a12,12,0,0,0,5.71-2.08l14.75-10.18A3,3,0,0,0,908.21,814Z"/><path class="cls-14" d="M815.43,807.68l19.11-7.24s18.31,11.72,20.51,35.17l-14.67,6.27Z"/><path class="cls-15" d="M825.14,1020.21c-16.31,5.22-32.86-4.12-38.5-19.8-14.86-41.35-43.91-84.94-58.76-126.28-6.15-17.12,5.1-31.73,19.81-38.5C778,821.7,795.75,811.23,826,797.29c0,0,25.28,13,17,50.2-17.8,8.2-28.63,14.85-45.79,23.18-2.73,1.32-5.63,2.7-8.74,4.14l1.46,2.78,52,98.8,3,5.33C850.58,997.41,840.59,1015.26,825.14,1020.21Z"/><path class="cls-15" d="M971.56,1034.43l-120.8,5a66,66,0,0,1-68.69-63.26L782,975a47.67,47.67,0,0,1,45.68-49.6l157.46-6.49a47.68,47.68,0,0,1,49.61,45.68l0,1.14A66,66,0,0,1,971.56,1034.43Z"/><path class="cls-13" d="M979.22,931.84a69.88,69.88,0,1,1-72.7-66.94A69.89,69.89,0,0,1,979.22,931.84Z"/><path class="cls-13" d="M921.7,868c.37,9-6.06,16.59-14.36,16.93s-15.33-6.68-15.7-15.69,6.06-16.58,14.36-16.92S921.33,859,921.7,868Z"/><path class="cls-16" d="M1109.78,878.66c-18.37-35.09-14.14-32.57-24.18-51.58-3.47-6.57-5.41-9-9-17.84-.77-1.89-1.75-6.62,1.87-19.91,4.68-17.17,4.84-18.66,3.19-24.16-.41-1.37-.91-2.87-6.06-10.45-4-5.84-5.65-9.61-8.55-11.6-3.11-2.14-9.66-4.78-28.64-10.29-3.55-1-7.13-2.49-8.45-1-1.55,1.75,1.63,8.54,2.11,9.21,5,7.06,6.54,6,9.43,10.42a3.16,3.16,0,0,1,.57,2.38c-.23.8-.58,1.11-2.28,2a2.4,2.4,0,0,1-3-.83,32.83,32.83,0,0,0-4.16-5.83c-.31-.36-5.85-5.44-10-3.45-1.51.72-2,2-2.12,3.67-.26,2.76,2.23,5.63,3.49,7.61a59.73,59.73,0,0,1,8,19.09c1.06,5.64-.19,3.54.63,13.34.62,7.44.93,11.16,2.71,13.91,2.46,3.83,5.7,5.19,9.43,11.67a14.31,14.31,0,0,1,1.47,2.79c15.06,46.25,14.59,65.2,24,85.81,2.81,6.16,38.78,26,41.8,14.93C1113.24,913.85,1121.62,901.26,1109.78,878.66Z"/><path class="cls-17" d="M1032,776.09c1.06,5.64-.19,3.54.63,13.34.62,7.44.93,11.16,2.71,13.91,2.46,3.83,5.7,5.19,9.43,11.67a14.31,14.31,0,0,1,1.47,2.79c15.06,46.25,14.59,65.2,24,85.81,2.81,6.16,36.88,29.51,39.9,18.43,1.27-4.68,11.56-20.78-.28-43.38-18.37-35.09-14.14-32.57-24.18-51.58-3.47-6.57-5.41-9-9-17.84-.77-1.89-1.75-6.62,1.87-19.91,4.68-17.17,4.84-18.66,3.19-24.16-.41-1.37-3.28-3.63-9.82-9.43-5.48-4.86-10-9.53-17-13.2-3.91-2.06-2.67-2.33-15.77-7.56-3.43-1.37-7.13-2.5-8.44-1-1.55,1.76.87,6.45,1.41,7.07,6.81,7.81,11.28,9.37,20.41,16.81,3.81,3.1,8.08,5.82,8.75,9.94.38,2.28-7.13,4.77-11.66,2.87-4.83-2-7.33-5.76-9.63-9.48"/><path class="cls-15" d="M1120.47,922.63c-.52-5.4-5.15-9.83-9.28-12.85a88.62,88.62,0,0,0-16.44-9.14c-6.29-2.79-12.76-4.57-19.46-2.72-11.45,7.73-57.41,39.26-85.52,65.18-12.26,11.3-20.94,34.26-9.51,45.79,12,12.16,31,11.54,43.28.23,26.59-24.52,60.75-46.33,90-69.89C1117,934,1121,928.36,1120.47,922.63Z"/><path class="cls-14" d="M1087,830l-6.66-17.71a40.15,40.15,0,0,0-34.13,9.78l4.66,14.07Z"/><path class="cls-15" d="M1079.26,931c.88,1.44,1.81,3,2.81,4.52,5.44,6.3,11.75,11.86,19.5,10.73.79-.3,1.59-.59,2.38-.9,17-6.59,20.59-24.67,16-40.2-9.36-32-21.22-56-30.58-88-32.5-3.11-46.91,18.44-46.91,18.44,4.89,16.7,14.36,44,19,57,1.61,4.58,2.63,7.42,2.63,7.42l-.1,0C1070.1,909.8,1073.28,921.16,1079.26,931Z"/><path class="cls-18" d="M1019.43,738.41h58.91a4,4,0,0,1,4,4v.86a4,4,0,0,1-4,4h-58.91a0,0,0,0,1,0,0v-8.84a0,0,0,0,1,0,0Z" transform="translate(-210.04 485.47) rotate(-23.72)"/><path class="cls-19" d="M979.62,773.68l0-.06a42.59,42.59,0,0,1,12.83-14.36c6.15-4.25,7.25-5,19.56-8.1,2.93-.74,7.28-1,8.66-.11,1.11.7.93.92,2.16,4s1.38,3.39,1.52,4.79c.35,3.35-5.59,7.17-10.05,9.5-5.38,2.81-10.32,4.31-19,5.66a36,36,0,0,1-15-.73"/><path class="cls-17" d="M1039.91,761.18c-3.8-6.14-3.73-8.42-7.31-12-.34-.34-5.85-5.44-10-3.45-1.51.72-2,2-2.12,3.67-.26,2.76,2.23,5.63,3.49,7.61a59.73,59.73,0,0,1,8,19.09"/><path class="cls-20" d="M893.3,908.22c-8.43.79-27.62,4.63-41.53,17.18-22.92,20.68-18.6,55.25-9.08,76,3.16,6.91,13.27,28.95,40.66,40.1,6.74,2.74,30.77,8.7,55.36-.07,40.07-14.28,44.45-58.17,44.91-65.69.64-10.78.5-37.17-18.52-53-11.58-9.65-26.64-12.47-35.47-14.13C921.29,907,908.39,906.81,893.3,908.22Z"/><ellipse class="cls-7" cx="909.39" cy="1009.13" rx="20.67" ry="19.46"/><path class="cls-21" d="M915.45,996.89a12.13,12.13,0,0,0-5.83-1.75,12.42,12.42,0,0,0-6.92,2.19c-9.81,6.19-15.84,21.9-15.84,21.9-4.35,11.32-7,22.47-5.07,31.64,2.12,10.28,5,13.32,6.7,15.72,3.16,4.41,10.85,12.27,20,13.32a11.89,11.89,0,0,0,2.29.06c12.06-1,20.61-13.79,22.16-16.4,7.39-12.45,4.21-24.46,2.29-34.56,0,0-1.95-9.72-10.21-22.75A26.61,26.61,0,0,0,915.45,996.89Z"/></g></svg>